<?xml version="1.0" encoding="utf-8"?>
<!-- Generator: Adobe Illustrator 16.0.4, SVG Export Plug-In . SVG Version: 6.00 Build 0)  -->
<!DOCTYPE svg PUBLIC "-//W3C//DTD SVG 1.1//EN" "http://www.w3.org/Graphics/SVG/1.1/DTD/svg11.dtd">
<svg version="1.1" id="圖層_1" xmlns="http://www.w3.org/2000/svg" xmlns:xlink="http://www.w3.org/1999/xlink" x="0px" y="0px"
	 width="800px" height="600px" viewBox="0 0 800 600" enable-background="new 0 0 800 600" xml:space="preserve">
<g>
	<path fill="#785033" d="M369.97,289.842l-12.678-7.826c-0.019-1.835-1.492-3.329-3.335-3.356c-1.872-0.027-3.409,1.47-3.435,3.339
		c-0.026,1.871,1.468,3.408,3.339,3.434c0.444,0.009,0.873-0.075,1.273-0.23l13.439,8.297c-0.387,1.469-0.611,3.012-0.634,4.602
		c-0.021,1.42,0.124,2.806,0.401,4.139l-13.186,6.971c-0.481-0.271-1.034-0.433-1.62-0.44c-1.874-0.023-3.409,1.471-3.436,3.342
		c-0.025,1.869,1.469,3.405,3.34,3.432c1.71,0.023,3.136-1.221,3.389-2.868l12.707-6.711c2.885,6.556,9.388,11.176,17.017,11.278
		c10.43,0.148,18.997-8.184,19.142-18.612c0.146-10.424-8.184-18.999-18.615-19.143C379.632,279.388,373.132,283.616,369.97,289.842
		z"/>
	<g>
		<path fill="#F3B424" d="M419.593,276.827c15.789,0.221,28.463,9.634,28.307,21.023c-0.161,11.384-13.093,20.437-28.885,20.215
			c-15.788-0.218-28.461-9.629-28.304-21.015C390.872,285.66,403.803,276.606,419.593,276.827z"/>
		<g>
			<defs>
				<path id="SVGID_1_" d="M419.593,276.827c15.789,0.221,28.463,9.634,28.307,21.023c-0.161,11.384-13.093,20.437-28.885,20.215
					c-15.788-0.218-28.461-9.629-28.304-21.015C390.872,285.66,403.803,276.606,419.593,276.827z"/>
			</defs>
			<clipPath id="SVGID_2_">
				<use xlink:href="#SVGID_1_"  overflow="visible"/>
			</clipPath>
			<g clip-path="url(#SVGID_2_)">
				
					<rect x="370.643" y="292.56" transform="matrix(0.0139 -0.9999 0.9999 0.0139 97.7458 690.3258)" fill="#785033" width="56.455" height="6.09"/>
				
					<rect x="381.457" y="292.711" transform="matrix(0.0139 -0.9999 0.9999 0.0139 108.2718 701.2966)" fill="#785033" width="56.453" height="6.089"/>
				
					<rect x="392.272" y="292.861" transform="matrix(0.0139 -0.9999 0.9999 0.0139 118.7563 712.2388)" fill="#785033" width="56.451" height="6.092"/>
				
					<rect x="403.085" y="293.012" transform="matrix(0.014 -0.9999 0.9999 0.014 129.2499 723.1862)" fill="#785033" width="56.457" height="6.09"/>
				
					<rect x="413.896" y="293.162" transform="matrix(0.0139 -0.9999 0.9999 0.0139 139.7816 734.1597)" fill="#785033" width="56.457" height="6.091"/>
			</g>
		</g>
	</g>
	<path fill="#7EACD1" d="M420.508,314.175c12.739,13.096,19.419,27.263,14.921,31.638c-4.499,4.381-18.474-2.695-31.215-15.796
		c-12.735-13.097-19.417-27.262-14.917-31.64C393.795,294,407.771,301.072,420.508,314.175z"/>
	<path fill="#7EACD1" d="M420.938,283.509c13.097-12.742,20.169-26.715,15.789-31.216c-4.367-4.5-18.534,2.18-31.638,14.919
		c-13.096,12.736-20.168,26.712-15.795,31.215C393.669,302.925,407.838,296.245,420.938,283.509z"/>
</g>
</svg>
