<svg xmlns="http://www.w3.org/2000/svg" xmlns:xlink="http://www.w3.org/1999/xlink" viewBox="0 0 97.8 96.22"><defs  id="beeDefs"><clipPath id="clip-path" transform="translate(-350.1 -250.89)"><ellipse cx="419.3" cy="297.45" rx="20.62" ry="28.6" transform="translate(116.01 712.54) rotate(-89.2)" style="fill:none"/></clipPath></defs><title>bee</title><g id="bee"><path d="M370,289.84L357.29,282a3.39,3.39,0,1,0-3.43,3.42,3.33,3.33,0,0,0,1.27-.23l13.44,8.3a19.14,19.14,0,0,0-.63,4.6,19,19,0,0,0,.4,4.14l-13.19,7a3.39,3.39,0,1,0,1.67,3.47L369.53,306A18.88,18.88,0,1,0,370,289.84Z" transform="translate(-350.1 -250.89)" style="fill:#785033"/><path d="M419.59,276.83c15.79,0.22,28.46,9.63,28.31,21S434.81,318.29,419,318.07s-28.46-9.63-28.3-21S403.8,276.61,419.59,276.83Z" transform="translate(-350.1 -250.89)" style="fill:#f3b424"/><g style="clip-path:url(#clip-path)"><rect x="370.64" y="292.56" width="56.45" height="6.09" transform="translate(-252.35 439.43) rotate(-89.2)" style="fill:#785033"/><rect x="381.47" y="292.72" width="56.45" height="6.09" transform="translate(-241.84 450.42) rotate(-89.2)" style="fill:#785033"/><rect x="392.25" y="292.85" width="56.45" height="6.09" transform="translate(-231.33 461.33) rotate(-89.2)" style="fill:#785033"/><rect x="403.09" y="293.02" width="56.46" height="6.09" transform="translate(-220.85 472.3) rotate(-89.2)" style="fill:#785033"/><rect x="413.88" y="293.15" width="56.46" height="6.09" transform="translate(-210.31 483.25) rotate(-89.2)" style="fill:#785033"/></g><path d="M420.51,314.17c12.74,13.1,19.42,27.26,14.92,31.64S417,343.12,404.21,330s-19.42-27.26-14.92-31.64S407.77,301.07,420.51,314.17Z" transform="translate(-350.1 -250.89)" style="fill:#7eacd1"/><path d="M420.94,283.51c13.1-12.74,20.17-26.71,15.79-31.22s-18.53,2.18-31.64,14.92-20.17,26.71-15.8,31.21S407.84,296.24,420.94,283.51Z" transform="translate(-350.1 -250.89)" style="fill:#7eacd1"/>
</g>
</svg>
