<?xml version="1.0" encoding="utf-8"?>
<!-- Generator: Adobe Illustrator 16.0.4, SVG Export Plug-In . SVG Version: 6.00 Build 0)  -->
<!DOCTYPE svg PUBLIC "-//W3C//DTD SVG 1.1//EN" "http://www.w3.org/Graphics/SVG/1.1/DTD/svg11.dtd">
<svg version="1.1" id="圖層_1" xmlns="http://www.w3.org/2000/svg" xmlns:xlink="http://www.w3.org/1999/xlink" x="0px" y="0px"
	 width="800px" height="600px" viewBox="0 0 800 600" enable-background="new 0 0 800 600" xml:space="preserve">
<g>
	<g>
		<polygon fill="#00D6D3" points="390,265.755 462.521,350.878 535.043,436 390,436 244.957,436 317.479,350.878 		"/>
		<g>
			<polygon fill="#00D6D3" points="390,265.755 462.521,350.878 535.043,436 390,436 244.957,436 317.479,350.878 			"/>
			<path opacity="0.3" fill="#B3B3B3" d="M245.241,436h289.211L390,266.179C390,266.179,553.559,442,245.241,436z"/>
		</g>
	</g>
	<g>
		<polygon fill="#00D6D3" points="390,199.177 445.963,265.088 501.927,331 390,331 278.073,331 334.037,265.088 		"/>
		<g>
			<polygon fill="#00DDAA" points="390,199.177 445.963,265.088 501.927,331 390,331 278.073,331 334.037,265.088 			"/>
			<path opacity="0.3" fill="#B3B3B3" d="M278.292,331h223.178L390,199.953C390,199.953,516.215,335,278.292,331z"/>
		</g>
	</g>
	<g>
		<polygon fill="#00D6D3" points="390,156.112 426.464,199.056 462.929,242 390,242 317.071,242 353.536,199.056 		"/>
		<g>
			<polygon fill="#00DD77" points="390,156.112 426.464,199.056 462.929,242 390,242 317.071,242 353.536,199.056 			"/>
			<path opacity="0.3" fill="#999999" d="M317.214,242h145.417L390,156.613C390,156.613,472.238,245,317.214,242z"/>
		</g>
	</g>
</g>
</svg>
