<?xml version="1.0" encoding="utf-8"?>
<!-- Generator: Adobe Illustrator 16.0.4, SVG Export Plug-In . SVG Version: 6.00 Build 0)  -->
<!DOCTYPE svg PUBLIC "-//W3C//DTD SVG 1.1//EN" "http://www.w3.org/Graphics/SVG/1.1/DTD/svg11.dtd">
<svg version="1.1" id="圖層_1" xmlns="http://www.w3.org/2000/svg" xmlns:xlink="http://www.w3.org/1999/xlink" x="0px" y="0px"
	 width="800px" height="600px" viewBox="0 0 800 600" enable-background="new 0 0 800 600" xml:space="preserve">
<g>
	
		<rect x="380.123" y="256.466" transform="matrix(0.9996 0.0267 -0.0267 0.9996 7.2719 -10.1213)" fill="#6B2156" width="4.183" height="20.942"/>
	<path fill="#6B2156" d="M388.409,245.612c-0.074,2.993-2.567,5.358-5.563,5.28c-2.992-0.079-5.354-2.575-5.275-5.564
		c0.079-2.996,2.566-5.361,5.563-5.279C386.123,240.127,388.492,242.62,388.409,245.612z"/>
</g>
<g>
	<polygon fill="#6B2156" points="400.777,277.898 396.592,277.79 397.141,256.859 401.33,256.963 	"/>
	<path fill="#6B2156" d="M404.868,246.046c-0.078,2.993-2.563,5.354-5.563,5.275c-2.994-0.075-5.359-2.566-5.277-5.563
		c0.079-2.993,2.567-5.354,5.564-5.275C402.586,240.561,404.951,243.049,404.868,246.046z"/>
</g>
<g>
	
		<rect x="413.613" y="257.35" transform="matrix(0.9997 0.026 -0.026 0.9997 7.1005 -10.7129)" fill="#6B2156" width="4.19" height="20.938"/>
	<path fill="#6B2156" d="M421.326,246.479c-0.078,2.989-2.573,5.358-5.562,5.28c-2.997-0.079-5.354-2.575-5.279-5.567
		c0.078-2.992,2.562-5.354,5.562-5.28C419.04,240.994,421.405,243.482,421.326,246.479z"/>
</g>
<path fill="#E986A1" d="M458.728,285.389c-0.867,32.94-28.277,58.945-61.217,58.078c-32.942-0.866-58.94-28.276-58.081-61.216"/>
<path fill="#EFA834" d="M357.592,240.445c-23.886,22.661-24.992,60.536-2.316,84.445c0.029,0.025-0.045,0.142-0.019,0.173
	l43.483-41.254L357.592,240.445z"/>
<path fill="#CC2B6B" d="M439.918,327.61c23.823-22.691,24.619-60.581,1.955-84.464l-43.204,40.988L439.918,327.61z"/>
<g>
	<path fill="#73BA6A" d="M323.51,308.412c4.27-7.806,24.518-4.95,45.217,6.386c20.703,11.332,34.027,26.846,29.752,34.651"/>
	<path fill="#2C8744" d="M398.853,348.769c-4.304,7.857-24.578,5.044-45.277-6.288s-33.993-26.89-29.696-34.752"/>
</g>
<g>
	<path fill="#73BA6A" d="M476.616,313.538c-3.852-8.018-24.222-6.228-45.492,4.002c-21.271,10.23-35.388,25.019-31.528,33.037"/>
	<path fill="#2C8744" d="M399.264,349.875c3.878,8.077,24.271,6.329,45.538-3.897c21.271-10.228,35.364-25.067,31.481-33.137"/>
</g>
<path opacity="0.3" fill="#999999" d="M386.848,339.227c10.855,10.855,34.851,4.461,53.595-14.283s25.139-42.74,14.283-53.596"/>
<path opacity="0.3" fill="#999999" d="M413.014,341.227c-10.855,10.855-34.851,4.461-53.595-14.283s-25.139-42.74-14.283-53.596"/>
</svg>
