<?xml version="1.0" encoding="utf-8"?>
<!-- Generator: Adobe Illustrator 16.0.4, SVG Export Plug-In . SVG Version: 6.00 Build 0)  -->
<!DOCTYPE svg PUBLIC "-//W3C//DTD SVG 1.1//EN" "http://www.w3.org/Graphics/SVG/1.1/DTD/svg11.dtd">
<svg version="1.1" xmlns="http://www.w3.org/2000/svg" xmlns:xlink="http://www.w3.org/1999/xlink" x="0px" y="0px" width="1024px"
	 height="768px" viewBox="0 0 1024 768" enable-background="new 0 0 1024 768" xml:space="preserve">
<g id="圖層_1" display="none">
	
		<image display="inline" overflow="visible" width="1140" height="434" xlink:href="../../螢幕快照 2015-12-23 下午2.55.56.png"  transform="matrix(0.3339 0 0 0.3339 -405.1577 169.5547)">
	</image>
	<g display="inline">
		<g>
			<path fill="#EAC247" d="M768.535,341.394l-520.8,0.542c-23.531,0.021-42.584,19.118-42.56,42.647
				c0.024,23.531,19.118,42.584,42.648,42.56l520.796-0.539c0.932-0.001,1.844-0.086,2.752-0.141l-0.092-84.933
				C770.369,341.475,769.465,341.395,768.535,341.394z"/>
			<path fill="#DD8026" d="M768.592,396.961l-520.8,0.542c-23.53,0.021-42.599,4.896-42.591,10.888
				c0.005,5.991,19.084,10.823,42.613,10.8l520.803-0.541c0.922-0.001,1.832-0.022,2.742-0.041l-0.018-21.613
				C770.424,396.982,769.52,396.961,768.592,396.961z"/>
			<path fill="#DD8026" d="M768.545,351.287l-520.801,0.537c-23.529,0.027-42.599,4.903-42.593,10.891
				c0.008,5.989,19.086,10.824,42.615,10.797l520.797-0.537c0.932-0.002,1.836-0.023,2.754-0.038l-0.021-21.619
				C770.381,351.309,769.471,351.285,768.545,351.287z"/>
			
				<rect x="171.334" y="344.087" transform="matrix(1 -0.001 0.001 1 -0.3946 0.2083)" fill="#DC8097" width="62.791" height="80.828"/>
			<polygon fill="#F5F3CE" points="769.297,340.5 853.027,383.914 769.381,427.5 			"/>
			<polygon fill="#717071" points="815.672,364.975 852.203,383.913 815.709,402.923 			"/>
		</g>
		<path opacity="0.3" fill="#999999" d="M698.907,419H769v-76.426C769,342.574,767.434,414,698.907,419z"/>
		<rect x="233" y="418" opacity="0.3" fill="#999999" width="536" height="8"/>
		<path opacity="0.3" fill="#999999" d="M170.973,423H234v-78.642C234,344.358,233.27,419,170.973,423z"/>
	</g>
</g>
<g id="圖層_2" display="none">
	<polygon display="inline" fill="#00D6D3" points="512,299.017 560.897,384.009 609.795,469 512,469 414.205,469 463.103,384.009 	
		"/>
	<path display="inline" opacity="0.3" fill="#B3B3B3" d="M414.396,469h195L512,299.18C512,299.18,622.279,475,414.396,469z"/>
</g>
<g id="圖層_3" display="none">
	<g display="inline">
		<polygon fill="#00D6D3" points="512,299.017 584.521,384.009 657.043,469 512,469 366.957,469 439.479,384.009 		"/>
		<g>
			<polygon fill="#00D6D3" points="512,299.017 584.521,384.009 657.043,469 512,469 366.957,469 439.479,384.009 			"/>
			<path opacity="0.3" fill="#B3B3B3" d="M367.241,469h289.211L512,299.18C512,299.18,675.559,475,367.241,469z"/>
		</g>
	</g>
</g>
<g id="圖層_4" display="none">
	<g display="inline">
		<polygon fill="#00D6D3" points="512,318.439 567.963,384.22 623.927,450 512,450 400.073,450 456.037,384.22 		"/>
		<g>
			<polygon fill="#00DDAA" points="512,318.439 567.963,384.22 623.927,450 512,450 400.073,450 456.037,384.22 			"/>
			<path opacity="0.3" fill="#B3B3B3" d="M400.292,450h223.178L512,318.953C512,318.953,638.215,454,400.292,450z"/>
		</g>
	</g>
</g>
<g id="圖層_5" display="none">
	<g display="inline">
		<polygon fill="#00D6D3" points="512,341.374 548.464,384.187 584.929,427 512,427 439.071,427 475.536,384.187 		"/>
		<g>
			<polygon fill="#00DD77" points="512,341.374 548.464,384.187 584.929,427 512,427 439.071,427 475.536,384.187 			"/>
			<path opacity="0.3" fill="#999999" d="M439.214,427h145.417L512,341.613C512,341.613,594.238,430,439.214,427z"/>
		</g>
	</g>
</g>
<g id="圖層_7" display="none">
	<g display="inline">
		
			<rect x="691.999" y="287" transform="matrix(0.6358 0.7719 -0.7719 0.6358 507.1911 -420.8278)" fill="#A27A51" width="15.001" height="80"/>
		
			<rect x="699.456" y="290.79" transform="matrix(0.636 0.7717 -0.7717 0.636 510.9346 -421.5359)" opacity="0.3" fill="#999999" width="5.625" height="80"/>
		<ellipse fill="#A27A51" cx="852.786" cy="393.5" rx="20.786" ry="55.5"/>
		<path fill="#A27A51" d="M171,338v0.015c-0.072-0.002-0.143-0.015-0.215-0.015C159.306,338,150,362.848,150,393.5
			c0,30.651,9.306,55.5,20.785,55.5c0.072,0,0.143-0.013,0.215-0.015V449h682V338H171z"/>
		<ellipse fill="#C1996C" cx="852.786" cy="393.5" rx="20.786" ry="55.5"/>
		<ellipse fill="#A27A51" cx="852.786" cy="393.5" rx="14.786" ry="39.479"/>
		<ellipse fill="#C1996C" cx="852.786" cy="393.5" rx="8.093" ry="21.608"/>
		<ellipse fill="#A27A51" cx="852.786" cy="393.5" rx="4.125" ry="11.013"/>
		<path fill="#736357" d="M791,357c0-1.657-1.343-3-3-3H170c-1.657,0-3,1.343-3,3l0,0c0,1.657,1.343,3,3,3h618
			C789.657,360,791,358.657,791,357L791,357z"/>
		<path fill="#736357" d="M815.594,410c0-2.353-0.654-4-1.46-4H513.459c-0.806,0-1.459,1.647-1.459,4l0,0c0,2.353,0.653,4,1.459,4
			h300.675C814.939,414,815.594,412.353,815.594,410L815.594,410z"/>
		<path fill="#736357" d="M324.38,410c0-2.353-0.363-4-0.81-4H156.809c-0.447,0-0.809,1.647-0.809,4l0,0c0,2.353,0.362,4,0.809,4
			H323.57C324.017,414,324.38,412.353,324.38,410L324.38,410z"/>
		<path fill="#736357" d="M462.405,410c0-2.353-0.197-4-0.44-4h-90.525c-0.243,0-0.439,1.647-0.439,4l0,0c0,2.353,0.197,4,0.439,4
			h90.525C462.208,414,462.405,412.353,462.405,410L462.405,410z"/>
		<path fill="#736357" d="M352,369.5c0-1.339-0.422-2.5-0.944-2.5H156.6c-0.521,0-0.944,1.161-0.944,2.5l0,0
			c0,1.339,0.423,2.5,0.944,2.5h194.456C351.578,372,352,370.839,352,369.5L352,369.5z"/>
		<path fill="#736357" d="M816.537,369.5c0-1.339-0.887-2.5-1.983-2.5H405.642c-1.097,0-1.986,1.161-1.986,2.5l0,0
			c0,1.339,0.889,2.5,1.986,2.5h408.912C815.65,372,816.537,370.839,816.537,369.5L816.537,369.5z"/>
		<path fill="#736357" d="M581.047,434.5c0-1.523-0.86-2.5-1.919-2.5h-395.21c-1.059,0-1.917,0.977-1.917,2.5l0,0
			c0,1.523,0.859,2.5,1.917,2.5h395.21C580.187,437,581.047,436.023,581.047,434.5L581.047,434.5z"/>
		<path opacity="0.3" fill="#999999" d="M832,405c0,0,2.998,39.913,20.785,44s20.397-40.5,20.592-48s-4.021-41-4.021-41L832,405z"/>
		<path opacity="0.3" fill="#999999" d="M832,405c0,0,0.57,37,20.785,44s-682.215,0-682,0S794.645,450,832,405z"/>
	</g>
</g>
<g id="圖層_8" display="none">
	<g display="inline">
		<g>
			
				<rect x="492.123" y="344.466" transform="matrix(0.9996 0.0267 -0.0267 0.9996 9.6642 -13.0837)" fill="#6B2156" width="4.183" height="20.942"/>
			<path fill="#6B2156" d="M500.409,333.612c-0.074,2.993-2.567,5.358-5.563,5.28c-2.992-0.079-5.354-2.575-5.275-5.564
				c0.079-2.996,2.566-5.361,5.563-5.279C498.123,328.127,500.492,330.62,500.409,333.612z"/>
		</g>
		<g>
			<polygon fill="#6B2156" points="512.777,365.898 508.592,365.79 509.141,344.859 513.33,344.963 			"/>
			<path fill="#6B2156" d="M516.868,334.046c-0.078,2.993-2.563,5.354-5.563,5.275c-2.994-0.075-5.359-2.566-5.277-5.563
				c0.079-2.993,2.567-5.354,5.564-5.275C514.586,328.561,516.951,331.049,516.868,334.046z"/>
		</g>
		<g>
			
				<rect x="525.613" y="345.35" transform="matrix(0.9997 0.026 -0.026 0.9997 9.4252 -13.5939)" fill="#6B2156" width="4.19" height="20.938"/>
			<path fill="#6B2156" d="M533.326,334.479c-0.078,2.989-2.573,5.358-5.562,5.28c-2.997-0.079-5.354-2.575-5.279-5.567
				c0.078-2.992,2.562-5.354,5.562-5.28C531.04,328.994,533.405,331.482,533.326,334.479z"/>
		</g>
		<path fill="#E986A1" d="M570.728,373.389c-0.867,32.94-28.277,58.945-61.217,58.078c-32.942-0.866-58.94-28.276-58.081-61.216"/>
		<path fill="#EFA834" d="M469.592,328.445c-23.886,22.661-24.992,60.536-2.316,84.445c0.029,0.025-0.045,0.142-0.019,0.173
			l43.483-41.254L469.592,328.445z"/>
		<path fill="#CC2B6B" d="M551.918,415.61c23.823-22.691,24.619-60.581,1.955-84.464l-43.204,40.988L551.918,415.61z"/>
		<g>
			<path fill="#73BA6A" d="M435.51,396.412c4.27-7.806,24.518-4.95,45.217,6.386c20.703,11.332,34.027,26.846,29.752,34.651"/>
			<path fill="#2C8744" d="M510.853,436.769c-4.304,7.857-24.578,5.044-45.277-6.288s-33.993-26.89-29.696-34.752"/>
		</g>
		<g>
			<path fill="#73BA6A" d="M588.616,401.538c-3.852-8.018-24.222-6.228-45.492,4.002c-21.271,10.23-35.388,25.019-31.528,33.037"/>
			<path fill="#2C8744" d="M511.264,437.875c3.878,8.077,24.271,6.329,45.538-3.897c21.271-10.228,35.364-25.067,31.481-33.137"/>
		</g>
		<path opacity="0.3" fill="#999999" d="M498.848,427.227c10.855,10.855,34.851,4.461,53.595-14.283s25.139-42.74,14.283-53.596"/>
		<path opacity="0.3" fill="#999999" d="M525.014,429.227c-10.855,10.855-34.851,4.461-53.595-14.283s-25.139-42.74-14.283-53.596"
			/>
	</g>
</g>
<g id="圖層_9" display="none">
	<g display="inline">
		<path fill="#785033" d="M482.97,374.842l-12.678-7.826c-0.019-1.835-1.492-3.329-3.335-3.356c-1.872-0.027-3.409,1.47-3.435,3.339
			c-0.026,1.871,1.468,3.408,3.339,3.434c0.444,0.009,0.873-0.075,1.273-0.23l13.439,8.297c-0.387,1.469-0.611,3.012-0.634,4.602
			c-0.021,1.42,0.124,2.806,0.401,4.139l-13.186,6.971c-0.481-0.271-1.034-0.433-1.62-0.44c-1.874-0.023-3.409,1.471-3.436,3.342
			c-0.025,1.869,1.469,3.405,3.34,3.432c1.71,0.023,3.136-1.221,3.389-2.868l12.707-6.711c2.885,6.556,9.388,11.176,17.017,11.278
			c10.43,0.148,18.997-8.184,19.142-18.612c0.146-10.424-8.184-18.999-18.615-19.143
			C492.632,364.388,486.132,368.616,482.97,374.842z"/>
		<g>
			<path fill="#F3B424" d="M532.593,361.827c15.789,0.221,28.463,9.634,28.307,21.023c-0.161,11.384-13.093,20.437-28.885,20.215
				c-15.788-0.218-28.461-9.629-28.304-21.015C503.872,370.66,516.803,361.606,532.593,361.827z"/>
			<g>
				<defs>
					<path id="SVGID_1_" d="M532.593,361.827c15.789,0.221,28.463,9.634,28.307,21.023c-0.161,11.384-13.093,20.437-28.885,20.215
						c-15.788-0.218-28.461-9.629-28.304-21.015C503.872,370.66,516.803,361.606,532.593,361.827z"/>
				</defs>
				<clipPath id="SVGID_2_">
					<use xlink:href="#SVGID_1_"  overflow="visible"/>
				</clipPath>
				<g clip-path="url(#SVGID_2_)">
					
						<rect x="483.643" y="377.56" transform="matrix(0.0139 -0.9999 0.9999 0.0139 124.1825 887.1327)" fill="#785033" width="56.455" height="6.09"/>
					
						<rect x="494.457" y="377.711" transform="matrix(0.0139 -0.9999 0.9999 0.0139 134.7122 898.1065)" fill="#785033" width="56.453" height="6.089"/>
					
						<rect x="505.272" y="377.861" transform="matrix(0.0139 -0.9999 0.9999 0.0139 145.1889 909.0426)" fill="#785033" width="56.451" height="6.092"/>
					
						<rect x="516.085" y="378.012" transform="matrix(0.014 -0.9999 0.9999 0.014 155.677 919.9857)" fill="#785033" width="56.457" height="6.09"/>
					
						<rect x="526.896" y="378.162" transform="matrix(0.0139 -0.9999 0.9999 0.0139 166.2144 930.9636)" fill="#785033" width="56.457" height="6.091"/>
				</g>
			</g>
		</g>
		<path fill="#7EACD1" d="M533.508,399.175c12.739,13.096,19.419,27.263,14.921,31.638c-4.499,4.381-18.474-2.695-31.215-15.796
			c-12.735-13.097-19.417-27.262-14.917-31.64C506.795,379,520.771,386.072,533.508,399.175z"/>
		<path fill="#7EACD1" d="M533.938,368.509c13.097-12.742,20.169-26.715,15.789-31.216c-4.367-4.5-18.534,2.18-31.638,14.919
			c-13.096,12.736-20.168,26.712-15.795,31.215C506.669,387.925,520.838,381.245,533.938,368.509z"/>
	</g>
</g>
<g id="圖層_10" display="none">
	<g display="inline">
		<path fill-rule="evenodd" clip-rule="evenodd" fill="#7EACD1" d="M512,309.952c13.778,24.323,32.07,61.949,36.464,83.855
			c4.164,20.759-0.586,54.597-23.992,62.607c-7.179,2.457-16.883,1.898-24.131-0.068c-28.021-7.604-29.268-43.588-23.195-67.136
			C482.44,368.679,497.856,332.802,512,309.952z"/>
		<path opacity="0.3" fill-rule="evenodd" clip-rule="evenodd" fill="#F2F2F2" d="M512.188,310.041
			c-0.302,1.668,3.873,6.792,4.664,8.304c1.866,3.57,3.615,7.187,5.308,10.824c3.499,7.512,6.716,15.125,10.09,22.682
			c5.969,13.373,13.046,27.522,11.938,42.252c-0.627,8.334-5.252,27.577-15.968,30.824c-8.308,2.516-13.742-6.708-16.103-12.197
			c-4.231-9.853-1.041-20.373,1.042-30.28c2.11-10.047,2.627-20.208,1.234-30.365C512.48,338.141,509.652,324.077,512.188,310.041z"
			/>
		<ellipse opacity="0.3" fill="#F2F2F2" cx="511.802" cy="449.798" rx="14.225" ry="7.025"/>
	</g>
</g>
<g id="圖層_11" display="none">
	<g display="inline">
		<polygon fill="#A27A51" points="500.817,319.434 492.585,323.248 456.426,298.557 464.659,294.744 		"/>
		<polygon opacity="0.3" fill="#999999" points="500.938,319.519 497.853,320.949 461.693,296.258 464.78,294.829 		"/>
		<ellipse fill="#A27A51" cx="525.902" cy="247.708" rx="39.46" ry="8.311"/>
		<path fill="#A27A51" d="M486,520h0.453c-0.001,0-0.011,0.207-0.011,0.236c0,4.59,17.667,8.384,39.46,8.384
			s39.46-3.831,39.46-8.421c0-0.029-0.009-0.199-0.01-0.199H565V248h-79V520z"/>
		<ellipse fill="#C1996C" cx="525.902" cy="247.708" rx="39.46" ry="8.311"/>
		<ellipse fill="#A27A51" cx="525.902" cy="247.709" rx="28.07" ry="5.912"/>
		<ellipse fill="#C1996C" cx="525.902" cy="247.709" rx="15.363" ry="3.236"/>
		<ellipse fill="#A27A51" cx="525.902" cy="247.708" rx="7.83" ry="1.649"/>
		<path fill="#736357" d="M502,273.534c0-0.621-0.896-1.125-2-1.125l0,0c-1.104,0-2,0.504-2,1.125v247.429
			c0,0.621,0.896,1.125,2,1.125l0,0c1.104,0,2-0.504,2-1.125V273.534z"/>
		<path fill="#736357" d="M537.5,262.579c-1.672,0-2.5,0.262-2.5,0.584v120.216c0,0.322,0.828,0.583,2.5,0.583l0,0
			c1.672,0,2.5-0.261,2.5-0.583V263.163C540,262.84,539.172,262.579,537.5,262.579L537.5,262.579z"/>
		<path fill="#736357" d="M537.5,458.977c-1.672,0-2.5,0.145-2.5,0.322v66.676c0,0.178,0.828,0.322,2.5,0.322l0,0
			c1.672,0,2.5-0.145,2.5-0.322v-66.676C540,459.121,539.172,458.977,537.5,458.977L537.5,458.977z"/>
		<path fill="#736357" d="M537.5,403.791c-1.672,0-2.5,0.078-2.5,0.176v36.193c0,0.098,0.828,0.176,2.5,0.176l0,0
			c1.672,0,2.5-0.078,2.5-0.176v-36.193C540,403.869,539.172,403.791,537.5,403.791L537.5,403.791z"/>
		<path fill="#736357" d="M509,447.934c-0.952,0-2,0.168-2,0.377v77.746c0,0.209,1.048,0.379,2,0.379l0,0c0.952,0,2-0.17,2-0.379
			v-77.746C511,448.102,509.952,447.934,509,447.934L509,447.934z"/>
		<path fill="#736357" d="M509,262.202c-0.952,0-2,0.354-2,0.793v163.492c0,0.438,1.048,0.793,2,0.793l0,0c0.952,0,2-0.355,2-0.793
			V262.995C511,262.556,509.952,262.202,509,262.202L509,262.202z"/>
		<path fill="#736357" d="M555,356.355c-1.083,0-2,0.345-2,0.768v158.012c0,0.424,0.917,0.768,2,0.768l0,0c1.083,0,2-0.344,2-0.768
			V357.123C557,356.7,556.083,356.355,555,356.355L555,356.355z"/>
		<path opacity="0.3" fill="#999999" d="M534.079,256.019c0,0,28.378-1.198,31.283-8.31c2.906-7.112-28.795-8.155-34.127-8.233
			c-5.333-0.078-29.151,1.608-29.151,1.608L534.079,256.019z"/>
		<path opacity="0.3" fill="#999999" d="M534.079,256.019c0,0,26.307-0.228,31.283-8.31c4.978-8.083,0,272.763,0,272.677
			S566.074,270.955,534.079,256.019z"/>
	</g>
</g>
<g id="圖層_12" display="none">
	<g display="inline">
		<polygon fill="#6EAC66" points="512,298.934 560.897,383.967 609.795,469 512,469 414.205,469 463.103,383.967 		"/>
		<path opacity="0.3" fill="#B3B3B3" d="M414.5,469h195l-97.396-169.819C512.104,299.181,622.383,475,414.5,469z"/>
	</g>
</g>
<g id="圖層_13" display="none">
	<g display="inline">
		<polygon fill="#00D6D3" points="512,299.017 584.521,384.009 657.043,469 512,469 366.957,469 439.479,384.009 		"/>
		<polygon fill="#6EAC66" points="512,299.017 584.521,384.009 657.043,469 512,469 366.957,469 439.479,384.009 		"/>
		<path opacity="0.3" fill="#B3B3B3" d="M367.241,469h289.211L512,299.18C512,299.18,675.559,475,367.241,469z"/>
	</g>
</g>
<g id="圖層_14" display="none">
	<g display="inline">
		<polygon fill="#00D6D3" points="512,318.439 567.963,384.22 623.927,450 512,450 400.073,450 456.037,384.22 		"/>
		<polygon fill="#6EAC66" points="512,318.439 567.963,384.22 623.927,450 512,450 400.073,450 456.037,384.22 		"/>
		<path opacity="0.3" fill="#B3B3B3" d="M400.292,450h223.178L512,318.953C512,318.953,638.215,454,400.292,450z"/>
	</g>
</g>
<g id="圖層_15" display="none">
	<g display="inline">
		<polygon fill="#00D6D3" points="512,341.374 548.464,384.187 584.929,427 512,427 439.071,427 475.536,384.187 		"/>
		<polygon fill="#6EAC66" points="512,341.374 548.464,384.187 584.929,427 512,427 439.071,427 475.536,384.187 		"/>
		<path opacity="0.3" fill="#B3B3B3" d="M439.214,427h145.417L512,341.613C512,341.613,594.238,430,439.214,427z"/>
	</g>
</g>
<g id="圖層_16" display="none">
	<g display="inline">
		<polygon fill="#00D6D3" points="512,353.755 584.521,438.878 657.043,524 512,524 366.957,524 439.479,438.878 		"/>
		<polygon fill="#00D6D3" points="512,353.755 584.521,438.878 657.043,524 512,524 366.957,524 439.479,438.878 		"/>
		<path opacity="0.3" fill="#B3B3B3" d="M367.241,524h289.211L512,354.179C512,354.179,675.559,530,367.241,524z"/>
		<polygon fill="#00D6D3" points="512,287.177 567.963,353.088 623.927,419 512,419 400.073,419 456.037,353.088 		"/>
		<polygon fill="#00DDAA" points="512,287.177 567.963,353.088 623.927,419 512,419 400.073,419 456.037,353.088 		"/>
		<path opacity="0.3" fill="#B3B3B3" d="M400.292,419h223.178L512,287.953C512,287.953,638.215,423,400.292,419z"/>
		<g>
			<polygon fill="#00D6D3" points="512,244.112 548.464,287.056 584.929,330 512,330 439.071,330 475.536,287.056 			"/>
			<g>
				<polygon fill="#00DD77" points="512,244.112 548.464,287.056 584.929,330 512,330 439.071,330 475.536,287.056 				"/>
				<path opacity="0.3" fill="#999999" d="M439.214,330h145.417L512,244.613C512,244.613,594.238,333,439.214,330z"/>
			</g>
		</g>
		<polygon fill="#00D6D3" points="512,353.755 584.521,438.878 657.043,524 512,524 366.957,524 439.479,438.878 		"/>
		<polygon fill="#6EAC66" points="512,353.755 584.521,438.878 657.043,524 512,524 366.957,524 439.479,438.878 		"/>
		<path opacity="0.3" fill="#B3B3B3" d="M367.241,524h289.211L512,354.179C512,354.179,675.559,530,367.241,524z"/>
		<polygon fill="#00D6D3" points="512,287.177 567.963,353.088 623.927,419 512,419 400.073,419 456.037,353.088 		"/>
		<polygon fill="#6EAC66" points="512,287.177 567.963,353.088 623.927,419 512,419 400.073,419 456.037,353.088 		"/>
		<path opacity="0.3" fill="#B3B3B3" d="M400.292,419h223.178L512,287.953C512,287.953,638.215,423,400.292,419z"/>
		<polygon fill="#00D6D3" points="512,244.112 548.464,287.056 584.929,330 512,330 439.071,330 475.536,287.056 		"/>
		<polygon fill="#6EAC66" points="512,244.112 548.464,287.056 584.929,330 512,330 439.071,330 475.536,287.056 		"/>
		<path opacity="0.3" fill="#B3B3B3" d="M439.214,330h145.417L512,244.613C512,244.613,594.238,333,439.214,330z"/>
	</g>
</g>
<g id="圖層_17" display="none">
	<g display="inline">
		<path fill-rule="evenodd" clip-rule="evenodd" fill="#FFFFFF" stroke="#E6E6E6" stroke-miterlimit="10" d="M465.824,399.95
			c-3.19-5.802,5.825-19.383,8.101-24.471c5.009-11.156,10.032-22.33,14.994-33.523c1.922-4.36,5.027-6.366,9.822-6.282
			c8.921,0.126,17.863,0.187,26.785-0.037c5.471-0.145,8.777,2.108,10.955,7.094c6.846,15.67,13.963,31.205,20.902,46.824
			c0.729,1.637,1.278,3.456,1.437,5.237c0.299,3.466-1.464,6.188-4.286,7.215c-2.882,1.04-6.361,0.037-8.361-2.611
			c-0.896-1.181-1.586-2.552-2.201-3.918c-3.797-8.423-7.542-16.883-11.314-25.315c-0.443-0.998-0.952-1.977-1.428-2.961
			c-0.634,1.376-0.699,2.532-0.62,3.698c0.77,11.912,1.576,23.823,2.355,35.734c0.051,0.854,0.345,2.191-0.07,2.49
			c-2.7,1.94-1.608,4.691-1.651,7.107c-0.125,7.635-0.046,15.265-0.046,22.913c0,9.458-0.005,18.931-0.005,28.397
			c0,3.116-0.457,6.077-3.307,7.966c-2.509,1.67-5.229,1.992-7.942,0.499c-2.789-1.524-4.123-3.875-4.113-7.116
			c0.046-18.721-0.023-37.432,0.084-56.157c0.019-2.766-1.371-2.9-3.405-2.816c-1.908,0.074-4.057-0.467-3.768,2.742
			c0.182,2.136,0.037,4.3,0.037,6.454c0,16.566,0.019,33.137-0.009,49.702c0,3.95-2.062,6.758-5.513,7.784
			c-3.162,0.951-6.833-0.149-8.409-3.148c-0.989-1.889-1.404-4.271-1.413-6.45c-0.103-17.75-0.047-35.515-0.065-53.251
			c0-1.067,0.177-2.808-0.336-3.073c-2.971-1.562-1.721-4.085-1.585-6.222c0.406-6.445,1.044-12.872,1.516-19.303
			c0.406-5.625,0.713-11.254,1.054-16.874c-1.157,0.952-1.772,2.029-2.271,3.167c-3.643,8.143-7.275,16.291-10.876,24.442
			c-2.234,5.065-9.271,10.121-14.317,5.047C466.257,400.631,466.019,400.305,465.824,399.95z"/>
		<path fill-rule="evenodd" clip-rule="evenodd" fill="#FFFFFF" stroke="#E6E6E6" stroke-miterlimit="10" d="M512.778,291.037
			c-11.366-0.051-20.586,9.01-20.707,20.362c-0.13,11.473,9.123,20.753,20.651,20.716c11.455-0.047,20.447-9.043,20.512-20.511
			C533.295,300.262,524.177,291.098,512.778,291.037z"/>
	</g>
</g>
<g id="圖層_18">
	<g>
		<path fill-rule="evenodd" clip-rule="evenodd" fill="#FFFFFF" stroke="#FFFFFF" stroke-width="2" stroke-miterlimit="10" d="
			M629.425,384c0,64.86-52.561,117.425-117.424,117.425c-64.846,0-117.425-52.564-117.425-117.425
			c0-64.846,52.579-117.425,117.425-117.425C576.864,266.575,629.425,319.154,629.425,384z"/>
		<g>
			<path fill-rule="evenodd" clip-rule="evenodd" fill="#FFFFFF" stroke="#FFFFFF" stroke-miterlimit="10" d="M511.977,378.292
				c-9.577-0.009-19.139,0-28.706-0.009c-2.676,0-2.731-0.06-2.731-2.736c0.014-10.778,0.023-21.546,0.023-32.325
				c0-16.059,9.656-28.207,25.283-31.803c15.433-3.549,32.629,7.055,36.244,22.476c0.685,2.938,1.088,6.003,1.122,9.021
				c0.14,11.06,0.026,22.111,0.098,33.169c0.019,1.878-0.784,2.244-2.422,2.239C531.244,378.268,521.609,378.292,511.977,378.292z"
				/>
			<path fill-rule="evenodd" clip-rule="evenodd" fill="#FFFFFF" stroke="#FFFFFF" stroke-miterlimit="10" d="M512.037,395.543
				c9.643,0,19.273,0.009,28.922,0c1.083,0,2.276-0.126,2.279,1.455c0.034,7.074,0.457,14.168-2.576,20.903
				c-5.524,12.229-17.814,19.683-31.112,18.701c-13.257-0.981-24.636-10.13-27.729-23.203c-1.244-5.225-0.921-10.806-1.258-16.237
				c-0.108-1.68,1.164-1.638,2.342-1.638c8.862,0,17.725,0,26.582,0.009c0.85,0,1.7,0,2.55,0
				C512.037,395.533,512.037,395.533,512.037,395.543z"/>
			<path fill-rule="evenodd" clip-rule="evenodd" fill="#FFFFFF" stroke="#FFFFFF" stroke-miterlimit="10" d="M477.578,390.862
				c-0.967,0.32-1.953,0.634-3.323,1.085c0.056-0.173-0.155,0.149-0.146,0.451c0.216,7.003-0.141,14.087,0.826,20.978
				c1.938,14.007,14.27,26.541,28.104,29.536c0.766,0.154,1.601,0.216,2.239,0.582c0.517,0.301,0.771,1.009,1.146,1.53
				c-0.582,0.366-1.253,1.141-1.737,1.036c-2.614-0.59-5.266-1.182-7.754-2.168c-15.533-6.145-25.452-20.768-25.687-37.703
				c-0.065-4.263-0.023-8.51-0.009-12.759c0-1.389-0.263-1.742-1.967-2.014c-1.737-0.287-3.338-2.22-4.662-3.736
				c-0.328-0.381,0.389-2.01,0.967-2.84c1.919-2.718,2.417-2.667,5.379-1.634c1.131,0.39,2.582-0.071,3.863-0.235
				c0.53-0.065,1.084-0.619,1.544-0.53c4.215,0.803,8.421-0.258,12.646-0.009c4.314,0.244,8.651,0.047,12.97,0.047
				c4.399,0,8.798,0,13.187,0c4.323,0,8.641,0,12.964,0c4.329,0,8.657-0.047,12.976,0.022c1.235,0.024,2.46,0.38,3.69,0.588
				c0.061,0.014,0.155,0.117,0.179,0.093c2.979-2.097,6.332,2.137,9.407-0.553c0.401-0.352,2.332,0.437,3.032,1.183
				c0.976,1.028,2.629,2.042,1.876,3.915c-0.887,2.206-3.36,3.952-5.275,3.727c-1.724-0.191-1.438,1.062-1.445,1.935
				c-0.061,3.971-0.101,7.942-0.024,11.908c0.15,7.403-1.511,14.36-5.215,20.763c-6.107,10.591-15.191,17.162-27.086,19.894
				c-0.078,0.006-0.142,0.029-0.212,0.038c-1.05,0.164-2.251,0.563-2.534-1.014c-0.258-1.427,0.952-1.437,1.873-1.78
				c3.83-1.416,7.933-2.394,11.427-4.421c11.532-6.699,17.833-16.969,18.888-30.25c0.415-5.219,0.107-10.481,0.118-15.729
				c0-0.403-0.142-0.812-0.149-0.864c-1.514-0.437-2.783-1.022-4.09-1.106c-1.196-0.08-2.421,0.567-3.639,0.577
				c-6.951,0.06-13.898,0.027-20.837,0.027c-13.11,0-26.23,0.023-39.336-0.014c-1.413-0.01-2.826-0.319-4.234-0.493
				c-0.174-2.539-0.352-5.084-0.531-7.619c-0.371-0.06-0.736-0.117-1.107-0.178c-0.648,2.432-0.211,5.047-0.268,7.736
				C476.343,390.862,476.962,390.862,477.578,390.862z M469.606,390.723c0-2.492,0-4.963,0-7.431
				c-1.694,0.108-1.882,0.685-1.558,5.624C468.1,389.638,467.569,391.394,469.606,390.723z M548.226,383.343
				c-1.873,0-1.889,0-1.509,6.36c0.034,0.475,0.619,0.921,0.955,1.371c0.179-0.126,0.375-0.258,0.554-0.39
				C548.226,388.243,548.226,385.793,548.226,383.343z M554.225,383.272c0,2.583,0,4.995,0,7.417
				c0.205,0.104,0.417,0.196,0.627,0.306c0.291-0.508,0.801-0.991,0.837-1.503C556.021,384.544,555.783,383.492,554.225,383.272z"/>
			<path fill-rule="evenodd" clip-rule="evenodd" fill="#FFFFFF" stroke="#FFFFFF" stroke-miterlimit="10" d="M511.765,457.252
				c-8.576,0-17.147,0.015-25.729-0.009c-2.741-0.004-3.492-0.592-3.506-2.549c-0.024-3.352,0.652-4.197,3.549-4.21
				c5.534-0.024,11.059-0.033,16.579,0.032c1.676,0.023,2.774-0.318,2.761-2.271c-0.01-0.371,0.216-0.864,0.498-1.114
				c1.741-1.538,1.874-2.899,0.046-4.594c-0.966-0.897-0.117-1.808,0.967-1.85c3.334-0.086,6.66-0.109,9.983,0.023
				c1.475,0.057,1.795,1.061,0.732,2.121c-1.403,1.399-1.403,2.652,0,3.995c0.288,0.286,0.711,0.685,0.695,1.014
				c-0.163,2.854,1.747,2.69,3.673,2.676c5.317-0.042,10.632-0.042,15.949-0.009c2.642,0.013,3.295,0.779,3.342,3.723
				c0.048,2.126-0.887,3.013-3.396,3.032c-8.715,0.023-17.422,0.004-26.144,0.004C511.765,457.267,511.765,457.263,511.765,457.252z
				"/>
		</g>
	</g>
</g>
<g id="圖層_19" display="none">
	<g display="inline">
		<path fill="#989898" d="M536.242,432.59h-48.474c-3.606,0-6.536,2.923-6.536,6.529c0,3.613,2.929,6.535,6.536,6.535h48.474
			c3.605,0,6.531-2.922,6.531-6.535C542.773,435.513,539.848,432.59,536.242,432.59z"/>
		<path fill="#989898" d="M499.296,471.184v3.556c0,4.019,3.255,7.276,7.278,7.276h10.858c4.016,0,7.274-3.258,7.274-7.276v-3.556
			c8.234-0.587,14.751-7.381,14.751-15.762h-54.916C484.542,463.803,491.068,470.597,499.296,471.184z"/>
		<path fill="#EEE93A" d="M512.006,285.984c-36.174,0-65.497,29.316-65.497,65.49c0,15.257,5.252,29.271,14.02,40.393
			c7.755,9.833,15.109,20.574,21.445,31.388h60.051c6.4-10.909,13.62-21.458,21.452-31.394
			c8.758-11.123,14.013-25.129,14.013-40.387C577.49,315.3,548.168,285.984,512.006,285.984z M512.116,308.707
			c-23.251,0-42.161,18.909-42.161,42.148c0,3.613-2.922,6.536-6.535,6.536c-3.61,0-6.533-2.923-6.533-6.536
			c0-30.445,24.771-55.219,55.229-55.219c3.6,0,6.529,2.923,6.529,6.536C518.646,305.778,515.716,308.707,512.116,308.707z"/>
	</g>
</g>
<g id="圖層_20" display="none">
	<g display="inline">
		
			<line fill="none" stroke="#EEE93A" stroke-width="10" stroke-linecap="round" stroke-miterlimit="10" x1="511.733" y1="355.907" x2="511.733" y2="404.534"/>
		
			<line fill="none" stroke="#EEE93A" stroke-width="10" stroke-linecap="round" stroke-miterlimit="10" x1="567.58" y1="367.452" x2="548.296" y2="412.092"/>
		
			<line fill="none" stroke="#EEE93A" stroke-width="10" stroke-linecap="round" stroke-miterlimit="10" x1="456.42" y1="367.452" x2="475.7" y2="412.092"/>
	</g>
</g>
<g id="圖層_21" display="none">
	<path display="inline" fill="#FFFFFF" stroke="#E6E6E6" stroke-miterlimit="10" d="M394.939,238.5
		c-1.546,3-2.979,6.233-4.313,9.615c-5.958,15.171-7.642,30.599-6.374,46.741c0.812,10.337,2.49,19.997,0.776,29.515
		c-0.865,4.803-2.586,9.437-5.724,14.104c-7.206,10.709-17.662,26.64-28.983,33.436c-5.591,3.35-2.226,13.387,0.011,20.087
		c2.235,6.704,24.604,12.281,24.604,12.281l-11.676,14.519l4.239,15.636v13.403c17,7.745,6.6,22.821,10.906,34.859
		c3.758,10.494,15.839,16.146,26.011,17.289c25.733,2.896,91.483-27.484,78.629,29.516c0,0,141.598,0,145.472,0
		c-3.867,0-1.688-61.59-1.595-66.203c0.58-28.42,5.574-53.719,18.84-79.056c11.285-21.553,23.61-44.12,28.564-68.151
		c4.232-20.549,3.741-50.59-8.55-77.59H394.939z"/>
</g>
<g id="圖層_22" display="none">
	<path display="inline" fill="#FFFFFF" stroke="#E6E6E6" stroke-miterlimit="10" d="M592.28,362.603
		c-63.684-35.75-132.954-11.656-170.943,6.217c-21.364,10.061-35.221,31.68-44.756,54.68h270.838
		C637.663,400.5,620.472,378.431,592.28,362.603z"/>
</g>
<g id="圖層_23" display="none">
	<path display="inline" fill="#FFFFFF" stroke="#E6E6E6" stroke-miterlimit="10" d="M381.149,317.274
		c1.81-10.052,0.04-20.446-0.819-31.368c-1.34-17.049,0.438-33.73,6.734-49.749c10.089-25.671,25.6-55.649,51.821-67.989
		c40.124-18.884,113.284-43.647,180.549-5.887c67.264,37.76,75.287,106.213,67.264,145.155
		c-5.232,25.38-18.248,49.472-30.168,72.234c-14.007,26.753-19.287,53.197-19.896,83.215c-0.1,4.876-2.403,68.613,1.681,68.613
		c4.723,0-153.641,0-153.641,0c13.575-59-55.578-26.803-82.754-29.863c-10.745-1.21-22.356-5.496-26.322-16.58
		c-4.554-12.713,0.904-29.014-10.096-37.187v-14.162l-5.907-16.52l11.326-15.344c0,0-23.839-5.896-26.202-12.978
		c-2.359-7.08-6.017-17.704-0.116-21.241c11.959-7.18,22.943-24.048,30.554-35.361C378.469,327.338,380.237,322.349,381.149,317.274
		z"/>
</g>
</svg>
