<?xml version="1.0" encoding="utf-8"?>
<!-- Generator: Adobe Illustrator 16.0.4, SVG Export Plug-In . SVG Version: 6.00 Build 0)  -->
<!DOCTYPE svg PUBLIC "-//W3C//DTD SVG 1.1//EN" "http://www.w3.org/Graphics/SVG/1.1/DTD/svg11.dtd">
<svg version="1.1" id="圖層_1" xmlns="http://www.w3.org/2000/svg" xmlns:xlink="http://www.w3.org/1999/xlink" x="0px" y="0px"
	 width="800px" height="600px" viewBox="0 0 800 600" enable-background="new 0 0 800 600" xml:space="preserve">
<g>
	<g>
		<path fill="#EAC247" d="M656.535,257.394l-520.8,0.542c-23.531,0.021-42.584,19.118-42.56,42.647
			c0.024,23.531,19.118,42.584,42.648,42.56l520.796-0.539c0.932-0.001,1.844-0.086,2.752-0.141l-0.092-84.933
			C658.369,257.475,657.465,257.395,656.535,257.394z"/>
		<path fill="#DD8026" d="M656.592,312.961l-520.8,0.542c-23.53,0.021-42.599,4.896-42.591,10.888
			c0.005,5.991,19.084,10.823,42.613,10.8l520.803-0.541c0.922-0.001,1.832-0.022,2.742-0.041l-0.018-21.613
			C658.424,312.982,657.52,312.961,656.592,312.961z"/>
		<path fill="#DD8026" d="M656.545,267.287l-520.801,0.537c-23.529,0.027-42.599,4.903-42.593,10.891
			c0.008,5.989,19.086,10.824,42.615,10.797l520.797-0.537c0.932-0.002,1.836-0.023,2.754-0.038l-0.021-21.619
			C658.381,267.309,657.471,267.285,656.545,267.287z"/>
		
			<rect x="59.334" y="260.087" transform="matrix(1 -0.001 0.001 1 -0.3084 0.0933)" fill="#DC8097" width="62.791" height="80.828"/>
		<polygon fill="#F5F3CE" points="657.297,256.5 741.027,299.914 657.381,343.5 		"/>
		<polygon fill="#717071" points="703.672,280.975 740.203,299.913 703.709,318.923 		"/>
	</g>
	<path opacity="0.3" fill="#999999" d="M586.907,335H657v-76.426C657,258.574,655.434,330,586.907,335z"/>
	<rect x="121" y="334" opacity="0.3" fill="#999999" width="536" height="8"/>
	<path opacity="0.3" fill="#999999" d="M58.973,339H122v-78.642C122,260.358,121.27,335,58.973,339z"/>
</g>
</svg>
