<svg data-name="圖層 1" xmlns="http://www.w3.org/2000/svg" viewBox="0 0 682.05 87"><title>pencil</title><g  id="pencil"><path d="M656.53,257.39l-520.8.54a42.6,42.6,0,1,0,.09,85.21l520.8-.54c0.93,0,1.84-.09,2.75-0.14l-0.09-84.93C658.37,257.48,657.47,257.39,656.53,257.39Z" transform="translate(-58.97 -256.5)" style="fill:#eac247"/><path d="M656.59,313l-520.8.54c-23.53,0-42.6,4.9-42.59,10.89s19.08,10.82,42.61,10.8l520.8-.54c0.92,0,1.83,0,2.74,0l0-21.61C658.42,313,657.52,313,656.59,313Z" transform="translate(-58.97 -256.5)" style="fill:#dd8026"/><path d="M656.54,267.29l-520.8.54c-23.53,0-42.6,4.9-42.59,10.89s19.09,10.82,42.62,10.8l520.8-.54c0.93,0,1.84,0,2.75,0l0-21.62C658.38,267.31,657.47,267.29,656.54,267.29Z" transform="translate(-58.97 -256.5)" style="fill:#dd8026"/><rect x="0.35" y="3.59" width="62.79" height="80.83" style="fill:#dc8097"/><polygon points="598.32 0 682.05 43.41 598.41 87 598.32 0" style="fill:#f5f3ce"/><polygon points="644.7 24.48 681.23 43.41 644.74 62.42 644.7 24.48" style="fill:#717071"/><path d="M586.91,335H657V258.57S655.43,330,586.91,335Z" transform="translate(-58.97 -256.5)" style="fill:#999;opacity:0.30000001192092896;isolation:isolate"/><rect x="62.03" y="77.5" width="536" height="8" style="fill:#999;opacity:0.30000001192092896;isolation:isolate"/><path d="M59,339h63V260.36S121.27,335,59,339Z" transform="translate(-58.97 -256.5)" style="fill:#999;opacity:0.30000001192092896;isolation:isolate"/></g></svg>
