<?xml version="1.0" encoding="utf-8"?>
<!-- Generator: Adobe Illustrator 16.0.4, SVG Export Plug-In . SVG Version: 6.00 Build 0)  -->
<!DOCTYPE svg PUBLIC "-//W3C//DTD SVG 1.1//EN" "http://www.w3.org/Graphics/SVG/1.1/DTD/svg11.dtd">
<svg version="1.1" id="圖層_1" xmlns="http://www.w3.org/2000/svg" xmlns:xlink="http://www.w3.org/1999/xlink" x="0px" y="0px"
	 xml:space="preserve">
<g>

		<rect x="579.999" y="210" transform="matrix(0.6358 0.7719 -0.7719 0.6358 406.9613 -362.423)" fill="#A27A51" width="15.001" height="80"/>

		<rect x="587.456" y="213.79" transform="matrix(0.636 0.7717 -0.7717 0.636 410.739 -363.134)" opacity="0.3" fill="#999999" width="5.625" height="80"/>
	<ellipse fill="#A27A51" cx="740.786" cy="316.5" rx="20.786" ry="55.5"/>
	<path fill="#A27A51" d="M59,261v0.015c-0.072-0.002-0.143-0.015-0.215-0.015C47.306,261,38,285.848,38,316.5
		c0,30.651,9.306,55.5,20.785,55.5c0.072,0,0.143-0.013,0.215-0.015V372h682V261H59z"/>
	<ellipse fill="#C1996C" cx="740.786" cy="316.5" rx="20.786" ry="55.5"/>
	<ellipse fill="#A27A51" cx="740.786" cy="316.5" rx="14.786" ry="39.479"/>
	<ellipse fill="#C1996C" cx="740.786" cy="316.5" rx="8.093" ry="21.608"/>
	<ellipse fill="#A27A51" cx="740.786" cy="316.5" rx="4.125" ry="11.013"/>
	<path fill="#736357" d="M679,280c0-1.657-1.343-3-3-3H58c-1.657,0-3,1.343-3,3l0,0c0,1.657,1.343,3,3,3h618
		C677.657,283,679,281.657,679,280L679,280z"/>
	<path fill="#736357" d="M703.594,333c0-2.353-0.654-4-1.46-4H401.459c-0.806,0-1.459,1.647-1.459,4l0,0c0,2.353,0.653,4,1.459,4
		h300.675C702.939,337,703.594,335.353,703.594,333L703.594,333z"/>
	<path fill="#736357" d="M212.38,333c0-2.353-0.363-4-0.81-4H44.809c-0.447,0-0.809,1.647-0.809,4l0,0c0,2.353,0.362,4,0.809,4
		H211.57C212.017,337,212.38,335.353,212.38,333L212.38,333z"/>
	<path fill="#736357" d="M350.405,333c0-2.353-0.197-4-0.44-4h-90.525c-0.243,0-0.439,1.647-0.439,4l0,0c0,2.353,0.197,4,0.439,4
		h90.525C350.208,337,350.405,335.353,350.405,333L350.405,333z"/>
	<path fill="#736357" d="M240,292.5c0-1.339-0.422-2.5-0.944-2.5H44.6c-0.521,0-0.944,1.161-0.944,2.5l0,0
		c0,1.339,0.423,2.5,0.944,2.5h194.456C239.578,295,240,293.839,240,292.5L240,292.5z"/>
	<path fill="#736357" d="M704.537,292.5c0-1.339-0.887-2.5-1.983-2.5H293.642c-1.097,0-1.986,1.161-1.986,2.5l0,0
		c0,1.339,0.889,2.5,1.986,2.5h408.912C703.65,295,704.537,293.839,704.537,292.5L704.537,292.5z"/>
	<path fill="#736357" d="M469.047,357.5c0-1.523-0.86-2.5-1.919-2.5H71.917c-1.059,0-1.917,0.977-1.917,2.5l0,0
		c0,1.523,0.859,2.5,1.917,2.5h395.21C468.187,360,469.047,359.023,469.047,357.5L469.047,357.5z"/>
	<path opacity="0.3" fill="#999999" d="M720,328c0,0,2.998,39.913,20.785,44s20.397-40.5,20.592-48s-4.021-41-4.021-41L720,328z"/>
	<path opacity="0.3" fill="#999999" d="M720,328c0,0,0.57,37,20.785,44s-682.215,0-682,0S682.645,373,720,328z"/>
</g>
</svg>
