<?xml version="1.0" encoding="utf-8"?>
<!-- Generator: Adobe Illustrator 19.2.0, SVG Export Plug-In . SVG Version: 6.00 Build 0)  -->
<svg version="1.1" id="圖層_1" xmlns="http://www.w3.org/2000/svg" xmlns:xlink="http://www.w3.org/1999/xlink" x="0px" y="0px"
	 viewBox="0 0 800 600" style="enable-background:new 0 0 800 600;" xml:space="preserve">
<g>
	<g>
		<path style="fill:#EAC247;" d="M656.53,257.39l-520.8,0.54c-23.53,0.02-42.58,19.12-42.56,42.65
			c0.02,23.53,19.12,42.58,42.65,42.56l520.8-0.54c0.93,0,1.84-0.09,2.75-0.14l-0.09-84.93
			C658.37,257.48,657.47,257.39,656.53,257.39z"/>
		<path style="fill:#DD8026;" d="M656.59,312.96l-520.8,0.54c-23.53,0.02-42.6,4.9-42.59,10.89c0,5.99,19.08,10.82,42.61,10.8
			l520.8-0.54c0.92,0,1.83-0.02,2.74-0.04L659.34,313C658.42,312.98,657.52,312.96,656.59,312.96z"/>
		<path style="fill:#DD8026;" d="M656.54,267.29l-520.8,0.54c-23.53,0.03-42.6,4.9-42.59,10.89c0.01,5.99,19.09,10.82,42.62,10.8
			l520.8-0.54c0.93,0,1.84-0.02,2.75-0.04l-0.02-21.62C658.38,267.31,657.47,267.29,656.54,267.29z"/>
		<rect x="59.33" y="260.09" style="fill:#DC8097;" width="62.79" height="80.83"/>
		<polygon style="fill:#F5F3CE;" points="657.3,256.5 741.03,299.91 657.38,343.5 		"/>
		<polygon style="fill:#717071;" points="703.67,280.98 740.2,299.91 703.71,318.92 		"/>
	</g>
	<path style="opacity:0.3;fill:#999999;enable-background:new    ;" d="M586.91,335H657v-76.43C657,258.57,655.43,330,586.91,335z"
		/>
	<rect x="121" y="334" style="opacity:0.3;fill:#999999;enable-background:new    ;" width="536" height="8"/>
	<path style="opacity:0.3;fill:#999999;enable-background:new    ;" d="M58.97,339H122v-78.64C122,260.36,121.27,335,58.97,339z"/>
</g>
<g id="圖層_12">
	<polygon style="fill:#6EAC66;" points="156.77,90.35 205.66,175.38 254.56,260.42 156.77,260.42 58.97,260.42 107.87,175.38 	"/>
	<path style="opacity:0.3;fill:#B3B3B3;enable-background:new    ;" d="M59.27,260.42h195L156.87,90.6
		C156.87,90.6,267.15,266.42,59.27,260.42z"/>
</g>
</svg>
