<svg id="lamp" xmlns="http://www.w3.org/2000/svg" viewBox="0 0 130.98 196.03"><defs><style>.cls-1{fill:#989898;}.cls-2{fill:#eee93a;}</style></defs><title>lamp</title><g id="圖層_19" data-name="圖層 19"><path class="cls-1" d="M536.24,432.59H487.77a6.53,6.53,0,1,0,0,13.06h48.47A6.53,6.53,0,0,0,536.24,432.59Z" transform="translate(-446.51 -285.98)"/><path class="cls-1" d="M499.3,471.18v3.56a7.27,7.27,0,0,0,7.28,7.28h10.86a7.28,7.28,0,0,0,7.27-7.28v-3.56a15.83,15.83,0,0,0,14.75-15.76H484.54A15.84,15.84,0,0,0,499.3,471.18Z" transform="translate(-446.51 -285.98)"/><path class="cls-2" d="M512,286a65.41,65.41,0,0,0-51.48,105.88A279.56,279.56,0,0,1,482,423.26H542a278.69,278.69,0,0,1,21.45-31.39A65.42,65.42,0,0,0,512,286Zm0.11,22.72A42.2,42.2,0,0,0,470,350.86a6.53,6.53,0,1,1-13.07,0,55.29,55.29,0,0,1,55.23-55.22A6.54,6.54,0,0,1,512.12,308.71Z" transform="translate(-446.51 -285.98)"/></g></svg>