<?xml version="1.0" encoding="utf-8"?>
<!-- Generator: Adobe Illustrator 19.2.0, SVG Export Plug-In . SVG Version: 6.00 Build 0)  -->
<svg version="1.1" id="christmastreeUpdate" xmlns="http://www.w3.org/2000/svg" xmlns:xlink="http://www.w3.org/1999/xlink"
	 x="0px" y="0px" viewBox="0 0 290.1 280" style="enable-background:new 0 0 290.1 280;" xml:space="preserve">
<style type="text/css">
	.st0{fill:#00D6D3;}
	.st1{opacity:0.3;fill:#B3B3B3;enable-background:new    ;}
	.st2{fill:#00DDAA;}
	.st3{fill:#00DD77;}
	.st4{opacity:0.3;fill:#999999;enable-background:new    ;}
	.st5{fill:#6EAC66;}
</style>
<title>christmastreeUpdate</title>
<g id="圖層_16">
	<polygon class="st0" points="145,109.6 217.6,194.8 290.1,279.9 145,279.9 0,279.9 72.5,194.8 	"/>
	<polygon class="st0" points="145,109.6 217.6,194.8 290.1,279.9 145,279.9 0,279.9 72.5,194.8 	"/>
	<path class="st1" d="M0.3,279.9h289.2L145,110.1C145,110.1,308.6,285.9,0.3,279.9z"/>
	<polygon class="st0" points="145,43.1 201,109 257,174.9 145,174.9 33.1,174.9 89.1,109 	"/>
	<polygon class="st2" points="145,43.1 201,109 257,174.9 145,174.9 33.1,174.9 89.1,109 	"/>
	<path class="st1" d="M33.3,174.9h223.2L145,43.9C145,43.9,271.3,178.9,33.3,174.9z"/>
	<polygon class="st0" points="145,0 181.5,42.9 218,85.9 145,85.9 72.1,85.9 108.6,42.9 	"/>
	<polygon class="st3" points="145,0 181.5,42.9 218,85.9 145,85.9 72.1,85.9 108.6,42.9 	"/>
	<path class="st4" d="M72.2,85.9h145.4L145,0.5C145,0.5,227.3,88.9,72.2,85.9z"/>
	<polygon class="st0" points="145,109.6 217.6,194.8 290.1,279.9 145,279.9 0,279.9 72.5,194.8 	"/>
	<polygon class="st5" points="145,109.6 217.6,194.8 290.1,279.9 145,279.9 0,279.9 72.5,194.8 	"/>
	<path class="st1" d="M0.3,279.9h289.2L145,110.1C145,110.1,308.6,285.9,0.3,279.9z"/>
	<polygon class="st0" points="145,43.1 201,109 257,174.9 145,174.9 33.1,174.9 89.1,109 	"/>
	<polygon class="st5" points="145,43.1 201,109 257,174.9 145,174.9 33.1,174.9 89.1,109 	"/>
	<path class="st1" d="M33.3,174.9h223.2L145,43.9C145,43.9,271.3,178.9,33.3,174.9z"/>
	<polygon class="st0" points="145,0 181.5,42.9 218,85.9 145,85.9 72.1,85.9 108.6,42.9 	"/>
	<polygon class="st5" points="145,0 181.5,42.9 218,85.9 145,85.9 72.1,85.9 108.6,42.9 	"/>
	<path class="st1" d="M72.2,85.9h145.4L145,0.5C145,0.5,227.3,88.9,72.2,85.9z"/>
</g>
</svg>
