<svg id="wood" xmlns="http://www.w3.org/2000/svg" viewBox="0 0 111.15 289.22"><defs><style>.cls-1{fill:#a27a51;}.cls-2{fill:#999;opacity:0.3;isolation:isolate;}.cls-3{fill:#c1996c;}.cls-4{fill:#736357;}</style></defs><title>woodUpdate</title><g id="圖層_11" data-name="圖層 11"><polygon class="cls-1" points="44.39 80.04 36.16 83.85 0 59.16 8.23 55.35 44.39 80.04"/><polygon class="cls-2" points="44.51 80.12 41.43 81.55 5.27 56.86 8.35 55.43 44.51 80.12"/><ellipse class="cls-1" cx="69.48" cy="8.31" rx="39.46" ry="8.31"/><path class="cls-1" d="M486,520h0.45s0,0.21,0,.24c0,4.59,17.67,8.38,39.46,8.38s39.46-3.83,39.46-8.42c0,0,0-.2,0-0.2H565V248H486V520Z" transform="translate(-456.43 -239.4)"/><ellipse class="cls-3" cx="69.48" cy="8.31" rx="39.46" ry="8.31"/><ellipse class="cls-1" cx="69.48" cy="8.31" rx="28.07" ry="5.91"/><ellipse class="cls-3" cx="69.48" cy="8.31" rx="15.36" ry="3.24"/><ellipse class="cls-1" cx="69.48" cy="8.31" rx="7.83" ry="1.65"/><path class="cls-4" d="M502,273.53c0-.62-0.9-1.12-2-1.12h0c-1.1,0-2,.5-2,1.13V521c0,0.62.9,1.13,2,1.13h0c1.1,0,2-.5,2-1.12V273.53Z" transform="translate(-456.43 -239.4)"/><path class="cls-4" d="M537.5,262.58c-1.67,0-2.5.26-2.5,0.58V383.38c0,0.32.83,0.58,2.5,0.58h0c1.67,0,2.5-.26,2.5-0.58V263.16c0-.32-0.83-0.58-2.5-0.58h0Z" transform="translate(-456.43 -239.4)"/><path class="cls-4" d="M537.5,459c-1.67,0-2.5.14-2.5,0.32V526c0,0.18.83,0.32,2.5,0.32h0c1.67,0,2.5-.15,2.5-0.32V459.3c0-.18-0.83-0.32-2.5-0.32h0Z" transform="translate(-456.43 -239.4)"/><path class="cls-4" d="M537.5,403.79a7.39,7.39,0,0,0-2.5.18v36.19a7.39,7.39,0,0,0,2.5.18h0a7.39,7.39,0,0,0,2.5-.18V404a7.39,7.39,0,0,0-2.5-.18h0Z" transform="translate(-456.43 -239.4)"/><path class="cls-4" d="M509,447.93c-1,0-2,.17-2,0.38v77.75c0,0.21,1,.38,2,0.38h0c1,0,2-.17,2-0.38V448.31c0-.21-1-0.38-2-0.38h0Z" transform="translate(-456.43 -239.4)"/><path class="cls-4" d="M509,262.2c-1,0-2,.35-2,0.79V426.49c0,0.44,1,.79,2,0.79h0c1,0,2-.36,2-0.79V263c0-.44-1-0.79-2-0.79h0Z" transform="translate(-456.43 -239.4)"/><path class="cls-4" d="M555,356.36c-1.08,0-2,.35-2,0.77v158c0,0.42.92,0.77,2,.77h0c1.08,0,2-.34,2-0.77v-158c0-.42-0.92-0.77-2-0.77h0Z" transform="translate(-456.43 -239.4)"/><path class="cls-2" d="M534.08,256s28.38-1.2,31.28-8.31-28.79-8.15-34.13-8.23-29.15,1.61-29.15,1.61Z" transform="translate(-456.43 -239.4)"/><path class="cls-2" d="M534.08,256s26.31-.23,31.28-8.31,0,272.76,0,272.68S566.07,271,534.08,256Z" transform="translate(-456.43 -239.4)"/></g></svg>