<?xml version="1.0" encoding="utf-8"?>
<!-- Generator: Adobe Illustrator 19.2.0, SVG Export Plug-In . SVG Version: 6.00 Build 0)  -->
<svg version="1.1" id="human" xmlns="http://www.w3.org/2000/svg" xmlns:xlink="http://www.w3.org/1999/xlink" x="0px" y="0px"
	 viewBox="0 0 94.7 186.9" style="enable-background:new 0 0 94.7 186.9;" xml:space="preserve">
<style type="text/css">
	.st0{fill:#FFFFFF;stroke:#E6E6E6;stroke-miterlimit:10;}
</style>
<title>human</title>
<g id="圖層_17">
	<path class="st0" d="M1.2,109.5C-2,103.7,7,90.1,9.3,85c5-11.2,10-22.3,15-33.5c1.9-4.4,5-6.4,9.8-6.3c8.9,0.1,17.9,0.2,26.8,0
		c5.5-0.1,8.8,2.1,11,7.1c6.8,15.7,14,31.2,20.9,46.8c0.8,1.7,1.2,3.4,1.4,5.2c0.4,3.1-1.3,6.1-4.3,7.2c-3.1,1-6.4,0-8.4-2.6
		c-0.9-1.2-1.6-2.5-2.2-3.9c-3.8-8.4-7.5-16.9-11.3-25.3c-0.4-1-1-2-1.4-3c-0.5,1.2-0.7,2.4-0.6,3.7c0.8,11.9,1.6,23.8,2.3,35.7
		c0,0.9,0.3,2.2-0.1,2.5c-2.7,1.9-1.6,4.7-1.7,7.1c-0.1,7.6,0,15.3,0,22.9c0,9.5,0,18.9,0,28.4c0,3.1-0.5,6.1-3.3,8
		c-2.3,1.7-5.4,1.9-7.9,0.5c-2.7-1.3-4.3-4.1-4.1-7.1c0-18.7,0-37.4,0.1-56.2c0-2.8-1.4-2.9-3.4-2.8s-4.1-0.5-3.8,2.7
		c0.2,2.1,0,4.3,0,6.5c0,16.6,0,33.1,0,49.7c0,4-2.1,6.8-5.5,7.8c-3.2,1.1-6.7-0.2-8.4-3.1c-1-2-1.4-4.2-1.4-6.5
		c-0.1-17.8,0-35.5-0.1-53.2c0-1.1,0.2-2.8-0.3-3.1c-3-1.6-1.7-4.1-1.6-6.2c0.4-6.5,1-12.9,1.5-19.3c0.4-5.6,0.7-11.2,1-16.9
		c-1,0.9-1.8,1.9-2.3,3.2c-3.6,8.1-7.3,16.3-10.9,24.4c-2.2,5.1-9.3,10.1-14.3,5C1.7,110.1,1.4,109.8,1.2,109.5z"/>
	<path class="st0" d="M48.1,0.5c-11.3,0-20.6,9.1-20.6,20.5S36.6,41.5,48,41.5c11.3,0,20.6-9.1,20.6-20.5c0,0,0,0,0,0
		C68.6,9.7,59.4,0.5,48.1,0.5z"/>
</g>
</svg>
