<svg id="mic" xmlns="http://www.w3.org/2000/svg" viewBox="0 0 236.85 236.85"><defs><style>.cls-1,.cls-2{fill:#fff;stroke:#fff;stroke-miterlimit:10;}.cls-1{stroke-width:2px;}</style></defs><title>mic</title><g id="圖層_18" data-name="圖層 18"><path class="cls-1" d="M629.42,384A117.42,117.42,0,1,1,512,266.58,117.41,117.41,0,0,1,629.42,384Z" transform="translate(-393.58 -265.58)"/><path class="cls-2" d="M512,378.29H483.27c-2.68,0-2.73-.06-2.73-2.74q0-16.17,0-32.33c0-16.06,9.66-28.21,25.28-31.8,15.43-3.55,32.63,7.05,36.24,22.48a42.12,42.12,0,0,1,1.12,9c0.14,11.06,0,22.11.1,33.17,0,1.88-.78,2.24-2.42,2.24C531.24,378.27,521.61,378.29,512,378.29Z" transform="translate(-393.58 -265.58)"/><path class="cls-2" d="M512,395.54H541c1.08,0,2.28-.13,2.28,1.45,0,7.07.46,14.17-2.58,20.9a31.53,31.53,0,0,1-31.11,18.7,30.55,30.55,0,0,1-27.73-23.2c-1.24-5.23-.92-10.81-1.26-16.24-0.11-1.68,1.16-1.64,2.34-1.64H512Z" transform="translate(-393.58 -265.58)"/><path class="cls-2" d="M477.58,390.86l-3.32,1.08c0.06-.17-0.15.15-0.15,0.45,0.22,7-.14,14.09.83,21,1.94,14,14.27,26.54,28.1,29.54a7.56,7.56,0,0,1,2.24.58,5,5,0,0,1,1.15,1.53c-0.58.37-1.25,1.14-1.74,1a52.11,52.11,0,0,1-7.75-2.17,40.57,40.57,0,0,1-25.69-37.7c-0.07-4.26,0-8.51,0-12.76,0-1.39-.26-1.74-2-2s-3.34-2.22-4.66-3.74c-0.33-.38.39-2,1-2.84,1.92-2.72,2.42-2.67,5.38-1.63,1.13,0.39,2.58-.07,3.86-0.23,0.53-.07,1.08-0.62,1.54-0.53,4.21,0.8,8.42-.26,12.65,0s8.65,0,13,0h26.15c4.33,0,8.66,0,13,0a25.53,25.53,0,0,1,3.69.59,0.79,0.79,0,0,0,.18.09c3-2.1,6.33,2.14,9.41-.55,0.4-.35,2.33.44,3,1.18,1,1,2.63,2,1.88,3.92-0.89,2.21-3.36,4-5.28,3.73-1.72-.19-1.44,1.06-1.45,1.93-0.06,4-.1,7.94,0,11.91a39.11,39.11,0,0,1-5.22,20.76c-6.11,10.59-15.19,17.16-27.09,19.89L520,446c-1,.16-2.25.56-2.53-1s1-1.44,1.87-1.78c3.83-1.42,7.93-2.39,11.43-4.42,11.53-6.7,17.83-17,18.89-30.25,0.41-5.22.11-10.48,0.12-15.73a3.53,3.53,0,0,0-.15-0.86,20.87,20.87,0,0,0-4.09-1.11c-1.2-.08-2.42.57-3.64,0.58-7,.06-13.9,0-20.84,0-13.11,0-26.23,0-39.34,0a37.08,37.08,0,0,1-4.23-.49c-0.17-2.54-.35-5.08-0.53-7.62l-1.11-.18c-0.65,2.43-.21,5-0.27,7.74h2Zm-8-.14v-7.43c-1.69.11-1.88,0.68-1.56,5.62C468.1,389.64,467.57,391.39,469.61,390.72Zm78.62-7.38c-1.87,0-1.89,0-1.51,6.36a3.58,3.58,0,0,0,1,1.37l0.55-.39Q548.23,387,548.23,383.34Zm6-.07v7.42l0.63,0.31a4.42,4.42,0,0,0,.84-1.5C556,384.54,555.78,383.49,554.22,383.27Z" transform="translate(-393.58 -265.58)"/><path class="cls-2" d="M511.77,457.25c-8.58,0-17.15,0-25.73,0-2.74,0-3.49-.59-3.51-2.55,0-3.35.65-4.2,3.55-4.21,5.53,0,11.06,0,16.58,0,1.68,0,2.77-.32,2.76-2.27a1.63,1.63,0,0,1,.5-1.11c1.74-1.54,1.87-2.9,0-4.59-1-.9-0.12-1.81,1-1.85,3.33-.09,6.66-0.11,10,0,1.47,0.06,1.79,1.06.73,2.12-1.4,1.4-1.4,2.65,0,4a1.87,1.87,0,0,1,.7,1c-0.16,2.85,1.75,2.69,3.67,2.68q8-.06,15.95,0c2.64,0,3.29.78,3.34,3.72,0,2.13-.89,3-3.4,3-8.72,0-17.42,0-26.14,0h0Z" transform="translate(-393.58 -265.58)"/></g></svg>