<?xml version="1.0" encoding="utf-8"?>
<!-- Generator: Adobe Illustrator 19.2.0, SVG Export Plug-In . SVG Version: 6.00 Build 0)  -->
<svg version="1.1" id="bee" xmlns="http://www.w3.org/2000/svg" xmlns:xlink="http://www.w3.org/1999/xlink" x="0px" y="0px"
	 viewBox="0 0 97.8 96.2" style="enable-background:new 0 0 97.8 96.2;" xml:space="preserve">
<style type="text/css">
	.st0{fill:#785033;}
	.st1{fill:#F3B424;}
	.st2{clip-path:url(#SVGID_2_);}
	.st3{fill:#7EACD1;}
</style>
<title>bee</title>
<path class="st0" d="M19.9,38.9L7.2,31.1c0-1.9-1.5-3.4-3.4-3.4c-1.9,0-3.4,1.5-3.4,3.4c0,1.8,1.5,3.3,3.3,3.4
	c0.4,0,0.9-0.1,1.3-0.2l13.4,8.3c-0.4,1.5-0.6,3-0.6,4.6c0,1.4,0.1,2.8,0.4,4.1L5,58.3c-1.6-0.9-3.7-0.4-4.6,1.3
	c-0.9,1.6-0.4,3.7,1.3,4.6c1.6,0.9,3.7,0.4,4.6-1.3c0.2-0.4,0.3-0.7,0.4-1.2l12.7-6.7c4.2,9.5,15.3,13.9,24.9,9.7
	c9.5-4.2,13.9-15.3,9.7-24.9c-4.2-9.5-15.3-13.9-24.9-9.7C25.1,32,21.9,35.1,19.9,38.9z"/>
<path class="st1" d="M69.5,25.9c15.8,0.2,28.5,9.6,28.3,21S84.7,67.4,68.9,67.2s-28.5-9.6-28.3-21S53.7,25.7,69.5,25.9z"/>
<g>
	<defs>
		
			<ellipse id="SVGID_1_" transform="matrix(1.396223e-02 -0.9999 0.9999 1.396223e-02 21.68 115.0727)" cx="69.2" cy="46.5" rx="20.6" ry="28.6"/>
	</defs>
	<clipPath id="SVGID_2_">
		<use xlink:href="#SVGID_1_"  style="overflow:visible;"/>
	</clipPath>
	<g class="st2">
		
			<rect x="20.6" y="41.7" transform="matrix(1.396223e-02 -0.9999 0.9999 1.396223e-02 3.3872 92.897)" class="st0" width="56.5" height="6.1"/>
		
			<rect x="31.4" y="41.8" transform="matrix(1.396223e-02 -0.9999 0.9999 1.396223e-02 13.894 103.8783)" class="st0" width="56.5" height="6.1"/>
		
			<rect x="42.2" y="42" transform="matrix(1.396223e-02 -0.9999 0.9999 1.396223e-02 24.401 114.7987)" class="st0" width="56.5" height="6.1"/>
		
			<rect x="53" y="42.1" transform="matrix(1.396223e-02 -0.9999 0.9999 1.396223e-02 34.9231 125.7257)" class="st0" width="56.5" height="6.1"/>
		
			<rect x="63.8" y="42.3" transform="matrix(1.396223e-02 -0.9999 0.9999 1.396223e-02 45.4299 136.7059)" class="st0" width="56.5" height="6.1"/>
	</g>
</g>
<path class="st3" d="M70.4,63.3c12.7,13.1,19.4,27.3,14.9,31.6s-18.4-2.7-31.2-15.8S34.7,51.8,39.2,47.5S57.7,50.2,70.4,63.3z"/>
<path class="st3" d="M70.8,32.6C83.9,19.9,91,5.9,86.6,1.4S68.1,3.6,55,16.3S34.8,43,39.2,47.5S57.7,45.3,70.8,32.6z"/>
</svg>
