<?xml version="1.0" encoding="utf-8"?>
<!-- Generator: Adobe Illustrator 19.2.0, SVG Export Plug-In . SVG Version: 6.00 Build 0)  -->
<svg version="1.1" id="drop" xmlns="http://www.w3.org/2000/svg" xmlns:xlink="http://www.w3.org/1999/xlink" x="0px" y="0px"
	 viewBox="0 0 75.6 148.1" style="enable-background:new 0 0 75.6 148.1;" xml:space="preserve">
<style type="text/css">
	.st0{fill:#7EACD1;}
	.st1{opacity:0.3;fill:#F2F2F2;enable-background:new    ;}
</style>
<title>drop</title>
<g id="圖層_10">
	<path class="st0" d="M37.8,0c13.8,24.3,32.1,62,36.5,83.9c4.2,20.8-0.6,54.6-24,62.6c-7.2,2.5-16.9,1.9-24.1-0.1
		c-28-7.6-29.3-43.6-23.2-67.1C8.3,58.7,23.7,22.8,37.8,0z"/>
	<path class="st1" d="M38,0c-0.3,1.7,3.9,6.8,4.7,8.3c1.9,3.6,3.6,7.2,5.3,10.8c3.5,7.5,6.7,15.1,10.1,22.7
		c6,13.4,13,27.5,11.9,42.2c-0.6,8.3-5.2,27.6-16,30.8c-8.3,2.5-13.7-6.7-16.1-12.2c-4.2-9.9-1-20.4,1-30.3
		c2.2-10,2.6-20.2,1.2-30.4C38.3,28.2,35.5,14.1,38,0z"/>
	<ellipse class="st1" cx="37.6" cy="139.9" rx="14.2" ry="7"/>
</g>
</svg>
