<?xml version="1.0" encoding="utf-8"?>
<!-- Generator: Adobe Illustrator 19.2.0, SVG Export Plug-In . SVG Version: 6.00 Build 0)  -->
<svg version="1.1" id="flower" xmlns="http://www.w3.org/2000/svg" xmlns:xlink="http://www.w3.org/1999/xlink" x="0px" y="0px"
	 viewBox="0 0 153.9 114.9" style="enable-background:new 0 0 153.9 114.9;" xml:space="preserve">
<style type="text/css">
	.st0{fill:#6B2156;}
	.st1{fill:#E986A1;}
	.st2{fill:#EFA834;}
	.st3{fill:#CC2B6B;}
	.st4{fill:#73BA6A;}
	.st5{fill:#2C8744;}
	.st6{opacity:0.3;fill:#999999;enable-background:new    ;}
</style>
<title>flower</title>
<rect x="48.7" y="24.8" transform="matrix(2.670034e-02 -0.9996 0.9996 2.670034e-02 30.6979 85.2545)" class="st0" width="20.9" height="4.2"/>
<path class="st0" d="M65.3,5.6c-0.1,3-2.6,5.4-5.6,5.3c-3-0.1-5.4-2.6-5.3-5.6s2.6-5.4,5.6-5.3c0,0,0,0,0,0
	C63.1,0.1,65.4,2.6,65.3,5.6z"/>
<polygon class="st0" points="77.7,37.8 73.5,37.7 74.1,16.8 78.3,16.9 "/>
<path class="st0" d="M81.8,5.9c-0.1,3-2.6,5.4-5.6,5.3S70.9,8.7,71,5.7c0.1-3,2.6-5.4,5.6-5.3C79.5,0.5,81.9,3,81.8,5.9
	C81.8,5.9,81.8,5.9,81.8,5.9z"/>
<rect x="82.2" y="25.7" transform="matrix(2.600244e-02 -0.9997 0.9997 2.600244e-02 62.4694 119.6853)" class="st0" width="20.9" height="4.2"/>
<path class="st0" d="M98.3,6.4c-0.1,3-2.6,5.3-5.6,5.3s-5.3-2.6-5.3-5.6c0.1-3,2.6-5.3,5.6-5.3C96,0.9,98.3,3.4,98.3,6.4z"/>
<path class="st1" d="M135.7,45.3c-0.9,32.9-28.3,58.9-61.2,58.1c-32.9-0.9-58.9-28.3-58.1-61.2l0,0"/>
<path class="st2" d="M34.5,0.4c-23.9,22.7-25,60.5-2.3,84.4c0,0,0,0.1,0,0.2l43.5-41.2L34.5,0.4z"/>
<path class="st3" d="M116.9,87.6c23.8-22.8,24.7-60.6,2-84.5l-43.2,41L116.9,87.6z"/>
<path class="st4" d="M0.4,68.4c4.3-7.8,24.5-5,45.2,6.4s34,26.9,29.8,34.6"/>
<path class="st5" d="M75.8,108.7c-4.3,7.9-24.6,5-45.3-6.3s-34-26.9-29.7-34.8"/>
<path class="st4" d="M153.5,73.5c-3.9-8-24.2-6.2-45.5,4s-35.4,25-31.5,33"/>
<path class="st5" d="M76.2,109.8c3.9,8.1,24.3,6.3,45.5-3.9s35.4-25.1,31.5-33.1"/>
<path class="st6" d="M63.8,99.2c10.9,10.9,34.9,4.5,53.6-14.3s25.1-42.7,14.3-53.6"/>
<path class="st6" d="M89.9,101.2c-10.9,10.9-34.9,4.5-53.6-14.3S11.2,44.2,22,33.3"/>
</svg>
