<svg id="scene04" xmlns="http://www.w3.org/2000/svg" viewBox="0 0 1280 800"><title>scene04</title><g id="leftHuman01"><path d="M34.85,777.16c2.37-1.63,4.89-3.08,7.1-4.91,7.9-6.58,12-15.46,14.26-25.18,3.63-15.31,3.58-30.78,3-46.47-0.58-14.58.65-29.3,2.11-43.86,1-9.53,3.85-18.86,5.56-28.34,0.19-1.07-1.64-3.6-2.52-3.6-7.42,0-14.95-.18-22.24,1-7.62,1.21-15,3.86-22.84,5.37,5-2.59,9.72-5.66,14.89-7.68,10.41-4.06,21-7.73,31.6-11.22,8.55-2.8,16.61-.66,24.3,3.47,4.1,2.21,8.07,4.95,12.44,6.31,11,3.42,21.26-.35,31.12-4.82,5.06-2.3,9.66-5.63,15.29-9A65.54,65.54,0,0,1,132.62,625c-8.51,6.2-18,9.13-28.6,7.83-4-.49-5.29,1-5.21,4.9,0.2,9.67.19,19.35,0.12,29a20.7,20.7,0,0,0,7.48,16.47c4.71,4.07,9.74,7.78,14.61,11.67,11.66,9.35,13.79,18.88,6.77,32.05-6.94,13-17.58,22.86-29,32,1.77-2.41,3.59-4.77,5.29-7.23,5.06-7.34,9.83-14.81,10.67-24,0.69-7.64-2.39-13.4-9-17.14-6.31-3.59-12.4-2.14-17.95,1.84-7.44,5.33-11.28,13-13.76,21.63-4.26,14.78-10.52,28.52-23.61,37.63-4.42,3.08-9.87,4.67-14.85,6.94Z" style="fill:#fff"/><path d="M80.52,596.66c0-8.27,4.36-13.37,11.19-13.25,7.22,0.13,12,5.18,12,12.78,0,8.06-5.26,14-12.5,14C84.4,610.18,80.47,605.21,80.52,596.66Z" style="fill:#fff"/></g><g id="leftHuman02"><path d="M214.94,772.15c14.5-41.51,16.67-85.24,24.15-129.6-13.63,7.81-27.21,9.32-42.25,7.51,6.77-3,12.8-5.26,18.51-8.19a99.09,99.09,0,0,0,33.25-28.24c5.46-7.08,12-7.7,18-.94,12.27,13.84,26,25.56,43.71,32a18.61,18.61,0,0,1,5.44,2.77c-7.13,1.14-14.27,1.84-21.27-.24-6.76-2-13.35-4.57-20.84-7.18,2.93,45.07-5.26,88.73-21.29,131.22q0-2.39,0-4.78c0-14.35.23-28.71-.15-43.06-0.08-3-2.35-5.95-3.62-8.92-2.11,2.29-4.88,4.25-6.21,6.93-6.43,13-12.35,26.2-18.71,39.21-2.08,4.26-5,8.12-7.49,12.17Z" style="fill:#fff"/><path d="M274.22,587.77c0,6.92-4.14,12.59-9.86,13.51-7.35,1.19-12.37-3.24-13-12.21-0.34-4.74.89-9.41,5.09-12.43,3.64-2.61,7.62-2.29,11.55-.48C272.1,578.06,274.23,582.05,274.22,587.77Z" style="fill:#fff"/></g><g id="leftHuman03"><path d="M440.92,783.3c-0.7-7.33-1.09-14.71-2.17-22-2.29-15.39-4.74-30.76-7.62-46-0.52-2.75-3.45-5-5.27-7.55-0.08-.12-5.7,10-6.1,11.07-3.35,8.84-4.25,18.39-5.92,27.64-1.75,9.66-2.72,20.63-6.1,29.83a18.84,18.84,0,0,1-.76-5.4c0.81-32.29,1.4-64.58,2.61-96.86,0.32-8.5-.91-16.36-5.58-23.15-6.95-10.12-14.67-19.71-22.11-29.49-1.11-1.46-2.47-2.72-3.12-5.06,1.43,0.82,2.81,1.76,4.31,2.43,6.79,3,13.44,6.5,20.49,8.74s13.83,0.27,20.28-3.12c19.22-10.11,32.73-25.06,39.48-45.88a10,10,0,0,1,1.43-1.58c-0.16,2.71.1,4.65-.44,6.33-3.83,11.8-8.41,23.39-11.58,35.36A141.61,141.61,0,0,0,448.17,647c-2.13,39.72-3.73,79.46-5.45,119.2-0.24,5.66,0,11.34,0,17Z" style="fill:#fff"/><path d="M429.76,608.3c-1.06,3.06-1.28,6.34-3,8.09-2.06,2.05-5.55,4-8.24,3.8-5.64-.46-8.1-5.32-9.62-10.21-1.59-5.12-2.74-10.29,2.12-14.65,6-5.36,10.92-4.86,14.82,2.21C427.64,600.85,428.48,604.7,429.76,608.3Z" style="fill:#fff"/></g><g id="rightHuman01"><path d="M1244.1,778.22c-2.37-1.63-4.89-3.08-7.1-4.91-7.9-6.58-12-15.46-14.26-25.18-3.63-15.31-3.58-30.78-3-46.47,0.58-14.58-.65-29.3-2.11-43.86-1-9.53-3.85-18.86-5.56-28.34-0.19-1.07,1.64-3.6,2.52-3.6,7.42,0,14.95-.18,22.24,1,7.62,1.21,15,3.86,22.84,5.37-5-2.59-9.72-5.66-14.89-7.68-10.41-4.06-21-7.73-31.6-11.22-8.55-2.8-16.61-.66-24.3,3.47-4.1,2.21-8.07,4.95-12.44,6.31-11,3.42-21.26-.35-31.12-4.82-5.06-2.3-9.66-5.63-15.29-9a65.54,65.54,0,0,0,16.25,16.7c8.51,6.2,18,9.13,28.6,7.83,4-.49,5.29,1,5.21,4.9-0.2,9.67-.19,19.35-0.12,29a20.7,20.7,0,0,1-7.48,16.47c-4.71,4.07-9.74,7.78-14.61,11.67-11.66,9.35-13.79,18.88-6.77,32.05,6.94,13,17.58,22.86,29,32-1.77-2.41-3.59-4.77-5.29-7.23-5.06-7.34-9.83-14.81-10.67-24-0.69-7.64,2.39-13.4,9-17.14,6.31-3.59,12.4-2.14,17.95,1.84,7.44,5.33,11.28,13,13.76,21.63,4.26,14.78,10.52,28.52,23.61,37.63,4.42,3.08,9.87,4.67,14.85,6.94Z" style="fill:#fff"/><path d="M1198.43,597.72c0-8.27-4.36-13.37-11.19-13.25-7.22.13-12,5.18-12,12.78,0,8.06,5.26,14,12.5,14C1194.55,611.24,1198.48,606.27,1198.43,597.72Z" style="fill:#fff"/></g><g id="rightHuman02"><path d="M1064,773.21c-14.5-41.51-16.67-85.24-24.15-129.6,13.63,7.81,27.21,9.32,42.25,7.51-6.77-3-12.8-5.26-18.51-8.19a99.09,99.09,0,0,1-33.25-28.24c-5.46-7.08-12-7.7-18-.94-12.27,13.84-26,25.56-43.71,32a18.61,18.61,0,0,0-5.44,2.77c7.13,1.14,14.27,1.84,21.27-.24,6.76-2,13.35-4.57,20.84-7.18-2.93,45.07,5.26,88.73,21.29,131.22q0-2.39,0-4.78c0-14.35-.23-28.71.15-43.06,0.08-3,2.35-5.95,3.62-8.92,2.11,2.29,4.88,4.25,6.21,6.93,6.43,13,12.35,26.2,18.71,39.21,2.08,4.26,5,8.12,7.49,12.17Z" style="fill:#fff"/><path d="M1004.73,588.83c0,6.92,4.14,12.59,9.86,13.51,7.35,1.19,12.37-3.24,13-12.21,0.34-4.74-.89-9.41-5.09-12.43-3.64-2.61-7.62-2.29-11.55-.48C1006.85,579.12,1004.72,583.11,1004.73,588.83Z" style="fill:#fff"/></g><g id="rightHuman03"><path d="M838,784.36c0.7-7.33,1.09-14.71,2.17-22,2.29-15.39,4.74-30.76,7.62-46,0.52-2.75,3.45-5,5.27-7.55,0.08-.12,5.7,10,6.1,11.07,3.35,8.84,4.25,18.39,5.92,27.64,1.75,9.66,2.72,20.63,6.1,29.83a18.84,18.84,0,0,0,.76-5.4c-0.81-32.29-1.4-64.58-2.61-96.86-0.32-8.5.91-16.36,5.58-23.15,6.95-10.12,14.67-19.71,22.11-29.49,1.11-1.46,2.47-2.72,3.12-5.06-1.43.82-2.81,1.76-4.31,2.43-6.79,3-13.44,6.5-20.49,8.74s-13.83.27-20.28-3.12c-19.22-10.11-32.73-25.06-39.48-45.88a10,10,0,0,0-1.43-1.58c0.16,2.71-.1,4.65.44,6.33,3.83,11.8,8.41,23.39,11.58,35.36a141.61,141.61,0,0,1,4.57,28.48c2.13,39.72,3.73,79.46,5.45,119.2,0.24,5.66,0,11.34,0,17Z" style="fill:#fff"/><path d="M849.19,609.36c1.06,3.06,1.28,6.34,3,8.09,2.06,2.05,5.55,4,8.24,3.8,5.64-.46,8.1-5.32,9.62-10.21,1.59-5.12,2.74-10.29-2.12-14.65-6-5.36-10.92-4.86-14.82,2.21C851.31,601.91,850.47,605.76,849.19,609.36Z" style="fill:#fff"/></g><g id="mic"><path d="M757.43,294.1A117.42,117.42,0,1,1,640,176.67,117.41,117.41,0,0,1,757.43,294.1Z" style="fill:none;stroke:#fff;stroke-miterlimit:10;stroke-width:2px;fill-rule:evenodd"/><path d="M640,288.39H611.27c-2.68,0-2.73-.06-2.73-2.74q0-16.17,0-32.32c0-16.06,9.66-28.21,25.28-31.8,15.43-3.55,32.63,7.06,36.24,22.48a42.17,42.17,0,0,1,1.12,9c0.14,11.06,0,22.11.1,33.17,0,1.88-.78,2.24-2.42,2.24C659.25,288.37,649.61,288.39,640,288.39Z" style="fill:#fff;stroke:#fff;stroke-miterlimit:10;fill-rule:evenodd"/><path d="M640,305.64H669c1.08,0,2.28-.13,2.28,1.45,0,7.07.46,14.17-2.58,20.9a31.53,31.53,0,0,1-31.11,18.7,30.55,30.55,0,0,1-27.73-23.2c-1.24-5.22-.92-10.81-1.26-16.24-0.11-1.68,1.16-1.64,2.34-1.64H640Z" style="fill:#fff;stroke:#fff;stroke-miterlimit:10;fill-rule:evenodd"/><path d="M605.58,301L602.26,302c0.06-.17-0.16.15-0.15,0.45,0.22,7-.14,14.09.83,21,1.94,14,14.27,26.54,28.1,29.54a7.56,7.56,0,0,1,2.24.58,5,5,0,0,1,1.15,1.53c-0.58.37-1.25,1.14-1.74,1a52.07,52.07,0,0,1-7.75-2.17,40.57,40.57,0,0,1-25.69-37.7c-0.07-4.26,0-8.51,0-12.76,0-1.39-.26-1.74-2-2s-3.34-2.22-4.66-3.74c-0.33-.38.39-2,1-2.84,1.92-2.72,2.42-2.67,5.38-1.63,1.13,0.39,2.58-.07,3.86-0.23,0.53-.07,1.08-0.62,1.54-0.53,4.22,0.8,8.42-.26,12.65,0s8.65,0,13,0h26.15c4.33,0,8.66,0,13,0a25.6,25.6,0,0,1,3.69.59,0.78,0.78,0,0,0,.18.09c3-2.1,6.33,2.14,9.41-.55,0.4-.35,2.33.44,3,1.18,1,1,2.63,2,1.88,3.91-0.89,2.21-3.36,4-5.28,3.73-1.72-.19-1.44,1.06-1.45,1.93-0.06,4-.1,7.94,0,11.91a39.11,39.11,0,0,1-5.21,20.76,40.4,40.4,0,0,1-27.09,19.89l-0.21,0c-1,.16-2.25.56-2.53-1-0.26-1.43,1-1.44,1.87-1.78,3.83-1.42,7.93-2.39,11.43-4.42,11.53-6.7,17.83-17,18.89-30.25,0.42-5.22.11-10.48,0.12-15.73a3.48,3.48,0,0,0-.15-0.86,20.9,20.9,0,0,0-4.09-1.11c-1.2-.08-2.42.57-3.64,0.58-7,.06-13.9,0-20.84,0-13.11,0-26.23,0-39.34,0a37.07,37.07,0,0,1-4.23-.49c-0.17-2.54-.35-5.08-0.53-7.62l-1.11-.18c-0.65,2.43-.21,5-0.27,7.74h2Zm-8-.14v-7.43c-1.69.11-1.88,0.69-1.56,5.62C596.1,299.74,595.57,301.49,597.61,300.82Zm78.62-7.38c-1.87,0-1.89,0-1.51,6.36a3.59,3.59,0,0,0,1,1.37l0.55-.39v-7.34Zm6-.07v7.42l0.63,0.31a4.42,4.42,0,0,0,.84-1.5C684,294.64,683.79,293.59,682.23,293.37Z" style="fill:#fff;stroke:#fff;stroke-miterlimit:10;fill-rule:evenodd"/><path d="M639.77,367.35c-8.58,0-17.15,0-25.73,0-2.74,0-3.49-.59-3.51-2.55,0-3.35.65-4.2,3.55-4.21,5.53,0,11.06,0,16.58,0,1.68,0,2.77-.32,2.76-2.27a1.63,1.63,0,0,1,.5-1.11c1.74-1.54,1.87-2.9,0-4.59-1-.9-0.12-1.81,1-1.85,3.33-.09,6.66-0.11,10,0,1.47,0.06,1.79,1.06.73,2.12-1.4,1.4-1.4,2.65,0,4a1.87,1.87,0,0,1,.7,1c-0.16,2.85,1.75,2.69,3.67,2.68q8-.06,15.95,0c2.64,0,3.29.78,3.34,3.72,0,2.13-.89,3-3.4,3-8.71,0-17.42,0-26.14,0h0Z" style="fill:#fff;stroke:#fff;stroke-miterlimit:10;fill-rule:evenodd"/></g><g id="s4_title"><rect x="63.16" y="40.19" width="149.99" height="149.99" style="fill:none;stroke:#fff;stroke-linejoin:round;stroke-width:5px"/><path d="M93.06,169.11c1.25,0,1.78.44,1.78,1.63v2.62H96.6a0.64,0.64,0,0,1,.62.73,0.62,0.62,0,0,1-.62.73h-19a0.61,0.61,0,0,1-.62-0.73,0.62,0.62,0,0,1,.62-0.73h1.72v-2.62c0-1.19.53-1.63,1.8-1.63h11.9Zm-6.93-11.68H79.86a0.57,0.57,0,0,1-.55-0.64,0.56,0.56,0,0,1,.55-0.62h6.27v-0.88a0.62,0.62,0,0,1,.77-0.64,0.61,0.61,0,0,1,.75.64v0.88H93c1.3,0,1.8.46,1.8,1.58v1h1.87a0.55,0.55,0,0,1,.55.62,0.57,0.57,0,0,1-.55.64H94.84v1c0,1.12-.51,1.58-1.8,1.58H87.65v1.34h8.78a0.57,0.57,0,0,1,.59.62,0.61,0.61,0,0,1-.57.68H77.73a0.58,0.58,0,0,1-.57-0.66,0.56,0.56,0,0,1,.55-0.64h8.43v-1.34H79.82a0.62,0.62,0,0,1,0-1.23h6.31V160H77.61a0.57,0.57,0,0,1-.55-0.64,0.55,0.55,0,0,1,.55-0.62h8.52v-1.3Zm-4.53,8.91a0.77,0.77,0,0,1-.13.4,12,12,0,0,1-2.31,2.62,1,1,0,0,1-.62.24,0.82,0.82,0,0,1-.64-0.29,0.7,0.7,0,0,1-.24-0.53,0.67,0.67,0,0,1,.31-0.57A9.86,9.86,0,0,0,80.1,166a0.74,0.74,0,0,1,.62-0.33,1.18,1.18,0,0,1,.46.11A0.66,0.66,0,0,1,81.6,166.34Zm0,4.07a0.47,0.47,0,0,0-.59.53v2.44h3v-3H81.58Zm3.17-4.8a0.65,0.65,0,0,1,.7.51c0.15,0.57.31,1.3,0.4,1.85v0.11a0.73,0.73,0,0,1-.75.68,0.55,0.55,0,0,1-.18,0,0.62,0.62,0,0,1-.7-0.59c-0.07-.57-0.2-1.3-0.31-1.78A0.83,0.83,0,0,1,84.74,165.61Zm3.83,4.8H85.49v3h3.08v-3Zm4.67-11.68v-0.79c0-.4-0.18-0.51-0.59-0.51h-5v1.3h5.59Zm-5.59,2.57h5c0.42,0,.59-0.11.59-0.51V160H87.65v1.32Zm1.58,4.31a0.71,0.71,0,0,1,.68.4,12.62,12.62,0,0,1,.64,1.83,0.75,0.75,0,0,1,0,.22,0.7,0.7,0,0,1-.66.66,1.35,1.35,0,0,1-.29,0,0.63,0.63,0,0,1-.68-0.46,13.15,13.15,0,0,0-.53-1.85,0.94,0.94,0,0,1,0-.24,0.61,0.61,0,0,1,.57-0.55A1.36,1.36,0,0,1,89.23,165.61Zm4,5.32a0.47,0.47,0,0,0-.59-0.53H90.07v3h3.15v-2.44Zm3.41-2.4a0.72,0.72,0,0,1,.13.42,0.85,0.85,0,0,1-.33.66,0.94,0.94,0,0,1-.55.2,0.66,0.66,0,0,1-.55-0.31A20.79,20.79,0,0,0,93,166.78a0.83,0.83,0,0,1-.24-0.51,0.65,0.65,0,0,1,.29-0.53,0.89,0.89,0,0,1,.55-0.2,0.76,0.76,0,0,1,.55.22A18.63,18.63,0,0,1,96.63,168.54Z" style="fill:#fff"/><path d="M100.89,160v0.11a27.63,27.63,0,0,1-.84,5.13,0.6,0.6,0,0,1-.62.42,1.51,1.51,0,0,1-.29,0,0.62,0.62,0,0,1-.48-0.62,1.51,1.51,0,0,1,0-.29A23.13,23.13,0,0,0,99.5,160a0.57,0.57,0,0,1,.64-0.62h0.11A0.55,0.55,0,0,1,100.89,160Zm2.44,14.83a0.67,0.67,0,0,1-.81.62,0.69,0.69,0,0,1-.81-0.62V155.65a0.69,0.69,0,0,1,.81-0.62,0.67,0.67,0,0,1,.81.62v19.23Zm1.14-16.15a0.48,0.48,0,0,1,.46.31,15.83,15.83,0,0,1,.81,2.2,1.13,1.13,0,0,1,0,.24,0.55,0.55,0,0,1-.42.51,0.84,0.84,0,0,1-.37.09,0.48,0.48,0,0,1-.48-0.42,14.83,14.83,0,0,0-.68-2,0.74,0.74,0,0,1-.09-0.33,0.52,0.52,0,0,1,.4-0.48A1.09,1.09,0,0,1,104.48,158.73Zm14.32,3.39a0.53,0.53,0,0,1,.55.62,0.57,0.57,0,0,1-.55.66H105.86a0.55,0.55,0,0,1-.57-0.64,0.54,0.54,0,0,1,.57-0.64h5.32v-1.54H106.9a0.65,0.65,0,0,1,0-1.28h4.29v-1.36h-4.93a0.55,0.55,0,0,1-.55-0.64,0.57,0.57,0,0,1,.55-0.66h4.93v-1.06c0-.4.29-0.57,0.77-0.57a0.59,0.59,0,0,1,.73.57v1.06h5.74a0.57,0.57,0,0,1,.55.66,0.56,0.56,0,0,1-.55.64h-5.74v1.36h4.93a0.66,0.66,0,0,1,0,1.28h-4.93v1.54h6.12Zm-10.89,9.55v3.21a0.67,0.67,0,0,1-.81.59,0.65,0.65,0,0,1-.79-0.59v-8.52c0-1.19.57-1.65,1.85-1.65h7.63c1.3,0,1.89.46,1.89,1.65v7.15c0,1.39-.88,1.85-2.6,1.85a9.22,9.22,0,0,1-2.16-.24,0.64,0.64,0,0,1-.53-0.66,1,1,0,0,1,0-.24,0.59,0.59,0,0,1,.62-0.55,0.75,0.75,0,0,1,.22,0,5.74,5.74,0,0,0,1.65.24c1,0,1.21-.09,1.21-0.68v-1.58h-8.21Zm8.21-5.13c0-.44-0.22-0.55-0.66-0.55h-6.91c-0.44,0-.64.11-0.64,0.55v1h8.21v-1Zm0,2.27h-8.21v1.58h8.21V168.8Z" style="fill:#fff"/><path d="M124.41,163.28a0.86,0.86,0,0,1,.24.62,1,1,0,0,1-.18.53,0.94,0.94,0,0,1-.68.31,0.75,0.75,0,0,1-.53-0.2,20.24,20.24,0,0,0-2.35-1.94,0.69,0.69,0,0,1-.31-0.57,0.78,0.78,0,0,1,.2-0.51,0.88,0.88,0,0,1,.68-0.35,0.91,0.91,0,0,1,.44.13A18.17,18.17,0,0,1,124.41,163.28Zm-0.59,4.27a1.29,1.29,0,0,1,.29,0,0.78,0.78,0,0,1,.62.75,1.11,1.11,0,0,1,0,.26,28.1,28.1,0,0,1-2.44,6.05,0.79,0.79,0,0,1-.68.42,1,1,0,0,1-.53-0.15,0.71,0.71,0,0,1-.4-0.64,1,1,0,0,1,.15-0.51,27.52,27.52,0,0,0,2.33-5.68A0.7,0.7,0,0,1,123.82,167.55ZM125,157.8a0.78,0.78,0,0,1,.24.57,1,1,0,0,1-.24.62,0.85,0.85,0,0,1-.59.24,0.78,0.78,0,0,1-.57-0.22,23.83,23.83,0,0,0-2.35-2,0.73,0.73,0,0,1-.26-0.55,0.66,0.66,0,0,1,.24-0.53,0.89,0.89,0,0,1,.66-0.31,1,1,0,0,1,.53.18A18,18,0,0,1,125,157.8Zm15,2.6a30,30,0,0,1-.51,4.2,19.51,19.51,0,0,1-1.58,4.84,14.18,14.18,0,0,0,3.37,4,0.74,0.74,0,0,1,.33.64,1.05,1.05,0,0,1-.22.62,0.76,0.76,0,0,1-.62.33,1,1,0,0,1-.59-0.24,16.72,16.72,0,0,1-3.15-3.74,18.23,18.23,0,0,1-3.17,3.87,1,1,0,0,1-.62.26,0.82,0.82,0,0,1-.59-0.26,0.86,0.86,0,0,1,.07-1.25,15.75,15.75,0,0,0,3.43-4.22,19.89,19.89,0,0,1-1.91-6.42c-0.13.31-.29,0.57-0.4,0.79a0.76,0.76,0,0,1-.68.46,1,1,0,0,1-.48-0.15,0.65,0.65,0,0,1-.29-0.53,0.84,0.84,0,0,1,.09-0.37,1.54,1.54,0,0,1-1.5.62h-1.12v1.61h3.15a0.59,0.59,0,0,1,.57.68,0.6,0.6,0,0,1-.57.68h-4.42c0,0.51,0,1-.09,1.52h2.57a1.35,1.35,0,0,1,1.63,1.52,13.62,13.62,0,0,1-.55,4,1.81,1.81,0,0,1-2,1.28,4.68,4.68,0,0,1-1.43-.2,0.71,0.71,0,0,1-.48-0.68,1.11,1.11,0,0,1,0-.26,0.67,0.67,0,0,1,.59-0.51,0.78,0.78,0,0,1,.22,0,2.78,2.78,0,0,0,.9.13,0.68,0.68,0,0,0,.77-0.59,12.33,12.33,0,0,0,.33-2.86c0-.4-0.22-0.51-0.62-0.51h-2.24a9.71,9.71,0,0,1-2.84,5.37,0.9,0.9,0,0,1-.62.24,0.76,0.76,0,0,1-.59-0.24,0.63,0.63,0,0,1-.24-0.53,0.89,0.89,0,0,1,.29-0.62c1.74-1.67,2.75-3.72,2.82-7.11h-1.85a0.6,0.6,0,0,1-.55-0.68,0.59,0.59,0,0,1,.55-0.68h3.17v-1.61h-1.1c-1.17,0-1.72-.4-1.72-1.45v-4.22c0-1.06.51-1.45,1.63-1.45H128a12.36,12.36,0,0,0,.51-1.28,0.6,0.6,0,0,1,.66-0.42,1.36,1.36,0,0,1,.29,0,0.65,0.65,0,0,1,.62.51,0.37,0.37,0,0,1,0,.15,10.78,10.78,0,0,1-.42,1h1.43c1.17,0,1.67.4,1.67,1.45v4.16a1.89,1.89,0,0,1-.15.84l0-.09a22.94,22.94,0,0,0,2.82-7.42,0.69,0.69,0,0,1,.75-0.55,0.75,0.75,0,0,1,.22,0,0.68,0.68,0,0,1,.59.7,0.61,0.61,0,0,1,0,.2,20.78,20.78,0,0,1-.77,2.88h4.66a0.65,0.65,0,0,1,.59.75,0.64,0.64,0,0,1-.59.75h-0.81Zm-8.78-.79v-1.19c0-.4-0.18-0.48-0.55-0.48h-3.08c-0.37,0-.55.09-0.55,0.48v1.19h4.18Zm-4.18,2.51c0,0.4.18,0.48,0.55,0.48h3.08c0.37,0,.55-0.09.55-0.48v-1.28h-4.18v1.28Zm8.54-1.72a7.75,7.75,0,0,1-.33.75,24,24,0,0,0,1.76,6.53,22.92,22.92,0,0,0,1.45-7.28h-2.88Z" style="fill:#fff"/><path d="M149.18,163.46a0.62,0.62,0,0,1,.62.73,0.66,0.66,0,0,1-.62.77h-2.09L147,167.59c0.59-.13,1.17-0.24,1.67-0.37a0.61,0.61,0,0,1,.2,0,0.58,0.58,0,0,1,.59.55,0.91,0.91,0,0,1,0,.24,0.6,0.6,0,0,1-.51.66c-0.66.18-1.36,0.35-2.11,0.51-0.26,2.57-.9,4.53-2.44,5.92a0.86,0.86,0,0,1-.59.26,0.74,0.74,0,0,1-.59-0.29,0.88,0.88,0,0,1-.24-0.55,0.84,0.84,0,0,1,.31-0.62,6.69,6.69,0,0,0,2-4.44q-0.89.17-1.78,0.26h0a0.76,0.76,0,0,1-.75-0.73v-0.15a0.67,0.67,0,0,1,.57-0.73c0.7-.07,1.43-0.15,2.16-0.26,0-.95.07-1.91,0.07-2.88h-2.22a0.66,0.66,0,0,1-.62-0.77,0.62,0.62,0,0,1,.62-0.73h3.23a22.55,22.55,0,0,0,.88-3.67,0.57,0.57,0,0,1,.59-0.53,0.48,0.48,0,0,1,.18,0,0.58,0.58,0,0,1,.59.59,0.61,0.61,0,0,1,0,.2,19.93,19.93,0,0,1-.92,3.39h1.3Zm-0.2-6.07a0.64,0.64,0,0,1,.62.75,0.66,0.66,0,0,1-.62.77h-5.35a0.65,0.65,0,0,1-.62-0.77,0.64,0.64,0,0,1,.62-0.75h1.91v-1.74a0.79,0.79,0,0,1,1.54,0v1.74H149Zm-4.51,1.89a0.58,0.58,0,0,1,.62.44,14.82,14.82,0,0,1,.55,2.62v0.09a0.63,0.63,0,0,1-.64.62h-0.13a0.54,0.54,0,0,1-.59-0.51,17.22,17.22,0,0,0-.51-2.57,0.48,0.48,0,0,1,0-.18,0.55,0.55,0,0,1,.53-0.48A0.61,0.61,0,0,1,144.47,159.28Zm11.38-.4a0.65,0.65,0,0,1,.59.75,0.67,0.67,0,0,1-.59.79h-5.79a0.8,0.8,0,0,1,0-1.54h5.79Zm-1.3,9.46a1.33,1.33,0,0,1,1.5,1.58v3.43a1.35,1.35,0,0,1-1.5,1.61h-3a1.38,1.38,0,0,1-1.56-1.61v-3.43a1.36,1.36,0,0,1,1.56-1.58h3Zm0.75-6.23a0.59,0.59,0,0,1,.55.7,0.61,0.61,0,0,1-.55.73h-4.6a0.63,0.63,0,0,1-.57-0.73,0.61,0.61,0,0,1,.57-0.7h4.6Zm0,3.12a0.57,0.57,0,0,1,.55.68,0.63,0.63,0,0,1-.55.75h-4.6a0.64,0.64,0,0,1-.57-0.73,0.61,0.61,0,0,1,.57-0.7h4.6Zm0-9.51a0.62,0.62,0,0,1,.57.73,0.61,0.61,0,0,1-.57.73h-4.58a0.61,0.61,0,0,1-.57-0.7,0.64,0.64,0,0,1,.57-0.75h4.58Zm-3.89,17.32a0.45,0.45,0,0,0,.55.51h2.11a0.44,0.44,0,0,0,.53-0.51v-2.79a0.46,0.46,0,0,0-.53-0.53H152a0.47,0.47,0,0,0-.55.53v2.79Zm11.51-9.35a0.63,0.63,0,0,1,.62.75,0.64,0.64,0,0,1-.62.75h-2.24v3.23h2.07a0.63,0.63,0,0,1,.62.75,0.66,0.66,0,0,1-.62.77h-2.07v4.91a0.64,0.64,0,0,1-.75.57,0.65,0.65,0,0,1-.77-0.57v-4.91h-1.89a0.78,0.78,0,0,1,0-1.52h1.89V165.2H157a0.64,0.64,0,0,1-.62-0.75,0.63,0.63,0,0,1,.62-0.75h3.08a26.1,26.1,0,0,0,1-4,0.55,0.55,0,0,1,.57-0.48,0.61,0.61,0,0,1,.2,0,0.64,0.64,0,0,1,.59.62,0.37,0.37,0,0,1,0,.15,28.41,28.41,0,0,1-1,3.65h1.54Zm-0.29-6.29a0.78,0.78,0,0,1,0,1.52H157a0.64,0.64,0,0,1-.59-0.75,0.65,0.65,0,0,1,.59-0.77h2.07v-1.83a0.65,0.65,0,0,1,.79-0.59,0.62,0.62,0,0,1,.75.59v1.83h2Zm-4.71,1.91a0.63,0.63,0,0,1,.64.44,14.75,14.75,0,0,1,.57,2.71v0.09a0.62,0.62,0,0,1-.55.64,0.48,0.48,0,0,1-.18,0,0.54,0.54,0,0,1-.59-0.46,18.35,18.35,0,0,0-.55-2.66,1,1,0,0,1,0-.22,0.54,0.54,0,0,1,.46-0.53A0.9,0.9,0,0,1,157.92,159.32Z" style="fill:#fff"/><path d="M165.61,158.55c0-1.3.55-1.78,1.85-1.78h2.6a1.53,1.53,0,0,1,1.83,1.78v11.24a1.53,1.53,0,0,1-1.83,1.78h-2.6c-1.3,0-1.85-.48-1.85-1.78V158.55Zm1.63,11a0.5,0.5,0,0,0,.62.55h1.8a0.49,0.49,0,0,0,.59-0.55V158.84a0.49,0.49,0,0,0-.59-0.55h-1.8a0.49,0.49,0,0,0-.62.55v10.67Zm6.21-11.62a1.58,1.58,0,0,1,1.87-1.8h7.15a1.59,1.59,0,0,1,1.87,1.8v6.25a1.59,1.59,0,0,1-1.87,1.83H175.1v6.23c0,1,.4,1.17,3.63,1.17h0.77a10.86,10.86,0,0,0,2.95-.26,1.21,1.21,0,0,0,.73-0.62,8.63,8.63,0,0,0,.37-2.57,0.68,0.68,0,0,1,.79-0.64h0.07a0.7,0.7,0,0,1,.81.7v0a9.67,9.67,0,0,1-.55,3.37,2.14,2.14,0,0,1-1.61,1.28,17.67,17.67,0,0,1-3.54.29c-0.35,0-.75,0-1.17,0-4.18,0-4.91-.46-4.91-2.49V157.89Zm4.6,6.58v-6.84h-2.29a0.53,0.53,0,0,0-.66.57v6.27H178Zm4.64-6.27a0.52,0.52,0,0,0-.64-0.57h-2.4v6.84h2.4a0.52,0.52,0,0,0,.64-0.59V158.2Z" style="fill:#fff"/><path d="M194.83,172.41a1.48,1.48,0,0,1-1.52,1.52,1.52,1.52,0,0,1,0-3A1.48,1.48,0,0,1,194.83,172.41Zm-2.71-14.87a1.06,1.06,0,0,1,1.21-1,1,1,0,0,1,1.17,1l-0.31,11.27a0.8,0.8,0,0,1-.88.75,0.78,0.78,0,0,1-.88-0.75Z" style="fill:#fff"/><path d="M93.19,69.19c1.2,0,1.83.82,1.83,2.14s-0.63,2.21-1.83,2.21H90V86.33c1.07-.44,2-0.82,2.9-1.2a2.4,2.4,0,0,1,1.07-.25,1.87,1.87,0,0,1,1.76,1.39,4.25,4.25,0,0,1,.13.88,2.15,2.15,0,0,1-1.45,2c-1.32.63-2.83,1.32-4.41,2v18.33c0,4.28-2,5.54-6,5.54a18.58,18.58,0,0,1-4.16-.38,1.89,1.89,0,0,1-1.39-2,2.58,2.58,0,0,1,.06-0.69,1.73,1.73,0,0,1,1.7-1.76,0.8,0.8,0,0,1,.38.06,14.18,14.18,0,0,0,2.77.25c1.57,0,2-.31,2-2V92.76c-1.64.57-3.34,1.13-4.91,1.58a2.68,2.68,0,0,1-.69.13,2,2,0,0,1-1.83-1.83,3.69,3.69,0,0,1-.13-0.82,1.78,1.78,0,0,1,1.39-1.89c2-.5,4.1-1.2,6.17-1.89V73.54H80.15c-1.2,0-1.83-.82-1.83-2.21s0.63-2.14,1.83-2.14h5.17V58.73c0-1.2.94-1.76,2.39-1.76S90,57.54,90,58.73V69.19h3.21Zm7.69-6.62c-1,0-1.64-.69-1.64-2.08s0.63-2,1.64-2H131.5c1,0,1.64.76,1.64,2s-0.63,2.08-1.64,2.08H118.14v4.28h13.29c3.34,0,5,1.2,5,4.47v6.43c0,1.26-.82,1.76-2.14,1.76s-2.14-.5-2.14-1.76V72.09c0-1.07-.57-1.39-1.64-1.39H118.14v14c0,1.32-.82,1.76-2.14,1.76s-2.14-.44-2.14-1.76v-14h-11.4c-1.07,0-1.7.32-1.7,1.39v5.48c0,1.26-.82,1.7-2.14,1.7s-2.08-.44-2.08-1.7V71.33c0-3.28,1.58-4.47,4.85-4.47h12.47V62.58h-13Zm27.41,26.21c3.78,0,5.42,1.39,5.42,4.85v15.5c0,3.53-1.64,4.91-5.42,4.91H104c-3.78,0-5.42-1.39-5.42-4.91V93.64c0-3.47,1.64-4.85,5.42-4.85h24.32Zm-17.7-7.5c0.95,0,1.39.76,1.39,1.76s-0.44,1.83-1.39,1.83h-8.19c-0.94,0-1.39-.82-1.39-1.83s0.44-1.76,1.39-1.76h8.19Zm0-7c0.95,0,1.39.76,1.39,1.76s-0.44,1.83-1.39,1.83H103.9c-0.95,0-1.39-.82-1.39-1.83S103,74.3,103.9,74.3h6.68Zm3.15,18.4H105c-1.26,0-1.83.32-1.83,1.51v5h10.58V92.69Zm0,10.4H103.15v5.54c0,1.2.57,1.51,1.83,1.51h8.76v-7.06Zm15.37-3.84v-5c0-1.2-.57-1.51-1.83-1.51h-9.2v6.55h11Zm-1.83,10.9c1.26,0,1.83-.31,1.83-1.51v-5.54h-11v7.06h9.2Zm1.39-35.85a1.52,1.52,0,0,1,1.45,1.76,1.58,1.58,0,0,1-1.45,1.83h-7.18c-0.94,0-1.39-.82-1.39-1.83s0.44-1.76,1.39-1.76h7.18Zm1.51,7a1.52,1.52,0,0,1,1.45,1.76,1.58,1.58,0,0,1-1.45,1.83h-8.69c-0.94,0-1.39-.82-1.39-1.83s0.44-1.76,1.39-1.76h8.69Z" style="fill:#fff"/><path d="M186.31,75.49c-2.65-2.9-5.54-5.8-8.32-8.32a1.79,1.79,0,0,1-.63-1.39,2.28,2.28,0,0,1,.88-1.7,2.44,2.44,0,0,1,1.64-.63,2.68,2.68,0,0,1,1.7.69,144.86,144.86,0,0,1,16.13,17,2.72,2.72,0,0,1,.63,1.7,2.3,2.3,0,0,1-1.07,1.89,2.84,2.84,0,0,1-1.76.69,2.6,2.6,0,0,1-2-1.2c-1.07-1.51-2.33-3.15-3.72-4.79-14.49,1.76-31.44,2.58-44.48,2.77a2.31,2.31,0,0,1-2.46-2.46V79.65A2.26,2.26,0,0,1,145,77.19h7.06a103.3,103.3,0,0,0,11.72-18.78A2.36,2.36,0,0,1,166.08,57a2.82,2.82,0,0,1,1.26.25,2.05,2.05,0,0,1,1.7,2,2.86,2.86,0,0,1-.25,1.13,129.6,129.6,0,0,1-10.71,16.82C167.47,76.88,176.92,76.44,186.31,75.49Zm-0.06,12.92c3.91,0,5.8,1.58,5.8,5.42v14.11c0,3.91-1.89,5.48-5.8,5.48H155c-3.91,0-5.86-1.58-5.86-5.48V93.83c0-3.84,2-5.42,5.86-5.42h31.25ZM185,108.82c1.39,0,2-.44,2-1.89V94.83c0-1.51-.63-1.89-2-1.89H156.19c-1.39,0-2,.38-2,1.89v12.1c0,1.45.63,1.89,2,1.89H185Z" style="fill:#fff"/></g><g id="s4_story"><text transform="translate(370.86 40.19)" style="font-size:18px;fill:#fff;font-family:Hiragino Maru Gothic Pro">「這光芒很暖和<tspan x="126" y="0" style="letter-spacing:-9px">。</tspan><tspan x="135" y="0" style="letter-spacing:-18px">」</tspan><tspan x="135" y="0">「太</tspan><tspan x="171" y="0">亮</tspan><tspan x="188.19" y="0">了</tspan><tspan x="205.34" y="0" style="letter-spacing:-9px">，</tspan><tspan x="214.34" y="0">我睜不開眼</tspan><tspan x="304.34" y="0" style="letter-spacing:-9px">。」</tspan><tspan x="322.34" y="0">不</tspan><tspan x="340.27" y="0">同領域的眼光開始激辯</tspan><tspan x="520.27" y="0" style="letter-spacing:-9px">。</tspan><tspan x="66.64" y="36">圍繞著光芒的火堆</tspan><tspan x="210.64" y="36" style="letter-spacing:-9px">，</tspan><tspan x="219.64" y="36">在那聲音聽來</tspan><tspan x="327.64" y="36" style="letter-spacing:-9px">，</tspan><tspan x="336.64" y="36">卻是美妙的歌聲</tspan><tspan x="462.64" y="36" style="letter-spacing:-9px">。</tspan><tspan x="73.35" y="72">「配把吉他就更</tspan><tspan x="199.35" y="72">好</tspan><tspan x="216.54" y="72">了</tspan><tspan x="233.69" y="72" style="letter-spacing:-9px">。」</tspan><tspan x="251.69" y="72">光芒</tspan><tspan x="287.69" y="72">之</tspan><tspan x="305.41" y="72">中</tspan><tspan x="322.83" y="72">出</tspan><tspan x="340.58" y="72">現</tspan><tspan x="357.77" y="72">了</tspan><tspan x="374.92" y="72">支麥克風</tspan><tspan x="446.92" y="72" style="letter-spacing:-9px">。</tspan><tspan x="75.64" y="108">「來吧</tspan><tspan x="129.64" y="108" style="letter-spacing:-9px">。</tspan><tspan x="138.64" y="108">與其單獨發著光</tspan><tspan x="264.64" y="108" style="letter-spacing:-9px">，</tspan><tspan x="273.64" y="108">不如成為廣納的容器</tspan><tspan x="435.64" y="108" style="letter-spacing:-9px">。」</tspan></text></g><g id="alpha"><rect width="1280" height="800" style="fill:none"/></g></svg>