<svg id="scene06" xmlns="http://www.w3.org/2000/svg" xmlns:xlink="http://www.w3.org/1999/xlink" viewBox="0 0 1279.99936 800.00022"><defs><linearGradient id="linear-gradient" x1="727.05318" y1="927.42147" x2="980.28789" y2="674.18676" gradientTransform="matrix(0, -1, -1, 0, 1523.87254, 1512.5977)" gradientUnits="userSpaceOnUse"><stop offset="0" stop-color="#d5d5d5"/><stop offset="1" stop-color="#d2d2d2"/></linearGradient><linearGradient id="linear-gradient-2" x1="1274.93237" y1="500.65168" x2="1691.28904" y2="84.29502" gradientTransform="matrix(0, -1, -1, 0, 1523.87254, 1512.5977)" gradientUnits="userSpaceOnUse"><stop offset="0" stop-color="#9a9899"/><stop offset="1" stop-color="#929393"/></linearGradient><linearGradient id="linear-gradient-3" x1="-28.74742" y1="1877.72896" x2="2927.62369" y2="-1078.64214" gradientTransform="matrix(0, -1, -1, 0, 1523.87254, 1512.5977)" gradientUnits="userSpaceOnUse"><stop offset="0" stop-color="#969596"/><stop offset="1" stop-color="#929292"/></linearGradient><linearGradient id="linear-gradient-4" x1="1279.25085" y1="761.39734" x2="1337.2847" y2="703.36349" gradientTransform="matrix(0, -1, -1, 0, 1523.87254, 1512.5977)" gradientUnits="userSpaceOnUse"><stop offset="0" stop-color="#a4a5a4"/><stop offset="1" stop-color="#9d9d9d"/></linearGradient><linearGradient id="linear-gradient-5" x1="1250.18554" y1="800.33706" x2="1452.37487" y2="598.14772" gradientTransform="matrix(0, -1, -1, 0, 1523.87254, 1512.5977)" gradientUnits="userSpaceOnUse"><stop offset="0" stop-color="#989898"/><stop offset="1" stop-color="#9a999a"/></linearGradient><linearGradient id="linear-gradient-6" x1="1033.28494" y1="908.65312" x2="1619.4034" y2="322.53466" gradientTransform="matrix(0, -1, -1, 0, 1523.87254, 1512.5977)" gradientUnits="userSpaceOnUse"><stop offset="0" stop-color="#9a999a"/><stop offset="1" stop-color="#9a999a"/></linearGradient><linearGradient id="linear-gradient-7" x1="872.75634" y1="969.60077" x2="979.81097" y2="862.54613" gradientTransform="matrix(0, -1, -1, 0, 1523.87254, 1512.5977)" gradientUnits="userSpaceOnUse"><stop offset="0" stop-color="#d2d3d4"/><stop offset="1" stop-color="#cececf"/></linearGradient><linearGradient id="linear-gradient-8" x1="897.20147" y1="1193.93775" x2="1175.64857" y2="915.49065" gradientTransform="matrix(0, -1, -1, 0, 1523.87254, 1512.5977)" gradientUnits="userSpaceOnUse"><stop offset="0" stop-color="#c4c4c3"/><stop offset="1" stop-color="#c4c4c3"/></linearGradient><linearGradient id="linear-gradient-9" x1="1185.59795" y1="1427.67696" x2="1304.18529" y2="1309.08961" gradientTransform="matrix(0, -1, -1, 0, 1523.87254, 1512.5977)" gradientUnits="userSpaceOnUse"><stop offset="0" stop-color="#a1a1a1"/><stop offset="1" stop-color="#9b9b9b"/></linearGradient><linearGradient id="linear-gradient-10" x1="839.89078" y1="617.49327" x2="1158.25625" y2="299.12779" gradientTransform="matrix(0, -1, -1, 0, 1523.87254, 1512.5977)" gradientUnits="userSpaceOnUse"><stop offset="0" stop-color="#d5d5d5"/><stop offset="1" stop-color="#cbcccc"/></linearGradient><linearGradient id="linear-gradient-11" x1="1077.96468" y1="634.61216" x2="1165.67148" y2="546.90537" gradientTransform="matrix(0, -1, -1, 0, 1523.87254, 1512.5977)" gradientUnits="userSpaceOnUse"><stop offset="0" stop-color="#b0b1b0"/><stop offset="1" stop-color="#b4b5b5"/></linearGradient><linearGradient id="linear-gradient-12" x1="1099.77796" y1="1153.72762" x2="1506.12471" y2="747.38087" gradientTransform="matrix(0, -1, -1, 0, 1523.87254, 1512.5977)" gradientUnits="userSpaceOnUse"><stop offset="0" stop-color="#9a999a"/><stop offset="1" stop-color="#969596"/></linearGradient><linearGradient id="linear-gradient-13" x1="816.03349" y1="435.97404" x2="865.37241" y2="386.63512" gradientTransform="matrix(0, -1, -1, 0, 1523.87254, 1512.5977)" gradientUnits="userSpaceOnUse"><stop offset="0" stop-color="#e0dfde"/><stop offset="1" stop-color="#e1e0e0"/></linearGradient><linearGradient id="linear-gradient-14" x1="643.14412" y1="523.37964" x2="919.09736" y2="247.4264" gradientTransform="matrix(0, -1, -1, 0, 1523.87254, 1512.5977)" gradientUnits="userSpaceOnUse"><stop offset="0" stop-color="#e3e3e2"/><stop offset="1" stop-color="#e0dfde"/></linearGradient><linearGradient id="linear-gradient-15" x1="811.58197" y1="413.85478" x2="899.78287" y2="325.65389" gradientTransform="matrix(0, -1, -1, 0, 1523.87254, 1512.5977)" gradientUnits="userSpaceOnUse"><stop offset="0" stop-color="#dedede"/><stop offset="1" stop-color="#dcdcdd"/></linearGradient><linearGradient id="linear-gradient-16" x1="739.52438" y1="354.14404" x2="797.46201" y2="296.20641" gradientTransform="matrix(0, -1, -1, 0, 1523.87254, 1512.5977)" gradientUnits="userSpaceOnUse"><stop offset="0" stop-color="#eae9e9"/><stop offset="1" stop-color="#eae9e9"/></linearGradient><linearGradient id="linear-gradient-17" x1="744.55955" y1="349.10887" x2="877.68972" y2="215.9787" gradientTransform="matrix(0, -1, -1, 0, 1523.87254, 1512.5977)" gradientUnits="userSpaceOnUse"><stop offset="0" stop-color="#e5e5e3"/><stop offset="1" stop-color="#e5e5e3"/></linearGradient><linearGradient id="linear-gradient-18" x1="626.16098" y1="1548.07308" x2="902.37135" y2="1271.8627" gradientTransform="matrix(0, -1, -1, 0, 1523.87254, 1512.5977)" gradientUnits="userSpaceOnUse"><stop offset="0" stop-color="#e4e4e3"/><stop offset="1" stop-color="#e2e1e1"/></linearGradient><linearGradient id="linear-gradient-19" x1="683.73059" y1="1406.72252" x2="813.5781" y2="1276.87502" gradientTransform="matrix(0, -1, -1, 0, 1523.87254, 1512.5977)" gradientUnits="userSpaceOnUse"><stop offset="0" stop-color="#e5e5e3"/><stop offset="1" stop-color="#e4e4e3"/></linearGradient><linearGradient id="linear-gradient-20" x1="699.64466" y1="1524.94124" x2="724.77395" y2="1499.81195" xlink:href="#linear-gradient-17"/><linearGradient id="linear-gradient-21" x1="860.37325" y1="1292.6828" x2="1119.52528" y2="1033.53078" gradientTransform="matrix(0, -1, -1, 0, 1523.87254, 1512.5977)" gradientUnits="userSpaceOnUse"><stop offset="0" stop-color="#c1c0c0"/><stop offset="1" stop-color="#bbb"/></linearGradient><linearGradient id="linear-gradient-22" x1="1115.42147" y1="1339.50555" x2="1223.85823" y2="1231.0688" gradientTransform="matrix(0, -1, -1, 0, 1523.87254, 1512.5977)" gradientUnits="userSpaceOnUse"><stop offset="0" stop-color="#aaa9a9"/><stop offset="1" stop-color="#adadac"/></linearGradient><linearGradient id="linear-gradient-23" x1="1440.38865" y1="1532.87406" x2="1468.18598" y2="1505.07672" gradientTransform="matrix(0, -1, -1, 0, 1523.87254, 1512.5977)" gradientUnits="userSpaceOnUse"><stop offset="0" stop-color="#888989"/><stop offset="1" stop-color="#888989"/></linearGradient><linearGradient id="linear-gradient-24" x1="822.2168" y1="833.5264" x2="1130.49999" y2="525.24321" gradientTransform="matrix(0, -1, -1, 0, 1523.87254, 1512.5977)" gradientUnits="userSpaceOnUse"><stop offset="0" stop-color="#cbcdcd"/><stop offset="1" stop-color="#c2c2c2"/></linearGradient><linearGradient id="linear-gradient-25" x1="883.67215" y1="766.4206" x2="942.90233" y2="707.19042" gradientTransform="matrix(0, -1, -1, 0, 1523.87254, 1512.5977)" gradientUnits="userSpaceOnUse"><stop offset="0" stop-color="#d2d2d2"/><stop offset="1" stop-color="#d0d1d0"/></linearGradient><linearGradient id="linear-gradient-26" x1="921.88838" y1="777.36806" x2="1022.35312" y2="676.90332" gradientTransform="matrix(0, -1, -1, 0, 1523.87254, 1512.5977)" gradientUnits="userSpaceOnUse"><stop offset="0" stop-color="#cfcfcf"/><stop offset="1" stop-color="#c8c8c8"/></linearGradient><linearGradient id="linear-gradient-27" x1="880.3892" y1="960.05334" x2="992.54656" y2="847.89598" gradientTransform="matrix(0, -1, -1, 0, 1523.87254, 1512.5977)" gradientUnits="userSpaceOnUse"><stop offset="0" stop-color="#cfcfcf"/><stop offset="1" stop-color="#cccdcd"/></linearGradient><linearGradient id="linear-gradient-28" x1="893.57044" y1="966.16742" x2="1017.47928" y2="842.25858" gradientTransform="matrix(0, -1, -1, 0, 1523.87254, 1512.5977)" gradientUnits="userSpaceOnUse"><stop offset="0" stop-color="#c8c9c9"/><stop offset="1" stop-color="#c6c7c7"/></linearGradient><linearGradient id="linear-gradient-29" x1="963.21156" y1="896.5263" x2="1091.27132" y2="768.46654" gradientTransform="matrix(0, -1, -1, 0, 1523.87254, 1512.5977)" gradientUnits="userSpaceOnUse"><stop offset="0" stop-color="#c0c1c1"/><stop offset="1" stop-color="#c7c7c6"/></linearGradient><linearGradient id="linear-gradient-30" x1="1483.10389" y1="299.15119" x2="1536.60521" y2="245.64987" gradientTransform="matrix(0, -1, -1, 0, 1523.87254, 1512.5977)" gradientUnits="userSpaceOnUse"><stop offset="0" stop-color="#898a8a"/><stop offset="1" stop-color="#888989"/></linearGradient><linearGradient id="linear-gradient-31" x1="605.34841" y1="444.15185" x2="1059.52552" y2="-10.02526" gradientTransform="matrix(0, -1, -1, 0, 1523.87254, 1512.5977)" gradientUnits="userSpaceOnUse"><stop offset="0" stop-color="#e3e3e3"/><stop offset="1" stop-color="#ababaa"/></linearGradient><linearGradient id="linear-gradient-32" x1="1350.4428" y1="342.93318" x2="1478.13063" y2="215.24536" gradientTransform="matrix(0, -1, -1, 0, 1523.87254, 1512.5977)" gradientUnits="userSpaceOnUse"><stop offset="0" stop-color="#989898"/><stop offset="1" stop-color="#777778"/></linearGradient><linearGradient id="linear-gradient-33" x1="1467.23436" y1="261.50242" x2="1504.87338" y2="223.8634" gradientTransform="matrix(0, -1, -1, 0, 1523.87254, 1512.5977)" gradientUnits="userSpaceOnUse"><stop offset="0" stop-color="#8b8c8c"/><stop offset="1" stop-color="#737575"/></linearGradient><linearGradient id="linear-gradient-34" x1="593.71642" y1="590.75488" x2="1351.4083" y2="-166.937" gradientTransform="matrix(0, -1, -1, 0, 1523.87254, 1512.5977)" gradientUnits="userSpaceOnUse"><stop offset="0" stop-color="#dcdcdb"/><stop offset="1" stop-color="#a4a4a4"/></linearGradient><linearGradient id="linear-gradient-35" x1="1063.36718" y1="609.76433" x2="1254.18057" y2="418.95094" gradientTransform="matrix(0, -1, -1, 0, 1523.87254, 1512.5977)" gradientUnits="userSpaceOnUse"><stop offset="0" stop-color="#bdbcbd"/><stop offset="1" stop-color="#b3b3b4"/></linearGradient><linearGradient id="linear-gradient-36" x1="1012.97827" y1="527.83527" x2="1369.88128" y2="170.93226" gradientTransform="matrix(0, -1, -1, 0, 1523.87254, 1512.5977)" gradientUnits="userSpaceOnUse"><stop offset="0" stop-color="#a1a1a1"/><stop offset="1" stop-color="#8b8c8b"/></linearGradient><linearGradient id="linear-gradient-37" x1="723.35156" y1="609.7057" x2="1341.44593" y2="-8.38867" gradientTransform="matrix(0, -1, -1, 0, 1523.87254, 1512.5977)" gradientUnits="userSpaceOnUse"><stop offset="0" stop-color="#cbcdcd"/><stop offset="1" stop-color="#929393"/></linearGradient><linearGradient id="linear-gradient-38" x1="1283.63249" y1="769.71372" x2="1536.38876" y2="516.95745" gradientTransform="matrix(0, -1, -1, 0, 1523.87254, 1512.5977)" gradientUnits="userSpaceOnUse"><stop offset="0" stop-color="#939494"/><stop offset="1" stop-color="#8f9090"/></linearGradient><linearGradient id="linear-gradient-39" x1="1253.66219" y1="711.69516" x2="1593.67614" y2="371.68121" gradientTransform="matrix(0, -1, -1, 0, 1523.87254, 1512.5977)" gradientUnits="userSpaceOnUse"><stop offset="0" stop-color="#919191"/><stop offset="1" stop-color="#8b8c8b"/></linearGradient><linearGradient id="linear-gradient-40" x1="1426.85336" y1="508.63059" x2="1578.87292" y2="356.61104" xlink:href="#linear-gradient-30"/><linearGradient id="linear-gradient-41" x1="1331.82509" y1="1581.82675" x2="1512.66576" y2="1400.98608" xlink:href="#linear-gradient-23"/><linearGradient id="linear-gradient-42" x1="1440.02175" y1="1367.131" x2="1516.37411" y2="1290.77864" xlink:href="#linear-gradient-23"/><linearGradient id="linear-gradient-43" x1="1434.73425" y1="1377.65409" x2="1534.80396" y2="1277.58437" xlink:href="#linear-gradient-23"/><linearGradient id="linear-gradient-44" x1="1318.16202" y1="1471.34787" x2="1510.70382" y2="1278.80608" gradientTransform="matrix(0, -1, -1, 0, 1523.87254, 1512.5977)" gradientUnits="userSpaceOnUse"><stop offset="0" stop-color="#8c8d8d"/><stop offset="1" stop-color="#898a8a"/></linearGradient><linearGradient id="linear-gradient-45" x1="1351.28127" y1="1529.49629" x2="1571.74705" y2="1309.03052" xlink:href="#linear-gradient-23"/><linearGradient id="linear-gradient-46" x1="1315.96968" y1="1491.18307" x2="1538.54528" y2="1268.60746" xlink:href="#linear-gradient-23"/><linearGradient id="linear-gradient-47" x1="1365.73742" y1="1410.0799" x2="1620.31183" y2="1155.50549" xlink:href="#linear-gradient-23"/><linearGradient id="linear-gradient-48" x1="1129.75477" y1="1242.52121" x2="1362.60512" y2="1009.67087" gradientTransform="matrix(0, -1, -1, 0, 1523.87254, 1512.5977)" gradientUnits="userSpaceOnUse"><stop offset="0" stop-color="#a2a3a3"/><stop offset="1" stop-color="#a1a1a1"/></linearGradient><linearGradient id="linear-gradient-49" x1="1252.67145" y1="1323.0961" x2="1368.77665" y2="1206.99091" gradientTransform="matrix(0, -1, -1, 0, 1523.87254, 1512.5977)" gradientUnits="userSpaceOnUse"><stop offset="0" stop-color="#9f9f9f"/><stop offset="1" stop-color="#979797"/></linearGradient><linearGradient id="linear-gradient-50" x1="1248.20987" y1="1086.55876" x2="1297.2417" y2="1037.52693" gradientTransform="matrix(0, -1, -1, 0, 1523.87254, 1512.5977)" gradientUnits="userSpaceOnUse"><stop offset="0" stop-color="#a2a1a1"/><stop offset="1" stop-color="#9d9f9f"/></linearGradient><linearGradient id="linear-gradient-51" x1="1468.98356" y1="1538.97463" x2="1529.07883" y2="1478.87936" xlink:href="#linear-gradient-23"/><linearGradient id="linear-gradient-52" x1="1427.33724" y1="1549.03008" x2="1546.77019" y2="1429.59713" xlink:href="#linear-gradient-23"/><linearGradient id="linear-gradient-53" x1="1372.75553" y1="1557.34938" x2="1421.23073" y2="1508.87418" gradientTransform="matrix(0, -1, -1, 0, 1523.87254, 1512.5977)" gradientUnits="userSpaceOnUse"><stop offset="0" stop-color="#a1a0a0"/><stop offset="1" stop-color="#8b8c8b"/></linearGradient><linearGradient id="linear-gradient-54" x1="1429.37639" y1="1521.8618" x2="1433.25822" y2="1517.97998" xlink:href="#linear-gradient-23"/><linearGradient id="linear-gradient-55" x1="1490.24313" y1="1522.45318" x2="1521.16685" y2="1491.52946" xlink:href="#linear-gradient-23"/><linearGradient id="linear-gradient-56" x1="1466.59272" y1="1452.83629" x2="1552.88513" y2="1366.54388" xlink:href="#linear-gradient-23"/><linearGradient id="linear-gradient-57" x1="1463.38407" y1="1386.72129" x2="1555.60032" y2="1294.50504" xlink:href="#linear-gradient-23"/><linearGradient id="linear-gradient-58" x1="1438.38055" y1="1475.27129" x2="1537.37998" y2="1376.27187" xlink:href="#linear-gradient-23"/><linearGradient id="linear-gradient-59" x1="1456.70989" y1="1425.54563" x2="1544.24364" y2="1338.01188" xlink:href="#linear-gradient-23"/><linearGradient id="linear-gradient-60" x1="1322.56459" y1="1643.50528" x2="1629.1977" y2="1336.87216" xlink:href="#linear-gradient-23"/><linearGradient id="linear-gradient-61" x1="1496.30818" y1="1466.699" x2="1511.8909" y2="1451.11627" xlink:href="#linear-gradient-23"/><linearGradient id="linear-gradient-62" x1="1422.89614" y1="1485.27458" x2="1547.20505" y2="1360.96567" xlink:href="#linear-gradient-23"/><linearGradient id="linear-gradient-63" x1="1078.29505" y1="1634.89317" x2="1494.68968" y2="1218.49854" gradientTransform="matrix(0, -1, -1, 0, 1523.87254, 1512.5977)" gradientUnits="userSpaceOnUse"><stop offset="0" stop-color="#aaa9a9"/><stop offset="1" stop-color="#9d9d9d"/></linearGradient><linearGradient id="linear-gradient-64" x1="1108.22571" y1="1720.42876" x2="1449.77648" y2="1378.87799" gradientTransform="matrix(0, -1, -1, 0, 1523.87254, 1512.5977)" gradientUnits="userSpaceOnUse"><stop offset="0" stop-color="#a4a4a4"/><stop offset="1" stop-color="#8f9090"/></linearGradient><linearGradient id="linear-gradient-65" x1="1205.6517" y1="1507.53652" x2="1344.02151" y2="1369.16672" gradientTransform="matrix(0, -1, -1, 0, 1523.87254, 1512.5977)" gradientUnits="userSpaceOnUse"><stop offset="0" stop-color="#9d9f9f"/><stop offset="1" stop-color="#919191"/></linearGradient><linearGradient id="linear-gradient-66" x1="1356.2418" y1="1433.2681" x2="1392.80452" y2="1396.70537" gradientTransform="matrix(0, -1, -1, 0, 1523.87254, 1512.5977)" gradientUnits="userSpaceOnUse"><stop offset="0" stop-color="#8f908f"/><stop offset="1" stop-color="#8c8d8d"/></linearGradient><linearGradient id="linear-gradient-67" x1="1386.15301" y1="1488.38553" x2="1427.47116" y2="1447.06738" gradientTransform="matrix(0, -1, -1, 0, 1523.87254, 1512.5977)" gradientUnits="userSpaceOnUse"><stop offset="0" stop-color="#8b8c8b"/><stop offset="1" stop-color="#8b8c8b"/></linearGradient><linearGradient id="linear-gradient-68" x1="1336.08162" y1="1177.91873" x2="1382.53159" y2="1131.46875" gradientTransform="matrix(0, -1, -1, 0, 1523.87254, 1512.5977)" gradientUnits="userSpaceOnUse"><stop offset="0" stop-color="#989898"/><stop offset="1" stop-color="#929393"/></linearGradient><linearGradient id="linear-gradient-69" x1="1275.3261" y1="1300.44146" x2="1464.66445" y2="1111.10311" gradientTransform="matrix(0, -1, -1, 0, 1523.87254, 1512.5977)" gradientUnits="userSpaceOnUse"><stop offset="0" stop-color="#969696"/><stop offset="1" stop-color="#8d8e8e"/></linearGradient><linearGradient id="linear-gradient-70" x1="1340.40289" y1="1150.98068" x2="1471.94108" y2="1019.44249" gradientTransform="matrix(0, -1, -1, 0, 1523.87254, 1512.5977)" gradientUnits="userSpaceOnUse"><stop offset="0" stop-color="#969696"/><stop offset="1" stop-color="#8f908f"/></linearGradient><linearGradient id="linear-gradient-71" x1="1062.79406" y1="1672.26418" x2="1647.66521" y2="1087.39303" gradientTransform="matrix(0, -1, -1, 0, 1523.87254, 1512.5977)" gradientUnits="userSpaceOnUse"><stop offset="0" stop-color="#8b8c8c"/><stop offset="1" stop-color="#888989"/></linearGradient><linearGradient id="linear-gradient-72" x1="1405.51468" y1="1334.77915" x2="1509.41413" y2="1230.8797" xlink:href="#linear-gradient-23"/><linearGradient id="linear-gradient-73" x1="1397.97424" y1="1330.51774" x2="1619.29205" y2="1109.19993" xlink:href="#linear-gradient-23"/><linearGradient id="linear-gradient-74" x1="1255.17158" y1="1409.54506" x2="1736.24524" y2="928.4714" xlink:href="#linear-gradient-23"/><linearGradient id="linear-gradient-75" x1="1371.20828" y1="1120.17529" x2="1552.79621" y2="938.58736" gradientTransform="matrix(0, -1, -1, 0, 1523.87254, 1512.5977)" gradientUnits="userSpaceOnUse"><stop offset="0" stop-color="#8d8e8e"/><stop offset="1" stop-color="#888989"/></linearGradient><linearGradient id="linear-gradient-76" x1="1248.72858" y1="1346.36164" x2="1649.45934" y2="945.63088" xlink:href="#linear-gradient-23"/><linearGradient id="linear-gradient-77" x1="1363.98402" y1="911.40067" x2="1494.81787" y2="780.56683" gradientTransform="matrix(0, -1, -1, 0, 1523.87254, 1512.5977)" gradientUnits="userSpaceOnUse"><stop offset="0" stop-color="#929393"/><stop offset="1" stop-color="#8d8e8e"/></linearGradient><linearGradient id="linear-gradient-78" x1="1310.48875" y1="961.49529" x2="1562.29776" y2="709.68628" gradientTransform="matrix(0, -1, -1, 0, 1523.87254, 1512.5977)" gradientUnits="userSpaceOnUse"><stop offset="0" stop-color="#8f9090"/><stop offset="1" stop-color="#888989"/></linearGradient><linearGradient id="linear-gradient-79" x1="1379.0666" y1="1004.25048" x2="1514.58839" y2="868.72868" xlink:href="#linear-gradient-75"/><linearGradient id="linear-gradient-80" x1="800.81438" y1="777.7023" x2="923.1578" y2="655.35888" gradientTransform="matrix(0, -1, -1, 0, 1523.87254, 1512.5977)" gradientUnits="userSpaceOnUse"><stop offset="0" stop-color="#d7d7d8"/><stop offset="1" stop-color="#dadada"/></linearGradient><linearGradient id="linear-gradient-81" x1="733.58477" y1="723.79927" x2="938.27044" y2="519.1136" gradientTransform="matrix(0, -1, -1, 0, 1523.87254, 1512.5977)" gradientUnits="userSpaceOnUse"><stop offset="0" stop-color="#dadada"/><stop offset="1" stop-color="#dadada"/></linearGradient><linearGradient id="linear-gradient-82" x1="588.80094" y1="969.78531" x2="959.83451" y2="598.75173" gradientTransform="matrix(0, -1, -1, 0, 1523.87254, 1512.5977)" gradientUnits="userSpaceOnUse"><stop offset="0" stop-color="#eae9e9"/><stop offset="1" stop-color="#e5e5e3"/></linearGradient><linearGradient id="linear-gradient-83" x1="715.16641" y1="565.85818" x2="838.23763" y2="442.78695" gradientTransform="matrix(0, -1, -1, 0, 1523.87254, 1512.5977)" gradientUnits="userSpaceOnUse"><stop offset="0" stop-color="#e8e8e8"/><stop offset="1" stop-color="#e4e5e4"/></linearGradient><linearGradient id="linear-gradient-84" x1="729.08269" y1="579.47399" x2="946.54848" y2="362.0082" xlink:href="#linear-gradient-14"/><linearGradient id="linear-gradient-85" x1="661.94953" y1="940.56318" x2="762.15981" y2="840.35291" gradientTransform="matrix(0, -1, -1, 0, 1523.87254, 1512.5977)" gradientUnits="userSpaceOnUse"><stop offset="0" stop-color="#ebeae9"/><stop offset="1" stop-color="#e9e9e8"/></linearGradient><linearGradient id="linear-gradient-86" x1="740.51741" y1="1071.42871" x2="812.01461" y2="999.93152" gradientTransform="matrix(0, -1, -1, 0, 1523.87254, 1512.5977)" gradientUnits="userSpaceOnUse"><stop offset="0" stop-color="#e5e5e3"/><stop offset="1" stop-color="#e3e4e3"/></linearGradient><linearGradient id="linear-gradient-87" x1="671.92198" y1="1235.2561" x2="841.57174" y2="1065.60634" gradientTransform="matrix(0, -1, -1, 0, 1523.87254, 1512.5977)" gradientUnits="userSpaceOnUse"><stop offset="0" stop-color="#e1e0e0"/><stop offset="1" stop-color="#e3e3e2"/></linearGradient><linearGradient id="linear-gradient-88" x1="663.30653" y1="1291.02866" x2="787.36809" y2="1166.9671" gradientTransform="matrix(0, -1, -1, 0, 1523.87254, 1512.5977)" gradientUnits="userSpaceOnUse"><stop offset="0" stop-color="#e8e8e8"/><stop offset="1" stop-color="#e7e6e5"/></linearGradient><linearGradient id="linear-gradient-89" x1="828.96859" y1="584.90222" x2="1050.44238" y2="363.42843" gradientTransform="matrix(0, -1, -1, 0, 1523.87254, 1512.5977)" gradientUnits="userSpaceOnUse"><stop offset="0" stop-color="#d2d3d4"/><stop offset="1" stop-color="#c7c8c8"/></linearGradient><linearGradient id="linear-gradient-90" x1="989.23137" y1="438.47035" x2="1204.29624" y2="223.40548" gradientTransform="matrix(0, -1, -1, 0, 1523.87254, 1512.5977)" gradientUnits="userSpaceOnUse"><stop offset="0" stop-color="#c2c1c1"/><stop offset="1" stop-color="#c0c1c1"/></linearGradient><linearGradient id="linear-gradient-91" x1="829.27016" y1="409.99751" x2="1023.15798" y2="216.1097" gradientTransform="matrix(0, -1, -1, 0, 1523.87254, 1512.5977)" gradientUnits="userSpaceOnUse"><stop offset="0" stop-color="#dadada"/><stop offset="1" stop-color="#d2d4d3"/></linearGradient><linearGradient id="linear-gradient-92" x1="926.54624" y1="352.47407" x2="1091.21772" y2="187.80259" gradientTransform="matrix(0, -1, -1, 0, 1523.87254, 1512.5977)" gradientUnits="userSpaceOnUse"><stop offset="0" stop-color="#d5d5d5"/><stop offset="1" stop-color="#c5c4c4"/></linearGradient><linearGradient id="linear-gradient-93" x1="684.08251" y1="333.35978" x2="816.69294" y2="200.74935" gradientTransform="matrix(0, -1, -1, 0, 1523.87254, 1512.5977)" gradientUnits="userSpaceOnUse"><stop offset="0" stop-color="#f1f1f1"/><stop offset="1" stop-color="#efefef"/></linearGradient><linearGradient id="linear-gradient-94" x1="621.82483" y1="694.74441" x2="848.0557" y2="468.51353" xlink:href="#linear-gradient-85"/><linearGradient id="linear-gradient-95" x1="594.88338" y1="471.25294" x2="799.31679" y2="266.81954" gradientTransform="matrix(0, -1, -1, 0, 1523.87254, 1512.5977)" gradientUnits="userSpaceOnUse"><stop offset="0" stop-color="#ebeae9"/><stop offset="1" stop-color="#eee"/></linearGradient><linearGradient id="linear-gradient-96" x1="704.51102" y1="564.44619" x2="827.17645" y2="441.78076" gradientTransform="matrix(0, -1, -1, 0, 1523.87254, 1512.5977)" gradientUnits="userSpaceOnUse"><stop offset="0" stop-color="#eae9e8"/><stop offset="1" stop-color="#e9e9e8"/></linearGradient><linearGradient id="linear-gradient-97" x1="788.89455" y1="1555.02971" x2="840.20589" y2="1503.71838" gradientTransform="matrix(0, -1, -1, 0, 1523.87254, 1512.5977)" gradientUnits="userSpaceOnUse"><stop offset="0" stop-color="#dadbda"/><stop offset="1" stop-color="#ced0d0"/></linearGradient><linearGradient id="linear-gradient-98" x1="668.63095" y1="1538.88412" x2="846.20393" y2="1361.31113" gradientTransform="matrix(0, -1, -1, 0, 1523.87254, 1512.5977)" gradientUnits="userSpaceOnUse"><stop offset="0" stop-color="#e0dfde"/><stop offset="1" stop-color="#dcdcdb"/></linearGradient><linearGradient id="linear-gradient-99" x1="997.64459" y1="1155.41146" x2="1174.98172" y2="978.07434" gradientTransform="matrix(0, -1, -1, 0, 1523.87254, 1512.5977)" gradientUnits="userSpaceOnUse"><stop offset="0" stop-color="#b9bbba"/><stop offset="1" stop-color="#b4b5b5"/></linearGradient><linearGradient id="linear-gradient-100" x1="1046.22435" y1="1297.21394" x2="1215.77026" y2="1127.66803" gradientTransform="matrix(0, -1, -1, 0, 1523.87254, 1512.5977)" gradientUnits="userSpaceOnUse"><stop offset="0" stop-color="#b3b4b4"/><stop offset="1" stop-color="#ababaa"/></linearGradient><linearGradient id="linear-gradient-101" x1="1147.84632" y1="1195.59197" x2="1294.43962" y2="1048.99868" gradientTransform="matrix(0, -1, -1, 0, 1523.87254, 1512.5977)" gradientUnits="userSpaceOnUse"><stop offset="0" stop-color="#a5a5a5"/><stop offset="1" stop-color="#aaa8a8"/></linearGradient><linearGradient id="linear-gradient-102" x1="974.44513" y1="936.37099" x2="1292.9389" y2="617.87722" gradientTransform="matrix(0, -1, -1, 0, 1523.87254, 1512.5977)" gradientUnits="userSpaceOnUse"><stop offset="0" stop-color="#bdbcbd"/><stop offset="1" stop-color="#babbba"/></linearGradient><linearGradient id="linear-gradient-103" x1="995.49827" y1="1051.47273" x2="1206.88742" y2="840.08358" gradientTransform="matrix(0, -1, -1, 0, 1523.87254, 1512.5977)" gradientUnits="userSpaceOnUse"><stop offset="0" stop-color="#b9bbba"/><stop offset="1" stop-color="#b3b3b4"/></linearGradient><linearGradient id="linear-gradient-104" x1="1001.08956" y1="688.69153" x2="1147.42045" y2="542.36064" gradientTransform="matrix(0, -1, -1, 0, 1523.87254, 1512.5977)" gradientUnits="userSpaceOnUse"><stop offset="0" stop-color="#c0c0bf"/><stop offset="1" stop-color="#bdbcbb"/></linearGradient><linearGradient id="linear-gradient-105" x1="1039.61377" y1="672.96308" x2="1161.9248" y2="550.65205" gradientTransform="matrix(0, -1, -1, 0, 1523.87254, 1512.5977)" gradientUnits="userSpaceOnUse"><stop offset="0" stop-color="#bebdbc"/><stop offset="1" stop-color="#b3b4b4"/></linearGradient><linearGradient id="linear-gradient-106" x1="826.98462" y1="1527.37976" x2="1214.47571" y2="1139.88866" gradientTransform="matrix(0, -1, -1, 0, 1523.87254, 1512.5977)" gradientUnits="userSpaceOnUse"><stop offset="0" stop-color="#c2c1c1"/><stop offset="1" stop-color="#c0c0bf"/></linearGradient><linearGradient id="linear-gradient-107" x1="888.70633" y1="1587.12954" x2="1120.08815" y2="1355.74772" gradientTransform="matrix(0, -1, -1, 0, 1523.87254, 1512.5977)" gradientUnits="userSpaceOnUse"><stop offset="0" stop-color="#c0c0bf"/><stop offset="1" stop-color="#b9b8b8"/></linearGradient><linearGradient id="linear-gradient-108" x1="1011.51356" y1="1264.15928" x2="1066.65525" y2="1209.01759" gradientTransform="matrix(0, -1, -1, 0, 1523.87254, 1512.5977)" gradientUnits="userSpaceOnUse"><stop offset="0" stop-color="silver"/><stop offset="1" stop-color="#babbbb"/></linearGradient><linearGradient id="linear-gradient-109" x1="1097.37652" y1="1357.5505" x2="1148.58975" y2="1306.33727" gradientTransform="matrix(0, -1, -1, 0, 1523.87254, 1512.5977)" gradientUnits="userSpaceOnUse"><stop offset="0" stop-color="#b6b7b6"/><stop offset="1" stop-color="#b0b1b0"/></linearGradient><linearGradient id="linear-gradient-110" x1="1028.3424" y1="1467.90284" x2="1177.17408" y2="1319.07116" gradientTransform="matrix(0, -1, -1, 0, 1523.87254, 1512.5977)" gradientUnits="userSpaceOnUse"><stop offset="0" stop-color="#b0b1b0"/><stop offset="1" stop-color="#afb0af"/></linearGradient><linearGradient id="linear-gradient-111" x1="832.44859" y1="1258.69062" x2="1016.20583" y2="1074.93339" gradientTransform="matrix(0, -1, -1, 0, 1523.87254, 1512.5977)" gradientUnits="userSpaceOnUse"><stop offset="0" stop-color="#c9c9c9"/><stop offset="1" stop-color="#c8c8c8"/></linearGradient><linearGradient id="linear-gradient-112" x1="864.08776" y1="1450.7496" x2="1085.78022" y2="1229.05714" gradientTransform="matrix(0, -1, -1, 0, 1523.87254, 1512.5977)" gradientUnits="userSpaceOnUse"><stop offset="0" stop-color="#c5c4c4"/><stop offset="1" stop-color="#c7c8c8"/></linearGradient><linearGradient id="linear-gradient-113" x1="702.92719" y1="1348.38873" x2="919.21798" y2="1132.09794" gradientTransform="matrix(0, -1, -1, 0, 1523.87254, 1512.5977)" gradientUnits="userSpaceOnUse"><stop offset="0" stop-color="#dcdcdb"/><stop offset="1" stop-color="#d5d5d5"/></linearGradient><linearGradient id="linear-gradient-114" x1="707.57323" y1="1499.94183" x2="1038.94272" y2="1168.57235" gradientTransform="matrix(0, -1, -1, 0, 1523.87254, 1512.5977)" gradientUnits="userSpaceOnUse"><stop offset="0" stop-color="#dadada"/><stop offset="1" stop-color="#d2d3d4"/></linearGradient><linearGradient id="linear-gradient-115" x1="800.29314" y1="1251.02278" x2="1026.32693" y2="1024.989" gradientTransform="matrix(0, -1, -1, 0, 1523.87254, 1512.5977)" gradientUnits="userSpaceOnUse"><stop offset="0" stop-color="#d5d5d5"/><stop offset="1" stop-color="#cccdcd"/></linearGradient><linearGradient id="linear-gradient-116" x1="735.48492" y1="1571.75124" x2="989.78062" y2="1317.45553" gradientTransform="matrix(0, -1, -1, 0, 1523.87254, 1512.5977)" gradientUnits="userSpaceOnUse"><stop offset="0" stop-color="#d2d1d1"/><stop offset="1" stop-color="#c9c9c9"/></linearGradient><linearGradient id="linear-gradient-117" x1="1067.5113" y1="979.4597" x2="1241.27356" y2="805.69744" gradientTransform="matrix(0, -1, -1, 0, 1523.87254, 1512.5977)" gradientUnits="userSpaceOnUse"><stop offset="0" stop-color="#b2b3b2"/><stop offset="1" stop-color="#adadac"/></linearGradient><linearGradient id="linear-gradient-118" x1="1135.12875" y1="877.44653" x2="1227.95346" y2="784.62182" gradientTransform="matrix(0, -1, -1, 0, 1523.87254, 1512.5977)" gradientUnits="userSpaceOnUse"><stop offset="0" stop-color="#b2b2b2"/><stop offset="1" stop-color="#acadad"/></linearGradient><linearGradient id="linear-gradient-119" x1="1103.41369" y1="1108.27279" x2="1259.05128" y2="952.6352" gradientTransform="matrix(0, -1, -1, 0, 1523.87254, 1512.5977)" gradientUnits="userSpaceOnUse"><stop offset="0" stop-color="#acacab"/><stop offset="1" stop-color="#a9a8a7"/></linearGradient><linearGradient id="linear-gradient-120" x1="1131.63984" y1="899.6962" x2="1311.18348" y2="720.15256" gradientTransform="matrix(0, -1, -1, 0, 1523.87254, 1512.5977)" gradientUnits="userSpaceOnUse"><stop offset="0" stop-color="#acadad"/><stop offset="1" stop-color="#a9abaa"/></linearGradient><linearGradient id="linear-gradient-121" x1="1143.7426" y1="896.9056" x2="1339.45482" y2="701.19337" gradientTransform="matrix(0, -1, -1, 0, 1523.87254, 1512.5977)" gradientUnits="userSpaceOnUse"><stop offset="0" stop-color="#a6a7a6"/><stop offset="1" stop-color="#a2a1a1"/></linearGradient><linearGradient id="linear-gradient-122" x1="1227.82079" y1="1016.37263" x2="1254.51931" y2="989.67412" gradientTransform="matrix(0, -1, -1, 0, 1523.87254, 1512.5977)" gradientUnits="userSpaceOnUse"><stop offset="0" stop-color="#a4a4a3"/><stop offset="1" stop-color="#a2a3a3"/></linearGradient><linearGradient id="linear-gradient-123" x1="1168.34008" y1="1075.85334" x2="1448.53758" y2="795.65585" gradientTransform="matrix(0, -1, -1, 0, 1523.87254, 1512.5977)" gradientUnits="userSpaceOnUse"><stop offset="0" stop-color="#9d9f9f"/><stop offset="1" stop-color="#9fa0a0"/></linearGradient><linearGradient id="linear-gradient-124" x1="856.31221" y1="990.4268" x2="934.92703" y2="911.81198" gradientTransform="matrix(0, -1, -1, 0, 1523.87254, 1512.5977)" gradientUnits="userSpaceOnUse"><stop offset="0" stop-color="#d5d5d5"/><stop offset="1" stop-color="#d2d4d3"/></linearGradient><linearGradient id="linear-gradient-125" x1="634.87192" y1="964.19515" x2="874.38818" y2="724.67889" xlink:href="#linear-gradient-14"/><linearGradient id="linear-gradient-126" x1="749.95238" y1="1069.05158" x2="861.4375" y2="957.56646" gradientTransform="matrix(0, -1, -1, 0, 1523.87254, 1512.5977)" gradientUnits="userSpaceOnUse"><stop offset="0" stop-color="#e3e3e3"/><stop offset="1" stop-color="#dcdcdb"/></linearGradient><linearGradient id="linear-gradient-127" x1="746.45837" y1="852.60871" x2="896.27843" y2="702.78864" gradientTransform="matrix(0, -1, -1, 0, 1523.87254, 1512.5977)" gradientUnits="userSpaceOnUse"><stop offset="0" stop-color="#e0dfde"/><stop offset="1" stop-color="#d9d9d9"/></linearGradient><linearGradient id="linear-gradient-128" x1="769.22348" y1="1098.06592" x2="947.26464" y2="920.02476" gradientTransform="matrix(0, -1, -1, 0, 1523.87254, 1512.5977)" gradientUnits="userSpaceOnUse"><stop offset="0" stop-color="#d7d7d8"/><stop offset="1" stop-color="#d2d3d4"/></linearGradient><linearGradient id="linear-gradient-129" x1="1099.61019" y1="573.52132" x2="1356.24161" y2="316.8899" gradientTransform="matrix(0, -1, -1, 0, 1523.87254, 1512.5977)" gradientUnits="userSpaceOnUse"><stop offset="0" stop-color="#b3b3b4"/><stop offset="1" stop-color="#aaa9a9"/></linearGradient><linearGradient id="linear-gradient-130" x1="1192.28777" y1="357.1493" x2="1315.10341" y2="234.33366" gradientTransform="matrix(0, -1, -1, 0, 1523.87254, 1512.5977)" gradientUnits="userSpaceOnUse"><stop offset="0" stop-color="#b0b1b0"/><stop offset="1" stop-color="#a2a3a3"/></linearGradient><linearGradient id="linear-gradient-131" x1="1024.44994" y1="800.11066" x2="1384.17764" y2="440.38296" gradientTransform="matrix(0, -1, -1, 0, 1523.87254, 1512.5977)" gradientUnits="userSpaceOnUse"><stop offset="0" stop-color="#a6a7a6"/><stop offset="1" stop-color="#a1a2a3"/></linearGradient><linearGradient id="linear-gradient-132" x1="1229.25002" y1="595.31058" x2="1413.45625" y2="411.10435" gradientTransform="matrix(0, -1, -1, 0, 1523.87254, 1512.5977)" gradientUnits="userSpaceOnUse"><stop offset="0" stop-color="#9e9f9f"/><stop offset="1" stop-color="#9e9e9e"/></linearGradient><linearGradient id="linear-gradient-133" x1="1276.7325" y1="498.85155" x2="1412.43055" y2="363.1535" gradientTransform="matrix(0, -1, -1, 0, 1523.87254, 1512.5977)" gradientUnits="userSpaceOnUse"><stop offset="0" stop-color="#9d9d9e"/><stop offset="1" stop-color="#9e9e9e"/></linearGradient></defs><title>scene99</title><g id="bg"><polygon points="675.9 641.513 727.351 598.825 842.791 603.788 675.9 641.513" style="fill:url(#linear-gradient)"/><polygon points="982.43 152.455 1252.661 19.814 1223.705 163.182 982.43 152.455" style="fill:url(#linear-gradient-2)"/><polygon points="957.785 144.717 1252.661 19.814 982.43 152.455 957.785 144.717" style="fill:url(#linear-gradient-3)"/><polygon points="829.807 292.444 709.195 160.198 849.697 204.482 829.807 292.444" style="fill:url(#linear-gradient-4)"/><polygon points="709.195 160.198 957.785 144.717 849.697 204.482 709.195 160.198" style="fill:url(#linear-gradient-5)"/><polygon points="849.697 204.482 957.785 144.717 982.43 152.455 849.697 204.482" style="fill:url(#linear-gradient-6)"/><polygon points="675.9 641.513 500.364 561.686 727.351 598.825 675.9 641.513" style="fill:url(#linear-gradient-7)"/><polygon points="304.058 524.554 560.459 463 500.364 561.686 304.058 524.554" style="fill:url(#linear-gradient-8)"/><polygon points="103.454 316.264 132.856 146.697 276.388 290.45 103.454 316.264" style="fill:url(#linear-gradient-9)"/><polygon points="842.791 603.788 1074.97 458.635 1071.07 640.523 842.791 603.788" style="fill:url(#linear-gradient-10)"/><polygon points="784.404 329.777 829.807 292.444 1074.97 458.635 784.404 329.777" style="fill:url(#linear-gradient-11)"/><polygon points="476.576 219.961 602.814 138.956 709.195 160.198 476.576 219.961" style="fill:url(#linear-gradient-12)"/><polygon points="1132.029 725.303 1071.07 640.523 1159.71 669.709 1132.029 725.303" style="fill:url(#linear-gradient-13)"/><polygon points="1159.71 669.709 1247.91 662.563 1132.029 725.303 1159.71 669.709" style="fill:url(#linear-gradient-14)"/><polygon points="1159.71 669.709 1071.07 640.523 1247.91 662.563 1159.71 669.709" style="fill:url(#linear-gradient-15)"/><polygon points="1154.526 757.871 1132.029 725.303 1270.401 757.871 1154.526 757.871" style="fill:url(#linear-gradient-16)"/><polygon points="1132.029 725.303 1247.91 662.563 1270.401 757.871 1132.029 725.303" style="fill:url(#linear-gradient-17)"/><polygon points="112.423 798.686 30.601 798.686 0 794.481 0 783.046 194.684 746.743 112.423 798.686" style="fill:url(#linear-gradient-18)"/><polygon points="182.239 798.686 112.423 798.686 194.684 746.743 182.239 798.686" style="fill:url(#linear-gradient-19)"/><polygon points="0 798.686 0 794.481 30.601 798.686 0 798.686" style="fill:url(#linear-gradient-20)"/><polygon points="304.058 524.554 298.438 444.93 560.459 463 304.058 524.554" style="fill:url(#linear-gradient-21)"/><polygon points="103.454 316.264 276.388 290.45 298.438 444.93 103.454 316.264" style="fill:url(#linear-gradient-22)"/><polygon points="7.903 89.114 0 73.447 0 29.398 7.903 33.519 7.903 89.114" style="fill:url(#linear-gradient-23)"/><polygon points="842.791 603.788 775.761 452.088 1074.97 458.635 842.791 603.788" style="fill:url(#linear-gradient-24)"/><polygon points="727.351 598.825 742.9 587.105 842.791 603.788 727.351 598.825" style="fill:url(#linear-gradient-25)"/><polygon points="742.9 587.105 775.761 452.088 842.791 603.788 742.9 587.105" style="fill:url(#linear-gradient-26)"/><polygon points="727.351 598.825 500.364 561.686 742.9 587.105 727.351 598.825" style="fill:url(#linear-gradient-27)"/><polygon points="500.364 561.686 560.459 463 742.9 587.105 500.364 561.686" style="fill:url(#linear-gradient-28)"/><polygon points="560.459 463 775.761 452.088 742.9 587.105 560.459 463" style="fill:url(#linear-gradient-29)"/><polygon points="1252.661 19.814 1233.537 0 1274.894 0 1252.661 19.814" style="fill:url(#linear-gradient-30)"/><polygon points="1279.999 615.255 1279.999 798.686 1279.999 798.686 1270.401 757.871 1279.999 615.255" style="fill:url(#linear-gradient-31)"/><polygon points="1252.661 19.814 1279.999 62.993 1279.999 133.714 1223.705 163.182 1252.661 19.814" style="fill:url(#linear-gradient-32)"/><polygon points="1274.894 0 1279.999 0 1279.999 62.993 1252.661 19.814 1274.894 0" style="fill:url(#linear-gradient-33)"/><polygon points="1247.91 662.563 1279.999 395.727 1279.999 615.255 1270.401 757.871 1247.91 662.563" style="fill:url(#linear-gradient-34)"/><polygon points="1074.97 458.635 829.807 292.444 1225.42 379.006 1074.97 458.635" style="fill:url(#linear-gradient-35)"/><polygon points="1223.705 163.182 1279.999 133.714 1279.999 216.353 1225.42 379.006 1223.705 163.182" style="fill:url(#linear-gradient-36)"/><polygon points="1225.42 379.006 1279.999 216.353 1279.999 395.727 1247.91 662.563 1225.42 379.006" style="fill:url(#linear-gradient-37)"/><polygon points="709.195 160.198 863.746 0 869.751 0 957.785 144.717 709.195 160.198" style="fill:url(#linear-gradient-38)"/><polygon points="957.785 144.717 869.751 0 929.498 0 1252.661 19.814 957.785 144.717" style="fill:url(#linear-gradient-39)"/><polygon points="929.498 0 1233.537 0 1252.661 19.814 929.498 0" style="fill:url(#linear-gradient-40)"/><polygon points="7.903 89.114 7.903 33.519 163.55 40.665 7.903 89.114" style="fill:url(#linear-gradient-41)"/><polygon points="163.55 40.665 222.347 21.602 192.51 61.91 163.55 40.665" style="fill:url(#linear-gradient-42)"/><polygon points="163.55 40.665 203.334 5.718 222.347 21.602 163.55 40.665" style="fill:url(#linear-gradient-43)"/><polygon points="103.014 111.355 192.51 61.91 132.856 146.697 103.014 111.355" style="fill:url(#linear-gradient-44)"/><polygon points="7.903 89.114 163.55 40.665 103.014 111.355 7.903 89.114" style="fill:url(#linear-gradient-45)"/><polygon points="103.014 111.355 163.55 40.665 192.51 61.91 103.014 111.355" style="fill:url(#linear-gradient-46)"/><polygon points="203.334 5.718 244.189 0 312.255 0 222.347 21.602 203.334 5.718" style="fill:url(#linear-gradient-47)"/><polygon points="276.388 290.45 407.389 234.463 492.137 269.414 276.388 290.45" style="fill:url(#linear-gradient-48)"/><polygon points="276.388 290.45 132.856 146.697 407.389 234.463 276.388 290.45" style="fill:url(#linear-gradient-49)"/><polygon points="407.389 234.463 476.576 219.961 492.137 269.414 407.389 234.463" style="fill:url(#linear-gradient-50)"/><polygon points="7.903 33.519 0 29.398 0 9.476 44.216 3.332 7.903 33.519" style="fill:url(#linear-gradient-51)"/><polygon points="7.903 33.519 44.216 3.332 66.707 12.077 7.903 33.519" style="fill:url(#linear-gradient-52)"/><polygon points="7.903 89.114 0 136.364 0 76.367 7.903 89.114" style="fill:url(#linear-gradient-53)"/><polygon points="0 76.367 0 73.447 7.903 89.114 0 76.367" style="fill:url(#linear-gradient-54)"/><polygon points="25.031 0 44.216 3.332 0 9.476 0 0 25.031 0" style="fill:url(#linear-gradient-55)"/><polygon points="44.216 3.332 25.031 0 128.541 0 203.334 5.718 44.216 3.332" style="fill:url(#linear-gradient-56)"/><polygon points="203.334 5.718 128.541 0 244.189 0 203.334 5.718" style="fill:url(#linear-gradient-57)"/><polygon points="7.903 33.519 85.714 13.664 163.55 40.665 7.903 33.519" style="fill:url(#linear-gradient-58)"/><polygon points="85.714 13.664 203.334 5.718 163.55 40.665 85.714 13.664" style="fill:url(#linear-gradient-59)"/><polygon points="7.903 33.519 66.707 12.077 85.714 13.664 7.903 33.519" style="fill:url(#linear-gradient-60)"/><polygon points="66.707 12.077 44.216 3.332 85.714 13.664 66.707 12.077" style="fill:url(#linear-gradient-61)"/><polygon points="85.714 13.664 44.216 3.332 203.334 5.718 85.714 13.664" style="fill:url(#linear-gradient-62)"/><polygon points="103.454 316.264 0 387.467 0 318.614 80.547 146.299 103.454 316.264" style="fill:url(#linear-gradient-63)"/><polygon points="80.547 146.299 0 318.614 0 136.364 7.903 89.114 80.547 146.299" style="fill:url(#linear-gradient-64)"/><polygon points="103.454 316.264 80.547 146.299 132.856 146.697 103.454 316.264" style="fill:url(#linear-gradient-65)"/><polygon points="80.547 146.299 103.014 111.355 132.856 146.697 80.547 146.299" style="fill:url(#linear-gradient-66)"/><polygon points="80.547 146.299 7.903 89.114 103.014 111.355 80.547 146.299" style="fill:url(#linear-gradient-67)"/><polygon points="407.389 234.463 305.356 43.048 476.576 219.961 407.389 234.463" style="fill:url(#linear-gradient-68)"/><polygon points="132.856 146.697 305.356 43.048 407.389 234.463 132.856 146.697" style="fill:url(#linear-gradient-69)"/><polygon points="476.576 219.961 305.356 43.048 602.814 138.956 476.576 219.961" style="fill:url(#linear-gradient-70)"/><polygon points="192.51 61.91 305.356 43.048 132.856 146.697 192.51 61.91" style="fill:url(#linear-gradient-71)"/><polygon points="192.51 61.91 222.347 21.602 305.356 43.048 192.51 61.91" style="fill:url(#linear-gradient-72)"/><polygon points="222.347 21.602 312.255 0 372.007 0 305.356 43.048 222.347 21.602" style="fill:url(#linear-gradient-73)"/><polygon points="372.007 0 395.104 0 305.356 43.048 372.007 0" style="fill:url(#linear-gradient-74)"/><polygon points="305.356 43.048 534.357 0 564.536 0 602.814 138.956 305.356 43.048" style="fill:url(#linear-gradient-75)"/><polygon points="395.104 0 534.357 0 305.356 43.048 395.104 0" style="fill:url(#linear-gradient-76)"/><polygon points="602.814 138.956 652.778 0 659.58 0 709.195 160.198 602.814 138.956" style="fill:url(#linear-gradient-77)"/><polygon points="659.58 0 863.746 0 709.195 160.198 659.58 0" style="fill:url(#linear-gradient-78)"/><polygon points="602.814 138.956 564.536 0 652.778 0 602.814 138.956" style="fill:url(#linear-gradient-79)"/><polygon points="675.9 641.513 842.791 603.788 879.539 718.956 675.9 641.513" style="fill:url(#linear-gradient-80)"/><polygon points="879.539 718.956 842.791 603.788 1071.07 640.523 879.539 718.956" style="fill:url(#linear-gradient-81)"/><polygon points="879.539 718.956 737.042 798.686 711.956 798.686 590.277 766.996 879.539 718.956" style="fill:url(#linear-gradient-82)"/><polygon points="1154.526 757.871 879.539 718.956 1132.029 725.303 1154.526 757.871" style="fill:url(#linear-gradient-83)"/><polygon points="879.539 718.956 1071.07 640.523 1132.029 725.303 879.539 718.956" style="fill:url(#linear-gradient-84)"/><polygon points="711.956 798.686 572.702 798.686 590.277 766.996 711.956 798.686" style="fill:url(#linear-gradient-85)"/><polygon points="590.277 766.996 572.702 798.686 518.471 798.686 384.918 692.742 590.277 766.996" style="fill:url(#linear-gradient-86)"/><polygon points="384.918 692.742 518.471 798.686 424.157 798.686 194.684 746.743 384.918 692.742" style="fill:url(#linear-gradient-87)"/><polygon points="424.157 798.686 182.239 798.686 194.684 746.743 424.157 798.686" style="fill:url(#linear-gradient-88)"/><polygon points="1071.07 640.523 1074.97 458.635 1187.368 496.563 1071.07 640.523" style="fill:url(#linear-gradient-89)"/><polygon points="1074.97 458.635 1225.42 379.006 1187.368 496.563 1074.97 458.635" style="fill:url(#linear-gradient-90)"/><polygon points="1071.07 640.523 1187.368 496.563 1247.91 662.563 1071.07 640.523" style="fill:url(#linear-gradient-91)"/><polygon points="1187.368 496.563 1225.42 379.006 1247.91 662.563 1187.368 496.563" style="fill:url(#linear-gradient-92)"/><polygon points="1279.999 798.686 1160.684 798.686 1270.401 757.871 1279.999 798.686" style="fill:url(#linear-gradient-93)"/><polygon points="1105.388 798.686 737.042 798.686 879.539 718.956 1105.388 798.686" style="fill:url(#linear-gradient-94)"/><polygon points="1270.401 757.871 1160.684 798.686 1137.845 798.686 1154.526 757.871 1270.401 757.871" style="fill:url(#linear-gradient-95)"/><polygon points="1154.526 757.871 1137.845 798.686 1105.388 798.686 879.539 718.956 1154.526 757.871" style="fill:url(#linear-gradient-96)"/><polygon points="0 732.844 0 652.248 26.917 689.567 0 732.844" style="fill:url(#linear-gradient-97)"/><polygon points="194.684 746.743 0 783.046 0 732.844 26.917 689.567 194.684 746.743" style="fill:url(#linear-gradient-98)"/><polygon points="298.438 444.93 459.276 359.95 560.459 463 298.438 444.93" style="fill:url(#linear-gradient-99)"/><polygon points="298.438 444.93 276.388 290.45 459.276 359.95 298.438 444.93" style="fill:url(#linear-gradient-100)"/><polygon points="276.388 290.45 492.137 269.414 459.276 359.95 276.388 290.45" style="fill:url(#linear-gradient-101)"/><polygon points="560.459 463 768.849 390.924 775.761 452.088 560.459 463" style="fill:url(#linear-gradient-102)"/><polygon points="560.459 463 459.276 359.95 768.849 390.924 560.459 463" style="fill:url(#linear-gradient-103)"/><polygon points="775.761 452.088 768.849 390.924 1074.97 458.635 775.761 452.088" style="fill:url(#linear-gradient-104)"/><polygon points="768.849 390.924 784.404 329.777 1074.97 458.635 768.849 390.924" style="fill:url(#linear-gradient-105)"/><polygon points="304.058 524.554 0 550.617 0 535.6 225.806 467.177 304.058 524.554" style="fill:url(#linear-gradient-106)"/><polygon points="0 535.6 0 428.286 225.806 467.177 0 535.6" style="fill:url(#linear-gradient-107)"/><polygon points="225.806 467.177 298.438 444.93 304.058 524.554 225.806 467.177" style="fill:url(#linear-gradient-108)"/><polygon points="225.806 467.177 103.454 316.264 298.438 444.93 225.806 467.177" style="fill:url(#linear-gradient-109)"/><polygon points="225.806 467.177 0 428.286 0 387.467 103.454 316.264 225.806 467.177" style="fill:url(#linear-gradient-110)"/><polygon points="288.075 604.574 304.058 524.554 500.364 561.686 288.075 604.574" style="fill:url(#linear-gradient-111)"/><polygon points="288.075 604.574 0 565.819 0 550.617 304.058 524.554 288.075 604.574" style="fill:url(#linear-gradient-112)"/><polygon points="194.684 746.743 288.075 604.574 384.918 692.742 194.684 746.743" style="fill:url(#linear-gradient-113)"/><polygon points="26.917 689.567 288.075 604.574 194.684 746.743 26.917 689.567" style="fill:url(#linear-gradient-114)"/><polygon points="288.075 604.574 500.364 561.686 384.918 692.742 288.075 604.574" style="fill:url(#linear-gradient-115)"/><polygon points="26.917 689.567 0 652.248 0 565.819 288.075 604.574 26.917 689.567" style="fill:url(#linear-gradient-116)"/><polygon points="459.276 359.95 582.069 305.949 768.849 390.924 459.276 359.95" style="fill:url(#linear-gradient-117)"/><polygon points="768.849 390.924 582.069 305.949 784.404 329.777 768.849 390.924" style="fill:url(#linear-gradient-118)"/><polygon points="459.276 359.95 492.137 269.414 582.069 305.949 459.276 359.95" style="fill:url(#linear-gradient-119)"/><polygon points="582.069 305.949 829.807 292.444 784.404 329.777 582.069 305.949" style="fill:url(#linear-gradient-120)"/><polygon points="582.069 305.949 709.195 160.198 829.807 292.444 582.069 305.949" style="fill:url(#linear-gradient-121)"/><polygon points="492.137 269.414 476.576 219.961 582.069 305.949 492.137 269.414" style="fill:url(#linear-gradient-122)"/><polygon points="476.576 219.961 709.195 160.198 582.069 305.949 476.576 219.961" style="fill:url(#linear-gradient-123)"/><polygon points="590.718 685.593 500.364 561.686 675.9 641.513 590.718 685.593" style="fill:url(#linear-gradient-124)"/><polygon points="590.277 766.996 590.718 685.593 879.539 718.956 590.277 766.996" style="fill:url(#linear-gradient-125)"/><polygon points="384.918 692.742 590.718 685.593 590.277 766.996 384.918 692.742" style="fill:url(#linear-gradient-126)"/><polygon points="590.718 685.593 675.9 641.513 879.539 718.956 590.718 685.593" style="fill:url(#linear-gradient-127)"/><polygon points="384.918 692.742 500.364 561.686 590.718 685.593 384.918 692.742" style="fill:url(#linear-gradient-128)"/><polygon points="829.807 292.444 1151.061 218.579 1225.42 379.006 829.807 292.444" style="fill:url(#linear-gradient-129)"/><polygon points="1151.061 218.579 1223.705 163.182 1225.42 379.006 1151.061 218.579" style="fill:url(#linear-gradient-130)"/><polygon points="829.807 292.444 849.697 204.482 1151.061 218.579 829.807 292.444" style="fill:url(#linear-gradient-131)"/><polygon points="849.697 204.482 982.43 152.455 1151.061 218.579 849.697 204.482" style="fill:url(#linear-gradient-132)"/><polygon points="1151.061 218.579 982.43 152.455 1223.705 163.182 1151.061 218.579" style="fill:url(#linear-gradient-133)"/></g><g id="s6_title"><rect x="63.16344" y="40.1882" width="149.9925" height="216.17212" style="fill:none;stroke:#fff;stroke-linejoin:round;stroke-width:5px"/><path d="M93.25586,98.17432c0.18945,0.063.31543,0.126,0.50439,0.189A1.62959,1.62959,0,0,1,94.894,99.8125a1.67716,1.67716,0,0,1-.189.75586c-0.189.31494-.37793,0.56738-0.56689,0.88232a20.94214,20.94214,0,0,0,6.99316,4.03223,1.62776,1.62776,0,0,1,1.0083,2.33105,1.99137,1.99137,0,0,1-1.76416,1.19727,2.22376,2.22376,0,0,1-.88184-0.18945,24.58545,24.58545,0,0,1-7.30859-4.78809,25.05755,25.05755,0,0,1-6.86719,5.35547,1.76189,1.76189,0,0,1-1.07129.31494,1.90017,1.90017,0,0,1-1.63818-.88232,2.198,2.198,0,0,1-.37793-1.13379,1.55537,1.55537,0,0,1,.94531-1.44922c3.33887-1.76416,6.11133-3.71729,8.19043-7.37158a1.62911,1.62911,0,0,1,.88184-0.69287H82.10449a1.55784,1.55784,0,0,1-1.51221-1.82715A1.53406,1.53406,0,0,1,82.10449,94.583h50.90674a1.578,1.578,0,0,1,1.5752,1.76416,1.6,1.6,0,0,1-1.5752,1.82715h-9.70264c0.18945,0.063.44141,0.126,0.63037,0.189a1.70624,1.70624,0,0,1,1.19678,1.44922,1.04942,1.04942,0,0,1-.252.69287c-0.189.31494-.37793,0.63037-0.56689,0.88232a21.48059,21.48059,0,0,0,8.69434,4.7251,1.57206,1.57206,0,0,1,1.07129,1.5752,1.72244,1.72244,0,0,1-.252.88184,1.81676,1.81676,0,0,1-1.70117,1.13428,3.695,3.695,0,0,1-.81934-0.126,29.87414,29.87414,0,0,1-9.07227-5.48145,24.8012,24.8012,0,0,1-6.86768,5.29248,1.77752,1.77752,0,0,1-.94482.252,1.98585,1.98585,0,0,1-1.70117-1.0083,2.399,2.399,0,0,1-.37793-1.19678,1.3774,1.3774,0,0,1,.94482-1.26025,18.11551,18.11551,0,0,0,8.31689-7.37158,1.1375,1.1375,0,0,1,.88184-0.62988h-13.231V110.271h25.70557a1.647,1.647,0,0,1,1.70117,1.89014,1.75419,1.75419,0,0,1-1.70117,2.01611h-54.75a1.75445,1.75445,0,0,1-1.70117-2.01611,1.64719,1.64719,0,0,1,1.70117-1.89014h24.57129V98.17432H93.25586ZM85.6958,61.31738a1.769,1.769,0,0,1,0-3.52832h44.35449a1.77549,1.77549,0,0,1,0,3.52832H109.32178v2.835h21.42139c3.15039,0,4.85156,1.32324,4.85156,4.28418v6.42676c0,1.38574-.88232,1.89014-2.26855,1.89014-1.38574,0-2.26807-.50439-2.26807-1.89014V69.00391c0-1.13428-.69287-1.51221-1.89014-1.51221H109.32178V78.01318c0,1.44922-.88184,1.89014-2.26807,1.89014-1.38574,0-2.20508-.44092-2.20508-1.89014V67.4917H86.19971c-1.26025,0-1.89014.37793-1.89014,1.51221v5.85938c0,1.38574-.88184,1.89014-2.26807,1.89014s-2.26807-.50439-2.26807-1.89014V68.43652c0-2.96094,1.70117-4.28418,4.85107-4.28418h20.22412v-2.835H85.6958Zm7.24512,19.53125c2.89844,0,4.03223,1.25977,4.03223,3.84277v3.6543c0,2.64648-1.0708,3.78027-4.03223,3.78027H85.44385c-2.83545,0-3.96924-1.13379-3.96924-3.78027v-3.6543c0-2.583,1.19678-3.84277,3.96924-3.84277h7.49707Zm-0.94482,8.19043a1.16552,1.16552,0,0,0,1.38623-1.38623V85.32178a1.16537,1.16537,0,0,0-1.38623-1.38623H86.38867a1.16537,1.16537,0,0,0-1.38623,1.38623v2.33105a1.16552,1.16552,0,0,0,1.38623,1.38623h5.60742ZM88.40479,73.03613a1.61455,1.61455,0,0,1,0-3.15039h11.84473a1.61455,1.61455,0,0,1,0,3.15039H88.40479Zm0,5.54395a1.24983,1.24983,0,0,1-1.26025-1.44873,1.47916,1.47916,0,0,1,1.26025-1.70117h11.84473a1.47916,1.47916,0,0,1,1.26025,1.70117,1.24983,1.24983,0,0,1-1.26025,1.44873H88.40479Zm22.80713,2.26855c2.83545,0,3.96924,1.25977,3.96924,3.84277v3.6543c0,2.64648-1.13379,3.78027-3.96924,3.78027h-7.43408c-2.89844,0-4.03223-1.13379-4.03223-3.78027v-3.6543c0-2.583,1.19678-3.84277,4.03223-3.84277h7.43408Zm-0.94482,8.19043a1.18657,1.18657,0,0,0,1.38623-1.38623V85.32178a1.18641,1.18641,0,0,0-1.38623-1.38623h-5.60742a1.16537,1.16537,0,0,0-1.38623,1.38623v2.33105a1.16552,1.16552,0,0,0,1.38623,1.38623h5.60742Zm3.52832-16.00293a1.59918,1.59918,0,0,1,0-3.15039H126.522a1.61455,1.61455,0,0,1,0,3.15039H113.79541Zm0,5.54395a1.29362,1.29362,0,0,1-1.32324-1.44873,1.52147,1.52147,0,0,1,1.32324-1.70117H126.522a1.47916,1.47916,0,0,1,1.26025,1.70117,1.24983,1.24983,0,0,1-1.26025,1.44873H113.79541Zm15.814,2.26855c2.835,0,3.96875,1.25977,3.96875,3.84277v3.6543c0,2.64648-1.13379,3.78027-3.96875,3.78027h-7.56055c-2.89844,0-4.03223-1.13379-4.03223-3.78027v-3.6543c0-2.583,1.13379-3.84277,4.03223-3.84277h7.56055Zm-0.94531,8.19043a1.1864,1.1864,0,0,0,1.38623-1.38623V85.32178a1.18624,1.18624,0,0,0-1.38623-1.38623h-5.7334a1.18608,1.18608,0,0,0-1.38574,1.38623v2.33105a1.18624,1.18624,0,0,0,1.38574,1.38623h5.7334Z" transform="translate(-0.00046)" style="fill:#fff"/><path d="M196.89355,80.5332a1.91722,1.91722,0,0,1,1.89014,2.20508c0,1.38623-.69336,2.26855-1.89014,2.26855h-18.46v21.86182c0,1.70117.56689,2.26855,2.33105,2.45752a21.89812,21.89812,0,0,0,3.08691.126h2.52a22.96468,22.96468,0,0,0,4.6626-.44092,3.5702,3.5702,0,0,0,2.583-2.0166,26.92642,26.92642,0,0,0,1.07129-6.42627,1.98756,1.98756,0,0,1,2.20508-2.0791h0.31494c1.44922,0.063,2.33105.75635,2.33105,2.14209v0.252c-0.189,3.15039-.88184,7.05664-1.82715,9.00977a6.93352,6.93352,0,0,1-5.103,3.71729,48.38457,48.38457,0,0,1-7.74951.50391,51.12507,51.12507,0,0,1-6.55273-.31494c-3.02393-.44092-4.85107-1.89014-4.85107-5.7334V85.00684h-8.25342c-0.189,5.60693-.88232,11.15137-3.52832,16.19189-3.59131,6.86719-9.38721,10.39551-16.19189,13.23047a3.43318,3.43318,0,0,1-1.38623.31494,2.36606,2.36606,0,0,1-2.20508-1.51172,3.38939,3.38939,0,0,1-.31494-1.32324,2.33991,2.33991,0,0,1,1.51221-2.20508c5.85938-2.33105,11.08838-5.29248,14.11279-11.08887,2.20508-4.22119,2.772-8.94629,2.96094-13.6084H144.5376c-1.19727,0-1.89014-.88232-1.89014-2.26855a1.917,1.917,0,0,1,1.89014-2.20508h23.05908V59.36426c0-1.13428.94531-1.89014,2.457-1.89014,1.51221,0,2.52051.75586,2.52051,1.89014V80.5332h24.31934ZM150.46,61.19141a2.5535,2.5535,0,0,1,1.89014.88184,72.34423,72.34423,0,0,1,7.686,11.21484,3.06675,3.06675,0,0,1,.37842,1.38574,2.33687,2.33687,0,0,1-1.32324,2.01611,2.92314,2.92314,0,0,1-1.44922.37842,2.30148,2.30148,0,0,1-2.0791-1.13428,71.50078,71.50078,0,0,0-7.43457-11.15137,1.88533,1.88533,0,0,1-.44092-1.19727,2.39156,2.39156,0,0,1,1.19727-1.95312A2.84346,2.84346,0,0,1,150.46,61.19141Zm42.33838,2.457a1.77376,1.77376,0,0,1-.25244.94482,59.4928,59.4928,0,0,1-8.25342,12.34912,2.68031,2.68031,0,0,1-2.14209,1.00781,2.71921,2.71921,0,0,1-1.6377-.56689,2.39223,2.39223,0,0,1-1.0083-1.89014,2.22045,2.22045,0,0,1,.56689-1.44922,45.13781,45.13781,0,0,0,7.68652-11.4668,2.20849,2.20849,0,0,1,2.0791-1.38574,3.20549,3.20549,0,0,1,1.26025.252A2.44528,2.44528,0,0,1,192.79834,63.64844Z" transform="translate(-0.00046)" style="fill:#fff"/><path d="M94.894,146.68311a67.36,67.36,0,0,1-10.4585,14.0498,3.12905,3.12905,0,0,1-1.89014.81885,2.48913,2.48913,0,0,1-1.76416-.75586,2.435,2.435,0,0,1-.88184-1.89014,2.20138,2.20138,0,0,1,.81885-1.70117A60.57066,60.57066,0,0,0,95.33545,134.019a2.1751,2.1751,0,0,1,2.14209-1.51172,4.9411,4.9411,0,0,1,.88184.126,2.08448,2.08448,0,0,1,1.95313,1.89014,3.16161,3.16161,0,0,1-.126.75586c-0.94531,2.33105-1.89014,4.59912-2.89844,6.8042h36.22705c1.26025,0,1.89014.94531,1.89014,2.33154,0,1.32275-.62988,2.26807-1.89014,2.26807h-25.0752v9.51318h21.92529c1.19727,0,1.82715.88232,1.82715,2.20557,0,1.32275-.62988,2.26807-1.82715,2.26807H108.43994v9.57617h21.92529c1.19727,0,1.82715.88232,1.82715,2.20508,0,1.26025-.62988,2.26855-1.82715,2.26855H108.43994V188.9585c0,1.25977-1.00781,2.01611-2.52,2.01611-1.44922,0-2.52-.75635-2.52-2.01611V146.68311H94.894Z" transform="translate(-0.00046)" style="fill:#fff"/><path d="M143.21436,140.57178c-1.13428,0-1.76416-.88232-1.76416-2.20508,0-1.32324.62988-2.20557,1.76416-2.20557h17.38916c1.19678,0,1.82715.88232,1.82715,2.20557,0,1.32275-.63037,2.20508-1.82715,2.20508h-6.42676v14.23877h5.67041c1.13428,0,1.76416.88184,1.76416,2.20508,0,1.25977-.62988,2.14209-1.76416,2.14209h-5.67041v14.74268c2.14258-.88184,4.15869-1.82715,5.85938-2.646a3.06911,3.06911,0,0,1,1.38623-.37793,1.8402,1.8402,0,0,1,1.76416,1.25977,2.16154,2.16154,0,0,1,.252,1.0083,2.49106,2.49106,0,0,1-1.51221,2.14209,120.84832,120.84832,0,0,1-17.76709,7.37158,2.85287,2.85287,0,0,1-1.00781.189,2.02566,2.02566,0,0,1-1.95312-1.63818,5.51821,5.51821,0,0,1-.126-1.0083,2.03064,2.03064,0,0,1,1.51221-2.0791c2.20508-.69287,4.59912-1.51172,7.05615-2.457V159.15771h-5.79639c-1.13379,0-1.76416-.88232-1.76416-2.14209,0-1.26025.63037-2.20508,1.76416-2.20508h5.79639V140.57178h-6.42627Zm26.33545,30.05273c-3.59131,0-5.22949-1.32324-5.22949-4.85156V139.56348c0-3.52832,1.70117-4.97705,5.35547-4.97705h20.91748c3.65381,0,5.355,1.44873,5.355,4.97705v26.20947c0,3.52832-1.63818,4.85156-5.292,4.85156H186.939V183.792c0,2.01611.62988,2.20508,4.1582,2.20508,2.52,0,3.6543-.37793,4.09521-1.19678,0.69287-1.19727.94482-3.33936,1.0708-5.7334a1.86307,1.86307,0,0,1,2.0791-1.82715h0.31543a2.12362,2.12362,0,0,1,2.01611,2.26807v0.126c-0.12646,3.52832-.88232,6.48926-2.0791,8.25342-1.19727,1.70117-3.40234,2.33105-7.56055,2.33105a22.13152,22.13152,0,0,1-6.17432-.50391c-1.95312-.62988-2.64648-1.95312-2.64648-4.53613V170.62451H176.354c-0.252,10.64746-5.60693,16.75879-16.50684,20.53906a2.9213,2.9213,0,0,1-1.19678.252,2.57316,2.57316,0,0,1-2.20508-2.457,2.421,2.421,0,0,1,1.6377-2.26807c9.32471-3.02441,13.41992-7.68652,13.67188-16.06592H169.5498Zm21.8623-25.26465v-4.97705c0-1.19727-.44092-1.51221-1.76416-1.51221H170.62109c-1.32324,0-1.76416.31494-1.76416,1.51221v4.97705h22.55518Zm0,10.20654v-6.17432H168.85693v6.17432h22.55518Zm-22.55518,9.45068c0,1.25977.44092,1.5752,1.76416,1.5752h19.02686c1.32324,0,1.76416-.31543,1.76416-1.5752v-5.41846H168.85693v5.41846Z" transform="translate(-0.00046)" style="fill:#fff"/><path d="M73.44531,241.07031a0.87416,0.87416,0,0,1-.72607-0.96826,0.83874,0.83874,0,0,1,.72607-0.9458H91.94971a0.83875,0.83875,0,0,1,.72656.9458,0.87414,0.87414,0,0,1-.72656.96826H73.44531Z" transform="translate(-0.00046)" style="fill:#fff"/><path d="M96.67725,230.77295a0.83158,0.83158,0,0,1,1.60645,0v4.81836l4.48877-.9458a0.82427,0.82427,0,0,1,.21973-0.022,0.64209,0.64209,0,0,1,.63818.59375,1.07563,1.07563,0,0,1,.022.26416,0.62419,0.62419,0,0,1-.5498.66016l-4.81885,1.01221v5.76465c0,0.66016.13184,0.83643,1.03418,0.83643,1.23193,0,1.76025-.17627,1.98047-0.68213a7.5,7.5,0,0,0,.374-2.53076,0.631,0.631,0,0,1,.7041-0.6377h0.06592a0.70086,0.70086,0,0,1,.77.7041v0.04395a8.03674,8.03674,0,0,1-.72607,3.54248,2.03187,2.03187,0,0,1-1.47412,1.03418,11.12317,11.12317,0,0,1-1.73828.15381,9.68873,9.68873,0,0,1-1.43018-.10986c-0.8584-.15381-1.1665-0.7041-1.1665-1.71631v-6.05078l-1.71582.35205a0.37735,0.37735,0,0,1-.1543.022,0.6692,0.6692,0,0,1-.61621-0.66016,0.82589,0.82589,0,0,1-.022-0.22021v-0.10986a0.60961,0.60961,0,0,1,.55029-0.5498l1.958-.41846v-5.14844Zm5.94092,2.13428a0.66524,0.66524,0,0,1-.63818-0.77,0.67413,0.67413,0,0,1,.63818-0.79248h9.50537a1.77262,1.77262,0,0,1,2.06836,1.9585,70.57038,70.57038,0,0,1-1.144,13.81787c-0.396,1.76025-1.27637,2.42041-3.27832,2.42041a10.75428,10.75428,0,0,1-2.28857-.22021,0.77416,0.77416,0,0,1-.61621-0.792,0.90668,0.90668,0,0,1,.022-0.24219,0.7283,0.7283,0,0,1,.7041-0.68164,0.6098,0.6098,0,0,1,.19824.022,7.72515,7.72515,0,0,0,1.76025.2417,1.527,1.527,0,0,0,1.84814-1.49609,68.90786,68.90786,0,0,0,1.05615-12.76172,0.6497,0.6497,0,0,0-.792-0.7041h-3.63037a30.34077,30.34077,0,0,1-1.07812,8.36133,14.87947,14.87947,0,0,1-5.897,8.36084,1.22512,1.22512,0,0,1-.68213.24219,0.93254,0.93254,0,0,1-.92432-0.90234,0.812,0.812,0,0,1,.374-0.68213,12.50713,12.50713,0,0,0,5.52295-7.54687,29.90164,29.90164,0,0,0,.99023-7.833h-3.71875Z" transform="translate(-0.00046)" style="fill:#fff"/><path d="M117.11523,238.166a0.76215,0.76215,0,0,1,0-1.49609h3.96045v-2.61865H118.0835a0.643,0.643,0,0,1-.61621-0.748,0.63463,0.63463,0,0,1,.61621-0.72607h2.99219v-2.02441a0.63167,0.63167,0,0,1,.77-0.61621,0.651,0.651,0,0,1,.79248.61621v2.02441h2.13428a0.61466,0.61466,0,0,1,.61572.7041,0.67513,0.67513,0,0,1-.61572.77h-2.13428v2.61865H123.606a23.391,23.391,0,0,0,3.32275-5.105,0.70144,0.70144,0,0,1,.63818-0.43994,1.17564,1.17564,0,0,1,.43994.10986,0.68322,0.68322,0,0,1,.43994.61621,1.17564,1.17564,0,0,1-.10986.43994,26.96889,26.96889,0,0,1-2.9043,4.37891h2.1123a0.75759,0.75759,0,0,1,0,1.49609h-3.41064c-0.748.77-1.51807,1.49609-2.33252,2.2002,0.68213-.06592,1.43018-0.10986,2.1123-0.10986h1.29834c1.29834,0,1.84814.46191,1.84814,1.606v6.271c0,1.166-.5498,1.65039-1.84814,1.65039h-4.7085c-1.29834,0-1.84863-.48437-1.84863-1.65039v-4.09277a12.07322,12.07322,0,0,1,.08838-1.21c-0.39648.30811-.77051,0.59424-1.18848,0.85791a0.9814,0.9814,0,0,1-.418.11035,0.8381,0.8381,0,0,1-.7041-0.33008,0.926,0.926,0,0,1-.13184-0.46191,0.806,0.806,0,0,1,.418-0.68213,24.99369,24.99369,0,0,0,5.501-4.15869h-5.105Zm8.36133,6.00684v-2.02441c0-.43994-0.19824-0.5498-0.61621-0.5498h-3.9165a0.66836,0.66836,0,0,0-.7041.77v1.8042h5.23682Zm-5.23682,3.63037c0,0.43994.19775,0.55029,0.61621,0.55029h4.00439c0.418,0,.61621-0.11035.61621-0.55029v-2.28809h-5.23682v2.28809Zm11.00146-15.84229a0.5279,0.5279,0,0,0-.66016.55029v16.98633a0.71221,0.71221,0,0,1-.83594.7041,0.70258,0.70258,0,0,1-.83643-0.7041V232.24707c0-1.27637.59424-1.76025,1.91455-1.76025h3.96045c1.144,0,1.76025.52783,1.76025,1.4082a2.50957,2.50957,0,0,1-.15381.83594,26.59816,26.59816,0,0,1-2.28857,4.79688,0.81567,0.81567,0,0,0-.15381.418,0.64093,0.64093,0,0,0,.24219.46191,7.45364,7.45364,0,0,1,2.55225,5.30322c0,2.48633-1.45215,3.41016-3.23437,3.41016a9.34889,9.34889,0,0,1-1.84863-.19775,0.68478,0.68478,0,0,1-.5498-0.74854,1.06977,1.06977,0,0,1,.022-0.26367,0.68324,0.68324,0,0,1,.7041-0.61621h0.10986a8.6822,8.6822,0,0,0,1.51807.17578c0.88037,0,1.5625-.35156,1.5625-1.87012a7.10743,7.10743,0,0,0-2.46436-4.66455,1.34932,1.34932,0,0,1-.43994-0.96826,1.42055,1.42055,0,0,1,.26367-0.792,18.32756,18.32756,0,0,0,2.24463-4.57666,1.83212,1.83212,0,0,0,.04395-0.28613c0-.26416-0.1543-0.35205-0.52832-0.35205h-2.9043Z" transform="translate(-0.00046)" style="fill:#fff"/><path d="M149.58887,247.89111a21.936,21.936,0,0,0,3.47656.30811h0.374c1.31982,0,2.86035-.08789,4.35645-0.17578h0.06592a0.71224,0.71224,0,0,1,.77.792v0.06592a0.74752,0.74752,0,0,1-.792.8584c-1.188.06592-2.22217,0.10986-3.38818,0.10986-0.44043,0-.88037,0-1.36426-0.022a18.8426,18.8426,0,0,1-6.05078-.90234,9.16252,9.16252,0,0,1-4.00488-2.77246,13.54123,13.54123,0,0,1-2.83838,3.78467,0.97444,0.97444,0,0,1-.68213.30811,0.85927,0.85927,0,0,1-.59424-0.26416,0.81146,0.81146,0,0,1-.26367-0.57178,0.948,0.948,0,0,1,.35205-0.7041,13.01517,13.01517,0,0,0,3.63037-6.13916,0.782,0.782,0,0,1,.748-0.66016,1.701,1.701,0,0,1,.33008.04395,0.735,0.735,0,0,1,.63818.72656,1.72365,1.72365,0,0,1-.04395.30762c-0.19824.61621-.396,1.18848-0.61621,1.73828a8.12123,8.12123,0,0,0,3.98242,2.70654c0.06641,0.022.1543,0.04395,0.22021,0.06592v-6.38086H139.2251a0.648,0.648,0,0,1-.59375-0.77,0.61938,0.61938,0,0,1,.59375-0.72607h18.791a0.62041,0.62041,0,0,1,.59375.72607,0.67245,0.67245,0,0,1-.59375.77h-8.42725v2.33252h6.57861a0.78922,0.78922,0,0,1,0,1.54h-6.57861v2.9043Zm4.86279-17.36035c1.29785,0,1.89209.52832,1.89209,1.8042v4.00488c0,1.27588-.59424,1.78223-1.89209,1.78223H142.834c-1.29834,0-1.89258-.50635-1.89258-1.78223V232.335c0-1.27588.59424-1.8042,1.89258-1.8042h11.61768Zm0.26367,3.10254v-1.144c0-.44043-0.21973-0.55029-0.6377-0.55029H143.208c-0.41846,0-.63818.10986-0.63818,0.55029v1.144h12.14551Zm-12.14551,2.53027a0.52355,0.52355,0,0,0,.63818.59424h10.84717a0.53177,0.53177,0,0,0,.66016-0.59424v-1.166H142.56982v1.166Z" transform="translate(-0.00046)" style="fill:#fff"/><path d="M161.07129,234.93164a0.66283,0.66283,0,0,1-.61621-0.77051,0.6518,0.6518,0,0,1,.61621-0.77h3.38818v-2.81641a0.676,0.676,0,0,1,.81445-0.66016,0.6857,0.6857,0,0,1,.814.66016v2.81641h2.46436a0.6518,0.6518,0,0,1,.61621.77,0.66283,0.66283,0,0,1-.61621.77051h-4.13672v0.5498c0,0.77,0,1.51807-.04395,2.28857h2.33252c1.27588,0,1.8042.48389,1.8042,1.73828a45.98032,45.98032,0,0,1-.52832,8.58105,2.01008,2.01008,0,0,1-2.2002,1.73828,4.95,4.95,0,0,1-1.584-.19824,0.66693,0.66693,0,0,1-.50635-0.7041,0.51514,0.51514,0,0,1,.04395-0.2417,0.66866,0.66866,0,0,1,.68213-0.59424,0.43141,0.43141,0,0,1,.1543.022,3.02781,3.02781,0,0,0,.96826.13184,0.78616,0.78616,0,0,0,.92383-0.814,47.5531,47.5531,0,0,0,.43994-7.56885,0.50948,0.50948,0,0,0-.6377-0.57227h-1.93652c-0.19775,4.75244-.85791,7.65723-2.37646,10.25342a0.77955,0.77955,0,0,1-.68213.418,1.15626,1.15626,0,0,1-.50586-0.13184,0.73159,0.73159,0,0,1-.418-0.66016,1.29764,1.29764,0,0,1,.15381-0.52783c1.91455-3.01465,2.33252-6.31494,2.31055-13.708h-1.73828Zm10.93555-.8584a17.74085,17.74085,0,0,1-2.22217,3.19043,0.77439,0.77439,0,0,1-.57227.26416,1.02284,1.02284,0,0,1-.68213-0.26416,0.82522,0.82522,0,0,1-.24219-0.52783,0.8138,0.8138,0,0,1,.22021-0.52832,16.89946,16.89946,0,0,0,3.41064-5.897,0.66021,0.66021,0,0,1,.66016-0.46191,1.93367,1.93367,0,0,1,.35205.04395,0.70476,0.70476,0,0,1,.65967.66016,0.587,0.587,0,0,1-.06592.26416c-0.19775.57178-.46191,1.144-0.72607,1.71631h7.37109a0.6518,0.6518,0,0,1,.61621.77,0.66263,0.66263,0,0,1-.61621.77h-8.16309Zm-0.52832,7.54736c0-.59424.022-1.18848,0.04443-1.73828-0.41846.19775-.8584,0.374-1.27637,0.5498a1.29021,1.29021,0,0,1-.28613.04395,0.71249,0.71249,0,0,1-.66016-0.50586,1.22414,1.22414,0,0,1-.06592-0.374,0.63284,0.63284,0,0,1,.396-0.63818,21.063,21.063,0,0,0,7.12891-4.26855,0.87008,0.87008,0,0,1,.55029-0.22021,0.93878,0.93878,0,0,1,.57227.22021,0.87449,0.87449,0,0,1,.30811.59424,0.84352,0.84352,0,0,1-.28613.57178,24.18568,24.18568,0,0,1-2.15625,1.65039,27.45688,27.45688,0,0,0,.68164,3.30029,13.41669,13.41669,0,0,0,2.64063-2.39844,0.68053,0.68053,0,0,1,.50586-0.26367,0.81164,0.81164,0,0,1,.57227.26367,0.71894,0.71894,0,0,1,.13184,1.10059,19.45193,19.45193,0,0,1-3.36621,2.79443,15.14836,15.14836,0,0,0,3.82861,5.76465,0.86952,0.86952,0,0,1,.26416.61621,0.82178,0.82178,0,0,1-.30811.66016,0.94677,0.94677,0,0,1-.61621.2417,0.88072,0.88072,0,0,1-.63818-0.26416c-2.88232-2.772-4.40039-6.5127-5.06055-10.93555-0.418.26416-.83643,0.48438-1.25439,0.72607v10.45166a0.67279,0.67279,0,0,1-.814.63818,0.69265,0.69265,0,0,1-.83643-0.63818v-7.94287Z" transform="translate(-0.00046)" style="fill:#fff"/><path d="M189.67236,235.52539a0.62371,0.62371,0,0,1,.61572.72607,0.65125,0.65125,0,0,1-.61572.77h-1.98047a14.219,14.219,0,0,0,2.42041,4.04883,0.83089,0.83089,0,0,1,.17578.50586,0.778,0.778,0,0,1-.2417.59424,0.68023,0.68023,0,0,1-.4624.17627,0.69193,0.69193,0,0,1-.57178-0.30811,11.01715,11.01715,0,0,1-1.62842-3.34473,23.60128,23.60128,0,0,1,.26416,3.16846v7.85547a0.71264,0.71264,0,0,1-.8584.6377,0.5919,0.5919,0,0,1-.7041-0.6377v-7.08545a24.49229,24.49229,0,0,1,.33008-3.65234,18.49424,18.49424,0,0,1-2.83838,5.76465,0.87738,0.87738,0,0,1-.7041.37451,0.64558,0.64558,0,0,1-.46191-0.17627,0.81226,0.81226,0,0,1-.30811-0.63818,1.04966,1.04966,0,0,1,.24219-0.63818,18.56119,18.56119,0,0,0,3.49854-6.645H183.269a0.63112,0.63112,0,0,1-.61572-0.748,0.6217,0.6217,0,0,1,.61572-0.748h2.79443V232.709c-0.77.19824-1.51807,0.374-2.17822,0.48438a0.82427,0.82427,0,0,1-.21973.022,0.69266,0.69266,0,0,1-.74854-0.63818,0.48511,0.48511,0,0,1-.022-0.17627,0.71592,0.71592,0,0,1,.63818-0.72607,23.63551,23.63551,0,0,0,5.58887-1.606,1.4239,1.4239,0,0,1,.43994-0.08838,0.72825,0.72825,0,0,1,.66016.37451,0.98667,0.98667,0,0,1,.11035.418,0.72905,0.72905,0,0,1-.44043.68213c-0.63818.26367-1.43018,0.5498-2.24414,0.814v3.25635h2.02441Zm12.6958,12.52a0.65551,0.65551,0,0,1,.63818.77,0.67751,0.67751,0,0,1-.63818.77h-12.52a0.67751,0.67751,0,0,1-.63818-0.77,0.66624,0.66624,0,0,1,.63818-0.77h5.54492v-2.86035h-4.20264a0.659,0.659,0,0,1-.61621-0.72607,0.688,0.688,0,0,1,.61621-0.77051h4.20264v-2.48633h-4.24658a0.66553,0.66553,0,0,1-.61621-0.748,0.63257,0.63257,0,0,1,.61621-0.748h10.82568a0.62778,0.62778,0,0,1,.6377.72607,0.67586,0.67586,0,0,1-.6377.77h-4.99512v2.48633h4.4668a0.64855,0.64855,0,0,1,.59424.77051,0.63036,0.63036,0,0,1-.59424.72607h-4.4668v2.86035h5.39111Zm-0.52832-11.772c0,1.23242-.57178,1.71631-1.91406,1.71631h-6.88721c-1.36426,0-1.936-.48389-1.936-1.71631v-3.71826c0-1.23242.57178-1.71631,1.936-1.71631h6.88721c1.34229,0,1.91406.48389,1.91406,1.71631v3.71826Zm-2.26611.22021c0.48389,0,.68213-0.13184.68213-0.55029v-3.03613c0-.418-0.19824-0.55029-0.68213-0.55029h-6.20508c-0.48389,0-.68213.13232-0.68213,0.55029v3.03613c0,0.41846.19824,0.55029,0.68213,0.55029h6.20508Z" transform="translate(-0.00046)" style="fill:#fff"/></g><g id="s6_story"><text transform="translate(544.90536 117.70612)" style="font-size:18px;fill:#fff;font-family:Hiragino Maru Gothic Pro"><tspan x="36" y="0" style="letter-spacing:-4px"></tspan><tspan x="49.5" y="0" style="letter-spacing:-13px"></tspan><tspan x="54" y="0"></tspan><tspan x="90" y="0" style="letter-spacing:-9px"></tspan><tspan x="99" y="0"></tspan><tspan x="135" y="0"></tspan><tspan x="152.18994" y="0" style="letter-spacing:-3px"></tspan><tspan x="166.26611" y="0" style="letter-spacing:-3px"></tspan><tspan x="181.18799" y="0" style="letter-spacing:-9px"></tspan><tspan x="3.35742" y="36"></tspan><tspan x="39.35742" y="36" style="letter-spacing:-4px"></tspan><tspan x="52.85742" y="36" style="letter-spacing:-13px"></tspan><tspan x="57.35742" y="36"></tspan><tspan x="129.35742" y="36"></tspan><tspan x="146.54736" y="36" style="letter-spacing:-2px"></tspan><tspan x="161.73926" y="36" style="letter-spacing:-1px"></tspan><tspan x="177.75928" y="36" style="letter-spacing:-9px"></tspan><tspan x="32.09424" y="72"></tspan><tspan x="68.09424" y="72" style="letter-spacing:-4px"></tspan><tspan x="81.59424" y="72" style="letter-spacing:-13px"></tspan><tspan x="86.09424" y="72"></tspan><tspan x="140.09424" y="72" style="letter-spacing:-9px"></tspan><tspan x="-153.82764" y="144"></tspan><tspan x="-99.82764" y="144" style="letter-spacing:-9px"></tspan><tspan x="-90.82764" y="144"></tspan><tspan x="53.17236" y="144" style="letter-spacing:-9px"></tspan><tspan x="62.17236" y="144"></tspan><tspan x="296.17236" y="144" style="letter-spacing:-3px"></tspan><tspan x="326.0166" y="144" style="letter-spacing:-9px"></tspan><tspan x="-179.74805" y="180"></tspan><tspan x="-71.74805" y="180" style="letter-spacing:-9px"></tspan><tspan x="-62.74805" y="180"></tspan><tspan x="27.25195" y="180"></tspan><tspan x="62.74805" y="180" style="letter-spacing:-9px"></tspan><tspan x="71.74805" y="180"></tspan><tspan x="233.74805" y="180" style="letter-spacing:-18px"></tspan><tspan x="233.74805" y="180"></tspan><tspan x="287.74805" y="180" style="letter-spacing:-9px"></tspan><tspan x="296.74805" y="180"></tspan><tspan x="314.74805" y="180"></tspan><tspan x="331.93799" y="180" style="letter-spacing:-3px"></tspan><tspan x="346.01416" y="180" style="letter-spacing:-3px"></tspan><tspan x="360.93604" y="180" style="letter-spacing:-9px"></tspan><tspan x="-193.73389" y="252"></tspan><tspan x="-31.73389" y="252" style="letter-spacing:-9px"></tspan><tspan x="-22.73389" y="252"></tspan><tspan x="-4.73389" y="252"></tspan><tspan x="12.45605" y="252"></tspan><tspan x="29.61035" y="252"></tspan><tspan x="137.61035" y="252" style="letter-spacing:-9px"></tspan><tspan x="146.61035" y="252"></tspan><tspan x="200.61035" y="252" style="letter-spacing:-1px"></tspan><tspan x="216.64844" y="252" style="letter-spacing:-1px"></tspan><tspan x="232.66846" y="252" style="letter-spacing:-9px"></tspan><tspan x="241.66846" y="252"></tspan><tspan x="331.66846" y="252" style="letter-spacing:-9px"></tspan><tspan x="340.66846" y="252">...</tspan></text></g><g id="lamp2"><path d="M657.92165,257.45782H622.08518a4.82926,4.82926,0,1,0,0,9.65852h35.83647A4.82926,4.82926,0,1,0,657.92165,257.45782Z" transform="translate(-0.00046)" style="fill:#989898"/><path d="M630.60867,285.98965v2.62813a5.37828,5.37828,0,0,0,5.38,5.38006h8.02723a5.37954,5.37954,0,0,0,5.37786-5.38006v-2.62813a11.70045,11.70045,0,0,0,10.90567-11.6522H619.70053A11.706,11.706,0,0,0,630.60867,285.98965Z" transform="translate(-0.00046)" style="fill:#989898"/><path d="M640.00464,149.07318a48.36157,48.36157,0,0,0-38.05677,78.27891,206.61639,206.61639,0,0,1,15.85422,23.20428h44.39558a205.92953,205.92953,0,0,1,15.85911-23.20916A48.36232,48.36232,0,0,0,640.00464,149.07318Zm0.08108,16.79856a31.199,31.199,0,0,0-31.16924,31.16,4.83048,4.83048,0,1,1-9.661,0,40.872,40.872,0,0,1,40.8302-40.82312A4.83158,4.83158,0,0,1,640.08572,165.87174Z" transform="translate(-0.00046)" style="fill:#eee93a"/></g><g id="halfHead01"><path d="M555.468,589a68.085,68.085,0,0,0-3.11458,7.3622c-4.30212,10.956-5.51853,22.30667-4.60276,33.96351,0.58682,7.46434,1.79832,14.54558.56045,21.4187a26.32674,26.32674,0,0,1-4.13289,10.236c-5.20353,7.7337-12.75383,19.26338-20.92905,24.17115-4.03743,2.41835-1.60735,9.67956.00733,14.51822,1.61443,4.84135,17.76683,8.87489,17.76683,8.87489l-8.25794,10.4876L536,731.326v9.68c12,5.59227,4.59241,16.4789,7.70213,25.17159,2.71382,7.57888,11.35128,11.17171,18.69645,11.99687C580.98105,780.266,628.374,758,619.09225,799H724.14057c-2.79247,0-1.21858-43.98664-1.15191-47.31831,0.41979-20.52365,4.02571-38.54755,13.60537-56.84381,8.14882-15.56313,17.04908-32.1567,20.62618-49.51107A96.17544,96.17544,0,0,0,751.046,589H555.468Z" transform="translate(-0.00046)" style="fill:#fff"/></g><g id="halfHead02"><path d="M794.31159,549.73563c25.81534-45.98877,8.74932-96.01008-4.15736-123.44251C782.89013,410.86577,768,400.85926,751,393.97442V589.55214C768,582.50759,782.88356,570.09225,794.31159,549.73563Z" transform="translate(-0.00046)" style="fill:#fff"/></g><g id="alpha"><rect width="1279.99936" height="800.00022" style="fill:none"/></g></svg>