<svg id="wood_scene02" xmlns="http://www.w3.org/2000/svg" viewBox="0 0 290.09 567.25"><defs><style>.cls-1{fill:#a27a51;}.cls-2{fill:#999;}.cls-2,.cls-7{opacity:0.3;}.cls-3{fill:#c1996c;}.cls-4{fill:#736357;}.cls-5{fill:#00d6d3;}.cls-6{fill:#6eac66;}.cls-7{fill:#b3b3b3;}</style></defs><title>scene02</title><polygon class="cls-1" points="117.86 358.06 109.63 361.87 73.47 337.18 81.7 333.37 117.86 358.06"/><polygon class="cls-2" points="117.98 358.15 114.89 359.57 78.74 334.88 81.82 333.45 117.98 358.15"/><ellipse class="cls-1" cx="142.95" cy="286.33" rx="39.46" ry="8.31"/><path class="cls-1" d="M461,659h0.45s0,0.21,0,.24c0,4.59,17.67,8.38,39.46,8.38s39.46-3.83,39.46-8.42c0,0,0-.2,0-0.2H540V387H461V659Z" transform="translate(-357.96 -100.37)"/><ellipse class="cls-3" cx="142.95" cy="286.33" rx="39.46" ry="8.31"/><ellipse class="cls-1" cx="142.95" cy="286.34" rx="28.07" ry="5.91"/><ellipse class="cls-3" cx="142.95" cy="286.34" rx="15.36" ry="3.24"/><ellipse class="cls-1" cx="142.95" cy="286.33" rx="7.83" ry="1.65"/><path class="cls-4" d="M477,412.53c0-.62-0.9-1.12-2-1.12h0c-1.1,0-2,.5-2,1.13V660c0,0.62.9,1.13,2,1.13h0c1.1,0,2-.5,2-1.12V412.53Z" transform="translate(-357.96 -100.37)"/><path class="cls-4" d="M512.5,401.58c-1.67,0-2.5.26-2.5,0.58V522.38c0,0.32.83,0.58,2.5,0.58h0c1.67,0,2.5-.26,2.5-0.58V402.16c0-.32-0.83-0.58-2.5-0.58h0Z" transform="translate(-357.96 -100.37)"/><path class="cls-4" d="M512.5,598c-1.67,0-2.5.14-2.5,0.32V665c0,0.18.83,0.32,2.5,0.32h0c1.67,0,2.5-.14,2.5-0.32V598.3c0-.18-0.83-0.32-2.5-0.32h0Z" transform="translate(-357.96 -100.37)"/><path class="cls-4" d="M512.5,542.79a7.41,7.41,0,0,0-2.5.18v36.19a7.41,7.41,0,0,0,2.5.18h0a7.41,7.41,0,0,0,2.5-.18V543a7.41,7.41,0,0,0-2.5-.18h0Z" transform="translate(-357.96 -100.37)"/><path class="cls-4" d="M484,586.93c-1,0-2,.17-2,0.38v77.75c0,0.21,1,.38,2,0.38h0c1,0,2-.17,2-0.38V587.31c0-.21-1-0.38-2-0.38h0Z" transform="translate(-357.96 -100.37)"/><path class="cls-4" d="M484,401.2c-1,0-2,.36-2,0.79V565.49c0,0.44,1,.79,2,0.79h0c1,0,2-.36,2-0.79V402c0-.44-1-0.79-2-0.79h0Z" transform="translate(-357.96 -100.37)"/><path class="cls-4" d="M530,495.36c-1.08,0-2,.34-2,0.77v158c0,0.42.92,0.77,2,.77h0c1.08,0,2-.34,2-0.77v-158c0-.42-0.92-0.77-2-0.77h0Z" transform="translate(-357.96 -100.37)"/><path class="cls-2" d="M509.08,395s28.38-1.2,31.28-8.31-28.79-8.15-34.13-8.23-29.15,1.61-29.15,1.61Z" transform="translate(-357.96 -100.37)"/><path class="cls-2" d="M509.08,395s26.31-.23,31.28-8.31,0,272.76,0,272.68S541.07,410,509.08,395Z" transform="translate(-357.96 -100.37)"/><polygon class="cls-5" points="145.04 143.64 217.56 228.63 290.09 313.63 145.04 313.63 0 313.63 72.52 228.63 145.04 143.64"/><polygon class="cls-6" points="145.04 143.64 217.56 228.63 290.09 313.63 145.04 313.63 0 313.63 72.52 228.63 145.04 143.64"/><path class="cls-7" d="M358.24,414H647.45L503,244.18S666.56,420,358.24,414Z" transform="translate(-357.96 -100.37)"/><polygon class="cls-5" points="145.04 63.07 201.01 128.85 256.97 194.63 145.04 194.63 33.12 194.63 89.08 128.85 145.04 63.07"/><polygon class="cls-6" points="145.04 63.07 201.01 128.85 256.97 194.63 145.04 194.63 33.12 194.63 89.08 128.85 145.04 63.07"/><path class="cls-7" d="M391.29,295H614.47L503,164S629.21,299,391.29,295Z" transform="translate(-357.96 -100.37)"/><polygon class="cls-5" points="145.04 0 181.51 42.81 217.97 85.63 145.04 85.63 72.11 85.63 108.58 42.81 145.04 0"/><polygon class="cls-6" points="145.04 0 181.51 42.81 217.97 85.63 145.04 85.63 72.11 85.63 108.58 42.81 145.04 0"/><path class="cls-7" d="M430.21,186H575.63L503,100.61S585.24,189,430.21,186Z" transform="translate(-357.96 -100.37)"/></svg>