<svg id="scene02" viewBox="0 0 290.09 547.51" xmlns="http://www.w3.org/2000/svg">
	<title>scene02</title>
	<g id="tree">
		<g id="bottomDrop" style="opacity:0"><path d="M1098.16,230c-9.25,5.24-23.56,12.2-31.89,13.87-7.89,1.58-20.76-.22-23.81-9.12a17,17,0,0,1,0-9.18c2.89-10.66,16.58-11.13,25.53-8.82C1075.83,218.76,1089.47,224.62,1098.16,230Z" style="fill:#7eacd1;fill-rule:evenodd"
			transform="translate(-924.96 -144.11)"/><path
			d="M1098.13,230.07c-0.63-.11-2.58,1.47-3.16,1.77-1.36.71-2.73,1.37-4.12,2-2.86,1.33-5.75,2.55-8.63,3.84-5.09,2.27-10.47,5-16.07,4.54-3.17-.24-10.49-2-11.72-6.07-1-3.16,2.55-5.23,4.64-6.12,3.75-1.61,7.75-.4,11.51.4a33.66,33.66,0,0,0,11.55.47C1087.44,230.18,1092.79,229.11,1098.13,230.07Z"
			style="fill:#f2f2f2;fill-rule:evenodd;opacity:0.30000000000000004" transform="translate(-924.96 -144.11)"/><ellipse cx="120.02" cy="85.81" rx="2.67" ry="5.41" style="fill:#f2f2f2;opacity:0.30000000000000004"/></g>
		<g id="middleDrop" style="opacity:0"><path d="M1098.16,316c-9.25,5.24-23.56,12.2-31.89,13.87-7.89,1.58-20.76-.22-23.81-9.12a17,17,0,0,1,0-9.18c2.89-10.66,16.58-11.13,25.53-8.82C1075.83,304.76,1089.47,310.62,1098.16,316Z" style="fill:#7eacd1;fill-rule:evenodd"
			transform="translate(-924.96 -144.11)"/><path
			d="M1098.13,316.07c-0.63-.11-2.58,1.47-3.16,1.77-1.36.71-2.73,1.37-4.12,2-2.86,1.33-5.75,2.55-8.63,3.84-5.09,2.27-10.47,5-16.07,4.54-3.17-.24-10.49-2-11.72-6.07-1-3.16,2.55-5.23,4.64-6.12,3.75-1.61,7.75-.4,11.51.4a33.66,33.66,0,0,0,11.55.47C1087.44,316.18,1092.79,315.11,1098.13,316.07Z"
			style="fill:#f2f2f2;fill-rule:evenodd;opacity:0.30000000000000004" transform="translate(-924.96 -144.11)"/><ellipse cx="120.02" cy="171.81" rx="2.67" ry="5.41" style="fill:#f2f2f2;opacity:0.30000000000000004"/></g>
		<g id="topDrop" style="opacity:0"><path d="M1097.16,424c-9.25,5.24-23.56,12.2-31.89,13.87-7.89,1.58-20.76-.22-23.81-9.12a17,17,0,0,1,0-9.18c2.89-10.66,16.58-11.13,25.53-8.82C1074.83,412.76,1088.47,418.62,1097.16,424Z" style="fill:#7eacd1;fill-rule:evenodd"
			transform="translate(-924.96 -144.11)"/><path
			d="M1097.13,424.07c-0.63-.11-2.58,1.47-3.16,1.77-1.36.71-2.73,1.37-4.12,2-2.86,1.33-5.75,2.55-8.63,3.84-5.09,2.27-10.47,5-16.07,4.54-3.17-.24-10.49-2-11.72-6.07-1-3.16,2.55-5.23,4.64-6.12,3.75-1.61,7.75-.4,11.51.4a33.66,33.66,0,0,0,11.55.47C1086.44,424.18,1091.79,423.11,1097.13,424.07Z"
			style="fill:#f2f2f2;fill-rule:evenodd;opacity:0.30000000000000004" transform="translate(-924.96 -144.11)"/><ellipse cx="119.02" cy="279.81" rx="2.67" ry="5.41" style="fill:#f2f2f2;opacity:0.30000000000000004"/></g>
		<g id="wood"><polygon points="119.86 338.32 111.63 342.14 75.47 317.44 83.7 313.63 119.86 338.32" style="fill:#a27a51"/><polygon points="119.98 338.41 116.89 339.84 80.74 315.15 83.82 313.72 119.98 338.41" style="fill:#999;opacity:0.30000000000000004"/><ellipse cx="144.95" cy="266.6" rx="39.46" ry="8.31" style="fill:#a27a51"/><path d="M1030,683h0.45s0,0.21,0,.24c0,4.59,17.67,8.38,39.46,8.38s39.46-3.83,39.46-8.42c0,0,0-.2,0-0.2H1109V411h-79V683Z" style="fill:#a27a51" transform="translate(-924.96 -144.11)"/><ellipse cx="144.95" cy="266.6" rx="39.46" ry="8.31" style="fill:#c1996c"/><ellipse cx="144.95" cy="266.6" rx="28.07" ry="5.91" style="fill:#a27a51"/><ellipse cx="144.95" cy="266.6" rx="15.36" ry="3.24" style="fill:#c1996c"/><ellipse cx="144.95" cy="266.6" rx="7.83" ry="1.65" style="fill:#a27a51"/><path d="M1046,436.53c0-.62-0.9-1.12-2-1.12h0c-1.1,0-2,.5-2,1.13V684c0,0.62.9,1.13,2,1.13h0c1.1,0,2-.5,2-1.12V436.53Z" style="fill:#736357" transform="translate(-924.96 -144.11)"/><path d="M1081.5,425.58c-1.67,0-2.5.26-2.5,0.58V546.38c0,0.32.83,0.58,2.5,0.58h0c1.67,0,2.5-.26,2.5-0.58V426.16c0-.32-0.83-0.58-2.5-0.58h0Z" style="fill:#736357" transform="translate(-924.96 -144.11)"/><path d="M1081.5,622c-1.67,0-2.5.14-2.5,0.32V689c0,0.18.83,0.32,2.5,0.32h0c1.67,0,2.5-.14,2.5-0.32V622.3c0-.18-0.83-0.32-2.5-0.32h0Z" style="fill:#736357" transform="translate(-924.96 -144.11)"/><path d="M1081.5,566.79a7.41,7.41,0,0,0-2.5.18v36.19a7.41,7.41,0,0,0,2.5.18h0a7.41,7.41,0,0,0,2.5-.18V567a7.41,7.41,0,0,0-2.5-.18h0Z" style="fill:#736357" transform="translate(-924.96 -144.11)"/><path d="M1053,610.93c-1,0-2,.17-2,0.38v77.75c0,0.21,1,.38,2,0.38h0c1,0,2-.17,2-0.38V611.31c0-.21-1-0.38-2-0.38h0Z" style="fill:#736357" transform="translate(-924.96 -144.11)"/><path d="M1053,425.2c-1,0-2,.35-2,0.79V589.49c0,0.44,1,.79,2,0.79h0c1,0,2-.36,2-0.79V426c0-.44-1-0.79-2-0.79h0Z" style="fill:#736357" transform="translate(-924.96 -144.11)"/><path d="M1099,519.36c-1.08,0-2,.34-2,0.77v158c0,0.42.92,0.77,2,.77h0c1.08,0,2-.34,2-0.77v-158c0-.42-0.92-0.77-2-0.77h0Z" style="fill:#736357" transform="translate(-924.96 -144.11)"/><path d="M1078.08,419s28.38-1.2,31.28-8.31-28.79-8.16-34.13-8.23-29.15,1.61-29.15,1.61Z" style="fill:#999;opacity:0.30000000000000004" transform="translate(-924.96 -144.11)"/><path d="M1078.08,419s26.31-.23,31.28-8.31,0,272.76,0,272.68S1110.07,434,1078.08,419Z" style="fill:#999;opacity:0.30000000000000004" transform="translate(-924.96 -144.11)"/></g>
		<g id="bottomTriangle"><polygon points="145.04 109.64 217.56 194.77 290.09 279.89 145.04 279.89 0 279.89 72.52 194.77 145.04 109.64" style="fill:#6eac66"/><path d="M925.24,424h289.21L1070,254.18S1233.56,430,925.24,424Z" style="fill:#b3b3b3;opacity:0.30000000000000004" transform="translate(-924.96 -144.11)"/></g>
		<g id="middleTriangle"><polygon points="145.04 43.06 201.01 108.98 256.97 174.89 145.04 174.89 33.12 174.89 89.08 108.98 145.04 43.06" style="fill:#6eac66"/><path d="M958.29,319h223.18L1070,188S1196.21,323,958.29,319Z" style="fill:#b3b3b3;opacity:0.30000000000000004" transform="translate(-924.96 -144.11)"/></g>
		<g id="topTriangle"><polygon points="145.04 0 181.51 42.94 217.97 85.89 145.04 85.89 72.11 85.89 108.58 42.94 145.04 0" style="fill:#6eac66"/><path d="M997.21,230h145.42L1070,144.61S1152.24,233,997.21,230Z" style="fill:#b3b3b3;opacity:0.30000000000000004" transform="translate(-924.96 -144.11)"/></g>
	</g>
	<g id="alpha"><rect data-name="alpha" height="800" id="alpha-2" style="fill:none" width="1280"/></g>
</svg>
