<svg id="scene04" xmlns="http://www.w3.org/2000/svg" viewBox="0 0 1281 801"><title>scene04</title><g id="leftHuman01"><path d="M34.85,777.16c2.37-1.63,4.89-3.08,7.1-4.91,7.9-6.58,12-15.46,14.26-25.18,3.63-15.31,3.58-30.78,3-46.47-0.58-14.58.65-29.3,2.11-43.86,1-9.53,3.85-18.86,5.56-28.34,0.19-1.07-1.64-3.6-2.52-3.6-7.42,0-14.95-.18-22.24,1-7.62,1.21-15,3.86-22.84,5.37,5-2.59,9.72-5.66,14.89-7.68,10.41-4.06,21-7.73,31.6-11.22,8.55-2.8,16.61-.66,24.3,3.47,4.1,2.21,8.07,4.95,12.44,6.31,11,3.42,21.26-.35,31.12-4.82,5.06-2.3,9.66-5.63,15.29-9A65.54,65.54,0,0,1,132.62,625c-8.51,6.2-18,9.13-28.6,7.83-4-.49-5.29,1-5.21,4.9,0.2,9.67.19,19.35,0.12,29a20.7,20.7,0,0,0,7.48,16.47c4.71,4.07,9.74,7.78,14.61,11.67,11.66,9.35,13.79,18.88,6.77,32.05-6.94,13-17.58,22.86-29,32,1.77-2.41,3.59-4.77,5.29-7.23,5.06-7.34,9.83-14.81,10.67-24,0.69-7.64-2.39-13.4-9-17.14-6.31-3.59-12.4-2.14-17.95,1.84-7.44,5.33-11.28,13-13.76,21.63-4.26,14.78-10.52,28.52-23.61,37.63-4.42,3.08-9.87,4.67-14.85,6.94Z" transform="translate(0.5 0.5)" style="fill:#fff"/><path d="M80.52,596.66c0-8.27,4.36-13.37,11.19-13.25,7.22,0.13,12,5.18,12,12.78,0,8.06-5.26,14-12.5,14C84.4,610.18,80.47,605.21,80.52,596.66Z" transform="translate(0.5 0.5)" style="fill:#fff"/></g><g id="leftHuman02"><path d="M214.94,772.15c14.5-41.51,16.67-85.24,24.15-129.6-13.63,7.81-27.21,9.32-42.25,7.51,6.77-3,12.8-5.26,18.51-8.19a99.09,99.09,0,0,0,33.25-28.24c5.46-7.08,12-7.7,18-.94,12.27,13.84,26,25.56,43.71,32a18.61,18.61,0,0,1,5.44,2.77c-7.13,1.14-14.27,1.84-21.27-.24-6.76-2-13.35-4.57-20.84-7.18,2.93,45.07-5.26,88.73-21.29,131.22q0-2.39,0-4.78c0-14.35.23-28.71-.15-43.06-0.08-3-2.35-5.95-3.62-8.92-2.11,2.29-4.88,4.25-6.21,6.93-6.43,13-12.35,26.2-18.71,39.21-2.08,4.26-5,8.12-7.49,12.17Z" transform="translate(0.5 0.5)" style="fill:#fff"/><path d="M274.22,587.77c0,6.92-4.14,12.59-9.86,13.51-7.35,1.19-12.37-3.24-13-12.21-0.34-4.74.89-9.41,5.09-12.43,3.64-2.61,7.62-2.29,11.55-.48C272.1,578.06,274.23,582.05,274.22,587.77Z" transform="translate(0.5 0.5)" style="fill:#fff"/></g><g id="leftHuman03"><path d="M440.92,783.3c-0.7-7.33-1.09-14.71-2.17-22-2.29-15.39-4.74-30.76-7.62-46-0.52-2.75-3.45-5-5.27-7.55-0.08-.12-5.7,10-6.1,11.07-3.35,8.84-4.25,18.39-5.92,27.64-1.75,9.66-2.72,20.63-6.1,29.83a18.84,18.84,0,0,1-.76-5.4c0.81-32.29,1.4-64.58,2.61-96.86,0.32-8.5-.91-16.36-5.58-23.15-6.95-10.12-14.67-19.71-22.11-29.49-1.11-1.46-2.47-2.72-3.12-5.06,1.43,0.82,2.81,1.76,4.31,2.43,6.79,3,13.44,6.5,20.49,8.74s13.83,0.27,20.28-3.12c19.22-10.11,32.73-25.06,39.48-45.88a10,10,0,0,1,1.43-1.58c-0.16,2.71.1,4.65-.44,6.33-3.83,11.8-8.41,23.39-11.58,35.36A141.61,141.61,0,0,0,448.17,647c-2.13,39.72-3.73,79.46-5.45,119.2-0.24,5.66,0,11.34,0,17Z" transform="translate(0.5 0.5)" style="fill:#fff"/><path d="M429.76,608.3c-1.06,3.06-1.28,6.34-3,8.09-2.06,2.05-5.55,4-8.24,3.8-5.64-.46-8.1-5.32-9.62-10.21-1.59-5.12-2.74-10.29,2.12-14.65,6-5.36,10.92-4.86,14.82,2.21C427.64,600.85,428.48,604.7,429.76,608.3Z" transform="translate(0.5 0.5)" style="fill:#fff"/></g><g id="rightHuman01"><path d="M1244.1,778.22c-2.37-1.63-4.89-3.08-7.1-4.91-7.9-6.58-12-15.46-14.26-25.18-3.63-15.31-3.58-30.78-3-46.47,0.58-14.58-.65-29.3-2.11-43.86-1-9.53-3.85-18.86-5.56-28.34-0.19-1.07,1.64-3.6,2.52-3.6,7.42,0,14.95-.18,22.24,1,7.62,1.21,15,3.86,22.84,5.37-5-2.59-9.72-5.66-14.89-7.68-10.41-4.06-21-7.73-31.6-11.22-8.55-2.8-16.61-.66-24.3,3.47-4.1,2.21-8.07,4.95-12.44,6.31-11,3.42-21.26-.35-31.12-4.82-5.06-2.3-9.66-5.63-15.29-9a65.54,65.54,0,0,0,16.25,16.7c8.51,6.2,18,9.13,28.6,7.83,4-.49,5.29,1,5.21,4.9-0.2,9.67-.19,19.35-0.12,29a20.7,20.7,0,0,1-7.48,16.47c-4.71,4.07-9.74,7.78-14.61,11.67-11.66,9.35-13.79,18.88-6.77,32.05,6.94,13,17.58,22.86,29,32-1.77-2.41-3.59-4.77-5.29-7.23-5.06-7.34-9.83-14.81-10.67-24-0.69-7.64,2.39-13.4,9-17.14,6.31-3.59,12.4-2.14,17.95,1.84,7.44,5.33,11.28,13,13.76,21.63,4.26,14.78,10.52,28.52,23.61,37.63,4.42,3.08,9.87,4.67,14.85,6.94Z" transform="translate(0.5 0.5)" style="fill:#fff"/><path d="M1198.43,597.72c0-8.27-4.36-13.37-11.19-13.25-7.22.13-12,5.18-12,12.78,0,8.06,5.26,14,12.5,14C1194.55,611.24,1198.48,606.27,1198.43,597.72Z" transform="translate(0.5 0.5)" style="fill:#fff"/></g><g id="rightHuman02"><path d="M1064,773.21c-14.5-41.51-16.67-85.24-24.15-129.6,13.63,7.81,27.21,9.32,42.25,7.51-6.77-3-12.8-5.26-18.51-8.19a99.09,99.09,0,0,1-33.25-28.24c-5.46-7.08-12-7.7-18-.94-12.27,13.84-26,25.56-43.71,32a18.61,18.61,0,0,0-5.44,2.77c7.13,1.14,14.27,1.84,21.27-.24,6.76-2,13.35-4.57,20.84-7.18-2.93,45.07,5.26,88.73,21.29,131.22q0-2.39,0-4.78c0-14.35-.23-28.71.15-43.06,0.08-3,2.35-5.95,3.62-8.92,2.11,2.29,4.88,4.25,6.21,6.93,6.43,13,12.35,26.2,18.71,39.21,2.08,4.26,5,8.12,7.49,12.17Z" transform="translate(0.5 0.5)" style="fill:#fff"/><path d="M1004.73,588.83c0,6.92,4.14,12.59,9.86,13.51,7.35,1.19,12.37-3.24,13-12.21,0.34-4.74-.89-9.41-5.09-12.43-3.64-2.61-7.62-2.29-11.55-.48C1006.85,579.12,1004.72,583.11,1004.73,588.83Z" transform="translate(0.5 0.5)" style="fill:#fff"/></g><g id="rightHuman03"><path d="M838,784.36c0.7-7.33,1.09-14.71,2.17-22,2.29-15.39,4.74-30.76,7.62-46,0.52-2.75,3.45-5,5.27-7.55,0.08-.12,5.7,10,6.1,11.07,3.35,8.84,4.25,18.39,5.92,27.64,1.75,9.66,2.72,20.63,6.1,29.83a18.84,18.84,0,0,0,.76-5.4c-0.81-32.29-1.4-64.58-2.61-96.86-0.32-8.5.91-16.36,5.58-23.15,6.95-10.12,14.67-19.71,22.11-29.49,1.11-1.46,2.47-2.72,3.12-5.06-1.43.82-2.81,1.76-4.31,2.43-6.79,3-13.44,6.5-20.49,8.74s-13.83.27-20.28-3.12c-19.22-10.11-32.73-25.06-39.48-45.88a10,10,0,0,0-1.43-1.58c0.16,2.71-.1,4.65.44,6.33,3.83,11.8,8.41,23.39,11.58,35.36a141.61,141.61,0,0,1,4.57,28.48c2.13,39.72,3.73,79.46,5.45,119.2,0.24,5.66,0,11.34,0,17Z" transform="translate(0.5 0.5)" style="fill:#fff"/><path d="M849.19,609.36c1.06,3.06,1.28,6.34,3,8.09,2.06,2.05,5.55,4,8.24,3.8,5.64-.46,8.1-5.32,9.62-10.21,1.59-5.12,2.74-10.29-2.12-14.65-6-5.36-10.92-4.86-14.82,2.21C851.31,601.91,850.47,605.76,849.19,609.36Z" transform="translate(0.5 0.5)" style="fill:#fff"/></g><g id="mic"><path d="M757.43,294.1A117.42,117.42,0,1,1,640,176.67,117.41,117.41,0,0,1,757.43,294.1Z" transform="translate(0.5 0.5)" style="fill:none;stroke:#fff;stroke-miterlimit:10;stroke-width:2px;fill-rule:evenodd"/><path d="M640,288.39H611.27c-2.68,0-2.73-.06-2.73-2.74q0-16.17,0-32.32c0-16.06,9.66-28.21,25.28-31.8,15.43-3.55,32.63,7.06,36.24,22.48a42.17,42.17,0,0,1,1.12,9c0.14,11.06,0,22.11.1,33.17,0,1.88-.78,2.24-2.42,2.24C659.25,288.37,649.61,288.39,640,288.39Z" transform="translate(0.5 0.5)" style="fill:#fff;stroke:#fff;stroke-miterlimit:10;fill-rule:evenodd"/><path d="M640,305.64H669c1.08,0,2.28-.13,2.28,1.45,0,7.07.46,14.17-2.58,20.9a31.53,31.53,0,0,1-31.11,18.7,30.55,30.55,0,0,1-27.73-23.2c-1.24-5.22-.92-10.81-1.26-16.24-0.11-1.68,1.16-1.64,2.34-1.64H640Z" transform="translate(0.5 0.5)" style="fill:#fff;stroke:#fff;stroke-miterlimit:10;fill-rule:evenodd"/><path d="M605.58,301L602.26,302c0.06-.17-0.16.15-0.15,0.45,0.22,7-.14,14.09.83,21,1.94,14,14.27,26.54,28.1,29.54a7.56,7.56,0,0,1,2.24.58,5,5,0,0,1,1.15,1.53c-0.58.37-1.25,1.14-1.74,1a52.07,52.07,0,0,1-7.75-2.17,40.57,40.57,0,0,1-25.69-37.7c-0.07-4.26,0-8.51,0-12.76,0-1.39-.26-1.74-2-2s-3.34-2.22-4.66-3.74c-0.33-.38.39-2,1-2.84,1.92-2.72,2.42-2.67,5.38-1.63,1.13,0.39,2.58-.07,3.86-0.23,0.53-.07,1.08-0.62,1.54-0.53,4.22,0.8,8.42-.26,12.65,0s8.65,0,13,0h26.15c4.33,0,8.66,0,13,0a25.6,25.6,0,0,1,3.69.59,0.78,0.78,0,0,0,.18.09c3-2.1,6.33,2.14,9.41-.55,0.4-.35,2.33.44,3,1.18,1,1,2.63,2,1.88,3.91-0.89,2.21-3.36,4-5.28,3.73-1.72-.19-1.44,1.06-1.45,1.93-0.06,4-.1,7.94,0,11.91a39.11,39.11,0,0,1-5.21,20.76,40.4,40.4,0,0,1-27.09,19.89l-0.21,0c-1,.16-2.25.56-2.53-1-0.26-1.43,1-1.44,1.87-1.78,3.83-1.42,7.93-2.39,11.43-4.42,11.53-6.7,17.83-17,18.89-30.25,0.42-5.22.11-10.48,0.12-15.73a3.48,3.48,0,0,0-.15-0.86,20.9,20.9,0,0,0-4.09-1.11c-1.2-.08-2.42.57-3.64,0.58-7,.06-13.9,0-20.84,0-13.11,0-26.23,0-39.34,0a37.07,37.07,0,0,1-4.23-.49c-0.17-2.54-.35-5.08-0.53-7.62l-1.11-.18c-0.65,2.43-.21,5-0.27,7.74h2Zm-8-.14v-7.43c-1.69.11-1.88,0.69-1.56,5.62C596.1,299.74,595.57,301.49,597.61,300.82Zm78.62-7.38c-1.87,0-1.89,0-1.51,6.36a3.59,3.59,0,0,0,1,1.37l0.55-.39v-7.34Zm6-.07v7.42l0.63,0.31a4.42,4.42,0,0,0,.84-1.5C684,294.64,683.79,293.59,682.23,293.37Z" transform="translate(0.5 0.5)" style="fill:#fff;stroke:#fff;stroke-miterlimit:10;fill-rule:evenodd"/><path d="M639.77,367.35c-8.58,0-17.15,0-25.73,0-2.74,0-3.49-.59-3.51-2.55,0-3.35.65-4.2,3.55-4.21,5.53,0,11.06,0,16.58,0,1.68,0,2.77-.32,2.76-2.27a1.63,1.63,0,0,1,.5-1.11c1.74-1.54,1.87-2.9,0-4.59-1-.9-0.12-1.81,1-1.85,3.33-.09,6.66-0.11,10,0,1.47,0.06,1.79,1.06.73,2.12-1.4,1.4-1.4,2.65,0,4a1.87,1.87,0,0,1,.7,1c-0.16,2.85,1.75,2.69,3.67,2.68q8-.06,15.95,0c2.64,0,3.29.78,3.34,3.72,0,2.13-.89,3-3.4,3-8.71,0-17.42,0-26.14,0h0Z" transform="translate(0.5 0.5)" style="fill:#fff;stroke:#fff;stroke-miterlimit:10;fill-rule:evenodd"/></g><g id="alpha"><rect x="0.5" y="0.5" width="1280" height="800" style="fill:none;stroke:#fff;stroke-miterlimit:10"/></g></svg>