<?xml version="1.0" encoding="utf-8"?>
<!-- Generator: Adobe Illustrator 19.2.0, SVG Export Plug-In . SVG Version: 6.00 Build 0)  -->
<svg version="1.1" id="halfHead" xmlns="http://www.w3.org/2000/svg" xmlns:xlink="http://www.w3.org/1999/xlink" x="0px" y="0px"
	 viewBox="0 0 330.5 292" style="enable-background:new 0 0 330.5 292;" xml:space="preserve">
<style type="text/css">
	.st0{fill:#FFFFFF;stroke:#E6E6E6;stroke-miterlimit:10;}
</style>
<title>halfHead</title>
<g id="圖層_21">
	<path class="st0" d="M48.2,0.5c-1.5,3-3,6.2-4.3,9.6c-6,15.2-7.6,30.6-6.4,46.7c0.8,10.3,2.5,20,0.8,29.5
		c-0.9,5.1-2.8,9.9-5.7,14.1c-7.2,10.7-17.7,26.6-29,33.4c-5.6,3.4-2.2,13.4,0,20.1s24.6,12.3,24.6,12.3l-11.7,14.5l4.2,15.6v13.4
		c17,7.7,6.6,22.8,10.9,34.9c3.8,10.5,15.8,16.1,26,17.3c25.7,2.9,91.5-27.5,78.6,29.5h145.5c-3.9,0-1.7-61.6-1.6-66.2
		c0.6-28.4,5.6-53.7,18.8-79.1c11.3-21.5,23.6-44.1,28.6-68.1c4.2-20.5,3.7-50.6-8.5-77.6L48.2,0.5L48.2,0.5z"/>
</g>
</svg>
