<?xml version="1.0" encoding="utf-8"?>
<!-- Generator: Adobe Illustrator 19.2.0, SVG Export Plug-In . SVG Version: 6.00 Build 0)  -->
<svg version="1.1" id="head" xmlns="http://www.w3.org/2000/svg" xmlns:xlink="http://www.w3.org/1999/xlink" x="0px" y="0px"
	 viewBox="0 0 348.8 389.9" style="enable-background:new 0 0 348.8 389.9;" xml:space="preserve">
<style type="text/css">
	.st0{fill:#FFFFFF;stroke:#E6E6E6;stroke-miterlimit:10;}
</style>
<title>head</title>
<g id="圖層_23">
	<path class="st0" d="M40.2,175.2c1.8-10,0-20.5-0.8-31.4c-1.3-17,0.4-33.7,6.7-49.8c10.1-25.7,25.6-55.6,51.8-68
		c40.1-18.9,113.3-43.7,180.5-5.9s75.3,106.2,67.3,145.1c-5.2,25.4-18.2,49.5-30.2,72.2c-14,26.8-19.3,53.2-19.9,83.2
		c-0.1,4.9-2.4,68.6,1.7,68.6H143.8c13.6-59-55.6-26.8-82.8-29.9c-10.7-1.2-22.4-5.5-26.3-16.6c-4.5-12.7,0.9-29-10.1-37.2v-14.1
		l-5.9-16.5L30,259.8c0,0-23.8-5.9-26.2-13s-6-17.7-0.1-21.2c12-7.2,22.9-24,30.5-35.4C37.3,185.7,39.3,180.6,40.2,175.2z"/>
</g>
</svg>
