<svg id="bg" xmlns="http://www.w3.org/2000/svg" xmlns:xlink="http://www.w3.org/1999/xlink" viewBox="0 0 802.69 606.71"><defs><style>.cls-1{opacity:0.8;}.cls-2{fill:url(#未命名漸層);}.cls-3{fill:url(#未命名漸層_2);}.cls-4{fill:url(#未命名漸層_3);}.cls-5{fill:url(#未命名漸層_4);}.cls-6{fill:url(#未命名漸層_5);}.cls-7{fill:url(#未命名漸層_6);}.cls-8{fill:url(#未命名漸層_7);}.cls-9{fill:url(#未命名漸層_8);}.cls-10{fill:url(#未命名漸層_9);}.cls-11{fill:url(#未命名漸層_10);}.cls-12{fill:url(#未命名漸層_11);}.cls-13{fill:url(#未命名漸層_12);}.cls-14{fill:url(#未命名漸層_13);}.cls-15{fill:url(#未命名漸層_14);}.cls-16{fill:url(#未命名漸層_15);}.cls-17{fill:url(#未命名漸層_16);}.cls-18{fill:url(#未命名漸層_17);}.cls-19{fill:url(#未命名漸層_18);}.cls-20{fill:url(#未命名漸層_19);}.cls-21{fill:url(#未命名漸層_20);}.cls-22{fill:url(#未命名漸層_21);}.cls-23{fill:url(#未命名漸層_22);}.cls-24{fill:url(#未命名漸層_23);}.cls-25{fill:url(#未命名漸層_24);}.cls-26{fill:url(#未命名漸層_25);}.cls-27{fill:url(#未命名漸層_26);}.cls-28{fill:url(#未命名漸層_27);}.cls-29{fill:url(#未命名漸層_28);}.cls-30{fill:url(#未命名漸層_29);}.cls-31{fill:url(#未命名漸層_30);}.cls-32{fill:url(#未命名漸層_31);}.cls-33{fill:url(#未命名漸層_32);}.cls-34{fill:url(#未命名漸層_33);}.cls-35{fill:url(#未命名漸層_34);}.cls-36{fill:url(#未命名漸層_35);}.cls-37{fill:url(#未命名漸層_36);}.cls-38{fill:url(#未命名漸層_37);}.cls-39{fill:url(#未命名漸層_38);}.cls-40{fill:url(#未命名漸層_39);}.cls-41{fill:url(#未命名漸層_40);}.cls-42{fill:url(#未命名漸層_41);}.cls-43{fill:url(#未命名漸層_42);}.cls-44{fill:url(#未命名漸層_43);}.cls-45{fill:url(#未命名漸層_44);}.cls-46{fill:url(#未命名漸層_45);}.cls-47{fill:url(#未命名漸層_46);}.cls-48{fill:url(#未命名漸層_47);}.cls-49{fill:url(#未命名漸層_48);}.cls-50{fill:url(#未命名漸層_49);}.cls-51{fill:url(#未命名漸層_50);}.cls-52{fill:url(#未命名漸層_51);}.cls-53{fill:url(#未命名漸層_52);}.cls-54{fill:url(#未命名漸層_53);}.cls-55{fill:url(#未命名漸層_54);}.cls-56{fill:url(#未命名漸層_55);}.cls-57{fill:url(#未命名漸層_56);}.cls-58{fill:url(#未命名漸層_57);}.cls-59{fill:url(#未命名漸層_58);}.cls-60{fill:url(#未命名漸層_59);}.cls-61{fill:url(#未命名漸層_60);}.cls-62{fill:url(#未命名漸層_61);}.cls-63{fill:url(#未命名漸層_62);}.cls-64{fill:url(#未命名漸層_63);}.cls-65{fill:url(#未命名漸層_64);}.cls-66{fill:url(#未命名漸層_65);}.cls-67{fill:url(#未命名漸層_66);}.cls-68{fill:url(#未命名漸層_67);}.cls-69{fill:url(#未命名漸層_68);}.cls-70{fill:url(#未命名漸層_69);}.cls-71{fill:url(#未命名漸層_70);}.cls-72{fill:url(#未命名漸層_71);}.cls-73{fill:url(#未命名漸層_72);}.cls-74{fill:url(#未命名漸層_73);}.cls-75{fill:url(#未命名漸層_74);}.cls-76{fill:url(#未命名漸層_75);}.cls-77{fill:url(#未命名漸層_76);}.cls-78{fill:url(#未命名漸層_77);}.cls-79{fill:url(#未命名漸層_78);}.cls-80{fill:url(#未命名漸層_79);}.cls-81{fill:url(#未命名漸層_80);}.cls-82{fill:url(#未命名漸層_81);}.cls-83{fill:url(#未命名漸層_82);}.cls-84{fill:url(#未命名漸層_83);}.cls-85{fill:url(#未命名漸層_84);}.cls-86{fill:url(#未命名漸層_85);}.cls-87{fill:url(#未命名漸層_86);}.cls-88{fill:url(#未命名漸層_87);}.cls-89{fill:url(#未命名漸層_88);}.cls-90{fill:url(#未命名漸層_89);}.cls-91{fill:url(#未命名漸層_90);}.cls-92{fill:url(#未命名漸層_91);}.cls-93{fill:url(#未命名漸層_92);}.cls-94{fill:url(#未命名漸層_93);}.cls-95{fill:url(#未命名漸層_94);}.cls-96{fill:url(#未命名漸層_95);}.cls-97{fill:url(#未命名漸層_96);}.cls-98{fill:url(#未命名漸層_97);}.cls-99{fill:url(#未命名漸層_98);}.cls-100{fill:url(#未命名漸層_99);}.cls-101{fill:url(#未命名漸層_100);}.cls-102{fill:url(#未命名漸層_101);}.cls-103{fill:url(#未命名漸層_102);}.cls-104{fill:url(#未命名漸層_103);}.cls-105{fill:url(#未命名漸層_104);}.cls-106{fill:url(#未命名漸層_105);}.cls-107{fill:url(#未命名漸層_106);}.cls-108{fill:url(#未命名漸層_107);}.cls-109{fill:url(#未命名漸層_108);}.cls-110{fill:url(#未命名漸層_109);}.cls-111{fill:url(#未命名漸層_110);}.cls-112{fill:url(#未命名漸層_111);}.cls-113{fill:url(#未命名漸層_112);}.cls-114{fill:url(#未命名漸層_113);}.cls-115{fill:url(#未命名漸層_114);}.cls-116{fill:url(#未命名漸層_115);}.cls-117{fill:url(#未命名漸層_116);}.cls-118{fill:url(#未命名漸層_117);}.cls-119{fill:url(#未命名漸層_118);}.cls-120{fill:url(#未命名漸層_119);}.cls-121{fill:url(#未命名漸層_120);}.cls-122{fill:url(#未命名漸層_121);}.cls-123{fill:url(#未命名漸層_122);}.cls-124{fill:url(#未命名漸層_123);}.cls-125{fill:url(#未命名漸層_124);}.cls-126{fill:url(#未命名漸層_125);}.cls-127{fill:url(#未命名漸層_126);}.cls-128{fill:url(#未命名漸層_127);}.cls-129{fill:url(#未命名漸層_128);}.cls-130{fill:url(#未命名漸層_129);}.cls-131{fill:url(#未命名漸層_130);}.cls-132{fill:url(#未命名漸層_131);}.cls-133{fill:url(#未命名漸層_132);}.cls-134{fill:url(#未命名漸層_133);}.cls-135{fill:url(#未命名漸層_134);}</style><linearGradient id="未命名漸層" x1="213.67" y1="592.4" x2="378.49" y2="427.58" gradientTransform="matrix(0, -1, -1, 0, 962.57, 793.31)" gradientUnits="userSpaceOnUse"><stop offset="0" stop-color="#d5d5d5"/><stop offset="1" stop-color="#d2d2d2"/></linearGradient><linearGradient id="未命名漸層_2" x1="620.44" y1="321.5" x2="899.22" y2="42.72" gradientTransform="matrix(0, -1, -1, 0, 962.57, 793.31)" gradientUnits="userSpaceOnUse"><stop offset="0" stop-color="#9a9899"/><stop offset="1" stop-color="#929393"/></linearGradient><linearGradient id="未命名漸層_3" x1="-242.74" y1="1240.45" x2="1724.63" y2="-726.92" gradientTransform="matrix(0, -1, -1, 0, 962.57, 793.31)" gradientUnits="userSpaceOnUse"><stop offset="0" stop-color="#969596"/><stop offset="1" stop-color="#929292"/></linearGradient><linearGradient id="未命名漸層_4" x1="610.22" y1="489.11" x2="652.72" y2="446.61" gradientTransform="matrix(0, -1, -1, 0, 962.57, 793.31)" gradientUnits="userSpaceOnUse"><stop offset="0" stop-color="#a4a5a4"/><stop offset="1" stop-color="#9d9d9d"/></linearGradient><linearGradient id="未命名漸層_5" x1="605.39" y1="509.67" x2="733.71" y2="381.34" gradientTransform="matrix(0, -1, -1, 0, 962.57, 793.31)" gradientUnits="userSpaceOnUse"><stop offset="0" stop-color="#989898"/><stop offset="1" stop-color="#9a999a"/></linearGradient><linearGradient id="未命名漸層_6" x1="455.92" y1="587.68" x2="844.75" y2="198.84" gradientTransform="matrix(0, -1, -1, 0, 962.57, 793.31)" gradientUnits="userSpaceOnUse"><stop offset="0" stop-color="#9a999a"/><stop offset="1" stop-color="#9a999a"/></linearGradient><linearGradient id="未命名漸層_7" x1="315.87" y1="613.48" x2="380.31" y2="549.04" gradientTransform="matrix(0, -1, -1, 0, 962.57, 793.31)" gradientUnits="userSpaceOnUse"><stop offset="0" stop-color="#d2d3d4"/><stop offset="1" stop-color="#cececf"/></linearGradient><linearGradient id="未命名漸層_8" x1="334.87" y1="755.28" x2="516.44" y2="573.71" gradientTransform="matrix(0, -1, -1, 0, 962.57, 793.31)" gradientUnits="userSpaceOnUse"><stop offset="0" stop-color="#c4c4c3"/><stop offset="1" stop-color="#c4c4c3"/></linearGradient><linearGradient id="未命名漸層_9" x1="549.9" y1="909.53" x2="637.3" y2="822.13" gradientTransform="matrix(0, -1, -1, 0, 962.57, 793.31)" gradientUnits="userSpaceOnUse"><stop offset="0" stop-color="#a1a1a1"/><stop offset="1" stop-color="#9b9b9b"/></linearGradient><linearGradient id="未命名漸層_10" x1="289.41" y1="393.12" x2="504.85" y2="177.68" gradientTransform="matrix(0, -1, -1, 0, 962.57, 793.31)" gradientUnits="userSpaceOnUse"><stop offset="0" stop-color="#d5d5d5"/><stop offset="1" stop-color="#cbcccc"/></linearGradient><linearGradient id="未命名漸層_11" x1="471.19" y1="400.76" x2="517.18" y2="354.77" gradientTransform="matrix(0, -1, -1, 0, 962.57, 793.31)" gradientUnits="userSpaceOnUse"><stop offset="0" stop-color="#b0b1b0"/><stop offset="1" stop-color="#b4b5b5"/></linearGradient><linearGradient id="未命名漸層_12" x1="501.17" y1="736.32" x2="766.7" y2="470.79" gradientTransform="matrix(0, -1, -1, 0, 962.57, 793.31)" gradientUnits="userSpaceOnUse"><stop offset="0" stop-color="#9a999a"/><stop offset="1" stop-color="#969596"/></linearGradient><linearGradient id="未命名漸層_13" x1="262.17" y1="283.73" x2="297.36" y2="248.55" gradientTransform="matrix(0, -1, -1, 0, 962.57, 793.31)" gradientUnits="userSpaceOnUse"><stop offset="0" stop-color="#e0dfde"/><stop offset="1" stop-color="#e1e0e0"/></linearGradient><linearGradient id="未命名漸層_14" x1="149.25" y1="345.21" x2="334.8" y2="159.66" gradientTransform="matrix(0, -1, -1, 0, 962.57, 793.31)" gradientUnits="userSpaceOnUse"><stop offset="0" stop-color="#e3e3e2"/><stop offset="1" stop-color="#e0dfde"/></linearGradient><linearGradient id="未命名漸層_15" x1="267.73" y1="265.56" x2="321.42" y2="211.87" gradientTransform="matrix(0, -1, -1, 0, 962.57, 793.31)" gradientUnits="userSpaceOnUse"><stop offset="0" stop-color="#dedede"/><stop offset="1" stop-color="#dcdcdd"/></linearGradient><linearGradient id="未命名漸層_16" x1="208.97" y1="230.08" x2="245.3" y2="193.75" gradientTransform="matrix(0, -1, -1, 0, 962.57, 793.31)" gradientUnits="userSpaceOnUse"><stop offset="0" stop-color="#eae9e9"/><stop offset="1" stop-color="#eae9e9"/></linearGradient><linearGradient id="未命名漸層_17" x1="214.22" y1="224.82" x2="303.73" y2="135.3" gradientTransform="matrix(0, -1, -1, 0, 962.57, 793.31)" gradientUnits="userSpaceOnUse"><stop offset="0" stop-color="#e5e5e3"/><stop offset="1" stop-color="#e5e5e3"/></linearGradient><linearGradient id="未命名漸層_18" x1="132.54" y1="981.12" x2="312.77" y2="800.9" gradientTransform="matrix(0, -1, -1, 0, 962.57, 793.31)" gradientUnits="userSpaceOnUse"><stop offset="0" stop-color="#e4e4e3"/><stop offset="1" stop-color="#e2e1e1"/></linearGradient><linearGradient id="未命名漸層_19" x1="167.04" y1="889.74" x2="254.94" y2="801.83" gradientTransform="matrix(0, -1, -1, 0, 962.57, 793.31)" gradientUnits="userSpaceOnUse"><stop offset="0" stop-color="#e5e5e3"/><stop offset="1" stop-color="#e4e4e3"/></linearGradient><linearGradient id="未命名漸層_20" x1="177.79" y1="963.37" x2="193.55" y2="947.61" xlink:href="#未命名漸層_17"/><linearGradient id="未命名漸層_21" x1="315.84" y1="824.64" x2="484.82" y2="655.65" gradientTransform="matrix(0, -1, -1, 0, 962.57, 793.31)" gradientUnits="userSpaceOnUse"><stop offset="0" stop-color="#c1c0c0"/><stop offset="1" stop-color="#bbb"/></linearGradient><linearGradient id="未命名漸層_22" x1="496.43" y1="842.81" x2="566.24" y2="772.99" gradientTransform="matrix(0, -1, -1, 0, 962.57, 793.31)" gradientUnits="userSpaceOnUse"><stop offset="0" stop-color="#aaa9a9"/><stop offset="1" stop-color="#adadac"/></linearGradient><linearGradient id="未命名漸層_23" x1="735.58" y1="970.14" x2="756.59" y2="949.12" gradientTransform="matrix(0, -1, -1, 0, 962.57, 793.31)" gradientUnits="userSpaceOnUse"><stop offset="0" stop-color="#888989"/><stop offset="1" stop-color="#888989"/></linearGradient><linearGradient id="未命名漸層_24" x1="283.28" y1="545.14" x2="491.9" y2="336.53" gradientTransform="matrix(0, -1, -1, 0, 962.57, 793.31)" gradientUnits="userSpaceOnUse"><stop offset="0" stop-color="#cbcdcd"/><stop offset="1" stop-color="#c2c2c2"/></linearGradient><linearGradient id="未命名漸層_25" x1="318.66" y1="487.4" x2="355.46" y2="450.6" gradientTransform="matrix(0, -1, -1, 0, 962.57, 793.31)" gradientUnits="userSpaceOnUse"><stop offset="0" stop-color="#d2d2d2"/><stop offset="1" stop-color="#d0d1d0"/></linearGradient><linearGradient id="未命名漸層_26" x1="348.11" y1="498.24" x2="421.53" y2="424.82" gradientTransform="matrix(0, -1, -1, 0, 962.57, 793.31)" gradientUnits="userSpaceOnUse"><stop offset="0" stop-color="#cfcfcf"/><stop offset="1" stop-color="#c8c8c8"/></linearGradient><linearGradient id="未命名漸層_27" x1="320.79" y1="608.12" x2="389.43" y2="539.48" gradientTransform="matrix(0, -1, -1, 0, 962.57, 793.31)" gradientUnits="userSpaceOnUse"><stop offset="0" stop-color="#cfcfcf"/><stop offset="1" stop-color="#cccdcd"/></linearGradient><linearGradient id="未命名漸層_28" x1="332.17" y1="615.2" x2="408" y2="539.36" gradientTransform="matrix(0, -1, -1, 0, 962.57, 793.31)" gradientUnits="userSpaceOnUse"><stop offset="0" stop-color="#c8c9c9"/><stop offset="1" stop-color="#c6c7c7"/></linearGradient><linearGradient id="未命名漸層_29" x1="382.15" y1="565.22" x2="463.26" y2="484.11" gradientTransform="matrix(0, -1, -1, 0, 962.57, 793.31)" gradientUnits="userSpaceOnUse"><stop offset="0" stop-color="#c0c1c1"/><stop offset="1" stop-color="#c7c7c6"/></linearGradient><linearGradient id="未命名漸層_30" x1="769.25" y1="196.7" x2="806.06" y2="159.9" gradientTransform="matrix(0, -1, -1, 0, 962.57, 793.31)" gradientUnits="userSpaceOnUse"><stop offset="0" stop-color="#898a8a"/><stop offset="1" stop-color="#888989"/></linearGradient><linearGradient id="未命名漸層_31" x1="104.52" y1="311.3" x2="447.9" y2="-32.08" gradientTransform="matrix(0, -1, -1, 0, 962.57, 793.31)" gradientUnits="userSpaceOnUse"><stop offset="0" stop-color="#e3e3e3"/><stop offset="1" stop-color="#ababaa"/></linearGradient><linearGradient id="未命名漸層_32" x1="671.04" y1="229.81" x2="764.81" y2="136.04" gradientTransform="matrix(0, -1, -1, 0, 962.57, 793.31)" gradientUnits="userSpaceOnUse"><stop offset="0" stop-color="#989898"/><stop offset="1" stop-color="#777778"/></linearGradient><linearGradient id="未命名漸層_33" x1="755.51" y1="172.59" x2="783.97" y2="144.13" gradientTransform="matrix(0, -1, -1, 0, 962.57, 793.31)" gradientUnits="userSpaceOnUse"><stop offset="0" stop-color="#8b8c8c"/><stop offset="1" stop-color="#737575"/></linearGradient><linearGradient id="未命名漸層_34" x1="96.87" y1="420.38" x2="667.18" y2="-149.94" gradientTransform="matrix(0, -1, -1, 0, 962.57, 793.31)" gradientUnits="userSpaceOnUse"><stop offset="0" stop-color="#dcdcdb"/><stop offset="1" stop-color="#a4a4a4"/></linearGradient><linearGradient id="未命名漸層_35" x1="469.53" y1="385.23" x2="582.3" y2="272.46" gradientTransform="matrix(0, -1, -1, 0, 962.57, 793.31)" gradientUnits="userSpaceOnUse"><stop offset="0" stop-color="#bdbcbd"/><stop offset="1" stop-color="#b3b3b4"/></linearGradient><linearGradient id="未命名漸層_36" x1="416.75" y1="363.36" x2="678.21" y2="101.9" gradientTransform="matrix(0, -1, -1, 0, 962.57, 793.31)" gradientUnits="userSpaceOnUse"><stop offset="0" stop-color="#a1a1a1"/><stop offset="1" stop-color="#8b8c8b"/></linearGradient><linearGradient id="未命名漸層_37" x1="196.76" y1="431.36" x2="658.71" y2="-30.59" gradientTransform="matrix(0, -1, -1, 0, 962.57, 793.31)" gradientUnits="userSpaceOnUse"><stop offset="0" stop-color="#cbcdcd"/><stop offset="1" stop-color="#929393"/></linearGradient><linearGradient id="未命名漸層_38" x1="789.44" y1="420.3" x2="793.53" y2="416.2" gradientTransform="matrix(0, -1, -1, 0, 962.57, 793.31)" gradientUnits="userSpaceOnUse"><stop offset="0" stop-color="#939494"/><stop offset="1" stop-color="#8f9090"/></linearGradient><linearGradient id="未命名漸層_39" x1="631.09" y1="496.06" x2="805.87" y2="321.28" xlink:href="#未命名漸層_38"/><linearGradient id="未命名漸層_40" x1="613.1" y1="466.92" x2="839.37" y2="240.65" gradientTransform="matrix(0, -1, -1, 0, 962.57, 793.31)" gradientUnits="userSpaceOnUse"><stop offset="0" stop-color="#919191"/><stop offset="1" stop-color="#8b8c8b"/></linearGradient><linearGradient id="未命名漸層_41" x1="736.02" y1="325.27" x2="831.35" y2="229.93" xlink:href="#未命名漸層_30"/><linearGradient id="未命名漸層_42" x1="666.52" y1="1004.67" x2="785.46" y2="885.73" xlink:href="#未命名漸層_23"/><linearGradient id="未命名漸層_43" x1="738.38" y1="864.2" x2="788.67" y2="813.91" xlink:href="#未命名漸層_23"/><linearGradient id="未命名漸層_44" x1="736.45" y1="872.74" x2="802.47" y2="806.72" xlink:href="#未命名漸層_23"/><linearGradient id="未命名漸層_45" x1="645.88" y1="935.61" x2="781.19" y2="800.3" gradientTransform="matrix(0, -1, -1, 0, 962.57, 793.31)" gradientUnits="userSpaceOnUse"><stop offset="0" stop-color="#8c8d8d"/><stop offset="1" stop-color="#898a8a"/></linearGradient><linearGradient id="未命名漸層_46" x1="675.75" y1="966.69" x2="820.75" y2="821.69" xlink:href="#未命名漸層_23"/><linearGradient id="未命名漸層_47" x1="653.07" y1="949.51" x2="802.86" y2="799.72" xlink:href="#未命名漸層_23"/><linearGradient id="未命名漸層_48" x1="696.91" y1="892.26" x2="858.38" y2="730.79" xlink:href="#未命名漸層_23"/><linearGradient id="未命名漸層_49" x1="513.08" y1="787.31" x2="661.77" y2="638.62" gradientTransform="matrix(0, -1, -1, 0, 962.57, 793.31)" gradientUnits="userSpaceOnUse"><stop offset="0" stop-color="#a2a3a3"/><stop offset="1" stop-color="#a1a1a1"/></linearGradient><linearGradient id="未命名漸層_50" x1="595.55" y1="843.97" x2="672.84" y2="766.67" gradientTransform="matrix(0, -1, -1, 0, 962.57, 793.31)" gradientUnits="userSpaceOnUse"><stop offset="0" stop-color="#9f9f9f"/><stop offset="1" stop-color="#979797"/></linearGradient><linearGradient id="未命名漸層_51" x1="593.27" y1="687.2" x2="625.12" y2="655.35" gradientTransform="matrix(0, -1, -1, 0, 962.57, 793.31)" gradientUnits="userSpaceOnUse"><stop offset="0" stop-color="#a2a1a1"/><stop offset="1" stop-color="#9d9f9f"/></linearGradient><linearGradient id="未命名漸層_52" x1="760.06" y1="974.2" x2="800.62" y2="933.65" xlink:href="#未命名漸層_23"/><linearGradient id="未命名漸層_53" x1="731.88" y1="980.51" x2="810.89" y2="901.5" xlink:href="#未命名漸層_23"/><linearGradient id="未命名漸層_54" x1="684.7" y1="987.88" x2="721.35" y2="951.23" gradientTransform="matrix(0, -1, -1, 0, 962.57, 793.31)" gradientUnits="userSpaceOnUse"><stop offset="0" stop-color="#a1a0a0"/><stop offset="1" stop-color="#8b8c8b"/></linearGradient><linearGradient id="未命名漸層_55" x1="727.26" y1="961.81" x2="730.7" y2="958.37" xlink:href="#未命名漸層_23"/><linearGradient id="未命名漸層_56" x1="775.6" y1="962.27" x2="795.48" y2="942.39" xlink:href="#未命名漸層_23"/><linearGradient id="未命名漸層_57" x1="761.4" y1="917.83" x2="815.13" y2="864.1" xlink:href="#未命名漸層_23"/><linearGradient id="未命名漸層_58" x1="759.57" y1="876.56" x2="817.4" y2="818.73" xlink:href="#未命名漸層_23"/><linearGradient id="未命名漸層_59" x1="739.33" y1="931.86" x2="800.8" y2="870.39" xlink:href="#未命名漸層_23"/><linearGradient id="未命名漸層_60" x1="753.39" y1="900.91" x2="808.99" y2="845.31" xlink:href="#未命名漸層_23"/><linearGradient id="未命名漸層_61" x1="663.85" y1="1041.95" x2="864.18" y2="841.62" xlink:href="#未命名漸層_23"/><linearGradient id="未命名漸層_62" x1="779.45" y1="926.38" x2="788.56" y2="917.28" xlink:href="#未命名漸層_23"/><linearGradient id="未命名漸層_63" x1="733.76" y1="938.19" x2="811.47" y2="860.48" xlink:href="#未命名漸層_23"/><linearGradient id="未命名漸層_64" x1="470.56" y1="1049.88" x2="771.93" y2="748.52" gradientTransform="matrix(0, -1, -1, 0, 962.57, 793.31)" gradientUnits="userSpaceOnUse"><stop offset="0" stop-color="#aaa9a9"/><stop offset="1" stop-color="#9d9d9d"/></linearGradient><linearGradient id="未命名漸層_65" x1="490.76" y1="1105.63" x2="734.96" y2="861.43" gradientTransform="matrix(0, -1, -1, 0, 962.57, 793.31)" gradientUnits="userSpaceOnUse"><stop offset="0" stop-color="#a4a4a4"/><stop offset="1" stop-color="#8f9090"/></linearGradient><linearGradient id="未命名漸層_66" x1="558.37" y1="962.07" x2="660.35" y2="860.1" gradientTransform="matrix(0, -1, -1, 0, 962.57, 793.31)" gradientUnits="userSpaceOnUse"><stop offset="0" stop-color="#9d9f9f"/><stop offset="1" stop-color="#919191"/></linearGradient><linearGradient id="未命名漸層_67" x1="674.63" y1="906.87" x2="700.43" y2="881.07" gradientTransform="matrix(0, -1, -1, 0, 962.57, 793.31)" gradientUnits="userSpaceOnUse"><stop offset="0" stop-color="#8f908f"/><stop offset="1" stop-color="#8c8d8d"/></linearGradient><linearGradient id="未命名漸層_68" x1="697.99" y1="938.28" x2="722.28" y2="913.99" gradientTransform="matrix(0, -1, -1, 0, 962.57, 793.31)" gradientUnits="userSpaceOnUse"><stop offset="0" stop-color="#8b8c8b"/><stop offset="1" stop-color="#8b8c8b"/></linearGradient><linearGradient id="未命名漸層_69" x1="655.66" y1="752.73" x2="697.62" y2="710.78" gradientTransform="matrix(0, -1, -1, 0, 962.57, 793.31)" gradientUnits="userSpaceOnUse"><stop offset="0" stop-color="#989898"/><stop offset="1" stop-color="#929393"/></linearGradient><linearGradient id="未命名漸層_70" x1="619.89" y1="819.62" x2="747.79" y2="691.73" gradientTransform="matrix(0, -1, -1, 0, 962.57, 793.31)" gradientUnits="userSpaceOnUse"><stop offset="0" stop-color="#969696"/><stop offset="1" stop-color="#8d8e8e"/></linearGradient><linearGradient id="未命名漸層_71" x1="660.99" y1="738.45" x2="750.11" y2="649.33" gradientTransform="matrix(0, -1, -1, 0, 962.57, 793.31)" gradientUnits="userSpaceOnUse"><stop offset="0" stop-color="#969696"/><stop offset="1" stop-color="#8f908f"/></linearGradient><linearGradient id="未命名漸層_72" x1="481.38" y1="1075.83" x2="876.45" y2="680.76" gradientTransform="matrix(0, -1, -1, 0, 962.57, 793.31)" gradientUnits="userSpaceOnUse"><stop offset="0" stop-color="#8b8c8c"/><stop offset="1" stop-color="#888989"/></linearGradient><linearGradient id="未命名漸層_73" x1="716.75" y1="846.34" x2="783.83" y2="779.27" xlink:href="#未命名漸層_23"/><linearGradient id="未命名漸層_74" x1="715.47" y1="843" x2="857.85" y2="700.61" xlink:href="#未命名漸層_23"/><linearGradient id="未命名漸層_75" x1="616.36" y1="900.73" x2="938.15" y2="578.94" xlink:href="#未命名漸層_23"/><linearGradient id="未命名漸層_76" x1="693.12" y1="706.31" x2="810.33" y2="589.11" gradientTransform="matrix(0, -1, -1, 0, 962.57, 793.31)" gradientUnits="userSpaceOnUse"><stop offset="0" stop-color="#8d8e8e"/><stop offset="1" stop-color="#888989"/></linearGradient><linearGradient id="未命名漸層_77" x1="617.24" y1="856.19" x2="876.71" y2="596.72" xlink:href="#未命名漸層_23"/><linearGradient id="未命名漸層_78" x1="683.11" y1="582.28" x2="777.13" y2="488.25" gradientTransform="matrix(0, -1, -1, 0, 962.57, 793.31)" gradientUnits="userSpaceOnUse"><stop offset="0" stop-color="#929393"/><stop offset="1" stop-color="#8d8e8e"/></linearGradient><linearGradient id="未命名漸層_79" x1="642" y1="621.25" x2="816.44" y2="446.82" gradientTransform="matrix(0, -1, -1, 0, 962.57, 793.31)" gradientUnits="userSpaceOnUse"><stop offset="0" stop-color="#8f9090"/><stop offset="1" stop-color="#888989"/></linearGradient><linearGradient id="未命名漸層_80" x1="689.57" y1="644.87" x2="787.4" y2="547.04" xlink:href="#未命名漸層_76"/><linearGradient id="未命名漸層_81" x1="258.86" y1="492.15" x2="338.49" y2="412.52" gradientTransform="matrix(0, -1, -1, 0, 962.57, 793.31)" gradientUnits="userSpaceOnUse"><stop offset="0" stop-color="#d7d7d8"/><stop offset="1" stop-color="#dadada"/></linearGradient><linearGradient id="未命名漸層_82" x1="212.84" y1="469.69" x2="348.87" y2="333.66" gradientTransform="matrix(0, -1, -1, 0, 962.57, 793.31)" gradientUnits="userSpaceOnUse"><stop offset="0" stop-color="#dadada"/><stop offset="1" stop-color="#dadada"/></linearGradient><linearGradient id="未命名漸層_83" x1="112" y1="618.42" x2="351.49" y2="378.93" gradientTransform="matrix(0, -1, -1, 0, 962.57, 793.31)" gradientUnits="userSpaceOnUse"><stop offset="0" stop-color="#eae9e9"/><stop offset="1" stop-color="#e5e5e3"/></linearGradient><linearGradient id="未命名漸層_84" x1="196.4" y1="360.54" x2="273.17" y2="283.77" gradientTransform="matrix(0, -1, -1, 0, 962.57, 793.31)" gradientUnits="userSpaceOnUse"><stop offset="0" stop-color="#e8e8e8"/><stop offset="1" stop-color="#e4e5e4"/></linearGradient><linearGradient id="未命名漸層_85" x1="206.19" y1="370.12" x2="350.71" y2="225.6" xlink:href="#未命名漸層_14"/><linearGradient id="未命名漸層_86" x1="155.03" y1="597.79" x2="217.88" y2="534.95" gradientTransform="matrix(0, -1, -1, 0, 962.57, 793.31)" gradientUnits="userSpaceOnUse"><stop offset="0" stop-color="#ebeae9"/><stop offset="1" stop-color="#e9e9e8"/></linearGradient><linearGradient id="未命名漸層_87" x1="213.96" y1="674.99" x2="253.57" y2="635.38" gradientTransform="matrix(0, -1, -1, 0, 962.57, 793.31)" gradientUnits="userSpaceOnUse"><stop offset="0" stop-color="#e5e5e3"/><stop offset="1" stop-color="#e3e4e3"/></linearGradient><linearGradient id="未命名漸層_88" x1="165.29" y1="779.9" x2="267.5" y2="677.69" gradientTransform="matrix(0, -1, -1, 0, 962.57, 793.31)" gradientUnits="userSpaceOnUse"><stop offset="0" stop-color="#e1e0e0"/><stop offset="1" stop-color="#e3e3e2"/></linearGradient><linearGradient id="未命名漸層_89" x1="156.54" y1="818.23" x2="234.34" y2="740.43" gradientTransform="matrix(0, -1, -1, 0, 962.57, 793.31)" gradientUnits="userSpaceOnUse"><stop offset="0" stop-color="#e8e8e8"/><stop offset="1" stop-color="#e7e6e5"/></linearGradient><linearGradient id="未命名漸層_90" x1="278.76" y1="385.84" x2="433.44" y2="231.16" gradientTransform="matrix(0, -1, -1, 0, 962.57, 793.31)" gradientUnits="userSpaceOnUse"><stop offset="0" stop-color="#d2d3d4"/><stop offset="1" stop-color="#c7c8c8"/></linearGradient><linearGradient id="未命名漸層_91" x1="400.66" y1="281.89" x2="545.12" y2="137.43" gradientTransform="matrix(0, -1, -1, 0, 962.57, 793.31)" gradientUnits="userSpaceOnUse"><stop offset="0" stop-color="#c2c1c1"/><stop offset="1" stop-color="#c0c1c1"/></linearGradient><linearGradient id="未命名漸層_92" x1="283.26" y1="267.99" x2="418.67" y2="132.58" gradientTransform="matrix(0, -1, -1, 0, 962.57, 793.31)" gradientUnits="userSpaceOnUse"><stop offset="0" stop-color="#dadada"/><stop offset="1" stop-color="#d2d4d3"/></linearGradient><linearGradient id="未命名漸層_93" x1="346.63" y1="237.12" x2="472.96" y2="110.79" gradientTransform="matrix(0, -1, -1, 0, 962.57, 793.31)" gradientUnits="userSpaceOnUse"><stop offset="0" stop-color="#d5d5d5"/><stop offset="1" stop-color="#c5c4c4"/></linearGradient><linearGradient id="未命名漸層_94" x1="167.89" y1="216" x2="255.69" y2="128.2" gradientTransform="matrix(0, -1, -1, 0, 962.57, 793.31)" gradientUnits="userSpaceOnUse"><stop offset="0" stop-color="#f1f1f1"/><stop offset="1" stop-color="#efefef"/></linearGradient><linearGradient id="未命名漸層_95" x1="128.85" y1="442.62" x2="270.72" y2="300.75" xlink:href="#未命名漸層_86"/><linearGradient id="未命名漸層_96" x1="111.49" y1="308.19" x2="245.89" y2="173.79" gradientTransform="matrix(0, -1, -1, 0, 962.57, 793.31)" gradientUnits="userSpaceOnUse"><stop offset="0" stop-color="#ebeae9"/><stop offset="1" stop-color="#eee"/></linearGradient><linearGradient id="未命名漸層_97" x1="188.51" y1="358.24" x2="262.83" y2="283.92" gradientTransform="matrix(0, -1, -1, 0, 962.57, 793.31)" gradientUnits="userSpaceOnUse"><stop offset="0" stop-color="#eae9e8"/><stop offset="1" stop-color="#e9e9e8"/></linearGradient><linearGradient id="未命名漸層_98" x1="243.29" y1="986.12" x2="282.08" y2="947.33" gradientTransform="matrix(0, -1, -1, 0, 962.57, 793.31)" gradientUnits="userSpaceOnUse"><stop offset="0" stop-color="#dadbda"/><stop offset="1" stop-color="#ced0d0"/></linearGradient><linearGradient id="未命名漸層_99" x1="163.63" y1="976.93" x2="278.59" y2="861.98" gradientTransform="matrix(0, -1, -1, 0, 962.57, 793.31)" gradientUnits="userSpaceOnUse"><stop offset="0" stop-color="#e0dfde"/><stop offset="1" stop-color="#dcdcdb"/></linearGradient><linearGradient id="未命名漸層_100" x1="409.55" y1="730.92" x2="528.67" y2="611.81" gradientTransform="matrix(0, -1, -1, 0, 962.57, 793.31)" gradientUnits="userSpaceOnUse"><stop offset="0" stop-color="#b9bbba"/><stop offset="1" stop-color="#b4b5b5"/></linearGradient><linearGradient id="未命名漸層_101" x1="446.24" y1="830.23" x2="560.12" y2="716.35" gradientTransform="matrix(0, -1, -1, 0, 962.57, 793.31)" gradientUnits="userSpaceOnUse"><stop offset="0" stop-color="#b3b4b4"/><stop offset="1" stop-color="#ababaa"/></linearGradient><linearGradient id="未命名漸層_102" x1="521.88" y1="754.59" x2="615.48" y2="660.98" gradientTransform="matrix(0, -1, -1, 0, 962.57, 793.31)" gradientUnits="userSpaceOnUse"><stop offset="0" stop-color="#a5a5a5"/><stop offset="1" stop-color="#aaa8a8"/></linearGradient><linearGradient id="未命名漸層_103" x1="392.81" y1="595.29" x2="603.1" y2="385.01" gradientTransform="matrix(0, -1, -1, 0, 962.57, 793.31)" gradientUnits="userSpaceOnUse"><stop offset="0" stop-color="#bdbcbd"/><stop offset="1" stop-color="#babbba"/></linearGradient><linearGradient id="未命名漸層_104" x1="409.75" y1="674.32" x2="549.32" y2="534.75" gradientTransform="matrix(0, -1, -1, 0, 962.57, 793.31)" gradientUnits="userSpaceOnUse"><stop offset="0" stop-color="#b9bbba"/><stop offset="1" stop-color="#b3b3b4"/></linearGradient><linearGradient id="未命名漸層_105" x1="413.13" y1="440.58" x2="504.47" y2="349.25" gradientTransform="matrix(0, -1, -1, 0, 962.57, 793.31)" gradientUnits="userSpaceOnUse"><stop offset="0" stop-color="#c0c0bf"/><stop offset="1" stop-color="#bdbcbb"/></linearGradient><linearGradient id="未命名漸層_106" x1="443.2" y1="428.75" x2="515.42" y2="356.52" gradientTransform="matrix(0, -1, -1, 0, 962.57, 793.31)" gradientUnits="userSpaceOnUse"><stop offset="0" stop-color="#bebdbc"/><stop offset="1" stop-color="#b3b4b4"/></linearGradient><linearGradient id="未命名漸層_107" x1="290.11" y1="966.79" x2="537.05" y2="719.85" gradientTransform="matrix(0, -1, -1, 0, 962.57, 793.31)" gradientUnits="userSpaceOnUse"><stop offset="0" stop-color="#c2c1c1"/><stop offset="1" stop-color="#c0c0bf"/></linearGradient><linearGradient id="未命名漸層_108" x1="333.53" y1="1010.18" x2="485.57" y2="858.13" gradientTransform="matrix(0, -1, -1, 0, 962.57, 793.31)" gradientUnits="userSpaceOnUse"><stop offset="0" stop-color="#c0c0bf"/><stop offset="1" stop-color="#b9b8b8"/></linearGradient><linearGradient id="未命名漸層_109" x1="414.11" y1="797.86" x2="450.35" y2="761.61" gradientTransform="matrix(0, -1, -1, 0, 962.57, 793.31)" gradientUnits="userSpaceOnUse"><stop offset="0" stop-color="silver"/><stop offset="1" stop-color="#babbbb"/></linearGradient><linearGradient id="未命名漸層_110" x1="475.28" y1="863.96" x2="508.94" y2="830.3" gradientTransform="matrix(0, -1, -1, 0, 962.57, 793.31)" gradientUnits="userSpaceOnUse"><stop offset="0" stop-color="#b6b7b6"/><stop offset="1" stop-color="#b0b1b0"/></linearGradient><linearGradient id="未命名漸層_111" x1="431.6" y1="927.54" x2="534.91" y2="824.23" gradientTransform="matrix(0, -1, -1, 0, 962.57, 793.31)" gradientUnits="userSpaceOnUse"><stop offset="0" stop-color="#b0b1b0"/><stop offset="1" stop-color="#afb0af"/></linearGradient><linearGradient id="未命名漸層_112" x1="288.85" y1="801.3" x2="408.07" y2="682.08" gradientTransform="matrix(0, -1, -1, 0, 962.57, 793.31)" gradientUnits="userSpaceOnUse"><stop offset="0" stop-color="#c9c9c9"/><stop offset="1" stop-color="#c8c8c8"/></linearGradient><linearGradient id="未命名漸層_113" x1="309.96" y1="916.02" x2="452.4" y2="773.59" gradientTransform="matrix(0, -1, -1, 0, 962.57, 793.31)" gradientUnits="userSpaceOnUse"><stop offset="0" stop-color="#c5c4c4"/><stop offset="1" stop-color="#c7c8c8"/></linearGradient><linearGradient id="未命名漸層_114" x1="190.56" y1="861.01" x2="337.61" y2="713.96" gradientTransform="matrix(0, -1, -1, 0, 962.57, 793.31)" gradientUnits="userSpaceOnUse"><stop offset="0" stop-color="#dcdcdb"/><stop offset="1" stop-color="#d5d5d5"/></linearGradient><linearGradient id="未命名漸層_115" x1="192.97" y1="947.59" x2="411.27" y2="729.3" gradientTransform="matrix(0, -1, -1, 0, 962.57, 793.31)" gradientUnits="userSpaceOnUse"><stop offset="0" stop-color="#dadada"/><stop offset="1" stop-color="#d2d3d4"/></linearGradient><linearGradient id="未命名漸層_116" x1="257.23" y1="794.34" x2="409.12" y2="642.45" gradientTransform="matrix(0, -1, -1, 0, 962.57, 793.31)" gradientUnits="userSpaceOnUse"><stop offset="0" stop-color="#d5d5d5"/><stop offset="1" stop-color="#cccdcd"/></linearGradient><linearGradient id="未命名漸層_117" x1="218.35" y1="1001.89" x2="385.87" y2="834.37" gradientTransform="matrix(0, -1, -1, 0, 962.57, 793.31)" gradientUnits="userSpaceOnUse"><stop offset="0" stop-color="#d2d1d1"/><stop offset="1" stop-color="#c9c9c9"/></linearGradient><linearGradient id="未命名漸層_118" x1="463.9" y1="620.17" x2="570.37" y2="513.7" gradientTransform="matrix(0, -1, -1, 0, 962.57, 793.31)" gradientUnits="userSpaceOnUse"><stop offset="0" stop-color="#b2b3b2"/><stop offset="1" stop-color="#adadac"/></linearGradient><linearGradient id="未命名漸層_119" x1="511.59" y1="554.39" x2="568.21" y2="497.78" gradientTransform="matrix(0, -1, -1, 0, 962.57, 793.31)" gradientUnits="userSpaceOnUse"><stop offset="0" stop-color="#b2b2b2"/><stop offset="1" stop-color="#acadad"/></linearGradient><linearGradient id="未命名漸層_120" x1="490.25" y1="708.43" x2="593.98" y2="604.7" gradientTransform="matrix(0, -1, -1, 0, 962.57, 793.31)" gradientUnits="userSpaceOnUse"><stop offset="0" stop-color="#acacab"/><stop offset="1" stop-color="#a9a8a7"/></linearGradient><linearGradient id="未命名漸層_121" x1="512.41" y1="571.69" x2="626.2" y2="457.9" gradientTransform="matrix(0, -1, -1, 0, 962.57, 793.31)" gradientUnits="userSpaceOnUse"><stop offset="0" stop-color="#acadad"/><stop offset="1" stop-color="#a9abaa"/></linearGradient><linearGradient id="未命名漸層_122" x1="524.19" y1="575.14" x2="660.39" y2="438.94" gradientTransform="matrix(0, -1, -1, 0, 962.57, 793.31)" gradientUnits="userSpaceOnUse"><stop offset="0" stop-color="#a6a7a6"/><stop offset="1" stop-color="#a2a1a1"/></linearGradient><linearGradient id="未命名漸層_123" x1="577.52" y1="644.74" x2="591.9" y2="630.35" gradientTransform="matrix(0, -1, -1, 0, 962.57, 793.31)" gradientUnits="userSpaceOnUse"><stop offset="0" stop-color="#a4a4a3"/><stop offset="1" stop-color="#a2a3a3"/></linearGradient><linearGradient id="未命名漸層_124" x1="541.4" y1="680.85" x2="724.5" y2="497.76" gradientTransform="matrix(0, -1, -1, 0, 962.57, 793.31)" gradientUnits="userSpaceOnUse"><stop offset="0" stop-color="#9d9f9f"/><stop offset="1" stop-color="#9fa0a0"/></linearGradient><linearGradient id="未命名漸層_125" x1="295.28" y1="634.07" x2="348.03" y2="581.31" gradientTransform="matrix(0, -1, -1, 0, 962.57, 793.31)" gradientUnits="userSpaceOnUse"><stop offset="0" stop-color="#d5d5d5"/><stop offset="1" stop-color="#d2d4d3"/></linearGradient><linearGradient id="未命名漸層_126" x1="143.99" y1="617.06" x2="298.59" y2="462.46" xlink:href="#未命名漸層_14"/><linearGradient id="未命名漸層_127" x1="220.46" y1="674.96" x2="290.86" y2="604.57" gradientTransform="matrix(0, -1, -1, 0, 962.57, 793.31)" gradientUnits="userSpaceOnUse"><stop offset="0" stop-color="#e3e3e3"/><stop offset="1" stop-color="#dcdcdb"/></linearGradient><linearGradient id="未命名漸層_128" x1="220.51" y1="540.54" x2="311.94" y2="449.11" gradientTransform="matrix(0, -1, -1, 0, 962.57, 793.31)" gradientUnits="userSpaceOnUse"><stop offset="0" stop-color="#e0dfde"/><stop offset="1" stop-color="#d9d9d9"/></linearGradient><linearGradient id="未命名漸層_129" x1="239.06" y1="700.33" x2="362.92" y2="576.47" gradientTransform="matrix(0, -1, -1, 0, 962.57, 793.31)" gradientUnits="userSpaceOnUse"><stop offset="0" stop-color="#d7d7d8"/><stop offset="1" stop-color="#d2d3d4"/></linearGradient><linearGradient id="未命名漸層_130" x1="490.95" y1="363.81" x2="658.07" y2="196.69" gradientTransform="matrix(0, -1, -1, 0, 962.57, 793.31)" gradientUnits="userSpaceOnUse"><stop offset="0" stop-color="#b3b3b4"/><stop offset="1" stop-color="#aaa9a9"/></linearGradient><linearGradient id="未命名漸層_131" x1="545.87" y1="236.08" x2="638.85" y2="143.1" gradientTransform="matrix(0, -1, -1, 0, 962.57, 793.31)" gradientUnits="userSpaceOnUse"><stop offset="0" stop-color="#b0b1b0"/><stop offset="1" stop-color="#a2a3a3"/></linearGradient><linearGradient id="未命名漸層_132" x1="448.19" y1="517.54" x2="682.44" y2="283.29" gradientTransform="matrix(0, -1, -1, 0, 962.57, 793.31)" gradientUnits="userSpaceOnUse"><stop offset="0" stop-color="#a6a7a6"/><stop offset="1" stop-color="#a1a2a3"/></linearGradient><linearGradient id="未命名漸層_133" x1="585.92" y1="379.81" x2="700.27" y2="265.46" gradientTransform="matrix(0, -1, -1, 0, 962.57, 793.31)" gradientUnits="userSpaceOnUse"><stop offset="0" stop-color="#9e9f9f"/><stop offset="1" stop-color="#9e9e9e"/></linearGradient><linearGradient id="未命名漸層_134" x1="622.64" y1="319.3" x2="706.92" y2="235.02" gradientTransform="matrix(0, -1, -1, 0, 962.57, 793.31)" gradientUnits="userSpaceOnUse"><stop offset="0" stop-color="#9d9d9e"/><stop offset="1" stop-color="#9e9e9e"/></linearGradient></defs><title>headBackground</title><g id="圖層_3" data-name="圖層 3"><g class="cls-1"><polygon class="cls-2" points="423.86 487.89 456.13 455.61 528.52 459.37 423.86 487.89"/><polygon class="cls-3" points="616.09 118.14 785.55 17.86 767.39 126.25 616.09 118.14"/><polygon class="cls-4" points="600.63 112.29 785.55 17.86 616.09 118.14 600.63 112.29"/><polygon class="cls-5" points="520.38 223.98 444.74 124 532.85 157.48 520.38 223.98"/><polygon class="cls-6" points="444.74 124 600.63 112.29 532.85 157.48 444.74 124"/><polygon class="cls-7" points="532.85 157.48 600.63 112.29 616.09 118.14 532.85 157.48"/><polygon class="cls-8" points="423.86 487.89 313.78 427.54 456.13 455.61 423.86 487.89"/><polygon class="cls-9" points="190.68 399.46 351.47 352.93 313.78 427.54 190.68 399.46"/><polygon class="cls-10" points="64.88 241.99 83.31 113.79 173.32 222.47 64.88 241.99"/><polygon class="cls-11" points="528.52 459.37 674.12 349.63 671.67 487.14 528.52 459.37"/><polygon class="cls-12" points="491.9 252.21 520.38 223.98 674.12 349.63 491.9 252.21"/><polygon class="cls-13" points="298.86 169.18 378.03 107.94 444.74 124 298.86 169.18"/><polygon class="cls-14" points="709.9 551.24 671.67 487.14 727.26 509.2 709.9 551.24"/><polygon class="cls-15" points="727.26 509.2 782.57 503.8 709.9 551.24 727.26 509.2"/><polygon class="cls-16" points="727.26 509.2 671.67 487.14 782.57 503.8 727.26 509.2"/><polygon class="cls-17" points="724.01 575.86 709.9 551.24 796.67 575.86 724.01 575.86"/><polygon class="cls-18" points="709.9 551.24 782.57 503.8 796.67 575.86 709.9 551.24"/><polygon class="cls-19" points="70.5 606.71 19.19 606.71 0 603.53 0 594.89 122.09 567.44 70.5 606.71"/><polygon class="cls-20" points="114.28 606.71 70.5 606.71 122.09 567.44 114.28 606.71"/><polygon class="cls-21" points="0 606.71 0 603.53 19.19 606.71 0 606.71"/><polygon class="cls-22" points="190.68 399.46 187.15 339.26 351.47 352.93 190.68 399.46"/><polygon class="cls-23" points="64.88 241.99 173.32 222.47 187.15 339.26 64.88 241.99"/><polygon class="cls-24" points="4.96 70.26 0 58.41 0 25.11 4.96 28.23 4.96 70.26"/><polygon class="cls-25" points="528.52 459.37 486.48 344.68 674.12 349.63 528.52 459.37"/><polygon class="cls-26" points="456.13 455.61 465.88 446.75 528.52 459.37 456.13 455.61"/><polygon class="cls-27" points="465.88 446.75 486.48 344.68 528.52 459.37 465.88 446.75"/><polygon class="cls-28" points="456.13 455.61 313.78 427.54 465.88 446.75 456.13 455.61"/><polygon class="cls-29" points="313.78 427.54 351.47 352.93 465.88 446.75 313.78 427.54"/><polygon class="cls-30" points="351.47 352.93 486.48 344.68 465.88 446.75 351.47 352.93"/><polygon class="cls-31" points="785.55 17.86 773.56 2.88 799.49 2.88 785.55 17.86"/><polygon class="cls-32" points="802.69 468.03 802.69 606.71 802.69 606.71 796.67 575.86 802.69 468.03"/><polygon class="cls-33" points="785.55 17.86 802.69 50.51 802.69 103.97 767.39 126.25 785.55 17.86"/><polygon class="cls-34" points="799.49 2.88 802.69 2.88 802.69 50.51 785.55 17.86 799.49 2.88"/><polygon class="cls-35" points="782.57 503.8 802.69 302.06 802.69 468.03 796.67 575.86 782.57 503.8"/><polygon class="cls-36" points="674.12 349.63 520.38 223.98 768.47 289.42 674.12 349.63"/><polygon class="cls-37" points="767.39 126.25 802.69 103.97 802.69 166.45 768.47 289.42 767.39 126.25"/><polygon class="cls-38" points="768.47 289.42 802.69 166.45 802.69 302.06 782.57 503.8 768.47 289.42"/><polygon class="cls-39" points="543.98 0 545.42 2.88 541.66 2.88 543.98 0"/><polygon class="cls-40" points="444.74 124 541.66 2.88 545.42 2.88 600.63 112.29 444.74 124"/><polygon class="cls-41" points="600.63 112.29 545.42 2.88 582.89 2.88 785.55 17.86 600.63 112.29"/><polygon class="cls-42" points="582.89 2.88 773.56 2.88 785.55 17.86 582.89 2.88"/><polygon class="cls-43" points="4.96 70.26 4.96 28.23 102.56 33.63 4.96 70.26"/><polygon class="cls-44" points="102.56 33.63 139.44 19.21 120.72 49.69 102.56 33.63"/><polygon class="cls-45" points="102.56 33.63 127.51 7.21 139.44 19.21 102.56 33.63"/><polygon class="cls-46" points="64.6 87.07 120.72 49.69 83.31 113.79 64.6 87.07"/><polygon class="cls-47" points="4.96 70.26 102.56 33.63 64.6 87.07 4.96 70.26"/><polygon class="cls-48" points="64.6 87.07 102.56 33.63 120.72 49.69 64.6 87.07"/><polygon class="cls-49" points="127.51 7.21 153.13 2.88 195.82 2.88 139.44 19.21 127.51 7.21"/><polygon class="cls-50" points="173.32 222.47 255.48 180.15 308.62 206.57 173.32 222.47"/><polygon class="cls-51" points="173.32 222.47 83.31 113.79 255.48 180.15 173.32 222.47"/><polygon class="cls-52" points="255.48 180.15 298.86 169.18 308.62 206.57 255.48 180.15"/><polygon class="cls-53" points="4.96 28.23 0 25.11 0 10.05 27.73 5.4 4.96 28.23"/><polygon class="cls-54" points="4.96 28.23 27.73 5.4 41.83 12.01 4.96 28.23"/><polygon class="cls-55" points="4.96 70.26 0 105.98 0 60.62 4.96 70.26"/><polygon class="cls-56" points="0 60.62 0 58.41 4.96 70.26 0 60.62"/><polygon class="cls-57" points="15.7 2.88 27.73 5.4 0 10.05 0 2.88 15.7 2.88"/><polygon class="cls-58" points="27.73 5.4 15.7 2.88 80.61 2.88 127.51 7.21 27.73 5.4"/><polygon class="cls-59" points="127.51 7.21 80.61 2.88 153.13 2.88 127.51 7.21"/><polygon class="cls-60" points="4.96 28.23 53.75 13.21 102.56 33.63 4.96 28.23"/><polygon class="cls-61" points="53.75 13.21 127.51 7.21 102.56 33.63 53.75 13.21"/><polygon class="cls-62" points="4.96 28.23 41.83 12.01 53.75 13.21 4.96 28.23"/><polygon class="cls-63" points="41.83 12.01 27.73 5.4 53.75 13.21 41.83 12.01"/><polygon class="cls-64" points="53.75 13.21 27.73 5.4 127.51 7.21 53.75 13.21"/><polygon class="cls-65" points="64.88 241.99 0 295.82 0 243.76 50.51 113.49 64.88 241.99"/><polygon class="cls-66" points="50.51 113.49 0 243.76 0 105.98 4.96 70.26 50.51 113.49"/><polygon class="cls-67" points="64.88 241.99 50.51 113.49 83.31 113.79 64.88 241.99"/><polygon class="cls-68" points="50.51 113.49 64.6 87.07 83.31 113.79 50.51 113.49"/><polygon class="cls-69" points="50.51 113.49 4.96 70.26 64.6 87.07 50.51 113.49"/><polygon class="cls-70" points="255.48 180.15 191.49 35.43 298.86 169.18 255.48 180.15"/><polygon class="cls-71" points="83.31 113.79 191.49 35.43 255.48 180.15 83.31 113.79"/><polygon class="cls-72" points="298.86 169.18 191.49 35.43 378.03 107.94 298.86 169.18"/><polygon class="cls-73" points="120.72 49.69 191.49 35.43 83.31 113.79 120.72 49.69"/><polygon class="cls-74" points="120.72 49.69 139.44 19.21 191.49 35.43 120.72 49.69"/><polygon class="cls-75" points="139.44 19.21 195.82 2.88 233.29 2.88 191.49 35.43 139.44 19.21"/><polygon class="cls-76" points="233.29 2.88 247.77 2.88 191.49 35.43 233.29 2.88"/><polygon class="cls-77" points="191.49 35.43 335.1 2.88 354.02 2.88 378.03 107.94 191.49 35.43"/><polygon class="cls-78" points="247.77 2.88 335.1 2.88 191.49 35.43 247.77 2.88"/><polygon class="cls-79" points="378.03 107.94 409.36 2.88 413.63 2.88 444.74 124 378.03 107.94"/><polygon class="cls-80" points="413.63 2.88 541.66 2.88 444.74 124 413.63 2.88"/><polygon class="cls-81" points="378.03 107.94 354.02 2.88 409.36 2.88 378.03 107.94"/><polygon class="cls-82" points="423.86 487.89 528.52 459.37 551.56 546.44 423.86 487.89"/><polygon class="cls-83" points="551.56 546.44 528.52 459.37 671.67 487.14 551.56 546.44"/><polygon class="cls-84" points="551.56 546.44 462.2 606.71 446.47 606.71 370.17 582.75 551.56 546.44"/><polygon class="cls-85" points="724.01 575.86 551.56 546.44 709.9 551.24 724.01 575.86"/><polygon class="cls-86" points="551.56 546.44 671.67 487.14 709.9 551.24 551.56 546.44"/><polygon class="cls-87" points="446.47 606.71 359.14 606.71 370.17 582.75 446.47 606.71"/><polygon class="cls-88" points="370.17 582.75 359.14 606.71 325.14 606.71 241.38 526.62 370.17 582.75"/><polygon class="cls-89" points="241.38 526.62 325.14 606.71 265.99 606.71 122.09 567.44 241.38 526.62"/><polygon class="cls-90" points="265.99 606.71 114.28 606.71 122.09 567.44 265.99 606.71"/><polygon class="cls-91" points="671.67 487.14 674.12 349.63 744.6 378.3 671.67 487.14"/><polygon class="cls-92" points="674.12 349.63 768.47 289.42 744.6 378.3 674.12 349.63"/><polygon class="cls-93" points="671.67 487.14 744.6 378.3 782.57 503.8 671.67 487.14"/><polygon class="cls-94" points="744.6 378.3 768.47 289.42 782.57 503.8 744.6 378.3"/><polygon class="cls-95" points="802.69 606.71 727.87 606.71 796.67 575.86 802.69 606.71"/><polygon class="cls-96" points="693.19 606.71 462.2 606.71 551.56 546.44 693.19 606.71"/><polygon class="cls-97" points="796.67 575.86 727.87 606.71 713.55 606.71 724.01 575.86 796.67 575.86"/><polygon class="cls-98" points="724.01 575.86 713.55 606.71 693.19 606.71 551.56 546.44 724.01 575.86"/><polygon class="cls-99" points="0 556.93 0 496 16.88 524.22 0 556.93"/><polygon class="cls-100" points="122.09 567.44 0 594.89 0 556.93 16.88 524.22 122.09 567.44"/><polygon class="cls-101" points="187.15 339.26 288.01 275.02 351.47 352.93 187.15 339.26"/><polygon class="cls-102" points="187.15 339.26 173.32 222.47 288.01 275.02 187.15 339.26"/><polygon class="cls-103" points="173.32 222.47 308.62 206.57 288.01 275.02 173.32 222.47"/><polygon class="cls-104" points="351.47 352.93 482.15 298.43 486.48 344.68 351.47 352.93"/><polygon class="cls-105" points="351.47 352.93 288.01 275.02 482.15 298.43 351.47 352.93"/><polygon class="cls-106" points="486.48 344.68 482.15 298.43 674.12 349.63 486.48 344.68"/><polygon class="cls-107" points="482.15 298.43 491.9 252.21 674.12 349.63 482.15 298.43"/><polygon class="cls-108" points="190.68 399.46 0 419.17 0 407.81 141.6 356.08 190.68 399.46"/><polygon class="cls-109" points="0 407.81 0 326.68 141.6 356.08 0 407.81"/><polygon class="cls-110" points="141.6 356.08 187.15 339.26 190.68 399.46 141.6 356.08"/><polygon class="cls-111" points="141.6 356.08 64.88 241.99 187.15 339.26 141.6 356.08"/><polygon class="cls-112" points="141.6 356.08 0 326.68 0 295.82 64.88 241.99 141.6 356.08"/><polygon class="cls-113" points="180.65 459.96 190.68 399.46 313.78 427.54 180.65 459.96"/><polygon class="cls-114" points="180.65 459.96 0 430.66 0 419.17 190.68 399.46 180.65 459.96"/><polygon class="cls-115" points="122.09 567.44 180.65 459.96 241.38 526.62 122.09 567.44"/><polygon class="cls-116" points="16.88 524.22 180.65 459.96 122.09 567.44 16.88 524.22"/><polygon class="cls-117" points="180.65 459.96 313.78 427.54 241.38 526.62 180.65 459.96"/><polygon class="cls-118" points="16.88 524.22 0 496 0 430.66 180.65 459.96 16.88 524.22"/><polygon class="cls-119" points="288.01 275.02 365.02 234.19 482.15 298.43 288.01 275.02"/><polygon class="cls-120" points="482.15 298.43 365.02 234.19 491.9 252.21 482.15 298.43"/><polygon class="cls-121" points="288.01 275.02 308.62 206.57 365.02 234.19 288.01 275.02"/><polygon class="cls-122" points="365.02 234.19 520.38 223.98 491.9 252.21 365.02 234.19"/><polygon class="cls-123" points="365.02 234.19 444.74 124 520.38 223.98 365.02 234.19"/><polygon class="cls-124" points="308.62 206.57 298.86 169.18 365.02 234.19 308.62 206.57"/><polygon class="cls-125" points="298.86 169.18 444.74 124 365.02 234.19 298.86 169.18"/><polygon class="cls-126" points="370.44 521.21 313.78 427.54 423.86 487.89 370.44 521.21"/><polygon class="cls-127" points="370.17 582.75 370.44 521.21 551.56 546.44 370.17 582.75"/><polygon class="cls-128" points="241.38 526.62 370.44 521.21 370.17 582.75 241.38 526.62"/><polygon class="cls-129" points="370.44 521.21 423.86 487.89 551.56 546.44 370.44 521.21"/><polygon class="cls-130" points="241.38 526.62 313.78 427.54 370.44 521.21 241.38 526.62"/><polygon class="cls-131" points="520.38 223.98 721.84 168.14 768.47 289.42 520.38 223.98"/><polygon class="cls-132" points="721.84 168.14 767.39 126.25 768.47 289.42 721.84 168.14"/><polygon class="cls-133" points="520.38 223.98 532.85 157.48 721.84 168.14 520.38 223.98"/><polygon class="cls-134" points="532.85 157.48 616.09 118.14 721.84 168.14 532.85 157.48"/><polygon class="cls-135" points="721.84 168.14 616.09 118.14 767.39 126.25 721.84 168.14"/></g></g></svg>