<svg id="halfHead01_scene06" xmlns="http://www.w3.org/2000/svg" viewBox="0 0 398.51 563.34"><defs><style>.cls-1{fill:#fff;stroke:#e6e6e6;stroke-miterlimit:10;}.cls-2{fill:#989898;}.cls-3{fill:#eee93a;}</style></defs><title>scene06</title><path class="cls-1" d="M394.94,431.5c-1.55,3-3,6.23-4.31,9.62-6,15.17-7.64,30.6-6.37,46.74,0.81,10.34,2.49,20,.78,29.51a36.16,36.16,0,0,1-5.72,14.1c-7.21,10.71-17.66,26.64-29,33.44-5.59,3.35-2.23,13.39,0,20.09s24.6,12.28,24.6,12.28L363.26,611.8l4.24,15.64v13.4c17,7.75,6.6,22.82,10.91,34.86,3.76,10.49,15.84,16.15,26,17.29,25.73,2.9,91.48-27.48,78.63,29.52H628.52c-3.87,0-1.69-61.59-1.59-66.2,0.58-28.42,5.57-53.72,18.84-79.06,11.29-21.55,23.61-44.12,28.56-68.15,4.23-20.55,3.74-50.59-8.55-77.59H394.94Z" transform="translate(-346.77 -159.66)"/><path class="cls-1" d="M726.31,376.1c35.75-63.68,11.7-133-6.17-170.94-10.06-21.36-31.64-35.22-54.64-44.76V431.24C688.5,421.49,710.48,404.3,726.31,376.1Z" transform="translate(-346.77 -159.66)"/><path class="cls-2" d="M534.42,356.66H485.94a6.53,6.53,0,1,0,0,13.06h48.47A6.53,6.53,0,0,0,534.42,356.66Z" transform="translate(-346.77 -159.66)"/><path class="cls-2" d="M497.47,395.26v3.56a7.27,7.27,0,0,0,7.28,7.28h10.86a7.28,7.28,0,0,0,7.27-7.28v-3.56a15.83,15.83,0,0,0,14.75-15.76H482.71A15.83,15.83,0,0,0,497.47,395.26Z" transform="translate(-346.77 -159.66)"/><path class="cls-3" d="M510.18,210.06A65.42,65.42,0,0,0,458.7,315.94a279.6,279.6,0,0,1,21.45,31.39H540.2a278.68,278.68,0,0,1,21.45-31.39A65.42,65.42,0,0,0,510.18,210.06Zm0.11,22.72a42.2,42.2,0,0,0-42.16,42.15,6.53,6.53,0,1,1-13.07,0,55.29,55.29,0,0,1,55.23-55.22A6.54,6.54,0,0,1,510.29,232.78Z" transform="translate(-346.77 -159.66)"/></svg>