<svg id="mic_scene04" xmlns="http://www.w3.org/2000/svg" viewBox="0 0 922.54 466.1"><defs><style>.cls-1,.cls-2,.cls-3{fill:#fff;stroke-miterlimit:10;fill-rule:evenodd;}.cls-1,.cls-2{stroke:#fff;}.cls-1{stroke-width:2px;}.cls-3{stroke:#e6e6e6;}</style></defs><title>scene04</title><path class="cls-1" d="M629.42,323.19A117.42,117.42,0,1,1,512,205.77,117.41,117.41,0,0,1,629.42,323.19Z" transform="translate(-53.56 -204.77)"/><path class="cls-2" d="M512,317.48H483.27c-2.68,0-2.73-.06-2.73-2.74q0-16.17,0-32.32c0-16.06,9.66-28.21,25.28-31.8,15.43-3.55,32.63,7.06,36.24,22.48a42.17,42.17,0,0,1,1.12,9c0.14,11.06,0,22.11.1,33.17,0,1.88-.78,2.24-2.42,2.24C531.24,317.46,521.61,317.48,512,317.48Z" transform="translate(-53.56 -204.77)"/><path class="cls-2" d="M512,334.74H541c1.08,0,2.28-.13,2.28,1.45,0,7.07.46,14.17-2.58,20.9a31.53,31.53,0,0,1-31.11,18.7,30.55,30.55,0,0,1-27.73-23.2c-1.24-5.22-.92-10.81-1.26-16.24-0.11-1.68,1.16-1.64,2.34-1.64H512Z" transform="translate(-53.56 -204.77)"/><path class="cls-2" d="M477.58,330.05l-3.32,1.08c0.06-.17-0.16.15-0.15,0.45,0.22,7-.14,14.09.83,21,1.94,14,14.27,26.54,28.1,29.54a7.56,7.56,0,0,1,2.24.58,5,5,0,0,1,1.15,1.53c-0.58.37-1.25,1.14-1.74,1a52.07,52.07,0,0,1-7.75-2.17,40.57,40.57,0,0,1-25.69-37.7c-0.07-4.26,0-8.51,0-12.76,0-1.39-.26-1.74-2-2s-3.34-2.22-4.66-3.74c-0.33-.38.39-2,1-2.84,1.92-2.72,2.42-2.67,5.38-1.63,1.13,0.39,2.58-.07,3.86-0.23,0.53-.07,1.08-0.62,1.54-0.53,4.22,0.8,8.42-.26,12.65,0s8.65,0,13,0h26.15c4.33,0,8.66,0,13,0a25.6,25.6,0,0,1,3.69.59,0.78,0.78,0,0,0,.18.09c3-2.1,6.33,2.14,9.41-.55,0.4-.35,2.33.44,3,1.18,1,1,2.63,2,1.88,3.92-0.89,2.21-3.36,4-5.28,3.73-1.72-.19-1.44,1.06-1.45,1.93-0.06,4-.1,7.94,0,11.91a39.11,39.11,0,0,1-5.21,20.76,40.4,40.4,0,0,1-27.09,19.89l-0.21,0c-1,.16-2.25.56-2.53-1-0.26-1.43,1-1.44,1.87-1.78C523.2,381,527.3,380,530.8,378c11.53-6.7,17.83-17,18.89-30.25,0.42-5.22.11-10.48,0.12-15.73a3.48,3.48,0,0,0-.15-0.86,20.9,20.9,0,0,0-4.09-1.11c-1.2-.08-2.42.57-3.64,0.58-7,.06-13.9,0-20.84,0-13.11,0-26.23,0-39.34,0a37.07,37.07,0,0,1-4.23-.49c-0.17-2.54-.35-5.08-0.53-7.62l-1.11-.18c-0.65,2.43-.21,5-0.27,7.74h2Zm-8-.14v-7.43c-1.69.11-1.88,0.69-1.56,5.62C468.1,328.83,467.57,330.59,469.61,329.92Zm78.62-7.38c-1.87,0-1.89,0-1.51,6.36a3.59,3.59,0,0,0,1,1.37l0.55-.39v-7.34Zm6-.07v7.42l0.63,0.31a4.42,4.42,0,0,0,.84-1.5C556,323.74,555.78,322.68,554.22,322.46Z" transform="translate(-53.56 -204.77)"/><path class="cls-2" d="M511.76,396.44c-8.58,0-17.15,0-25.73,0-2.74,0-3.49-.59-3.51-2.55,0-3.35.65-4.2,3.55-4.21,5.53,0,11.06,0,16.58,0,1.68,0,2.77-.32,2.76-2.27a1.63,1.63,0,0,1,.5-1.11c1.74-1.54,1.87-2.9,0-4.59-1-.9-0.12-1.81,1-1.85,3.33-.09,6.66-0.11,10,0,1.47,0.06,1.79,1.06.73,2.12-1.4,1.4-1.4,2.65,0,4a1.87,1.87,0,0,1,.7,1c-0.16,2.85,1.75,2.69,3.67,2.68q8-.06,15.95,0c2.64,0,3.29.78,3.34,3.72,0,2.13-.89,3-3.4,3-8.71,0-17.42,0-26.14,0h0Z" transform="translate(-53.56 -204.77)"/><path class="cls-3" d="M54.74,593.36c-3.19-5.8,5.82-19.38,8.1-24.47q7.51-16.73,15-33.52c1.92-4.36,5-6.37,9.82-6.28,8.92,0.13,17.86.19,26.78,0,5.47-.14,8.78,2.11,11,7.09,6.85,15.67,14,31.2,20.9,46.82a16.82,16.82,0,0,1,1.44,5.24,6.7,6.7,0,0,1-4.29,7.21,7.47,7.47,0,0,1-8.36-2.61,20.14,20.14,0,0,1-2.2-3.92c-3.8-8.42-7.54-16.88-11.31-25.31-0.44-1-1-2-1.43-3a7.11,7.11,0,0,0-.62,3.7c0.77,11.91,1.58,23.82,2.36,35.73,0.05,0.85.34,2.19-.07,2.49-2.7,1.94-1.61,4.69-1.65,7.11-0.12,7.63,0,15.26,0,22.91q0,14.19,0,28.4c0,3.12-.46,6.08-3.31,8a7.25,7.25,0,0,1-7.94.5,7.48,7.48,0,0,1-4.11-7.12c0-18.72,0-37.43.08-56.16,0-2.77-1.37-2.9-3.41-2.82s-4.06-.47-3.77,2.74c0.18,2.14,0,4.3,0,6.45q0,24.85,0,49.7c0,4-2.06,6.76-5.51,7.78a7.11,7.11,0,0,1-8.41-3.15,14.45,14.45,0,0,1-1.41-6.45c-0.1-17.75,0-35.51-.07-53.25,0-1.07.18-2.81-.34-3.07-3-1.56-1.72-4.08-1.59-6.22,0.41-6.45,1-12.87,1.52-19.3,0.41-5.62.71-11.25,1.05-16.87a8,8,0,0,0-2.27,3.17q-5.46,12.21-10.88,24.44c-2.23,5.07-9.27,10.12-14.32,5A4.58,4.58,0,0,1,54.74,593.36Z" transform="translate(-53.56 -204.77)"/><path class="cls-3" d="M101.69,484.44A20.54,20.54,0,1,0,122.15,505,20.56,20.56,0,0,0,101.69,484.44Z" transform="translate(-53.56 -204.77)"/><path class="cls-3" d="M169.28,593.36c-3.19-5.8,5.82-19.38,8.1-24.47q7.51-16.73,15-33.52c1.92-4.36,5-6.37,9.82-6.28,8.92,0.13,17.86.19,26.78,0,5.47-.14,8.78,2.11,11,7.09,6.85,15.67,14,31.2,20.9,46.82a16.82,16.82,0,0,1,1.44,5.24,6.7,6.7,0,0,1-4.29,7.21,7.47,7.47,0,0,1-8.36-2.61,20.14,20.14,0,0,1-2.2-3.92c-3.8-8.42-7.54-16.88-11.31-25.31-0.44-1-1-2-1.43-3a7.11,7.11,0,0,0-.62,3.7c0.77,11.91,1.58,23.82,2.36,35.73,0.05,0.85.34,2.19-.07,2.49-2.7,1.94-1.61,4.69-1.65,7.11-0.12,7.63,0,15.26,0,22.91q0,14.19,0,28.4c0,3.12-.46,6.08-3.31,8a7.25,7.25,0,0,1-7.94.5,7.48,7.48,0,0,1-4.11-7.12c0-18.72,0-37.43.08-56.16,0-2.77-1.37-2.9-3.41-2.82s-4.06-.47-3.77,2.74c0.18,2.14,0,4.3,0,6.45q0,24.85,0,49.7c0,4-2.06,6.76-5.51,7.78a7.11,7.11,0,0,1-8.41-3.15,14.45,14.45,0,0,1-1.41-6.45c-0.1-17.75,0-35.51-.07-53.25,0-1.07.18-2.81-.34-3.07-3-1.56-1.72-4.08-1.59-6.22,0.41-6.45,1-12.87,1.52-19.3,0.41-5.62.71-11.25,1.05-16.87a8,8,0,0,0-2.27,3.17q-5.46,12.21-10.88,24.44c-2.23,5.07-9.27,10.12-14.32,5A4.58,4.58,0,0,1,169.28,593.36Z" transform="translate(-53.56 -204.77)"/><path class="cls-3" d="M216.23,484.44A20.54,20.54,0,1,0,236.69,505,20.56,20.56,0,0,0,216.23,484.44Z" transform="translate(-53.56 -204.77)"/><path class="cls-3" d="M283.82,593.36c-3.19-5.8,5.82-19.38,8.1-24.47q7.51-16.73,15-33.52c1.92-4.36,5-6.37,9.82-6.28,8.92,0.13,17.86.19,26.78,0,5.47-.14,8.78,2.11,11,7.09,6.85,15.67,14,31.2,20.9,46.82a16.82,16.82,0,0,1,1.44,5.24,6.7,6.7,0,0,1-4.29,7.21,7.47,7.47,0,0,1-8.36-2.61,20.14,20.14,0,0,1-2.2-3.92c-3.8-8.42-7.54-16.88-11.31-25.31-0.44-1-1-2-1.43-3a7.11,7.11,0,0,0-.62,3.7c0.77,11.91,1.58,23.82,2.36,35.73,0.05,0.85.34,2.19-.07,2.49-2.7,1.94-1.61,4.69-1.65,7.11-0.12,7.63,0,15.26,0,22.91q0,14.19,0,28.4c0,3.12-.46,6.08-3.31,8a7.25,7.25,0,0,1-7.94.5,7.48,7.48,0,0,1-4.11-7.12c0-18.72,0-37.43.08-56.16,0-2.77-1.37-2.9-3.41-2.82s-4.06-.47-3.77,2.74c0.18,2.14,0,4.3,0,6.45q0,24.85,0,49.7c0,4-2.06,6.76-5.51,7.78a7.11,7.11,0,0,1-8.41-3.15,14.45,14.45,0,0,1-1.41-6.45c-0.1-17.75,0-35.51-.07-53.25,0-1.07.18-2.81-.34-3.07-3-1.56-1.72-4.08-1.59-6.22,0.41-6.45,1-12.87,1.52-19.3,0.41-5.62.71-11.25,1.05-16.87a8,8,0,0,0-2.27,3.17q-5.46,12.21-10.88,24.44c-2.23,5.07-9.27,10.12-14.32,5A4.58,4.58,0,0,1,283.82,593.36Z" transform="translate(-53.56 -204.77)"/><path class="cls-3" d="M330.77,484.44A20.54,20.54,0,1,0,351.23,505,20.56,20.56,0,0,0,330.77,484.44Z" transform="translate(-53.56 -204.77)"/><path class="cls-3" d="M653.49,593.36c-3.19-5.8,5.82-19.38,8.1-24.47q7.51-16.73,15-33.52c1.92-4.36,5-6.37,9.82-6.28,8.92,0.13,17.86.19,26.78,0,5.47-.14,8.78,2.11,11,7.09,6.85,15.67,14,31.2,20.9,46.82a16.82,16.82,0,0,1,1.44,5.24,6.7,6.7,0,0,1-4.29,7.21,7.47,7.47,0,0,1-8.36-2.61,20.14,20.14,0,0,1-2.2-3.92c-3.8-8.42-7.54-16.88-11.31-25.31-0.44-1-1-2-1.43-3a7.11,7.11,0,0,0-.62,3.7c0.77,11.91,1.58,23.82,2.36,35.73,0.05,0.85.34,2.19-.07,2.49-2.7,1.94-1.61,4.69-1.65,7.11-0.12,7.63,0,15.26,0,22.91q0,14.19,0,28.4c0,3.12-.46,6.08-3.31,8a7.25,7.25,0,0,1-7.94.5,7.48,7.48,0,0,1-4.11-7.12c0-18.72,0-37.43.08-56.16,0-2.77-1.37-2.9-3.41-2.82s-4.06-.47-3.77,2.74c0.18,2.14,0,4.3,0,6.45q0,24.85,0,49.7c0,4-2.06,6.76-5.51,7.78a7.11,7.11,0,0,1-8.41-3.15,14.45,14.45,0,0,1-1.41-6.45c-0.1-17.75,0-35.51-.07-53.25,0-1.07.18-2.81-.34-3.07-3-1.56-1.72-4.08-1.59-6.22,0.41-6.45,1-12.87,1.52-19.3,0.41-5.62.71-11.25,1.05-16.87a8,8,0,0,0-2.27,3.17q-5.46,12.21-10.88,24.44c-2.23,5.07-9.27,10.12-14.32,5A4.58,4.58,0,0,1,653.49,593.36Z" transform="translate(-53.56 -204.77)"/><path class="cls-3" d="M700.44,484.44A20.54,20.54,0,1,0,720.9,505,20.56,20.56,0,0,0,700.44,484.44Z" transform="translate(-53.56 -204.77)"/><path class="cls-3" d="M768,593.36c-3.19-5.8,5.82-19.38,8.1-24.47q7.51-16.73,15-33.52c1.92-4.36,5-6.37,9.82-6.28,8.92,0.13,17.86.19,26.78,0,5.47-.14,8.78,2.11,11,7.09,6.85,15.67,14,31.2,20.9,46.82A16.82,16.82,0,0,1,861,588.2a6.7,6.7,0,0,1-4.29,7.21,7.47,7.47,0,0,1-8.36-2.61,20.14,20.14,0,0,1-2.2-3.92c-3.8-8.42-7.54-16.88-11.31-25.31-0.44-1-1-2-1.43-3a7.11,7.11,0,0,0-.62,3.7c0.77,11.91,1.58,23.82,2.36,35.73,0.05,0.85.34,2.19-.07,2.49-2.7,1.94-1.61,4.69-1.65,7.11-0.12,7.63,0,15.26,0,22.91q0,14.19,0,28.4c0,3.12-.46,6.08-3.31,8a7.25,7.25,0,0,1-7.94.5A7.48,7.48,0,0,1,818,662.3c0-18.72,0-37.43.08-56.16,0-2.77-1.37-2.9-3.41-2.82s-4.06-.47-3.77,2.74c0.18,2.14,0,4.3,0,6.45q0,24.85,0,49.7c0,4-2.06,6.76-5.51,7.78a7.11,7.11,0,0,1-8.41-3.15,14.45,14.45,0,0,1-1.41-6.45c-0.1-17.75,0-35.51-.07-53.25,0-1.07.18-2.81-.34-3.07-3-1.56-1.72-4.08-1.59-6.22,0.41-6.45,1-12.87,1.52-19.3,0.41-5.62.71-11.25,1.05-16.87a8,8,0,0,0-2.27,3.17q-5.46,12.21-10.88,24.44c-2.23,5.07-9.27,10.12-14.32,5A4.58,4.58,0,0,1,768,593.36Z" transform="translate(-53.56 -204.77)"/><path class="cls-3" d="M815,484.44A20.54,20.54,0,1,0,835.44,505,20.56,20.56,0,0,0,815,484.44Z" transform="translate(-53.56 -204.77)"/><path class="cls-3" d="M882.57,593.36c-3.19-5.8,5.82-19.38,8.1-24.47q7.51-16.73,15-33.52c1.92-4.36,5-6.37,9.82-6.28,8.92,0.13,17.86.19,26.78,0,5.47-.14,8.78,2.11,11,7.09,6.85,15.67,14,31.2,20.9,46.82a16.82,16.82,0,0,1,1.44,5.24,6.7,6.7,0,0,1-4.29,7.21,7.47,7.47,0,0,1-8.36-2.61,20.14,20.14,0,0,1-2.2-3.92c-3.8-8.42-7.54-16.88-11.31-25.31-0.44-1-1-2-1.43-3a7.11,7.11,0,0,0-.62,3.7c0.77,11.91,1.58,23.82,2.36,35.73,0.05,0.85.34,2.19-.07,2.49-2.7,1.94-1.61,4.69-1.65,7.11-0.12,7.63,0,15.26,0,22.91q0,14.19,0,28.4c0,3.12-.46,6.08-3.31,8a7.25,7.25,0,0,1-7.94.5,7.48,7.48,0,0,1-4.11-7.12c0-18.72,0-37.43.08-56.16,0-2.77-1.37-2.9-3.41-2.82s-4.06-.47-3.77,2.74c0.18,2.14,0,4.3,0,6.45q0,24.85,0,49.7c0,4-2.06,6.76-5.51,7.78a7.11,7.11,0,0,1-8.41-3.15,14.45,14.45,0,0,1-1.41-6.45c-0.1-17.75,0-35.51-.07-53.25,0-1.07.18-2.81-.34-3.07-3-1.56-1.72-4.08-1.59-6.22,0.41-6.45,1-12.87,1.52-19.3,0.41-5.62.71-11.25,1.05-16.87a8,8,0,0,0-2.27,3.17q-5.46,12.21-10.88,24.44c-2.23,5.07-9.27,10.12-14.32,5A4.58,4.58,0,0,1,882.57,593.36Z" transform="translate(-53.56 -204.77)"/><path class="cls-3" d="M929.52,484.44A20.54,20.54,0,1,0,950,505,20.56,20.56,0,0,0,929.52,484.44Z" transform="translate(-53.56 -204.77)"/></svg>