<svg id="pencil_scene01" xmlns="http://www.w3.org/2000/svg" viewBox="0 0 682.05 257.22"><defs><style>.cls-1{fill:#eac247;}.cls-2{fill:#dd8026;}.cls-3{fill:#dc8097;}.cls-4{fill:#f5f3ce;}.cls-5{fill:#717071;}.cls-6{fill:#999;}.cls-6,.cls-8{opacity:0.3;isolation:isolate;}.cls-7{fill:#6eac66;}.cls-8{fill:#b3b3b3;}</style></defs><title>scene01</title><g id="pencil_scene01-2" data-name="pencil_scene01"><path class="cls-1" d="M768.53,341.39l-520.8.54a42.6,42.6,0,1,0,.09,85.21l520.8-.54c0.93,0,1.84-.09,2.75-0.14l-0.09-84.93C770.37,341.48,769.47,341.39,768.53,341.39Z" transform="translate(-170.97 -170.28)"/><path class="cls-2" d="M768.59,397l-520.8.54c-23.53,0-42.6,4.9-42.59,10.89s19.08,10.82,42.61,10.8l520.8-.54c0.92,0,1.83,0,2.74,0l0-21.61C770.42,397,769.52,397,768.59,397Z" transform="translate(-170.97 -170.28)"/><path class="cls-2" d="M768.54,351.29l-520.8.54c-23.53,0-42.6,4.9-42.59,10.89s19.09,10.82,42.62,10.8l520.8-.54c0.93,0,1.84,0,2.75,0l0-21.62C770.38,351.31,769.47,351.29,768.54,351.29Z" transform="translate(-170.97 -170.28)"/><rect class="cls-3" x="0.35" y="173.81" width="62.79" height="80.83"/><polygon class="cls-4" points="598.32 170.22 682.05 213.63 598.41 257.22 598.32 170.22"/><polygon class="cls-5" points="644.7 194.69 681.23 213.63 644.74 232.64 644.7 194.69"/><path class="cls-6" d="M698.91,419H769V342.57S767.43,414,698.91,419Z" transform="translate(-170.97 -170.28)"/><rect class="cls-6" x="62.03" y="247.72" width="536" height="8"/><path class="cls-6" d="M171,423h63V344.36S233.27,419,171,423Z" transform="translate(-170.97 -170.28)"/></g><g id="triangle_scene01-2" data-name="triangle_scene01"><polygon class="cls-7" points="98.11 0 147 85.03 195.9 170.07 98.11 170.07 0.31 170.07 49.21 85.03 98.11 0"/><path class="cls-8" d="M171.58,340.35h195l-97.4-169.82S379.46,346.35,171.58,340.35Z" transform="translate(-170.97 -170.28)"/></g></svg>