<svg id="scene02" xmlns="http://www.w3.org/2000/svg" viewBox="0 0 1280 800"><title>scene02</title><g id="tree"><g id="bottomDrop" style="opacity:0"><path d="M1098.16,230c-9.25,5.24-23.56,12.2-31.89,13.87-7.89,1.58-20.76-.22-23.81-9.12a17,17,0,0,1,0-9.18c2.89-10.66,16.58-11.13,25.53-8.82C1075.83,218.76,1089.47,224.62,1098.16,230Z" style="fill:#7eacd1;fill-rule:evenodd"/><path d="M1098.13,230.07c-0.63-.11-2.58,1.47-3.16,1.77-1.36.71-2.73,1.37-4.12,2-2.86,1.33-5.75,2.55-8.63,3.84-5.09,2.27-10.47,5-16.07,4.54-3.17-.24-10.49-2-11.72-6.07-1-3.16,2.55-5.23,4.64-6.12,3.75-1.61,7.75-.4,11.51.4a33.66,33.66,0,0,0,11.55.47C1087.44,230.18,1092.79,229.11,1098.13,230.07Z" style="fill:#f2f2f2;fill-rule:evenodd;opacity:0.30000000000000004"/><ellipse cx="1044.98" cy="229.93" rx="2.67" ry="5.41" style="fill:#f2f2f2;opacity:0.30000000000000004"/></g><g id="middleDrop" style="opacity:0"><path d="M1098.16,316c-9.25,5.24-23.56,12.2-31.89,13.87-7.89,1.58-20.76-.22-23.81-9.12a17,17,0,0,1,0-9.18c2.89-10.66,16.58-11.13,25.53-8.82C1075.83,304.76,1089.47,310.62,1098.16,316Z" style="fill:#7eacd1;fill-rule:evenodd"/><path d="M1098.13,316.07c-0.63-.11-2.58,1.47-3.16,1.77-1.36.71-2.73,1.37-4.12,2-2.86,1.33-5.75,2.55-8.63,3.84-5.09,2.27-10.47,5-16.07,4.54-3.17-.24-10.49-2-11.72-6.07-1-3.16,2.55-5.23,4.64-6.12,3.75-1.61,7.75-.4,11.51.4a33.66,33.66,0,0,0,11.55.47C1087.44,316.18,1092.79,315.11,1098.13,316.07Z" style="fill:#f2f2f2;fill-rule:evenodd;opacity:0.30000000000000004"/><ellipse cx="1044.98" cy="315.93" rx="2.67" ry="5.41" style="fill:#f2f2f2;opacity:0.30000000000000004"/></g><g id="topDrop" style="opacity:0"><path d="M1097.16,424c-9.25,5.24-23.56,12.2-31.89,13.87-7.89,1.58-20.76-.22-23.81-9.12a17,17,0,0,1,0-9.18c2.89-10.66,16.58-11.13,25.53-8.82C1074.83,412.76,1088.47,418.62,1097.16,424Z" style="fill:#7eacd1;fill-rule:evenodd"/><path d="M1097.13,424.07c-0.63-.11-2.58,1.47-3.16,1.77-1.36.71-2.73,1.37-4.12,2-2.86,1.33-5.75,2.55-8.63,3.84-5.09,2.27-10.47,5-16.07,4.54-3.17-.24-10.49-2-11.72-6.07-1-3.16,2.55-5.23,4.64-6.12,3.75-1.61,7.75-.4,11.51.4a33.66,33.66,0,0,0,11.55.47C1086.44,424.18,1091.79,423.11,1097.13,424.07Z" style="fill:#f2f2f2;fill-rule:evenodd;opacity:0.30000000000000004"/><ellipse cx="1043.98" cy="423.93" rx="2.67" ry="5.41" style="fill:#f2f2f2;opacity:0.30000000000000004"/></g><g id="wood"><polygon points="1044.82 482.43 1036.59 486.25 1000.43 461.56 1008.66 457.74 1044.82 482.43" style="fill:#a27a51"/><polygon points="1044.94 482.52 1041.85 483.95 1005.69 459.26 1008.78 457.83 1044.94 482.52" style="fill:#999;opacity:0.30000000000000004"/><ellipse cx="1069.9" cy="410.71" rx="39.46" ry="8.31" style="fill:#a27a51"/><path d="M1030,683h0.45s0,0.21,0,.24c0,4.59,17.67,8.38,39.46,8.38s39.46-3.83,39.46-8.42c0,0,0-.2,0-0.2H1109V411h-79V683Z" style="fill:#a27a51"/><ellipse cx="1069.9" cy="410.71" rx="39.46" ry="8.31" style="fill:#c1996c"/><ellipse cx="1069.9" cy="410.71" rx="28.07" ry="5.91" style="fill:#a27a51"/><ellipse cx="1069.9" cy="410.71" rx="15.36" ry="3.24" style="fill:#c1996c"/><ellipse cx="1069.9" cy="410.71" rx="7.83" ry="1.65" style="fill:#a27a51"/><path d="M1046,436.53c0-.62-0.9-1.12-2-1.12h0c-1.1,0-2,.5-2,1.13V684c0,0.62.9,1.13,2,1.13h0c1.1,0,2-.5,2-1.12V436.53Z" style="fill:#736357"/><path d="M1081.5,425.58c-1.67,0-2.5.26-2.5,0.58V546.38c0,0.32.83,0.58,2.5,0.58h0c1.67,0,2.5-.26,2.5-0.58V426.16c0-.32-0.83-0.58-2.5-0.58h0Z" style="fill:#736357"/><path d="M1081.5,622c-1.67,0-2.5.14-2.5,0.32V689c0,0.18.83,0.32,2.5,0.32h0c1.67,0,2.5-.14,2.5-0.32V622.3c0-.18-0.83-0.32-2.5-0.32h0Z" style="fill:#736357"/><path d="M1081.5,566.79a7.41,7.41,0,0,0-2.5.18v36.19a7.41,7.41,0,0,0,2.5.18h0a7.41,7.41,0,0,0,2.5-.18V567a7.41,7.41,0,0,0-2.5-.18h0Z" style="fill:#736357"/><path d="M1053,610.93c-1,0-2,.17-2,0.38v77.75c0,0.21,1,.38,2,0.38h0c1,0,2-.17,2-0.38V611.31c0-.21-1-0.38-2-0.38h0Z" style="fill:#736357"/><path d="M1053,425.2c-1,0-2,.35-2,0.79V589.49c0,0.44,1,.79,2,0.79h0c1,0,2-.36,2-0.79V426c0-.44-1-0.79-2-0.79h0Z" style="fill:#736357"/><path d="M1099,519.36c-1.08,0-2,.34-2,0.77v158c0,0.42.92,0.77,2,.77h0c1.08,0,2-.34,2-0.77v-158c0-.42-0.92-0.77-2-0.77h0Z" style="fill:#736357"/><path d="M1078.08,419s28.38-1.2,31.28-8.31-28.79-8.16-34.13-8.23-29.15,1.61-29.15,1.61Z" style="fill:#999;opacity:0.30000000000000004"/><path d="M1078.08,419s26.31-.23,31.28-8.31,0,272.76,0,272.68S1110.07,434,1078.08,419Z" style="fill:#999;opacity:0.30000000000000004"/></g><g id="bottomTriangle"><polygon points="1070 253.75 1142.52 338.88 1215.04 424 1070 424 924.96 424 997.48 338.88 1070 253.75" style="fill:#6eac66"/><path d="M925.24,424h289.21L1070,254.18S1233.56,430,925.24,424Z" style="fill:#b3b3b3;opacity:0.30000000000000004"/></g><g id="middleTriangle"><polygon points="1070 187.18 1125.96 253.09 1181.93 319 1070 319 958.07 319 1014.04 253.09 1070 187.18" style="fill:#6eac66"/><path d="M958.29,319h223.18L1070,188S1196.21,323,958.29,319Z" style="fill:#b3b3b3;opacity:0.30000000000000004"/></g><g id="topTriangle"><polygon points="1070 144.11 1106.46 187.06 1142.93 230 1070 230 997.07 230 1033.54 187.06 1070 144.11" style="fill:#6eac66"/><path d="M997.21,230h145.42L1070,144.61S1152.24,233,997.21,230Z" style="fill:#b3b3b3;opacity:0.30000000000000004"/></g></g><g id="s2_title"><rect x="63.16" y="40.19" width="149.99" height="149.99" style="fill:none;stroke:#fff;stroke-linejoin:round;stroke-width:5px"/><path d="M87.6,162.09a0.91,0.91,0,0,1-.22.58,0.93,0.93,0,0,1-.74.36,1,1,0,0,1-.65-0.26,23.57,23.57,0,0,0-3.12-2.4,0.71,0.71,0,0,1-.34-0.65,1.1,1.1,0,0,1,.19-0.58,0.93,0.93,0,0,1,.74-0.36,1.09,1.09,0,0,1,.48.12,22.65,22.65,0,0,1,3.29,2.47A1,1,0,0,1,87.6,162.09Zm0.19,4.63a1,1,0,0,1-.07.36,35.74,35.74,0,0,1-3.34,6.72,1,1,0,0,1-.77.41A1.19,1.19,0,0,1,83,174a0.85,0.85,0,0,1-.43-0.74,0.92,0.92,0,0,1,.17-0.53A29.39,29.39,0,0,0,86,166.39a0.81,0.81,0,0,1,.79-0.58,1.09,1.09,0,0,1,.38.07A0.9,0.9,0,0,1,87.79,166.72Zm0.89-10.63a0.83,0.83,0,0,1-.24.6,0.93,0.93,0,0,1-.7.31,1.1,1.1,0,0,1-.74-0.31,22,22,0,0,0-2.71-2.28,0.86,0.86,0,0,1-.31-0.67,0.91,0.91,0,0,1,.22-0.58,1.1,1.1,0,0,1,.74-0.36,0.93,0.93,0,0,1,.55.17,21.9,21.9,0,0,1,2.9,2.42A1,1,0,0,1,88.68,156.09Zm1,8.42a0.73,0.73,0,0,1-.7-0.86,0.71,0.71,0,0,1,.7-0.82h10.54c1.25,0,1.85.55,1.85,1.37a2.56,2.56,0,0,1-.38,1.25,16.27,16.27,0,0,1-4,4.56,20.74,20.74,0,0,0,5.9,2.54,0.82,0.82,0,0,1,.72.84,1.85,1.85,0,0,1,0,.36,0.94,0.94,0,0,1-.94.77,1.86,1.86,0,0,1-.36,0,17.92,17.92,0,0,1-6.82-3.36A25.44,25.44,0,0,1,89,174.4a1.09,1.09,0,0,1-.38.07,0.86,0.86,0,0,1-.86-0.65,1.86,1.86,0,0,1,0-.36,0.83,0.83,0,0,1,.65-0.84,23.33,23.33,0,0,0,6.41-2.71,17,17,0,0,1-4-5.4h-1.1Zm4.27-8.78a16.11,16.11,0,0,1-3.84,5.69,1.22,1.22,0,0,1-.79.34,0.86,0.86,0,0,1-.6-0.26,0.94,0.94,0,0,1-.29-0.65,1,1,0,0,1,.36-0.74,13.94,13.94,0,0,0,4.13-7,0.78,0.78,0,0,1,.84-0.62,0.66,0.66,0,0,1,.22,0,0.75,0.75,0,0,1,.79.72,1,1,0,0,1,0,.26,4.75,4.75,0,0,1-.17.55h6c1.39,0,2.06.53,2.06,1.54v0.22a15.32,15.32,0,0,1-.7,3.89c-0.5,1.3-1.32,1.7-3,1.7a13.7,13.7,0,0,1-2.47-.17,0.89,0.89,0,0,1-.67-0.89,0.67,0.67,0,0,1,0-.22,0.8,0.8,0,0,1,.79-0.67,0.53,0.53,0,0,1,.19,0,11.22,11.22,0,0,0,2,.19c1,0,1.32-.24,1.51-0.82a10.73,10.73,0,0,0,.5-2.62v-0.1c0-.36-0.26-0.43-0.67-0.43H93.91Zm-1.34,8.78a14.3,14.3,0,0,0,3.62,4.42,13.71,13.71,0,0,0,3.5-3.84,0.82,0.82,0,0,0,.12-0.34c0-.17-0.12-0.24-0.38-0.24H92.57Z" style="fill:#fff"/><path d="M110.81,164.8a9.72,9.72,0,0,1,.19-2.11,23.06,23.06,0,0,1-3.58,3.19,1.26,1.26,0,0,1-.7.26,0.81,0.81,0,0,1-.7-0.41,1,1,0,0,1-.19-0.55,0.85,0.85,0,0,1,.43-0.72,21.15,21.15,0,0,0,6.86-7.56h-6.19a0.77,0.77,0,0,1-.67-0.89,0.73,0.73,0,0,1,.67-0.86H114a15.73,15.73,0,0,0,.82-2.4,0.76,0.76,0,0,1,.82-0.62,1.17,1.17,0,0,1,.29,0,0.72,0.72,0,0,1,.7.7,1.2,1.2,0,0,1,0,.29c-0.19.67-.43,1.34-0.7,2h11.52a0.74,0.74,0,0,1,.7.86,0.77,0.77,0,0,1-.7.89H115.06a31.73,31.73,0,0,1-1.63,2.74,9.88,9.88,0,0,1,2-.17h7.46c1.46,0,2.14.6,2.14,2V172c0,1.68-.86,2.3-2.9,2.3a11.49,11.49,0,0,1-2.59-.26,0.8,0.8,0,0,1-.67-0.82,1.08,1.08,0,0,1,0-.26,0.79,0.79,0,0,1,.74-0.67,0.48,0.48,0,0,1,.24,0,8.67,8.67,0,0,0,2,.29c1.13,0,1.37-.19,1.37-1v-2.47H112.66v4.68a0.8,0.8,0,0,1-.91.72,0.81,0.81,0,0,1-.94-0.72v-9Zm12.43-3a0.59,0.59,0,0,0-.72-0.65h-9.14a0.59,0.59,0,0,0-.72.65v1.73h10.58v-1.73Zm-10.58,5.74h10.58v-2.38H112.66v2.38Z" style="fill:#fff"/><path d="M135.33,165.76c-0.12.53-.24,1-0.38,1.51a18.75,18.75,0,0,1-3.31,6.65,1,1,0,0,1-.79.38,1.15,1.15,0,0,1-.62-0.22,0.89,0.89,0,0,1-.36-0.72,1,1,0,0,1,.24-0.62,15.37,15.37,0,0,0,3.1-5.9c0.12-.34.19-0.7,0.29-1.08h-2.3a0.73,0.73,0,0,1-.67-0.86,0.67,0.67,0,0,1,.67-0.79h2.62c0.19-1.25.34-2.52,0.41-3.79h-2.78a0.73,0.73,0,0,1-.7-0.84,0.69,0.69,0,0,1,.7-0.82h2.86c0-1.22.07-2.47,0.07-3.7H131a0.72,0.72,0,0,1-.67-0.84,0.73,0.73,0,0,1,.67-0.86h8.23c1.51,0,2.18.6,2.18,2.09a110.33,110.33,0,0,1-.86,16.23c-0.34,1.85-1.3,2.54-3.17,2.54a12.32,12.32,0,0,1-2.06-.17,0.85,0.85,0,0,1-.74-0.84,0.82,0.82,0,0,1,0-.24,0.73,0.73,0,0,1,.74-0.7,0.6,0.6,0,0,1,.19,0,7.91,7.91,0,0,0,1.66.17c1.15,0,1.44-.34,1.63-1.42a46.84,46.84,0,0,0,.55-5.18h-4.08Zm4.18-1.66c0-1,.07-2.06.1-3.1,0-.22,0-0.46,0-0.7H136c-0.07,1.27-.19,2.54-0.36,3.79h3.89Zm0.14-5.45c0-1,0-2,0-3,0-.53-0.24-0.65-0.74-0.65h-2.81c0,1.22,0,2.47,0,3.7h3.58Zm3.7-3.48c0-1.42.67-2,2.11-2h4.63a1.56,1.56,0,0,1,1.82,1.54,3,3,0,0,1-.19,1,27.55,27.55,0,0,1-2.83,5.23,0.92,0.92,0,0,0-.17.41,0.74,0.74,0,0,0,.29.5,8.9,8.9,0,0,1,2.93,5.9c0,2.59-1.3,3.53-3.62,3.53a10.5,10.5,0,0,1-1.8-.14,0.79,0.79,0,0,1-.67-0.84,1,1,0,0,1,0-.26,0.78,0.78,0,0,1,.77-0.7,0.65,0.65,0,0,1,.22,0,7.24,7.24,0,0,0,1.46.14c1,0,1.7-.31,1.7-1.9,0-1.9-1.1-3.5-2.66-5.06a1.5,1.5,0,0,1-.53-1.1,1.61,1.61,0,0,1,.31-0.91,25.72,25.72,0,0,0,2.59-4.94,1.18,1.18,0,0,0,.07-0.36c0-.24-0.17-0.34-0.53-0.34H146c-0.53,0-.79.14-0.79,0.67v18.15a0.93,0.93,0,0,1-1.82,0V155.18Z" style="fill:#fff"/><path d="M175.15,154a0.63,0.63,0,0,1,.6.74,0.64,0.64,0,0,1-.6.77H158.42c-0.82,0-1.08.29-1.08,0.94,0,3,0,7.37-.31,10.23a17.8,17.8,0,0,1-1.73,6.94,0.92,0.92,0,0,1-.82.58,1.07,1.07,0,0,1-.58-0.17,0.77,0.77,0,0,1-.48-0.72,1.19,1.19,0,0,1,.17-0.58,15.65,15.65,0,0,0,1.68-6.41c0.26-2.69.31-7.06,0.31-10.15a2,2,0,0,1,2.33-2.16h6.6v-1.27c0-.43.36-0.62,0.91-0.62s0.94,0.19.94,0.62V154h8.78ZM159.6,167.78a0.58,0.58,0,0,1-.31-0.53,0.76,0.76,0,0,1,.24-0.53,0.87,0.87,0,0,1,.65-0.31,0.86,0.86,0,0,1,.48.14c0.48,0.31,1,.7,1.61,1.13a14.94,14.94,0,0,0,2.3-2.66,0.73,0.73,0,0,1,.6-0.29,1.56,1.56,0,0,1,.62.14,0.77,0.77,0,0,1,.48.65,0.72,0.72,0,0,1-.12.36,18.9,18.9,0,0,1-2.66,2.74c0.58,0.48,1.18,1,1.73,1.46a36.31,36.31,0,0,0,3.65-3.84,0.82,0.82,0,0,1,.67-0.31,1.2,1.2,0,0,1,.6.17,0.91,0.91,0,0,1,.53.72,0.77,0.77,0,0,1-.22.48,43.23,43.23,0,0,1-5.35,4.92c2.16-.1,4.3-0.24,6.43-0.48-0.43-.55-0.84-1-1.18-1.39a0.79,0.79,0,0,1-.26-0.55,0.76,0.76,0,0,1,.41-0.62A0.74,0.74,0,0,1,171,169a1,1,0,0,1,.7.36,38.25,38.25,0,0,1,3.26,4.06,0.81,0.81,0,0,1,.12.41,0.89,0.89,0,0,1-.48.74,1.18,1.18,0,0,1-.6.19,0.8,0.8,0,0,1-.67-0.36c-0.24-.43-0.53-0.86-0.84-1.32a134,134,0,0,1-14.09,1.1h0a0.79,0.79,0,0,1-.82-0.89,0.73,0.73,0,0,1,.79-0.86c1.39,0,2.83,0,4.27-.07,0.48-.38,1-0.79,1.44-1.2A44.11,44.11,0,0,0,159.6,167.78ZM158.5,159a0.57,0.57,0,0,1-.55-0.67,0.55,0.55,0,0,1,.55-0.65h3.07v-1.25a0.58,0.58,0,0,1,.72-0.58c0.46,0,.74.14,0.74,0.58v1.25h2.45a0.54,0.54,0,0,1,.55.65,0.56,0.56,0,0,1-.55.67H163v5.5a0.61,0.61,0,0,1-.74.6,0.59,0.59,0,0,1-.72-0.58V159H158.5Zm2,1.32a8.24,8.24,0,0,1-1.1,4.44,0.67,0.67,0,0,1-.53.26,1.08,1.08,0,0,1-.46-0.12,0.69,0.69,0,0,1-.31-0.53,0.48,0.48,0,0,1,.1-0.31,6.66,6.66,0,0,0,.94-3.74A0.71,0.71,0,0,1,160.46,160.31Zm5,3.46c0,0.36-.29.48-0.67,0.48a0.51,0.51,0,0,1-.62-0.48v-3.38a0.51,0.51,0,0,1,.62-0.48c0.38,0,.67.12,0.67,0.48v3.38Zm3-3.38a7.38,7.38,0,0,1-1,4,0.58,0.58,0,0,1-.53.26,1,1,0,0,1-.43-0.12,0.59,0.59,0,0,1-.29-0.5,0.55,0.55,0,0,1,.1-0.34,5.57,5.57,0,0,0,.79-3.12v-0.17a0.56,0.56,0,0,1,.7-0.53A0.54,0.54,0,0,1,168.55,160.38ZM166.94,159a0.57,0.57,0,0,1-.55-0.67,0.55,0.55,0,0,1,.55-0.65h2.64v-1.25a0.58,0.58,0,0,1,.72-0.58c0.46,0,.74.14,0.74,0.58v1.25h3.67a0.53,0.53,0,0,1,.53.65,0.55,0.55,0,0,1-.53.67H171v5.4a0.62,0.62,0,0,1-.77.58,0.57,0.57,0,0,1-.7-0.58V159h-2.64Zm5.35,1.34a0.55,0.55,0,0,1,.67-0.5,0.54,0.54,0,0,1,.65.5v2.78c0,0.26,0,.31.48,0.31s0.41,0,.48-0.17a3,3,0,0,0,.1-0.89,0.46,0.46,0,0,1,.55-0.41,0.54,0.54,0,0,1,.65.43,3.61,3.61,0,0,1-.34,1.8,1.77,1.77,0,0,1-1.58.46c-1.18,0-1.66-.22-1.66-1.13v-3.19Z" style="fill:#fff"/><path d="M185.23,157c1.22,0,1.92.43,1.92,1.66a1.82,1.82,0,0,1,0,.36,24.2,24.2,0,0,1-2.64,9c0.86,0.77,1.68,1.56,2.42,2.35a0.89,0.89,0,0,1,.24.62,1.07,1.07,0,0,1-1,1,0.79,0.79,0,0,1-.62-0.34,23.39,23.39,0,0,0-2-2.11,17.08,17.08,0,0,1-4.13,4.27,1,1,0,0,1-.58.22,0.88,0.88,0,0,1-.72-0.41,0.91,0.91,0,0,1-.19-0.55,0.86,0.86,0,0,1,.36-0.72,14.45,14.45,0,0,0,4-3.94c-0.91-.79-1.87-1.54-2.78-2.21a1.5,1.5,0,0,1-.74-1.3,2.39,2.39,0,0,1,.22-0.94,36.58,36.58,0,0,0,1.82-5.35h-2a0.71,0.71,0,0,1-.7-0.84,0.71,0.71,0,0,1,.7-0.82h2.4c0.26-1.27.48-2.57,0.62-3.86a0.7,0.7,0,0,1,.84-0.7h0.17a0.77,0.77,0,0,1,.84.74v0.14q-0.25,1.87-.65,3.67h2.26Zm-2.66,1.66a42.56,42.56,0,0,1-1.82,5.59,1.28,1.28,0,0,0-.12.46,0.64,0.64,0,0,0,.36.53c0.72,0.5,1.46,1.08,2.18,1.68a20.73,20.73,0,0,0,2.16-7.61v-0.14c0-.38-0.19-0.5-0.62-0.5h-2.14Zm12,13.34c0,1.61-1,2.28-2.81,2.28a12.76,12.76,0,0,1-2.5-.24,0.88,0.88,0,0,1-.67-0.86,0.8,0.8,0,0,1,0-.24,0.82,0.82,0,0,1,.82-0.74,0.67,0.67,0,0,1,.22,0,11,11,0,0,0,2,.24c0.82,0,1.1-.22,1.1-0.91v-7.18H188a0.89,0.89,0,0,1,0-1.73h4.7v-3a0.76,0.76,0,0,1,.91-0.77,1.28,1.28,0,0,1,.31,0A12,12,0,0,0,197,156a0.72,0.72,0,0,0,.14-0.34c0-.17-0.14-0.24-0.41-0.24h-8a0.78,0.78,0,0,1-.74-0.89,0.76,0.76,0,0,1,.74-0.86h8.9a1.51,1.51,0,0,1,1.75,1.44,2,2,0,0,1-.34,1.06,17.54,17.54,0,0,1-4.54,4.34v2.18h5.26a0.89,0.89,0,0,1,0,1.73h-5.26V172Z" style="fill:#fff"/><path d="M86.14,81.79c-1.2,0-1.89-1-1.89-2.39s0.69-2.46,1.89-2.46h18.33V59.55c0-1.26,1-2.08,2.58-2.08s2.65,0.82,2.65,2.08V76.94h19.72c1.2,0,2,1.07,2,2.46s-0.76,2.39-2,2.39H109.7V107h24.82c1.2,0,1.89,1.07,1.89,2.46s-0.69,2.46-1.89,2.46H80.78c-1.26,0-2-1.07-2-2.46s0.69-2.46,2-2.46h23.69V81.79H86.14Z" style="fill:#fff"/><path d="M158.84,73.6c1.13,0,1.7.88,1.7,2.14S160,78,158.84,78h-5.29v20c1.7-.76,3.34-1.58,4.79-2.39a2.61,2.61,0,0,1,1.26-.38,1.64,1.64,0,0,1,1.58,1.2,3.37,3.37,0,0,1,.31,1.26,2,2,0,0,1-1.26,1.83,98,98,0,0,1-15.88,7.25,3.14,3.14,0,0,1-1,.19,2.11,2.11,0,0,1-2-1.64,3.2,3.2,0,0,1-.19-1.07,2,2,0,0,1,1.45-2c2-.63,4.16-1.45,6.3-2.27V78h-5.8c-1.13,0-1.7-.94-1.7-2.21s0.57-2.14,1.7-2.14h5.8V59c0-1.13.88-1.76,2.33-1.76s2.33,0.63,2.33,1.76V73.6h5.29Zm11.21,7.62v24.19c0,2.27.38,2.9,3,3.21a83.51,83.51,0,0,0,8.57.31,62.08,62.08,0,0,0,9.07-.5c2-.38,2.9-1,3.4-2.08a18.75,18.75,0,0,0,.88-5.67,2.08,2.08,0,0,1,2.39-2.08h0.19a2.07,2.07,0,0,1,2.21,2.27V101a24.4,24.4,0,0,1-1.45,7.94c-1,2.14-2.58,3.47-6.87,4a70.64,70.64,0,0,1-10,.57,78,78,0,0,1-10-.5c-5-.69-6-2.65-6-6.68V82.8l-4.85,1.64a1.75,1.75,0,0,1-.57.06,1.89,1.89,0,0,1-1.7-1.76,2.56,2.56,0,0,1-.06-0.69,1.77,1.77,0,0,1,1.2-1.89l6-2V64.78c0-1.13.95-1.76,2.33-1.76s2.33,0.63,2.33,1.76V76.56l8.57-2.83V58.67c0-1.13.88-1.76,2.27-1.76s2.39,0.63,2.39,1.76V72.15L191,69.57a8,8,0,0,1,2.58-.44c2.65,0,4.47,1.76,4.47,4.73a115.31,115.31,0,0,1-1.13,16.95c-0.69,3.72-2.65,5.29-6.24,5.29a16.5,16.5,0,0,1-4.22-.5,1.83,1.83,0,0,1-1.45-2,2.82,2.82,0,0,1,.06-0.69,1.79,1.79,0,0,1,1.76-1.58,1.74,1.74,0,0,1,.57.06,12.22,12.22,0,0,0,2.71.38c1.51,0,2.14-.63,2.46-2.39a93.2,93.2,0,0,0,.88-13.55c0-1.32-.31-1.89-1.2-1.89a5.09,5.09,0,0,0-1.2.19l-7.75,2.58V99.62c0,1.2-.95,1.83-2.39,1.83s-2.27-.63-2.27-1.83V78.33Z" style="fill:#fff"/></g><g id="alpha"><rect width="1280" height="800" style="fill:none"/></g></svg>