<svg id="scene06" xmlns="http://www.w3.org/2000/svg" xmlns:xlink="http://www.w3.org/1999/xlink" viewBox="0 0 1280 800"><defs><linearGradient id="linear-gradient" x1="727.05" y1="927.42" x2="980.29" y2="674.19" gradientTransform="matrix(0, -1, -1, 0, 1523.87, 1512.6)" gradientUnits="userSpaceOnUse"><stop offset="0" stop-color="#d5d5d5"/><stop offset="1" stop-color="#d2d2d2"/></linearGradient><linearGradient id="linear-gradient-2" x1="1274.93" y1="500.65" x2="1691.29" y2="84.3" gradientTransform="matrix(0, -1, -1, 0, 1523.87, 1512.6)" gradientUnits="userSpaceOnUse"><stop offset="0" stop-color="#9a9899"/><stop offset="1" stop-color="#929393"/></linearGradient><linearGradient id="linear-gradient-3" x1="-28.75" y1="1877.73" x2="2927.62" y2="-1078.64" gradientTransform="matrix(0, -1, -1, 0, 1523.87, 1512.6)" gradientUnits="userSpaceOnUse"><stop offset="0" stop-color="#969596"/><stop offset="1" stop-color="#929292"/></linearGradient><linearGradient id="linear-gradient-4" x1="1279.25" y1="761.4" x2="1337.28" y2="703.36" gradientTransform="matrix(0, -1, -1, 0, 1523.87, 1512.6)" gradientUnits="userSpaceOnUse"><stop offset="0" stop-color="#a4a5a4"/><stop offset="1" stop-color="#9d9d9d"/></linearGradient><linearGradient id="linear-gradient-5" x1="1250.19" y1="800.34" x2="1452.37" y2="598.15" gradientTransform="matrix(0, -1, -1, 0, 1523.87, 1512.6)" gradientUnits="userSpaceOnUse"><stop offset="0" stop-color="#989898"/><stop offset="1" stop-color="#9a999a"/></linearGradient><linearGradient id="linear-gradient-6" x1="1033.28" y1="908.65" x2="1619.4" y2="322.53" gradientTransform="matrix(0, -1, -1, 0, 1523.87, 1512.6)" gradientUnits="userSpaceOnUse"><stop offset="0" stop-color="#9a999a"/><stop offset="1" stop-color="#9a999a"/></linearGradient><linearGradient id="linear-gradient-7" x1="872.76" y1="969.6" x2="979.81" y2="862.55" gradientTransform="matrix(0, -1, -1, 0, 1523.87, 1512.6)" gradientUnits="userSpaceOnUse"><stop offset="0" stop-color="#d2d3d4"/><stop offset="1" stop-color="#cececf"/></linearGradient><linearGradient id="linear-gradient-8" x1="897.2" y1="1193.94" x2="1175.65" y2="915.49" gradientTransform="matrix(0, -1, -1, 0, 1523.87, 1512.6)" gradientUnits="userSpaceOnUse"><stop offset="0" stop-color="#c4c4c3"/><stop offset="1" stop-color="#c4c4c3"/></linearGradient><linearGradient id="linear-gradient-9" x1="1185.6" y1="1427.68" x2="1304.19" y2="1309.09" gradientTransform="matrix(0, -1, -1, 0, 1523.87, 1512.6)" gradientUnits="userSpaceOnUse"><stop offset="0" stop-color="#a1a1a1"/><stop offset="1" stop-color="#9b9b9b"/></linearGradient><linearGradient id="linear-gradient-10" x1="839.89" y1="617.49" x2="1158.26" y2="299.13" gradientTransform="matrix(0, -1, -1, 0, 1523.87, 1512.6)" gradientUnits="userSpaceOnUse"><stop offset="0" stop-color="#d5d5d5"/><stop offset="1" stop-color="#cbcccc"/></linearGradient><linearGradient id="linear-gradient-11" x1="1077.96" y1="634.61" x2="1165.67" y2="546.91" gradientTransform="matrix(0, -1, -1, 0, 1523.87, 1512.6)" gradientUnits="userSpaceOnUse"><stop offset="0" stop-color="#b0b1b0"/><stop offset="1" stop-color="#b4b5b5"/></linearGradient><linearGradient id="linear-gradient-12" x1="1099.78" y1="1153.73" x2="1506.12" y2="747.38" gradientTransform="matrix(0, -1, -1, 0, 1523.87, 1512.6)" gradientUnits="userSpaceOnUse"><stop offset="0" stop-color="#9a999a"/><stop offset="1" stop-color="#969596"/></linearGradient><linearGradient id="linear-gradient-13" x1="816.03" y1="435.97" x2="865.37" y2="386.64" gradientTransform="matrix(0, -1, -1, 0, 1523.87, 1512.6)" gradientUnits="userSpaceOnUse"><stop offset="0" stop-color="#e0dfde"/><stop offset="1" stop-color="#e1e0e0"/></linearGradient><linearGradient id="linear-gradient-14" x1="643.14" y1="523.38" x2="919.1" y2="247.43" gradientTransform="matrix(0, -1, -1, 0, 1523.87, 1512.6)" gradientUnits="userSpaceOnUse"><stop offset="0" stop-color="#e3e3e2"/><stop offset="1" stop-color="#e0dfde"/></linearGradient><linearGradient id="linear-gradient-15" x1="811.58" y1="413.85" x2="899.78" y2="325.65" gradientTransform="matrix(0, -1, -1, 0, 1523.87, 1512.6)" gradientUnits="userSpaceOnUse"><stop offset="0" stop-color="#dedede"/><stop offset="1" stop-color="#dcdcdd"/></linearGradient><linearGradient id="linear-gradient-16" x1="739.52" y1="354.14" x2="797.46" y2="296.21" gradientTransform="matrix(0, -1, -1, 0, 1523.87, 1512.6)" gradientUnits="userSpaceOnUse"><stop offset="0" stop-color="#eae9e9"/><stop offset="1" stop-color="#eae9e9"/></linearGradient><linearGradient id="linear-gradient-17" x1="744.56" y1="349.11" x2="877.69" y2="215.98" gradientTransform="matrix(0, -1, -1, 0, 1523.87, 1512.6)" gradientUnits="userSpaceOnUse"><stop offset="0" stop-color="#e5e5e3"/><stop offset="1" stop-color="#e5e5e3"/></linearGradient><linearGradient id="linear-gradient-18" x1="626.16" y1="1548.07" x2="902.37" y2="1271.86" gradientTransform="matrix(0, -1, -1, 0, 1523.87, 1512.6)" gradientUnits="userSpaceOnUse"><stop offset="0" stop-color="#e4e4e3"/><stop offset="1" stop-color="#e2e1e1"/></linearGradient><linearGradient id="linear-gradient-19" x1="683.73" y1="1406.72" x2="813.58" y2="1276.88" gradientTransform="matrix(0, -1, -1, 0, 1523.87, 1512.6)" gradientUnits="userSpaceOnUse"><stop offset="0" stop-color="#e5e5e3"/><stop offset="1" stop-color="#e4e4e3"/></linearGradient><linearGradient id="linear-gradient-20" x1="699.64" y1="1524.94" x2="724.77" y2="1499.81" xlink:href="#linear-gradient-17"/><linearGradient id="linear-gradient-21" x1="860.37" y1="1292.68" x2="1119.53" y2="1033.53" gradientTransform="matrix(0, -1, -1, 0, 1523.87, 1512.6)" gradientUnits="userSpaceOnUse"><stop offset="0" stop-color="#c1c0c0"/><stop offset="1" stop-color="#bbb"/></linearGradient><linearGradient id="linear-gradient-22" x1="1115.42" y1="1339.51" x2="1223.86" y2="1231.07" gradientTransform="matrix(0, -1, -1, 0, 1523.87, 1512.6)" gradientUnits="userSpaceOnUse"><stop offset="0" stop-color="#aaa9a9"/><stop offset="1" stop-color="#adadac"/></linearGradient><linearGradient id="linear-gradient-23" x1="1440.39" y1="1532.87" x2="1468.19" y2="1505.08" gradientTransform="matrix(0, -1, -1, 0, 1523.87, 1512.6)" gradientUnits="userSpaceOnUse"><stop offset="0" stop-color="#888989"/><stop offset="1" stop-color="#888989"/></linearGradient><linearGradient id="linear-gradient-24" x1="822.22" y1="833.53" x2="1130.5" y2="525.24" gradientTransform="matrix(0, -1, -1, 0, 1523.87, 1512.6)" gradientUnits="userSpaceOnUse"><stop offset="0" stop-color="#cbcdcd"/><stop offset="1" stop-color="#c2c2c2"/></linearGradient><linearGradient id="linear-gradient-25" x1="883.67" y1="766.42" x2="942.9" y2="707.19" gradientTransform="matrix(0, -1, -1, 0, 1523.87, 1512.6)" gradientUnits="userSpaceOnUse"><stop offset="0" stop-color="#d2d2d2"/><stop offset="1" stop-color="#d0d1d0"/></linearGradient><linearGradient id="linear-gradient-26" x1="921.89" y1="777.37" x2="1022.35" y2="676.9" gradientTransform="matrix(0, -1, -1, 0, 1523.87, 1512.6)" gradientUnits="userSpaceOnUse"><stop offset="0" stop-color="#cfcfcf"/><stop offset="1" stop-color="#c8c8c8"/></linearGradient><linearGradient id="linear-gradient-27" x1="880.39" y1="960.05" x2="992.55" y2="847.9" gradientTransform="matrix(0, -1, -1, 0, 1523.87, 1512.6)" gradientUnits="userSpaceOnUse"><stop offset="0" stop-color="#cfcfcf"/><stop offset="1" stop-color="#cccdcd"/></linearGradient><linearGradient id="linear-gradient-28" x1="893.57" y1="966.17" x2="1017.48" y2="842.26" gradientTransform="matrix(0, -1, -1, 0, 1523.87, 1512.6)" gradientUnits="userSpaceOnUse"><stop offset="0" stop-color="#c8c9c9"/><stop offset="1" stop-color="#c6c7c7"/></linearGradient><linearGradient id="linear-gradient-29" x1="963.21" y1="896.53" x2="1091.27" y2="768.47" gradientTransform="matrix(0, -1, -1, 0, 1523.87, 1512.6)" gradientUnits="userSpaceOnUse"><stop offset="0" stop-color="#c0c1c1"/><stop offset="1" stop-color="#c7c7c6"/></linearGradient><linearGradient id="linear-gradient-30" x1="1483.1" y1="299.15" x2="1536.61" y2="245.65" gradientTransform="matrix(0, -1, -1, 0, 1523.87, 1512.6)" gradientUnits="userSpaceOnUse"><stop offset="0" stop-color="#898a8a"/><stop offset="1" stop-color="#888989"/></linearGradient><linearGradient id="linear-gradient-31" x1="605.35" y1="444.15" x2="1059.53" y2="-10.03" gradientTransform="matrix(0, -1, -1, 0, 1523.87, 1512.6)" gradientUnits="userSpaceOnUse"><stop offset="0" stop-color="#e3e3e3"/><stop offset="1" stop-color="#ababaa"/></linearGradient><linearGradient id="linear-gradient-32" x1="1350.44" y1="342.93" x2="1478.13" y2="215.25" gradientTransform="matrix(0, -1, -1, 0, 1523.87, 1512.6)" gradientUnits="userSpaceOnUse"><stop offset="0" stop-color="#989898"/><stop offset="1" stop-color="#777778"/></linearGradient><linearGradient id="linear-gradient-33" x1="1467.23" y1="261.5" x2="1504.87" y2="223.86" gradientTransform="matrix(0, -1, -1, 0, 1523.87, 1512.6)" gradientUnits="userSpaceOnUse"><stop offset="0" stop-color="#8b8c8c"/><stop offset="1" stop-color="#737575"/></linearGradient><linearGradient id="linear-gradient-34" x1="593.72" y1="590.75" x2="1351.41" y2="-166.94" gradientTransform="matrix(0, -1, -1, 0, 1523.87, 1512.6)" gradientUnits="userSpaceOnUse"><stop offset="0" stop-color="#dcdcdb"/><stop offset="1" stop-color="#a4a4a4"/></linearGradient><linearGradient id="linear-gradient-35" x1="1063.37" y1="609.76" x2="1254.18" y2="418.95" gradientTransform="matrix(0, -1, -1, 0, 1523.87, 1512.6)" gradientUnits="userSpaceOnUse"><stop offset="0" stop-color="#bdbcbd"/><stop offset="1" stop-color="#b3b3b4"/></linearGradient><linearGradient id="linear-gradient-36" x1="1012.98" y1="527.84" x2="1369.88" y2="170.93" gradientTransform="matrix(0, -1, -1, 0, 1523.87, 1512.6)" gradientUnits="userSpaceOnUse"><stop offset="0" stop-color="#a1a1a1"/><stop offset="1" stop-color="#8b8c8b"/></linearGradient><linearGradient id="linear-gradient-37" x1="723.35" y1="609.71" x2="1341.45" y2="-8.39" gradientTransform="matrix(0, -1, -1, 0, 1523.87, 1512.6)" gradientUnits="userSpaceOnUse"><stop offset="0" stop-color="#cbcdcd"/><stop offset="1" stop-color="#929393"/></linearGradient><linearGradient id="linear-gradient-38" x1="1283.63" y1="769.71" x2="1536.39" y2="516.96" gradientTransform="matrix(0, -1, -1, 0, 1523.87, 1512.6)" gradientUnits="userSpaceOnUse"><stop offset="0" stop-color="#939494"/><stop offset="1" stop-color="#8f9090"/></linearGradient><linearGradient id="linear-gradient-39" x1="1253.66" y1="711.7" x2="1593.68" y2="371.68" gradientTransform="matrix(0, -1, -1, 0, 1523.87, 1512.6)" gradientUnits="userSpaceOnUse"><stop offset="0" stop-color="#919191"/><stop offset="1" stop-color="#8b8c8b"/></linearGradient><linearGradient id="linear-gradient-40" x1="1426.85" y1="508.63" x2="1578.87" y2="356.61" xlink:href="#linear-gradient-30"/><linearGradient id="linear-gradient-41" x1="1331.83" y1="1581.83" x2="1512.67" y2="1400.99" xlink:href="#linear-gradient-23"/><linearGradient id="linear-gradient-42" x1="1440.02" y1="1367.13" x2="1516.37" y2="1290.78" xlink:href="#linear-gradient-23"/><linearGradient id="linear-gradient-43" x1="1434.73" y1="1377.65" x2="1534.8" y2="1277.58" xlink:href="#linear-gradient-23"/><linearGradient id="linear-gradient-44" x1="1318.16" y1="1471.35" x2="1510.7" y2="1278.81" gradientTransform="matrix(0, -1, -1, 0, 1523.87, 1512.6)" gradientUnits="userSpaceOnUse"><stop offset="0" stop-color="#8c8d8d"/><stop offset="1" stop-color="#898a8a"/></linearGradient><linearGradient id="linear-gradient-45" x1="1351.28" y1="1529.5" x2="1571.75" y2="1309.03" xlink:href="#linear-gradient-23"/><linearGradient id="linear-gradient-46" x1="1315.97" y1="1491.18" x2="1538.55" y2="1268.61" xlink:href="#linear-gradient-23"/><linearGradient id="linear-gradient-47" x1="1365.74" y1="1410.08" x2="1620.31" y2="1155.51" xlink:href="#linear-gradient-23"/><linearGradient id="linear-gradient-48" x1="1129.75" y1="1242.52" x2="1362.61" y2="1009.67" gradientTransform="matrix(0, -1, -1, 0, 1523.87, 1512.6)" gradientUnits="userSpaceOnUse"><stop offset="0" stop-color="#a2a3a3"/><stop offset="1" stop-color="#a1a1a1"/></linearGradient><linearGradient id="linear-gradient-49" x1="1252.67" y1="1323.1" x2="1368.78" y2="1206.99" gradientTransform="matrix(0, -1, -1, 0, 1523.87, 1512.6)" gradientUnits="userSpaceOnUse"><stop offset="0" stop-color="#9f9f9f"/><stop offset="1" stop-color="#979797"/></linearGradient><linearGradient id="linear-gradient-50" x1="1248.21" y1="1086.56" x2="1297.24" y2="1037.53" gradientTransform="matrix(0, -1, -1, 0, 1523.87, 1512.6)" gradientUnits="userSpaceOnUse"><stop offset="0" stop-color="#a2a1a1"/><stop offset="1" stop-color="#9d9f9f"/></linearGradient><linearGradient id="linear-gradient-51" x1="1468.98" y1="1538.97" x2="1529.08" y2="1478.88" xlink:href="#linear-gradient-23"/><linearGradient id="linear-gradient-52" x1="1427.34" y1="1549.03" x2="1546.77" y2="1429.6" xlink:href="#linear-gradient-23"/><linearGradient id="linear-gradient-53" x1="1372.76" y1="1557.35" x2="1421.23" y2="1508.87" gradientTransform="matrix(0, -1, -1, 0, 1523.87, 1512.6)" gradientUnits="userSpaceOnUse"><stop offset="0" stop-color="#a1a0a0"/><stop offset="1" stop-color="#8b8c8b"/></linearGradient><linearGradient id="linear-gradient-54" x1="1429.38" y1="1521.86" x2="1433.26" y2="1517.98" xlink:href="#linear-gradient-23"/><linearGradient id="linear-gradient-55" x1="1490.24" y1="1522.45" x2="1521.17" y2="1491.53" xlink:href="#linear-gradient-23"/><linearGradient id="linear-gradient-56" x1="1466.59" y1="1452.84" x2="1552.89" y2="1366.54" xlink:href="#linear-gradient-23"/><linearGradient id="linear-gradient-57" x1="1463.38" y1="1386.72" x2="1555.6" y2="1294.51" xlink:href="#linear-gradient-23"/><linearGradient id="linear-gradient-58" x1="1438.38" y1="1475.27" x2="1537.38" y2="1376.27" xlink:href="#linear-gradient-23"/><linearGradient id="linear-gradient-59" x1="1456.71" y1="1425.55" x2="1544.24" y2="1338.01" xlink:href="#linear-gradient-23"/><linearGradient id="linear-gradient-60" x1="1322.56" y1="1643.51" x2="1629.2" y2="1336.87" xlink:href="#linear-gradient-23"/><linearGradient id="linear-gradient-61" x1="1496.31" y1="1466.7" x2="1511.89" y2="1451.12" xlink:href="#linear-gradient-23"/><linearGradient id="linear-gradient-62" x1="1422.9" y1="1485.27" x2="1547.21" y2="1360.97" xlink:href="#linear-gradient-23"/><linearGradient id="linear-gradient-63" x1="1078.3" y1="1634.89" x2="1494.69" y2="1218.5" gradientTransform="matrix(0, -1, -1, 0, 1523.87, 1512.6)" gradientUnits="userSpaceOnUse"><stop offset="0" stop-color="#aaa9a9"/><stop offset="1" stop-color="#9d9d9d"/></linearGradient><linearGradient id="linear-gradient-64" x1="1108.23" y1="1720.43" x2="1449.78" y2="1378.88" gradientTransform="matrix(0, -1, -1, 0, 1523.87, 1512.6)" gradientUnits="userSpaceOnUse"><stop offset="0" stop-color="#a4a4a4"/><stop offset="1" stop-color="#8f9090"/></linearGradient><linearGradient id="linear-gradient-65" x1="1205.65" y1="1507.54" x2="1344.02" y2="1369.17" gradientTransform="matrix(0, -1, -1, 0, 1523.87, 1512.6)" gradientUnits="userSpaceOnUse"><stop offset="0" stop-color="#9d9f9f"/><stop offset="1" stop-color="#919191"/></linearGradient><linearGradient id="linear-gradient-66" x1="1356.24" y1="1433.27" x2="1392.8" y2="1396.71" gradientTransform="matrix(0, -1, -1, 0, 1523.87, 1512.6)" gradientUnits="userSpaceOnUse"><stop offset="0" stop-color="#8f908f"/><stop offset="1" stop-color="#8c8d8d"/></linearGradient><linearGradient id="linear-gradient-67" x1="1386.15" y1="1488.39" x2="1427.47" y2="1447.07" gradientTransform="matrix(0, -1, -1, 0, 1523.87, 1512.6)" gradientUnits="userSpaceOnUse"><stop offset="0" stop-color="#8b8c8b"/><stop offset="1" stop-color="#8b8c8b"/></linearGradient><linearGradient id="linear-gradient-68" x1="1336.08" y1="1177.92" x2="1382.53" y2="1131.47" gradientTransform="matrix(0, -1, -1, 0, 1523.87, 1512.6)" gradientUnits="userSpaceOnUse"><stop offset="0" stop-color="#989898"/><stop offset="1" stop-color="#929393"/></linearGradient><linearGradient id="linear-gradient-69" x1="1275.33" y1="1300.44" x2="1464.66" y2="1111.1" gradientTransform="matrix(0, -1, -1, 0, 1523.87, 1512.6)" gradientUnits="userSpaceOnUse"><stop offset="0" stop-color="#969696"/><stop offset="1" stop-color="#8d8e8e"/></linearGradient><linearGradient id="linear-gradient-70" x1="1340.4" y1="1150.98" x2="1471.94" y2="1019.44" gradientTransform="matrix(0, -1, -1, 0, 1523.87, 1512.6)" gradientUnits="userSpaceOnUse"><stop offset="0" stop-color="#969696"/><stop offset="1" stop-color="#8f908f"/></linearGradient><linearGradient id="linear-gradient-71" x1="1062.79" y1="1672.26" x2="1647.67" y2="1087.39" gradientTransform="matrix(0, -1, -1, 0, 1523.87, 1512.6)" gradientUnits="userSpaceOnUse"><stop offset="0" stop-color="#8b8c8c"/><stop offset="1" stop-color="#888989"/></linearGradient><linearGradient id="linear-gradient-72" x1="1405.51" y1="1334.78" x2="1509.41" y2="1230.88" xlink:href="#linear-gradient-23"/><linearGradient id="linear-gradient-73" x1="1397.97" y1="1330.52" x2="1619.29" y2="1109.2" xlink:href="#linear-gradient-23"/><linearGradient id="linear-gradient-74" x1="1255.17" y1="1409.55" x2="1736.25" y2="928.47" xlink:href="#linear-gradient-23"/><linearGradient id="linear-gradient-75" x1="1371.21" y1="1120.18" x2="1552.8" y2="938.59" gradientTransform="matrix(0, -1, -1, 0, 1523.87, 1512.6)" gradientUnits="userSpaceOnUse"><stop offset="0" stop-color="#8d8e8e"/><stop offset="1" stop-color="#888989"/></linearGradient><linearGradient id="linear-gradient-76" x1="1248.73" y1="1346.36" x2="1649.46" y2="945.63" xlink:href="#linear-gradient-23"/><linearGradient id="linear-gradient-77" x1="1363.98" y1="911.4" x2="1494.82" y2="780.57" gradientTransform="matrix(0, -1, -1, 0, 1523.87, 1512.6)" gradientUnits="userSpaceOnUse"><stop offset="0" stop-color="#929393"/><stop offset="1" stop-color="#8d8e8e"/></linearGradient><linearGradient id="linear-gradient-78" x1="1310.49" y1="961.5" x2="1562.3" y2="709.69" gradientTransform="matrix(0, -1, -1, 0, 1523.87, 1512.6)" gradientUnits="userSpaceOnUse"><stop offset="0" stop-color="#8f9090"/><stop offset="1" stop-color="#888989"/></linearGradient><linearGradient id="linear-gradient-79" x1="1379.07" y1="1004.25" x2="1514.59" y2="868.73" xlink:href="#linear-gradient-75"/><linearGradient id="linear-gradient-80" x1="800.81" y1="777.7" x2="923.16" y2="655.36" gradientTransform="matrix(0, -1, -1, 0, 1523.87, 1512.6)" gradientUnits="userSpaceOnUse"><stop offset="0" stop-color="#d7d7d8"/><stop offset="1" stop-color="#dadada"/></linearGradient><linearGradient id="linear-gradient-81" x1="733.58" y1="723.8" x2="938.27" y2="519.11" gradientTransform="matrix(0, -1, -1, 0, 1523.87, 1512.6)" gradientUnits="userSpaceOnUse"><stop offset="0" stop-color="#dadada"/><stop offset="1" stop-color="#dadada"/></linearGradient><linearGradient id="linear-gradient-82" x1="588.8" y1="969.79" x2="959.83" y2="598.75" gradientTransform="matrix(0, -1, -1, 0, 1523.87, 1512.6)" gradientUnits="userSpaceOnUse"><stop offset="0" stop-color="#eae9e9"/><stop offset="1" stop-color="#e5e5e3"/></linearGradient><linearGradient id="linear-gradient-83" x1="715.17" y1="565.86" x2="838.24" y2="442.79" gradientTransform="matrix(0, -1, -1, 0, 1523.87, 1512.6)" gradientUnits="userSpaceOnUse"><stop offset="0" stop-color="#e8e8e8"/><stop offset="1" stop-color="#e4e5e4"/></linearGradient><linearGradient id="linear-gradient-84" x1="729.08" y1="579.47" x2="946.55" y2="362.01" xlink:href="#linear-gradient-14"/><linearGradient id="linear-gradient-85" x1="661.95" y1="940.56" x2="762.16" y2="840.35" gradientTransform="matrix(0, -1, -1, 0, 1523.87, 1512.6)" gradientUnits="userSpaceOnUse"><stop offset="0" stop-color="#ebeae9"/><stop offset="1" stop-color="#e9e9e8"/></linearGradient><linearGradient id="linear-gradient-86" x1="740.52" y1="1071.43" x2="812.01" y2="999.93" gradientTransform="matrix(0, -1, -1, 0, 1523.87, 1512.6)" gradientUnits="userSpaceOnUse"><stop offset="0" stop-color="#e5e5e3"/><stop offset="1" stop-color="#e3e4e3"/></linearGradient><linearGradient id="linear-gradient-87" x1="671.92" y1="1235.26" x2="841.57" y2="1065.61" gradientTransform="matrix(0, -1, -1, 0, 1523.87, 1512.6)" gradientUnits="userSpaceOnUse"><stop offset="0" stop-color="#e1e0e0"/><stop offset="1" stop-color="#e3e3e2"/></linearGradient><linearGradient id="linear-gradient-88" x1="663.31" y1="1291.03" x2="787.37" y2="1166.97" gradientTransform="matrix(0, -1, -1, 0, 1523.87, 1512.6)" gradientUnits="userSpaceOnUse"><stop offset="0" stop-color="#e8e8e8"/><stop offset="1" stop-color="#e7e6e5"/></linearGradient><linearGradient id="linear-gradient-89" x1="828.97" y1="584.9" x2="1050.44" y2="363.43" gradientTransform="matrix(0, -1, -1, 0, 1523.87, 1512.6)" gradientUnits="userSpaceOnUse"><stop offset="0" stop-color="#d2d3d4"/><stop offset="1" stop-color="#c7c8c8"/></linearGradient><linearGradient id="linear-gradient-90" x1="989.23" y1="438.47" x2="1204.3" y2="223.41" gradientTransform="matrix(0, -1, -1, 0, 1523.87, 1512.6)" gradientUnits="userSpaceOnUse"><stop offset="0" stop-color="#c2c1c1"/><stop offset="1" stop-color="#c0c1c1"/></linearGradient><linearGradient id="linear-gradient-91" x1="829.27" y1="410" x2="1023.16" y2="216.11" gradientTransform="matrix(0, -1, -1, 0, 1523.87, 1512.6)" gradientUnits="userSpaceOnUse"><stop offset="0" stop-color="#dadada"/><stop offset="1" stop-color="#d2d4d3"/></linearGradient><linearGradient id="linear-gradient-92" x1="926.55" y1="352.47" x2="1091.22" y2="187.8" gradientTransform="matrix(0, -1, -1, 0, 1523.87, 1512.6)" gradientUnits="userSpaceOnUse"><stop offset="0" stop-color="#d5d5d5"/><stop offset="1" stop-color="#c5c4c4"/></linearGradient><linearGradient id="linear-gradient-93" x1="684.08" y1="333.36" x2="816.69" y2="200.75" gradientTransform="matrix(0, -1, -1, 0, 1523.87, 1512.6)" gradientUnits="userSpaceOnUse"><stop offset="0" stop-color="#f1f1f1"/><stop offset="1" stop-color="#efefef"/></linearGradient><linearGradient id="linear-gradient-94" x1="621.82" y1="694.74" x2="848.06" y2="468.51" xlink:href="#linear-gradient-85"/><linearGradient id="linear-gradient-95" x1="594.88" y1="471.25" x2="799.32" y2="266.82" gradientTransform="matrix(0, -1, -1, 0, 1523.87, 1512.6)" gradientUnits="userSpaceOnUse"><stop offset="0" stop-color="#ebeae9"/><stop offset="1" stop-color="#eee"/></linearGradient><linearGradient id="linear-gradient-96" x1="704.51" y1="564.45" x2="827.18" y2="441.78" gradientTransform="matrix(0, -1, -1, 0, 1523.87, 1512.6)" gradientUnits="userSpaceOnUse"><stop offset="0" stop-color="#eae9e8"/><stop offset="1" stop-color="#e9e9e8"/></linearGradient><linearGradient id="linear-gradient-97" x1="788.89" y1="1555.03" x2="840.21" y2="1503.72" gradientTransform="matrix(0, -1, -1, 0, 1523.87, 1512.6)" gradientUnits="userSpaceOnUse"><stop offset="0" stop-color="#dadbda"/><stop offset="1" stop-color="#ced0d0"/></linearGradient><linearGradient id="linear-gradient-98" x1="668.63" y1="1538.88" x2="846.2" y2="1361.31" gradientTransform="matrix(0, -1, -1, 0, 1523.87, 1512.6)" gradientUnits="userSpaceOnUse"><stop offset="0" stop-color="#e0dfde"/><stop offset="1" stop-color="#dcdcdb"/></linearGradient><linearGradient id="linear-gradient-99" x1="997.64" y1="1155.41" x2="1174.98" y2="978.07" gradientTransform="matrix(0, -1, -1, 0, 1523.87, 1512.6)" gradientUnits="userSpaceOnUse"><stop offset="0" stop-color="#b9bbba"/><stop offset="1" stop-color="#b4b5b5"/></linearGradient><linearGradient id="linear-gradient-100" x1="1046.22" y1="1297.21" x2="1215.77" y2="1127.67" gradientTransform="matrix(0, -1, -1, 0, 1523.87, 1512.6)" gradientUnits="userSpaceOnUse"><stop offset="0" stop-color="#b3b4b4"/><stop offset="1" stop-color="#ababaa"/></linearGradient><linearGradient id="linear-gradient-101" x1="1147.85" y1="1195.59" x2="1294.44" y2="1049" gradientTransform="matrix(0, -1, -1, 0, 1523.87, 1512.6)" gradientUnits="userSpaceOnUse"><stop offset="0" stop-color="#a5a5a5"/><stop offset="1" stop-color="#aaa8a8"/></linearGradient><linearGradient id="linear-gradient-102" x1="974.45" y1="936.37" x2="1292.94" y2="617.88" gradientTransform="matrix(0, -1, -1, 0, 1523.87, 1512.6)" gradientUnits="userSpaceOnUse"><stop offset="0" stop-color="#bdbcbd"/><stop offset="1" stop-color="#babbba"/></linearGradient><linearGradient id="linear-gradient-103" x1="995.5" y1="1051.47" x2="1206.89" y2="840.08" gradientTransform="matrix(0, -1, -1, 0, 1523.87, 1512.6)" gradientUnits="userSpaceOnUse"><stop offset="0" stop-color="#b9bbba"/><stop offset="1" stop-color="#b3b3b4"/></linearGradient><linearGradient id="linear-gradient-104" x1="1001.09" y1="688.69" x2="1147.42" y2="542.36" gradientTransform="matrix(0, -1, -1, 0, 1523.87, 1512.6)" gradientUnits="userSpaceOnUse"><stop offset="0" stop-color="#c0c0bf"/><stop offset="1" stop-color="#bdbcbb"/></linearGradient><linearGradient id="linear-gradient-105" x1="1039.61" y1="672.96" x2="1161.92" y2="550.65" gradientTransform="matrix(0, -1, -1, 0, 1523.87, 1512.6)" gradientUnits="userSpaceOnUse"><stop offset="0" stop-color="#bebdbc"/><stop offset="1" stop-color="#b3b4b4"/></linearGradient><linearGradient id="linear-gradient-106" x1="826.98" y1="1527.38" x2="1214.48" y2="1139.89" gradientTransform="matrix(0, -1, -1, 0, 1523.87, 1512.6)" gradientUnits="userSpaceOnUse"><stop offset="0" stop-color="#c2c1c1"/><stop offset="1" stop-color="#c0c0bf"/></linearGradient><linearGradient id="linear-gradient-107" x1="888.71" y1="1587.13" x2="1120.09" y2="1355.75" gradientTransform="matrix(0, -1, -1, 0, 1523.87, 1512.6)" gradientUnits="userSpaceOnUse"><stop offset="0" stop-color="#c0c0bf"/><stop offset="1" stop-color="#b9b8b8"/></linearGradient><linearGradient id="linear-gradient-108" x1="1011.51" y1="1264.16" x2="1066.66" y2="1209.02" gradientTransform="matrix(0, -1, -1, 0, 1523.87, 1512.6)" gradientUnits="userSpaceOnUse"><stop offset="0" stop-color="silver"/><stop offset="1" stop-color="#babbbb"/></linearGradient><linearGradient id="linear-gradient-109" x1="1097.38" y1="1357.55" x2="1148.59" y2="1306.34" gradientTransform="matrix(0, -1, -1, 0, 1523.87, 1512.6)" gradientUnits="userSpaceOnUse"><stop offset="0" stop-color="#b6b7b6"/><stop offset="1" stop-color="#b0b1b0"/></linearGradient><linearGradient id="linear-gradient-110" x1="1028.34" y1="1467.9" x2="1177.17" y2="1319.07" gradientTransform="matrix(0, -1, -1, 0, 1523.87, 1512.6)" gradientUnits="userSpaceOnUse"><stop offset="0" stop-color="#b0b1b0"/><stop offset="1" stop-color="#afb0af"/></linearGradient><linearGradient id="linear-gradient-111" x1="832.45" y1="1258.69" x2="1016.21" y2="1074.93" gradientTransform="matrix(0, -1, -1, 0, 1523.87, 1512.6)" gradientUnits="userSpaceOnUse"><stop offset="0" stop-color="#c9c9c9"/><stop offset="1" stop-color="#c8c8c8"/></linearGradient><linearGradient id="linear-gradient-112" x1="864.09" y1="1450.75" x2="1085.78" y2="1229.06" gradientTransform="matrix(0, -1, -1, 0, 1523.87, 1512.6)" gradientUnits="userSpaceOnUse"><stop offset="0" stop-color="#c5c4c4"/><stop offset="1" stop-color="#c7c8c8"/></linearGradient><linearGradient id="linear-gradient-113" x1="702.93" y1="1348.39" x2="919.22" y2="1132.1" gradientTransform="matrix(0, -1, -1, 0, 1523.87, 1512.6)" gradientUnits="userSpaceOnUse"><stop offset="0" stop-color="#dcdcdb"/><stop offset="1" stop-color="#d5d5d5"/></linearGradient><linearGradient id="linear-gradient-114" x1="707.57" y1="1499.94" x2="1038.94" y2="1168.57" gradientTransform="matrix(0, -1, -1, 0, 1523.87, 1512.6)" gradientUnits="userSpaceOnUse"><stop offset="0" stop-color="#dadada"/><stop offset="1" stop-color="#d2d3d4"/></linearGradient><linearGradient id="linear-gradient-115" x1="800.29" y1="1251.02" x2="1026.33" y2="1024.99" gradientTransform="matrix(0, -1, -1, 0, 1523.87, 1512.6)" gradientUnits="userSpaceOnUse"><stop offset="0" stop-color="#d5d5d5"/><stop offset="1" stop-color="#cccdcd"/></linearGradient><linearGradient id="linear-gradient-116" x1="735.48" y1="1571.75" x2="989.78" y2="1317.46" gradientTransform="matrix(0, -1, -1, 0, 1523.87, 1512.6)" gradientUnits="userSpaceOnUse"><stop offset="0" stop-color="#d2d1d1"/><stop offset="1" stop-color="#c9c9c9"/></linearGradient><linearGradient id="linear-gradient-117" x1="1067.51" y1="979.46" x2="1241.27" y2="805.7" gradientTransform="matrix(0, -1, -1, 0, 1523.87, 1512.6)" gradientUnits="userSpaceOnUse"><stop offset="0" stop-color="#b2b3b2"/><stop offset="1" stop-color="#adadac"/></linearGradient><linearGradient id="linear-gradient-118" x1="1135.13" y1="877.45" x2="1227.95" y2="784.62" gradientTransform="matrix(0, -1, -1, 0, 1523.87, 1512.6)" gradientUnits="userSpaceOnUse"><stop offset="0" stop-color="#b2b2b2"/><stop offset="1" stop-color="#acadad"/></linearGradient><linearGradient id="linear-gradient-119" x1="1103.41" y1="1108.27" x2="1259.05" y2="952.64" gradientTransform="matrix(0, -1, -1, 0, 1523.87, 1512.6)" gradientUnits="userSpaceOnUse"><stop offset="0" stop-color="#acacab"/><stop offset="1" stop-color="#a9a8a7"/></linearGradient><linearGradient id="linear-gradient-120" x1="1131.64" y1="899.7" x2="1311.18" y2="720.15" gradientTransform="matrix(0, -1, -1, 0, 1523.87, 1512.6)" gradientUnits="userSpaceOnUse"><stop offset="0" stop-color="#acadad"/><stop offset="1" stop-color="#a9abaa"/></linearGradient><linearGradient id="linear-gradient-121" x1="1143.74" y1="896.91" x2="1339.45" y2="701.19" gradientTransform="matrix(0, -1, -1, 0, 1523.87, 1512.6)" gradientUnits="userSpaceOnUse"><stop offset="0" stop-color="#a6a7a6"/><stop offset="1" stop-color="#a2a1a1"/></linearGradient><linearGradient id="linear-gradient-122" x1="1227.82" y1="1016.37" x2="1254.52" y2="989.67" gradientTransform="matrix(0, -1, -1, 0, 1523.87, 1512.6)" gradientUnits="userSpaceOnUse"><stop offset="0" stop-color="#a4a4a3"/><stop offset="1" stop-color="#a2a3a3"/></linearGradient><linearGradient id="linear-gradient-123" x1="1168.34" y1="1075.85" x2="1448.54" y2="795.66" gradientTransform="matrix(0, -1, -1, 0, 1523.87, 1512.6)" gradientUnits="userSpaceOnUse"><stop offset="0" stop-color="#9d9f9f"/><stop offset="1" stop-color="#9fa0a0"/></linearGradient><linearGradient id="linear-gradient-124" x1="856.31" y1="990.43" x2="934.93" y2="911.81" gradientTransform="matrix(0, -1, -1, 0, 1523.87, 1512.6)" gradientUnits="userSpaceOnUse"><stop offset="0" stop-color="#d5d5d5"/><stop offset="1" stop-color="#d2d4d3"/></linearGradient><linearGradient id="linear-gradient-125" x1="634.87" y1="964.2" x2="874.39" y2="724.68" xlink:href="#linear-gradient-14"/><linearGradient id="linear-gradient-126" x1="749.95" y1="1069.05" x2="861.44" y2="957.57" gradientTransform="matrix(0, -1, -1, 0, 1523.87, 1512.6)" gradientUnits="userSpaceOnUse"><stop offset="0" stop-color="#e3e3e3"/><stop offset="1" stop-color="#dcdcdb"/></linearGradient><linearGradient id="linear-gradient-127" x1="746.46" y1="852.61" x2="896.28" y2="702.79" gradientTransform="matrix(0, -1, -1, 0, 1523.87, 1512.6)" gradientUnits="userSpaceOnUse"><stop offset="0" stop-color="#e0dfde"/><stop offset="1" stop-color="#d9d9d9"/></linearGradient><linearGradient id="linear-gradient-128" x1="769.22" y1="1098.07" x2="947.26" y2="920.02" gradientTransform="matrix(0, -1, -1, 0, 1523.87, 1512.6)" gradientUnits="userSpaceOnUse"><stop offset="0" stop-color="#d7d7d8"/><stop offset="1" stop-color="#d2d3d4"/></linearGradient><linearGradient id="linear-gradient-129" x1="1099.61" y1="573.52" x2="1356.24" y2="316.89" gradientTransform="matrix(0, -1, -1, 0, 1523.87, 1512.6)" gradientUnits="userSpaceOnUse"><stop offset="0" stop-color="#b3b3b4"/><stop offset="1" stop-color="#aaa9a9"/></linearGradient><linearGradient id="linear-gradient-130" x1="1192.29" y1="357.15" x2="1315.1" y2="234.33" gradientTransform="matrix(0, -1, -1, 0, 1523.87, 1512.6)" gradientUnits="userSpaceOnUse"><stop offset="0" stop-color="#b0b1b0"/><stop offset="1" stop-color="#a2a3a3"/></linearGradient><linearGradient id="linear-gradient-131" x1="1024.45" y1="800.11" x2="1384.18" y2="440.38" gradientTransform="matrix(0, -1, -1, 0, 1523.87, 1512.6)" gradientUnits="userSpaceOnUse"><stop offset="0" stop-color="#a6a7a6"/><stop offset="1" stop-color="#a1a2a3"/></linearGradient><linearGradient id="linear-gradient-132" x1="1229.25" y1="595.31" x2="1413.46" y2="411.1" gradientTransform="matrix(0, -1, -1, 0, 1523.87, 1512.6)" gradientUnits="userSpaceOnUse"><stop offset="0" stop-color="#9e9f9f"/><stop offset="1" stop-color="#9e9e9e"/></linearGradient><linearGradient id="linear-gradient-133" x1="1276.73" y1="498.85" x2="1412.43" y2="363.15" gradientTransform="matrix(0, -1, -1, 0, 1523.87, 1512.6)" gradientUnits="userSpaceOnUse"><stop offset="0" stop-color="#9d9d9e"/><stop offset="1" stop-color="#9e9e9e"/></linearGradient></defs><title>scene06</title><g id="bg"><polygon points="675.9 641.51 727.35 598.83 842.79 603.79 675.9 641.51" style="fill:url(#linear-gradient)"/><polygon points="982.43 152.46 1252.66 19.81 1223.7 163.18 982.43 152.46" style="fill:url(#linear-gradient-2)"/><polygon points="957.78 144.72 1252.66 19.81 982.43 152.46 957.78 144.72" style="fill:url(#linear-gradient-3)"/><polygon points="829.81 292.44 709.2 160.2 849.7 204.48 829.81 292.44" style="fill:url(#linear-gradient-4)"/><polygon points="709.2 160.2 957.78 144.72 849.7 204.48 709.2 160.2" style="fill:url(#linear-gradient-5)"/><polygon points="849.7 204.48 957.78 144.72 982.43 152.46 849.7 204.48" style="fill:url(#linear-gradient-6)"/><polygon points="675.9 641.51 500.36 561.69 727.35 598.83 675.9 641.51" style="fill:url(#linear-gradient-7)"/><polygon points="304.06 524.55 560.46 463 500.36 561.69 304.06 524.55" style="fill:url(#linear-gradient-8)"/><polygon points="103.45 316.26 132.86 146.7 276.39 290.45 103.45 316.26" style="fill:url(#linear-gradient-9)"/><polygon points="842.79 603.79 1074.97 458.63 1071.07 640.52 842.79 603.79" style="fill:url(#linear-gradient-10)"/><polygon points="784.4 329.78 829.81 292.44 1074.97 458.63 784.4 329.78" style="fill:url(#linear-gradient-11)"/><polygon points="476.58 219.96 602.81 138.96 709.2 160.2 476.58 219.96" style="fill:url(#linear-gradient-12)"/><polygon points="1132.03 725.3 1071.07 640.52 1159.71 669.71 1132.03 725.3" style="fill:url(#linear-gradient-13)"/><polygon points="1159.71 669.71 1247.91 662.56 1132.03 725.3 1159.71 669.71" style="fill:url(#linear-gradient-14)"/><polygon points="1159.71 669.71 1071.07 640.52 1247.91 662.56 1159.71 669.71" style="fill:url(#linear-gradient-15)"/><polygon points="1154.53 757.87 1132.03 725.3 1270.4 757.87 1154.53 757.87" style="fill:url(#linear-gradient-16)"/><polygon points="1132.03 725.3 1247.91 662.56 1270.4 757.87 1132.03 725.3" style="fill:url(#linear-gradient-17)"/><polygon points="112.42 798.69 30.6 798.69 0 794.48 0 783.05 194.68 746.74 112.42 798.69" style="fill:url(#linear-gradient-18)"/><polygon points="182.24 798.69 112.42 798.69 194.68 746.74 182.24 798.69" style="fill:url(#linear-gradient-19)"/><polygon points="0 798.69 0 794.48 30.6 798.69 0 798.69" style="fill:url(#linear-gradient-20)"/><polygon points="304.06 524.55 298.44 444.93 560.46 463 304.06 524.55" style="fill:url(#linear-gradient-21)"/><polygon points="103.45 316.26 276.39 290.45 298.44 444.93 103.45 316.26" style="fill:url(#linear-gradient-22)"/><polygon points="7.9 89.11 0 73.45 0 29.4 7.9 33.52 7.9 89.11" style="fill:url(#linear-gradient-23)"/><polygon points="842.79 603.79 775.76 452.09 1074.97 458.63 842.79 603.79" style="fill:url(#linear-gradient-24)"/><polygon points="727.35 598.83 742.9 587.11 842.79 603.79 727.35 598.83" style="fill:url(#linear-gradient-25)"/><polygon points="742.9 587.11 775.76 452.09 842.79 603.79 742.9 587.11" style="fill:url(#linear-gradient-26)"/><polygon points="727.35 598.83 500.36 561.69 742.9 587.11 727.35 598.83" style="fill:url(#linear-gradient-27)"/><polygon points="500.36 561.69 560.46 463 742.9 587.11 500.36 561.69" style="fill:url(#linear-gradient-28)"/><polygon points="560.46 463 775.76 452.09 742.9 587.11 560.46 463" style="fill:url(#linear-gradient-29)"/><polygon points="1252.66 19.81 1233.54 0 1274.89 0 1252.66 19.81" style="fill:url(#linear-gradient-30)"/><polygon points="1280 615.25 1280 798.69 1280 798.69 1270.4 757.87 1280 615.25" style="fill:url(#linear-gradient-31)"/><polygon points="1252.66 19.81 1280 62.99 1280 133.71 1223.7 163.18 1252.66 19.81" style="fill:url(#linear-gradient-32)"/><polygon points="1274.89 0 1280 0 1280 62.99 1252.66 19.81 1274.89 0" style="fill:url(#linear-gradient-33)"/><polygon points="1247.91 662.56 1280 395.73 1280 615.25 1270.4 757.87 1247.91 662.56" style="fill:url(#linear-gradient-34)"/><polygon points="1074.97 458.63 829.81 292.44 1225.42 379.01 1074.97 458.63" style="fill:url(#linear-gradient-35)"/><polygon points="1223.7 163.18 1280 133.71 1280 216.35 1225.42 379.01 1223.7 163.18" style="fill:url(#linear-gradient-36)"/><polygon points="1225.42 379.01 1280 216.35 1280 395.73 1247.91 662.56 1225.42 379.01" style="fill:url(#linear-gradient-37)"/><polygon points="709.2 160.2 863.75 0 869.75 0 957.78 144.72 709.2 160.2" style="fill:url(#linear-gradient-38)"/><polygon points="957.78 144.72 869.75 0 929.5 0 1252.66 19.81 957.78 144.72" style="fill:url(#linear-gradient-39)"/><polygon points="929.5 0 1233.54 0 1252.66 19.81 929.5 0" style="fill:url(#linear-gradient-40)"/><polygon points="7.9 89.11 7.9 33.52 163.55 40.66 7.9 89.11" style="fill:url(#linear-gradient-41)"/><polygon points="163.55 40.66 222.35 21.6 192.51 61.91 163.55 40.66" style="fill:url(#linear-gradient-42)"/><polygon points="163.55 40.66 203.33 5.72 222.35 21.6 163.55 40.66" style="fill:url(#linear-gradient-43)"/><polygon points="103.01 111.36 192.51 61.91 132.86 146.7 103.01 111.36" style="fill:url(#linear-gradient-44)"/><polygon points="7.9 89.11 163.55 40.66 103.01 111.36 7.9 89.11" style="fill:url(#linear-gradient-45)"/><polygon points="103.01 111.36 163.55 40.66 192.51 61.91 103.01 111.36" style="fill:url(#linear-gradient-46)"/><polygon points="203.33 5.72 244.19 0 312.25 0 222.35 21.6 203.33 5.72" style="fill:url(#linear-gradient-47)"/><polygon points="276.39 290.45 407.39 234.46 492.14 269.41 276.39 290.45" style="fill:url(#linear-gradient-48)"/><polygon points="276.39 290.45 132.86 146.7 407.39 234.46 276.39 290.45" style="fill:url(#linear-gradient-49)"/><polygon points="407.39 234.46 476.58 219.96 492.14 269.41 407.39 234.46" style="fill:url(#linear-gradient-50)"/><polygon points="7.9 33.52 0 29.4 0 9.48 44.22 3.33 7.9 33.52" style="fill:url(#linear-gradient-51)"/><polygon points="7.9 33.52 44.22 3.33 66.71 12.08 7.9 33.52" style="fill:url(#linear-gradient-52)"/><polygon points="7.9 89.11 0 136.36 0 76.37 7.9 89.11" style="fill:url(#linear-gradient-53)"/><polygon points="0 76.37 0 73.45 7.9 89.11 0 76.37" style="fill:url(#linear-gradient-54)"/><polygon points="25.03 0 44.22 3.33 0 9.48 0 0 25.03 0" style="fill:url(#linear-gradient-55)"/><polygon points="44.22 3.33 25.03 0 128.54 0 203.33 5.72 44.22 3.33" style="fill:url(#linear-gradient-56)"/><polygon points="203.33 5.72 128.54 0 244.19 0 203.33 5.72" style="fill:url(#linear-gradient-57)"/><polygon points="7.9 33.52 85.71 13.66 163.55 40.66 7.9 33.52" style="fill:url(#linear-gradient-58)"/><polygon points="85.71 13.66 203.33 5.72 163.55 40.66 85.71 13.66" style="fill:url(#linear-gradient-59)"/><polygon points="7.9 33.52 66.71 12.08 85.71 13.66 7.9 33.52" style="fill:url(#linear-gradient-60)"/><polygon points="66.71 12.08 44.22 3.33 85.71 13.66 66.71 12.08" style="fill:url(#linear-gradient-61)"/><polygon points="85.71 13.66 44.22 3.33 203.33 5.72 85.71 13.66" style="fill:url(#linear-gradient-62)"/><polygon points="103.45 316.26 0 387.47 0 318.61 80.55 146.3 103.45 316.26" style="fill:url(#linear-gradient-63)"/><polygon points="80.55 146.3 0 318.61 0 136.36 7.9 89.11 80.55 146.3" style="fill:url(#linear-gradient-64)"/><polygon points="103.45 316.26 80.55 146.3 132.86 146.7 103.45 316.26" style="fill:url(#linear-gradient-65)"/><polygon points="80.55 146.3 103.01 111.36 132.86 146.7 80.55 146.3" style="fill:url(#linear-gradient-66)"/><polygon points="80.55 146.3 7.9 89.11 103.01 111.36 80.55 146.3" style="fill:url(#linear-gradient-67)"/><polygon points="407.39 234.46 305.36 43.05 476.58 219.96 407.39 234.46" style="fill:url(#linear-gradient-68)"/><polygon points="132.86 146.7 305.36 43.05 407.39 234.46 132.86 146.7" style="fill:url(#linear-gradient-69)"/><polygon points="476.58 219.96 305.36 43.05 602.81 138.96 476.58 219.96" style="fill:url(#linear-gradient-70)"/><polygon points="192.51 61.91 305.36 43.05 132.86 146.7 192.51 61.91" style="fill:url(#linear-gradient-71)"/><polygon points="192.51 61.91 222.35 21.6 305.36 43.05 192.51 61.91" style="fill:url(#linear-gradient-72)"/><polygon points="222.35 21.6 312.25 0 372.01 0 305.36 43.05 222.35 21.6" style="fill:url(#linear-gradient-73)"/><polygon points="372.01 0 395.1 0 305.36 43.05 372.01 0" style="fill:url(#linear-gradient-74)"/><polygon points="305.36 43.05 534.36 0 564.54 0 602.81 138.96 305.36 43.05" style="fill:url(#linear-gradient-75)"/><polygon points="395.1 0 534.36 0 305.36 43.05 395.1 0" style="fill:url(#linear-gradient-76)"/><polygon points="602.81 138.96 652.78 0 659.58 0 709.2 160.2 602.81 138.96" style="fill:url(#linear-gradient-77)"/><polygon points="659.58 0 863.75 0 709.2 160.2 659.58 0" style="fill:url(#linear-gradient-78)"/><polygon points="602.81 138.96 564.54 0 652.78 0 602.81 138.96" style="fill:url(#linear-gradient-79)"/><polygon points="675.9 641.51 842.79 603.79 879.54 718.96 675.9 641.51" style="fill:url(#linear-gradient-80)"/><polygon points="879.54 718.96 842.79 603.79 1071.07 640.52 879.54 718.96" style="fill:url(#linear-gradient-81)"/><polygon points="879.54 718.96 737.04 798.69 711.96 798.69 590.28 767 879.54 718.96" style="fill:url(#linear-gradient-82)"/><polygon points="1154.53 757.87 879.54 718.96 1132.03 725.3 1154.53 757.87" style="fill:url(#linear-gradient-83)"/><polygon points="879.54 718.96 1071.07 640.52 1132.03 725.3 879.54 718.96" style="fill:url(#linear-gradient-84)"/><polygon points="711.96 798.69 572.7 798.69 590.28 767 711.96 798.69" style="fill:url(#linear-gradient-85)"/><polygon points="590.28 767 572.7 798.69 518.47 798.69 384.92 692.74 590.28 767" style="fill:url(#linear-gradient-86)"/><polygon points="384.92 692.74 518.47 798.69 424.16 798.69 194.68 746.74 384.92 692.74" style="fill:url(#linear-gradient-87)"/><polygon points="424.16 798.69 182.24 798.69 194.68 746.74 424.16 798.69" style="fill:url(#linear-gradient-88)"/><polygon points="1071.07 640.52 1074.97 458.63 1187.37 496.56 1071.07 640.52" style="fill:url(#linear-gradient-89)"/><polygon points="1074.97 458.63 1225.42 379.01 1187.37 496.56 1074.97 458.63" style="fill:url(#linear-gradient-90)"/><polygon points="1071.07 640.52 1187.37 496.56 1247.91 662.56 1071.07 640.52" style="fill:url(#linear-gradient-91)"/><polygon points="1187.37 496.56 1225.42 379.01 1247.91 662.56 1187.37 496.56" style="fill:url(#linear-gradient-92)"/><polygon points="1280 798.69 1160.68 798.69 1270.4 757.87 1280 798.69" style="fill:url(#linear-gradient-93)"/><polygon points="1105.39 798.69 737.04 798.69 879.54 718.96 1105.39 798.69" style="fill:url(#linear-gradient-94)"/><polygon points="1270.4 757.87 1160.68 798.69 1137.85 798.69 1154.53 757.87 1270.4 757.87" style="fill:url(#linear-gradient-95)"/><polygon points="1154.53 757.87 1137.85 798.69 1105.39 798.69 879.54 718.96 1154.53 757.87" style="fill:url(#linear-gradient-96)"/><polygon points="0 732.84 0 652.25 26.92 689.57 0 732.84" style="fill:url(#linear-gradient-97)"/><polygon points="194.68 746.74 0 783.05 0 732.84 26.92 689.57 194.68 746.74" style="fill:url(#linear-gradient-98)"/><polygon points="298.44 444.93 459.28 359.95 560.46 463 298.44 444.93" style="fill:url(#linear-gradient-99)"/><polygon points="298.44 444.93 276.39 290.45 459.28 359.95 298.44 444.93" style="fill:url(#linear-gradient-100)"/><polygon points="276.39 290.45 492.14 269.41 459.28 359.95 276.39 290.45" style="fill:url(#linear-gradient-101)"/><polygon points="560.46 463 768.85 390.92 775.76 452.09 560.46 463" style="fill:url(#linear-gradient-102)"/><polygon points="560.46 463 459.28 359.95 768.85 390.92 560.46 463" style="fill:url(#linear-gradient-103)"/><polygon points="775.76 452.09 768.85 390.92 1074.97 458.63 775.76 452.09" style="fill:url(#linear-gradient-104)"/><polygon points="768.85 390.92 784.4 329.78 1074.97 458.63 768.85 390.92" style="fill:url(#linear-gradient-105)"/><polygon points="304.06 524.55 0 550.62 0 535.6 225.81 467.18 304.06 524.55" style="fill:url(#linear-gradient-106)"/><polygon points="0 535.6 0 428.29 225.81 467.18 0 535.6" style="fill:url(#linear-gradient-107)"/><polygon points="225.81 467.18 298.44 444.93 304.06 524.55 225.81 467.18" style="fill:url(#linear-gradient-108)"/><polygon points="225.81 467.18 103.45 316.26 298.44 444.93 225.81 467.18" style="fill:url(#linear-gradient-109)"/><polygon points="225.81 467.18 0 428.29 0 387.47 103.45 316.26 225.81 467.18" style="fill:url(#linear-gradient-110)"/><polygon points="288.07 604.57 304.06 524.55 500.36 561.69 288.07 604.57" style="fill:url(#linear-gradient-111)"/><polygon points="288.07 604.57 0 565.82 0 550.62 304.06 524.55 288.07 604.57" style="fill:url(#linear-gradient-112)"/><polygon points="194.68 746.74 288.07 604.57 384.92 692.74 194.68 746.74" style="fill:url(#linear-gradient-113)"/><polygon points="26.92 689.57 288.07 604.57 194.68 746.74 26.92 689.57" style="fill:url(#linear-gradient-114)"/><polygon points="288.07 604.57 500.36 561.69 384.92 692.74 288.07 604.57" style="fill:url(#linear-gradient-115)"/><polygon points="26.92 689.57 0 652.25 0 565.82 288.07 604.57 26.92 689.57" style="fill:url(#linear-gradient-116)"/><polygon points="459.28 359.95 582.07 305.95 768.85 390.92 459.28 359.95" style="fill:url(#linear-gradient-117)"/><polygon points="768.85 390.92 582.07 305.95 784.4 329.78 768.85 390.92" style="fill:url(#linear-gradient-118)"/><polygon points="459.28 359.95 492.14 269.41 582.07 305.95 459.28 359.95" style="fill:url(#linear-gradient-119)"/><polygon points="582.07 305.95 829.81 292.44 784.4 329.78 582.07 305.95" style="fill:url(#linear-gradient-120)"/><polygon points="582.07 305.95 709.2 160.2 829.81 292.44 582.07 305.95" style="fill:url(#linear-gradient-121)"/><polygon points="492.14 269.41 476.58 219.96 582.07 305.95 492.14 269.41" style="fill:url(#linear-gradient-122)"/><polygon points="476.58 219.96 709.2 160.2 582.07 305.95 476.58 219.96" style="fill:url(#linear-gradient-123)"/><polygon points="590.72 685.59 500.36 561.69 675.9 641.51 590.72 685.59" style="fill:url(#linear-gradient-124)"/><polygon points="590.28 767 590.72 685.59 879.54 718.96 590.28 767" style="fill:url(#linear-gradient-125)"/><polygon points="384.92 692.74 590.72 685.59 590.28 767 384.92 692.74" style="fill:url(#linear-gradient-126)"/><polygon points="590.72 685.59 675.9 641.51 879.54 718.96 590.72 685.59" style="fill:url(#linear-gradient-127)"/><polygon points="384.92 692.74 500.36 561.69 590.72 685.59 384.92 692.74" style="fill:url(#linear-gradient-128)"/><polygon points="829.81 292.44 1151.06 218.58 1225.42 379.01 829.81 292.44" style="fill:url(#linear-gradient-129)"/><polygon points="1151.06 218.58 1223.7 163.18 1225.42 379.01 1151.06 218.58" style="fill:url(#linear-gradient-130)"/><polygon points="829.81 292.44 849.7 204.48 1151.06 218.58 829.81 292.44" style="fill:url(#linear-gradient-131)"/><polygon points="849.7 204.48 982.43 152.46 1151.06 218.58 849.7 204.48" style="fill:url(#linear-gradient-132)"/><polygon points="1151.06 218.58 982.43 152.46 1223.7 163.18 1151.06 218.58" style="fill:url(#linear-gradient-133)"/></g><g id="lamp2"><path d="M657.92,257.46H622.09a4.83,4.83,0,1,0,0,9.66h35.84A4.83,4.83,0,1,0,657.92,257.46Z" transform="translate(0)" style="fill:#989898"/><path d="M630.61,286v2.63A5.38,5.38,0,0,0,636,294h8a5.38,5.38,0,0,0,5.38-5.38V286a11.7,11.7,0,0,0,10.91-11.65H619.7A11.71,11.71,0,0,0,630.61,286Z" transform="translate(0)" style="fill:#989898"/><path d="M640,149.07a48.36,48.36,0,0,0-38.06,78.28,206.62,206.62,0,0,1,15.85,23.2h44.4a205.93,205.93,0,0,1,15.86-23.21A48.36,48.36,0,0,0,640,149.07Zm0.08,16.8A31.2,31.2,0,0,0,608.92,197a4.83,4.83,0,1,1-9.66,0,40.87,40.87,0,0,1,40.83-40.82A4.83,4.83,0,0,1,640.09,165.87Z" transform="translate(0)" style="fill:#eee93a"/></g><g id="halfHead01"><path d="M555.47,589a68.08,68.08,0,0,0-3.11,7.36c-4.3,11-5.52,22.31-4.6,34,0.59,7.46,1.8,14.55.56,21.42A26.33,26.33,0,0,1,544.18,662c-5.2,7.73-12.75,19.26-20.93,24.17-4,2.42-1.61,9.68,0,14.52S541,709.54,541,709.54L532.77,720,536,731.33V741c12,5.59,4.59,16.48,7.7,25.17,2.71,7.58,11.35,11.17,18.7,12,18.58,2.09,66-20.17,56.69,20.83h105c-2.79,0-1.22-44-1.15-47.32,0.42-20.52,4-38.55,13.61-56.84,8.15-15.56,17-32.16,20.63-49.51A96.18,96.18,0,0,0,751,589H555.47Z" transform="translate(0)" style="fill:#fff"/></g><g id="halfHead02"><path d="M794.31,549.74c25.82-46,8.75-96-4.16-123.44C782.89,410.87,768,400.86,751,394V589.55C768,582.51,782.88,570.09,794.31,549.74Z" transform="translate(0)" style="fill:#fff"/></g><g id="s6_title"><rect x="63.16" y="40.19" width="149.99" height="216.17" style="fill:none;stroke:#fff;stroke-linejoin:round;stroke-width:5px"/><path d="M93.26,98.17l0.5,0.19a1.63,1.63,0,0,1,1.13,1.45,1.68,1.68,0,0,1-.19.76c-0.19.31-.38,0.57-0.57,0.88a20.94,20.94,0,0,0,7,4,1.63,1.63,0,0,1,1,2.33,2,2,0,0,1-1.76,1.2,2.22,2.22,0,0,1-.88-0.19A24.59,24.59,0,0,1,92.19,104a25.06,25.06,0,0,1-6.87,5.36,1.76,1.76,0,0,1-1.07.31,1.9,1.9,0,0,1-1.64-.88,2.2,2.2,0,0,1-.38-1.13,1.56,1.56,0,0,1,.95-1.45c3.34-1.76,6.11-3.72,8.19-7.37a1.63,1.63,0,0,1,.88-0.69H82.1a1.56,1.56,0,0,1-1.51-1.83,1.53,1.53,0,0,1,1.51-1.76H133a1.58,1.58,0,0,1,1.58,1.76A1.6,1.6,0,0,1,133,98.17h-9.7l0.63,0.19a1.71,1.71,0,0,1,1.2,1.45,1,1,0,0,1-.25.69c-0.19.31-.38,0.63-0.57,0.88a21.48,21.48,0,0,0,8.69,4.73,1.57,1.57,0,0,1,1.07,1.58,1.72,1.72,0,0,1-.25.88,1.82,1.82,0,0,1-1.7,1.13,3.7,3.7,0,0,1-.82-0.13,29.87,29.87,0,0,1-9.07-5.48,24.8,24.8,0,0,1-6.87,5.29,1.78,1.78,0,0,1-.94.25,2,2,0,0,1-1.7-1,2.4,2.4,0,0,1-.38-1.2,1.38,1.38,0,0,1,.94-1.26,18.12,18.12,0,0,0,8.32-7.37,1.14,1.14,0,0,1,.88-0.63H109.26v12.1H135a1.65,1.65,0,0,1,1.7,1.89,1.75,1.75,0,0,1-1.7,2H80.21a1.75,1.75,0,0,1-1.7-2,1.65,1.65,0,0,1,1.7-1.89h24.57V98.17H93.26ZM85.7,61.32a1.77,1.77,0,0,1,0-3.53h44.35a1.78,1.78,0,0,1,0,3.53H109.32v2.83h21.42c3.15,0,4.85,1.32,4.85,4.28v6.43c0,1.39-.88,1.89-2.27,1.89s-2.27-.5-2.27-1.89V69c0-1.13-.69-1.51-1.89-1.51H109.32V78c0,1.45-.88,1.89-2.27,1.89s-2.21-.44-2.21-1.89V67.49H86.2c-1.26,0-1.89.38-1.89,1.51v5.86c0,1.39-.88,1.89-2.27,1.89s-2.27-.5-2.27-1.89V68.44c0-3,1.7-4.28,4.85-4.28h20.22V61.32H85.7Zm7.25,19.53c2.9,0,4,1.26,4,3.84v3.65c0,2.65-1.07,3.78-4,3.78h-7.5c-2.84,0-4-1.13-4-3.78V84.69c0-2.58,1.2-3.84,4-3.84h7.5ZM92,89a1.17,1.17,0,0,0,1.39-1.39V85.32A1.17,1.17,0,0,0,92,83.94H86.39A1.17,1.17,0,0,0,85,85.32v2.33A1.17,1.17,0,0,0,86.39,89H92ZM88.4,73a1.61,1.61,0,0,1,0-3.15h11.84a1.61,1.61,0,0,1,0,3.15H88.4Zm0,5.54a1.25,1.25,0,0,1-1.26-1.45,1.48,1.48,0,0,1,1.26-1.7h11.84a1.48,1.48,0,0,1,1.26,1.7,1.25,1.25,0,0,1-1.26,1.45H88.4Zm22.81,2.27c2.84,0,4,1.26,4,3.84v3.65c0,2.65-1.13,3.78-4,3.78h-7.43c-2.9,0-4-1.13-4-3.78V84.69c0-2.58,1.2-3.84,4-3.84h7.43ZM110.27,89a1.19,1.19,0,0,0,1.39-1.39V85.32a1.19,1.19,0,0,0-1.39-1.39h-5.61a1.17,1.17,0,0,0-1.39,1.39v2.33A1.17,1.17,0,0,0,104.66,89h5.61Zm3.53-16a1.6,1.6,0,0,1,0-3.15h12.73a1.61,1.61,0,0,1,0,3.15H113.8Zm0,5.54a1.29,1.29,0,0,1-1.32-1.45,1.52,1.52,0,0,1,1.32-1.7h12.73a1.48,1.48,0,0,1,1.26,1.7,1.25,1.25,0,0,1-1.26,1.45H113.8Zm15.81,2.27c2.83,0,4,1.26,4,3.84v3.65c0,2.65-1.13,3.78-4,3.78H122c-2.9,0-4-1.13-4-3.78V84.69c0-2.58,1.13-3.84,4-3.84h7.56ZM128.66,89a1.19,1.19,0,0,0,1.39-1.39V85.32a1.19,1.19,0,0,0-1.39-1.39h-5.73a1.19,1.19,0,0,0-1.39,1.39v2.33A1.19,1.19,0,0,0,122.93,89h5.73Z" transform="translate(0)" style="fill:#fff"/><path d="M196.89,80.53a1.92,1.92,0,0,1,1.89,2.21c0,1.39-.69,2.27-1.89,2.27H178.43v21.86c0,1.7.57,2.27,2.33,2.46a21.9,21.9,0,0,0,3.09.13h2.52A23,23,0,0,0,191,109a3.57,3.57,0,0,0,2.58-2,26.93,26.93,0,0,0,1.07-6.43,2,2,0,0,1,2.21-2.08h0.31c1.45,0.06,2.33.76,2.33,2.14v0.25c-0.19,3.15-.88,7.06-1.83,9a6.93,6.93,0,0,1-5.1,3.72,48.38,48.38,0,0,1-7.75.5,51.13,51.13,0,0,1-6.55-.31c-3-.44-4.85-1.89-4.85-5.73V85H165.2c-0.19,5.61-.88,11.15-3.53,16.19-3.59,6.87-9.39,10.4-16.19,13.23a3.43,3.43,0,0,1-1.39.31,2.37,2.37,0,0,1-2.21-1.51,3.39,3.39,0,0,1-.31-1.32,2.34,2.34,0,0,1,1.51-2.21c5.86-2.33,11.09-5.29,14.11-11.09,2.21-4.22,2.77-8.95,3-13.61H144.54c-1.2,0-1.89-.88-1.89-2.27a1.92,1.92,0,0,1,1.89-2.21H167.6V59.36c0-1.13.95-1.89,2.46-1.89s2.52,0.76,2.52,1.89V80.53h24.32ZM150.46,61.19a2.55,2.55,0,0,1,1.89.88A72.34,72.34,0,0,1,160,73.29a3.07,3.07,0,0,1,.38,1.39,2.34,2.34,0,0,1-1.32,2,2.92,2.92,0,0,1-1.45.38,2.3,2.3,0,0,1-2.08-1.13,71.5,71.5,0,0,0-7.43-11.15,1.89,1.89,0,0,1-.44-1.2,2.39,2.39,0,0,1,1.2-2A2.84,2.84,0,0,1,150.46,61.19Zm42.34,2.46a1.77,1.77,0,0,1-.25.94,59.49,59.49,0,0,1-8.25,12.35,2.68,2.68,0,0,1-2.14,1,2.72,2.72,0,0,1-1.64-.57,2.39,2.39,0,0,1-1-1.89,2.22,2.22,0,0,1,.57-1.45,45.14,45.14,0,0,0,7.69-11.47,2.21,2.21,0,0,1,2.08-1.39,3.21,3.21,0,0,1,1.26.25A2.45,2.45,0,0,1,192.8,63.65Z" transform="translate(0)" style="fill:#fff"/><path d="M94.89,146.68a67.36,67.36,0,0,1-10.46,14,3.13,3.13,0,0,1-1.89.82,2.49,2.49,0,0,1-1.76-.76,2.43,2.43,0,0,1-.88-1.89,2.2,2.2,0,0,1,.82-1.7A60.57,60.57,0,0,0,95.34,134a2.18,2.18,0,0,1,2.14-1.51,4.94,4.94,0,0,1,.88.13,2.08,2.08,0,0,1,2,1.89,3.16,3.16,0,0,1-.13.76c-0.95,2.33-1.89,4.6-2.9,6.8h36.23c1.26,0,1.89.95,1.89,2.33s-0.63,2.27-1.89,2.27H108.44v9.51h21.93c1.2,0,1.83.88,1.83,2.21s-0.63,2.27-1.83,2.27H108.44v9.58h21.93c1.2,0,1.83.88,1.83,2.21s-0.63,2.27-1.83,2.27H108.44V189c0,1.26-1,2-2.52,2s-2.52-.76-2.52-2V146.68H94.89Z" transform="translate(0)" style="fill:#fff"/><path d="M143.21,140.57c-1.13,0-1.76-.88-1.76-2.21s0.63-2.21,1.76-2.21H160.6c1.2,0,1.83.88,1.83,2.21s-0.63,2.21-1.83,2.21h-6.43v14.24h5.67c1.13,0,1.76.88,1.76,2.21s-0.63,2.14-1.76,2.14h-5.67V173.9c2.14-.88,4.16-1.83,5.86-2.65a3.07,3.07,0,0,1,1.39-.38,1.84,1.84,0,0,1,1.76,1.26,2.16,2.16,0,0,1,.25,1,2.49,2.49,0,0,1-1.51,2.14,120.85,120.85,0,0,1-17.77,7.37,2.85,2.85,0,0,1-1,.19,2,2,0,0,1-2-1.64,5.52,5.52,0,0,1-.13-1,2,2,0,0,1,1.51-2.08c2.21-.69,4.6-1.51,7.06-2.46V159.16h-5.8c-1.13,0-1.76-.88-1.76-2.14s0.63-2.21,1.76-2.21h5.8V140.57h-6.43Zm26.34,30.05c-3.59,0-5.23-1.32-5.23-4.85V139.56c0-3.53,1.7-5,5.36-5h20.92c3.65,0,5.35,1.45,5.35,5v26.21c0,3.53-1.64,4.85-5.29,4.85h-3.72v13.17c0,2,.63,2.21,4.16,2.21,2.52,0,3.65-.38,4.1-1.2,0.69-1.2.94-3.34,1.07-5.73a1.86,1.86,0,0,1,2.08-1.83h0.32a2.12,2.12,0,0,1,2,2.27v0.13c-0.13,3.53-.88,6.49-2.08,8.25s-3.4,2.33-7.56,2.33a22.13,22.13,0,0,1-6.17-.5c-2-.63-2.65-2-2.65-4.54V170.62h-5.86c-0.25,10.65-5.61,16.76-16.51,20.54a2.92,2.92,0,0,1-1.2.25,2.57,2.57,0,0,1-2.21-2.46,2.42,2.42,0,0,1,1.64-2.27c9.32-3,13.42-7.69,13.67-16.07h-2.21Zm21.86-25.26v-5c0-1.2-.44-1.51-1.76-1.51h-19c-1.32,0-1.76.31-1.76,1.51v5h22.56Zm0,10.21v-6.17H168.86v6.17h22.56ZM168.86,165c0,1.26.44,1.58,1.76,1.58h19c1.32,0,1.76-.32,1.76-1.58V159.6H168.86V165Z" transform="translate(0)" style="fill:#fff"/><path d="M73.45,241.07a0.87,0.87,0,0,1-.73-1,0.84,0.84,0,0,1,.73-0.95h18.5a0.84,0.84,0,0,1,.73.95,0.87,0.87,0,0,1-.73,1H73.45Z" transform="translate(0)" style="fill:#fff"/><path d="M96.68,230.77a0.83,0.83,0,0,1,1.61,0v4.82l4.49-.95a0.82,0.82,0,0,1,.22,0,0.64,0.64,0,0,1,.64.59,1.08,1.08,0,0,1,0,.26,0.62,0.62,0,0,1-.55.66l-4.82,1v5.76c0,0.66.13,0.84,1,.84,1.23,0,1.76-.18,2-0.68a7.5,7.5,0,0,0,.37-2.53,0.63,0.63,0,0,1,.7-0.64h0.07a0.7,0.7,0,0,1,.77.7v0a8,8,0,0,1-.73,3.54,2,2,0,0,1-1.47,1,11.12,11.12,0,0,1-1.74.15,9.69,9.69,0,0,1-1.43-.11c-0.86-.15-1.17-0.7-1.17-1.72v-6.05l-1.72.35a0.38,0.38,0,0,1-.15,0,0.67,0.67,0,0,1-.62-0.66,0.83,0.83,0,0,1,0-.22v-0.11a0.61,0.61,0,0,1,.55-0.55l2-.42v-5.15Zm5.94,2.13a0.67,0.67,0,0,1-.64-0.77,0.67,0.67,0,0,1,.64-0.79h9.51a1.77,1.77,0,0,1,2.07,2A70.57,70.57,0,0,1,113,247.12c-0.4,1.76-1.28,2.42-3.28,2.42a10.75,10.75,0,0,1-2.29-.22,0.77,0.77,0,0,1-.62-0.79,0.91,0.91,0,0,1,0-.24,0.73,0.73,0,0,1,.7-0.68,0.61,0.61,0,0,1,.2,0,7.73,7.73,0,0,0,1.76.24,1.53,1.53,0,0,0,1.85-1.5,68.91,68.91,0,0,0,1.06-12.76,0.65,0.65,0,0,0-.79-0.7H108a30.34,30.34,0,0,1-1.08,8.36,14.88,14.88,0,0,1-5.9,8.36,1.23,1.23,0,0,1-.68.24,0.93,0.93,0,0,1-.92-0.9,0.81,0.81,0,0,1,.37-0.68,12.51,12.51,0,0,0,5.52-7.55,29.9,29.9,0,0,0,1-7.83h-3.72Z" transform="translate(0)" style="fill:#fff"/><path d="M117.12,238.17a0.76,0.76,0,0,1,0-1.5h4v-2.62h-3a0.64,0.64,0,0,1-.62-0.75,0.63,0.63,0,0,1,.62-0.73h3v-2a0.63,0.63,0,0,1,.77-0.62,0.65,0.65,0,0,1,.79.62v2h2.13a0.61,0.61,0,0,1,.62.7,0.68,0.68,0,0,1-.62.77h-2.13v2.62h1a23.39,23.39,0,0,0,3.32-5.1,0.7,0.7,0,0,1,.64-0.44,1.18,1.18,0,0,1,.44.11,0.68,0.68,0,0,1,.44.62,1.18,1.18,0,0,1-.11.44,27,27,0,0,1-2.9,4.38h2.11a0.76,0.76,0,0,1,0,1.5h-3.41c-0.75.77-1.52,1.5-2.33,2.2,0.68-.07,1.43-0.11,2.11-0.11h1.3c1.3,0,1.85.46,1.85,1.61v6.27c0,1.17-.55,1.65-1.85,1.65H120.5c-1.3,0-1.85-.48-1.85-1.65V244a12.07,12.07,0,0,1,.09-1.21c-0.4.31-.77,0.59-1.19,0.86a1,1,0,0,1-.42.11,0.84,0.84,0,0,1-.7-0.33,0.93,0.93,0,0,1-.13-0.46,0.81,0.81,0,0,1,.42-0.68,25,25,0,0,0,5.5-4.16h-5.1Zm8.36,6v-2c0-.44-0.2-0.55-0.62-0.55h-3.92a0.67,0.67,0,0,0-.7.77v1.8h5.24Zm-5.24,3.63c0,0.44.2,0.55,0.62,0.55h4c0.42,0,.62-0.11.62-0.55v-2.29h-5.24v2.29Zm11-15.84a0.53,0.53,0,0,0-.66.55v17a0.71,0.71,0,0,1-.84.7,0.7,0.7,0,0,1-.84-0.7V232.25c0-1.28.59-1.76,1.91-1.76h4c1.14,0,1.76.53,1.76,1.41a2.51,2.51,0,0,1-.15.84,26.6,26.6,0,0,1-2.29,4.8,0.82,0.82,0,0,0-.15.42,0.64,0.64,0,0,0,.24.46,7.45,7.45,0,0,1,2.55,5.3c0,2.49-1.45,3.41-3.23,3.41a9.35,9.35,0,0,1-1.85-.2,0.68,0.68,0,0,1-.55-0.75,1.07,1.07,0,0,1,0-.26,0.68,0.68,0,0,1,.7-0.62h0.11a8.68,8.68,0,0,0,1.52.18c0.88,0,1.56-.35,1.56-1.87a7.11,7.11,0,0,0-2.46-4.66,1.35,1.35,0,0,1-.44-1,1.42,1.42,0,0,1,.26-0.79,18.33,18.33,0,0,0,2.24-4.58,1.83,1.83,0,0,0,0-.29c0-.26-0.15-0.35-0.53-0.35h-2.9Z" transform="translate(0)" style="fill:#fff"/><path d="M149.59,247.89a21.94,21.94,0,0,0,3.48.31h0.37c1.32,0,2.86-.09,4.36-0.18h0.07a0.71,0.71,0,0,1,.77.79v0.07a0.75,0.75,0,0,1-.79.86c-1.19.07-2.22,0.11-3.39,0.11-0.44,0-.88,0-1.36,0a18.84,18.84,0,0,1-6.05-.9,9.16,9.16,0,0,1-4-2.77,13.54,13.54,0,0,1-2.84,3.78,1,1,0,0,1-.68.31,0.86,0.86,0,0,1-.59-0.26,0.81,0.81,0,0,1-.26-0.57,1,1,0,0,1,.35-0.7,13,13,0,0,0,3.63-6.14,0.78,0.78,0,0,1,.75-0.66,1.7,1.7,0,0,1,.33,0,0.74,0.74,0,0,1,.64.73,1.72,1.72,0,0,1,0,.31c-0.2.62-.4,1.19-0.62,1.74a8.12,8.12,0,0,0,4,2.71l0.22,0.07v-6.38h-8.67a0.65,0.65,0,0,1-.59-0.77,0.62,0.62,0,0,1,.59-0.73H158a0.62,0.62,0,0,1,.59.73,0.67,0.67,0,0,1-.59.77h-8.43v2.33h6.58a0.79,0.79,0,0,1,0,1.54h-6.58v2.9Zm4.86-17.36c1.3,0,1.89.53,1.89,1.8v4c0,1.28-.59,1.78-1.89,1.78H142.83c-1.3,0-1.89-.51-1.89-1.78v-4c0-1.28.59-1.8,1.89-1.8h11.62Zm0.26,3.1v-1.14c0-.44-0.22-0.55-0.64-0.55H143.21c-0.42,0-.64.11-0.64,0.55v1.14h12.15Zm-12.15,2.53a0.52,0.52,0,0,0,.64.59h10.85a0.53,0.53,0,0,0,.66-0.59V235H142.57v1.17Z" transform="translate(0)" style="fill:#fff"/><path d="M161.07,234.93a0.66,0.66,0,0,1-.62-0.77,0.65,0.65,0,0,1,.62-0.77h3.39v-2.82a0.68,0.68,0,0,1,.81-0.66,0.69,0.69,0,0,1,.81.66v2.82h2.46a0.65,0.65,0,0,1,.62.77,0.66,0.66,0,0,1-.62.77h-4.14v0.55c0,0.77,0,1.52,0,2.29h2.33c1.28,0,1.8.48,1.8,1.74a46,46,0,0,1-.53,8.58,2,2,0,0,1-2.2,1.74,5,5,0,0,1-1.58-.2,0.67,0.67,0,0,1-.51-0.7,0.52,0.52,0,0,1,0-.24,0.67,0.67,0,0,1,.68-0.59,0.43,0.43,0,0,1,.15,0,3,3,0,0,0,1,.13,0.79,0.79,0,0,0,.92-0.81,47.55,47.55,0,0,0,.44-7.57,0.51,0.51,0,0,0-.64-0.57h-1.94c-0.2,4.75-.86,7.66-2.38,10.25a0.78,0.78,0,0,1-.68.42,1.16,1.16,0,0,1-.51-0.13,0.73,0.73,0,0,1-.42-0.66,1.3,1.3,0,0,1,.15-0.53c1.91-3,2.33-6.31,2.31-13.71h-1.74Zm10.94-.86a17.74,17.74,0,0,1-2.22,3.19,0.77,0.77,0,0,1-.57.26,1,1,0,0,1-.68-0.26,0.83,0.83,0,0,1-.24-0.53,0.81,0.81,0,0,1,.22-0.53,16.9,16.9,0,0,0,3.41-5.9,0.66,0.66,0,0,1,.66-0.46,1.93,1.93,0,0,1,.35,0,0.7,0.7,0,0,1,.66.66,0.59,0.59,0,0,1-.07.26c-0.2.57-.46,1.14-0.73,1.72h7.37a0.65,0.65,0,0,1,.62.77,0.66,0.66,0,0,1-.62.77H172Zm-0.53,7.55c0-.59,0-1.19,0-1.74-0.42.2-.86,0.37-1.28,0.55a1.29,1.29,0,0,1-.29,0,0.71,0.71,0,0,1-.66-0.51,1.22,1.22,0,0,1-.07-0.37,0.63,0.63,0,0,1,.4-0.64,21.06,21.06,0,0,0,7.13-4.27,0.87,0.87,0,0,1,.55-0.22,0.94,0.94,0,0,1,.57.22,0.87,0.87,0,0,1,.31.59,0.84,0.84,0,0,1-.29.57,24.19,24.19,0,0,1-2.16,1.65,27.46,27.46,0,0,0,.68,3.3,13.42,13.42,0,0,0,2.64-2.4,0.68,0.68,0,0,1,.51-0.26,0.81,0.81,0,0,1,.57.26,0.72,0.72,0,0,1,.13,1.1,19.45,19.45,0,0,1-3.37,2.79,15.15,15.15,0,0,0,3.83,5.76,0.87,0.87,0,0,1,.26.62,0.82,0.82,0,0,1-.31.66,1,1,0,0,1-.62.24,0.88,0.88,0,0,1-.64-0.26c-2.88-2.77-4.4-6.51-5.06-10.94-0.42.26-.84,0.48-1.25,0.73v10.45a0.67,0.67,0,0,1-.81.64,0.69,0.69,0,0,1-.84-0.64v-7.94Z" transform="translate(0)" style="fill:#fff"/><path d="M189.67,235.53a0.62,0.62,0,0,1,.62.73,0.65,0.65,0,0,1-.62.77h-2a14.22,14.22,0,0,0,2.42,4,0.83,0.83,0,0,1,.18.51,0.78,0.78,0,0,1-.24.59,0.68,0.68,0,0,1-.46.18A0.69,0.69,0,0,1,189,242a11,11,0,0,1-1.63-3.34,23.6,23.6,0,0,1,.26,3.17v7.86a0.71,0.71,0,0,1-.86.64,0.59,0.59,0,0,1-.7-0.64v-7.09a24.49,24.49,0,0,1,.33-3.65,18.49,18.49,0,0,1-2.84,5.76,0.88,0.88,0,0,1-.7.37,0.65,0.65,0,0,1-.46-0.18,0.81,0.81,0,0,1-.31-0.64,1,1,0,0,1,.24-0.64,18.56,18.56,0,0,0,3.5-6.65h-2.57a0.63,0.63,0,0,1-.62-0.75,0.62,0.62,0,0,1,.62-0.75h2.79v-2.82c-0.77.2-1.52,0.37-2.18,0.48a0.82,0.82,0,0,1-.22,0,0.69,0.69,0,0,1-.75-0.64,0.49,0.49,0,0,1,0-.18,0.72,0.72,0,0,1,.64-0.73,23.64,23.64,0,0,0,5.59-1.61,1.42,1.42,0,0,1,.44-0.09,0.73,0.73,0,0,1,.66.37,1,1,0,0,1,.11.42,0.73,0.73,0,0,1-.44.68c-0.64.26-1.43,0.55-2.24,0.81v3.26h2ZM202.37,248a0.66,0.66,0,0,1,.64.77,0.68,0.68,0,0,1-.64.77H189.85a0.68,0.68,0,0,1-.64-0.77,0.67,0.67,0,0,1,.64-0.77h5.54v-2.86h-4.2a0.66,0.66,0,0,1-.62-0.73,0.69,0.69,0,0,1,.62-0.77h4.2V241.2h-4.25a0.67,0.67,0,0,1-.62-0.75,0.63,0.63,0,0,1,.62-0.75H202a0.63,0.63,0,0,1,.64.73,0.68,0.68,0,0,1-.64.77h-5v2.49h4.47a0.65,0.65,0,0,1,.59.77,0.63,0.63,0,0,1-.59.73H197V248h5.39Zm-0.53-11.77c0,1.23-.57,1.72-1.91,1.72H193c-1.36,0-1.94-.48-1.94-1.72v-3.72c0-1.23.57-1.72,1.94-1.72h6.89c1.34,0,1.91.48,1.91,1.72v3.72Zm-2.27.22c0.48,0,.68-0.13.68-0.55v-3c0-.42-0.2-0.55-0.68-0.55h-6.21c-0.48,0-.68.13-0.68,0.55v3c0,0.42.2,0.55,0.68,0.55h6.21Z" transform="translate(0)" style="fill:#fff"/></g><g id="alpha"><rect width="1280" height="800" style="fill:none"/></g></svg>