<svg id="scene05" xmlns="http://www.w3.org/2000/svg" viewBox="0 0 1280 800"><title>scene05</title><g id="lamp"><path d="M664.24,448.59H615.77a6.53,6.53,0,1,0,0,13.06h48.47A6.53,6.53,0,0,0,664.24,448.59Z" style="fill:#989898"/><path d="M627.3,487.18v3.56a7.27,7.27,0,0,0,7.28,7.28h10.86a7.28,7.28,0,0,0,7.27-7.28v-3.56a15.83,15.83,0,0,0,14.75-15.76H612.54A15.83,15.83,0,0,0,627.3,487.18Z" style="fill:#989898"/><path d="M640,302a65.42,65.42,0,0,0-51.48,105.88A279.6,279.6,0,0,1,610,439.25H670a278.68,278.68,0,0,1,21.45-31.39A65.42,65.42,0,0,0,640,302Zm0.11,22.72A42.2,42.2,0,0,0,598,366.86a6.53,6.53,0,1,1-13.07,0,55.29,55.29,0,0,1,55.23-55.22A6.54,6.54,0,0,1,640.12,324.71Z" style="fill:#eee93a"/></g><g id="light"><line x1="639.73" y1="170.92" x2="639.73" y2="219.54" style="fill:none;stroke:#eee93a;stroke-linecap:round;stroke-miterlimit:10;stroke-width:10px"/><line x1="695.58" y1="182.46" x2="676.3" y2="227.1" style="fill:none;stroke:#eee93a;stroke-linecap:round;stroke-miterlimit:10;stroke-width:10px"/><line x1="584.42" y1="182.46" x2="603.7" y2="227.1" style="fill:none;stroke:#eee93a;stroke-linecap:round;stroke-miterlimit:10;stroke-width:10px"/></g><g id="s5_title"><rect x="63.16" y="40.19" width="149.99" height="149.99" style="fill:none;stroke:#fff;stroke-linejoin:round;stroke-width:5px"/><path d="M103.67,165.54c0,1.49-.62,2-1.92,2H100c-1.3,0-1.94-.46-1.94-2V154.24a1.66,1.66,0,0,1,1.94-1.94h1.78c1.3,0,1.92.48,1.92,1.94v11.31Zm-4-.26a0.52,0.52,0,0,0,.62.58h1.18a0.52,0.52,0,0,0,.62-0.58V154.55a0.52,0.52,0,0,0-.62-0.6h-1.18a0.52,0.52,0,0,0-.62.6v10.73ZM118.39,155a1.12,1.12,0,0,1,1.32,1.13,1.66,1.66,0,0,1-.12.58,6.72,6.72,0,0,1-1.3,2,0.82,0.82,0,0,1-.58.24,0.86,0.86,0,0,1-.48-0.14,0.61,0.61,0,0,1-.1-1,5.54,5.54,0,0,0,.82-1,0.34,0.34,0,0,0,0-.14c0-.1-0.1-0.14-0.29-0.14H107.66a0.52,0.52,0,0,0-.65.62v1.68c0,6-.86,10.3-3.31,13.37a1.14,1.14,0,0,1-.84.5,1.08,1.08,0,0,1-.58-0.22,0.91,0.91,0,0,1-.41-0.72,0.88,0.88,0,0,1,.24-0.6c2.71-3,3.19-7.18,3.22-12.55v-1.61a1.75,1.75,0,0,1,2-1.92h3.22v-4a0.75,0.75,0,0,1,.89-0.65,0.72,0.72,0,0,1,.89.65v1.1h5.54a0.76,0.76,0,0,1,0,1.49h-5.54V155h6ZM114,170.75v-6.94c0-.41.29-0.55,0.74-0.55a0.63,0.63,0,0,1,.77.55v3.36h1.27a0.54,0.54,0,0,0,.65-0.6v-2.21a0.64,0.64,0,0,1,.74-0.6,0.63,0.63,0,0,1,.72.6V167a1.42,1.42,0,0,1-1.66,1.68h-1.73v2.11h4a0.79,0.79,0,0,1,0,1.56h-13a0.79,0.79,0,0,1,0-1.56H111v-2.11h-1.58a1.41,1.41,0,0,1-1.66-1.68v-2.62a0.64,0.64,0,0,1,.72-0.58,0.63,0.63,0,0,1,.74.58v2.23a0.52,0.52,0,0,0,.62.6H111v-3.36c0-.41.34-0.55,0.79-0.55a0.59,0.59,0,0,1,.72.55v6.94H114Zm-3.34-13.32a0.63,0.63,0,0,1,.74-0.62,0.68,0.68,0,0,1,.84.62v0.77l3.48-.26h0a0.59,0.59,0,0,1,.58.65v0.07a0.58,0.58,0,0,1-.53.65l-3.58.29v0.79a0.53,0.53,0,0,0,.53.65,13,13,0,0,0,2.09.1,15.63,15.63,0,0,0,1.87-.1,0.92,0.92,0,0,0,.86-0.46,2.93,2.93,0,0,0,.22-0.82,0.5,0.5,0,0,1,.6-0.48,0.9,0.9,0,0,1,.24,0,0.62,0.62,0,0,1,.67.67v0.12a4.29,4.29,0,0,1-.48,1.56,1.9,1.9,0,0,1-1.49.7,15.71,15.71,0,0,1-2.57.12,13,13,0,0,1-3.24-.24,1.17,1.17,0,0,1-.89-1.37v-1.15l-2.54.19h0a0.57,0.57,0,0,1-.53-0.62v-0.07a0.59,0.59,0,0,1,.48-0.7l2.64-.19v-0.89Z" style="fill:#fff"/><path d="M124.77,172a5.44,5.44,0,0,1-1.68,1.63,0.53,0.53,0,0,1-.31.1,0.72,0.72,0,0,1-.58-0.29,0.9,0.9,0,0,1-.1-0.38,0.53,0.53,0,0,1,.24-0.48,4.85,4.85,0,0,0,1.08-.89,1.69,1.69,0,0,0,.43-1v0a0.1,0.1,0,0,0-.12-0.12h-0.07a1.3,1.3,0,0,1-.26,0,1.48,1.48,0,0,1-1.49-1.56,1.53,1.53,0,0,1,1.61-1.58,1.9,1.9,0,0,1,1.85,2.18A4.84,4.84,0,0,1,124.77,172Z" style="fill:#fff"/><path d="M143.68,153.59h-7.44a0.61,0.61,0,0,1-.6-0.7,0.62,0.62,0,0,1,.6-0.72h7.44v-0.91a0.71,0.71,0,0,1,.86-0.67c0.55,0,.89.19,0.89,0.67v0.91h6c1.42,0,2,.53,2,1.75v1H155a0.64,0.64,0,0,1,.65.74,0.66,0.66,0,0,1-.65.77h-1.61v1c0,1.22-.55,1.82-2,1.82h-6v5.78h7v-1.42h-3.17c-1.2,0-1.78-.43-1.78-1.63v-1.37a0.65,0.65,0,0,1,.79-0.6,0.71,0.71,0,0,1,.86.6v1.18c0,0.43.17,0.5,0.6,0.5h2.69v-1.78a0.9,0.9,0,0,1,1.73,0v11.78a0.9,0.9,0,0,1-1.73,0v-3h-2.57c-0.43,0-.62,0-0.62.5v2.38a0.69,0.69,0,0,1-.84.6,0.7,0.7,0,0,1-.84-0.6v-2.52a1.54,1.54,0,0,1,1.82-1.73h3V166.5h-7v5.81a0.72,0.72,0,0,1-.89.65,0.7,0.7,0,0,1-.86-0.65V166.5H137c0,0.48-.12,1-0.19,1.46h2.71a1.51,1.51,0,0,1,1.8,1.7v2.54a0.92,0.92,0,0,1-1.73,0v-2.38c0-.46-0.19-0.5-0.62-0.5h-2.45a10.53,10.53,0,0,1-1.37,3.07,0.89,0.89,0,0,1-.74.46,0.94,0.94,0,0,1-.55-0.17,0.75,0.75,0,0,1-.38-0.7,1.16,1.16,0,0,1,.22-0.65c1.22-1.68,1.75-4.54,1.75-8.64v-2.09a0.68,0.68,0,0,1,.84-0.67,0.72,0.72,0,0,1,.86.67v1.73h2.18c0.43,0,.6-0.07.6-0.5v-1.18a0.85,0.85,0,0,1,1.63,0V162c0,1.2-.58,1.63-1.75,1.63h-2.66V164c0,0.34,0,.7,0,1.06h6.58V159.3h-7.46a0.66,0.66,0,0,1-.6-0.77,0.61,0.61,0,0,1,.6-0.7h7.46v-1.42h-9.53a0.65,0.65,0,0,1-.6-0.74,0.63,0.63,0,0,1,.6-0.72h9.53v-1.37Zm8,1.37v-0.84c0-.43-0.22-0.53-0.67-0.53h-5.59V155h6.26Zm-6.26,2.88H151c0.46,0,.67-0.12.67-0.55v-0.86h-6.26v1.42Z" style="fill:#fff"/><path d="M167.27,158.58a0.63,0.63,0,0,1,.62.7,0.66,0.66,0,0,1-.62.74h-9.38a0.63,0.63,0,0,1-.6-0.72,0.62,0.62,0,0,1,.6-0.72H162v-1.75h-3a0.59,0.59,0,0,1-.55-0.67,0.61,0.61,0,0,1,.55-0.72h3v-1.49h-3.62a0.74,0.74,0,0,1,0-1.44H162v-1.27a0.66,0.66,0,0,1,.82-0.62c0.53,0,.82.19,0.82,0.62v1.27h3.55a0.63,0.63,0,0,1,.6.72,0.64,0.64,0,0,1-.6.72H163.6v1.49h2.76a0.62,0.62,0,0,1,.58.7,0.63,0.63,0,0,1-.58.7H163.6v1.75h3.67ZM160,167.41v4.92a0.63,0.63,0,0,1-.77.65,0.69,0.69,0,0,1-.82-0.65v-9.19c0-1.22.6-1.75,2-1.75h4.7c1.39,0,2,.53,2,1.75v7.73c0,1.42-.53,1.9-2.14,1.9a6.63,6.63,0,0,1-1.49-.14,0.71,0.71,0,0,1-.6-0.74,0.47,0.47,0,0,1,0-.17,0.59,0.59,0,0,1,.62-0.6h0.12a8.52,8.52,0,0,0,1.13.1c0.6,0,.79-0.12.79-0.79v-3H160Zm2-4.61h-1.3c-0.46,0-.72.12-0.72,0.55V166h2v-3.24Zm3.53,3.24v-2.69c0-.43-0.22-0.55-0.7-0.55h-1.34V166h2Zm11.86-15.48a0.73,0.73,0,0,1,.7.48,0.92,0.92,0,0,1,.1.41,0.69,0.69,0,0,1-.55.67,32.38,32.38,0,0,1-6.48,1.2,0.75,0.75,0,0,0-.82.65,11.11,11.11,0,0,1-1.34,3.14,0.87,0.87,0,0,1-.72.43,1,1,0,0,1-.5-0.14,0.77,0.77,0,0,1-.38-0.67,1,1,0,0,1,.17-0.5A10.59,10.59,0,0,0,169,153a1.59,1.59,0,0,1,1.58-1.15,24.24,24.24,0,0,0,6.48-1.22A1.09,1.09,0,0,1,177.4,150.56Zm-8.26,8.74a0.63,0.63,0,0,1-.6-0.72,0.64,0.64,0,0,1,.6-0.74h7.51a1.56,1.56,0,0,1,1.85,1.75v2h1a0.59,0.59,0,0,1,.58.72,0.61,0.61,0,0,1-.58.74h-1v2.3a1.57,1.57,0,0,1-1.85,1.78h-2.71v3.41c0,1.63-.5,2.18-2.54,2.21a12,12,0,0,1-1.94-.17,0.74,0.74,0,0,1-.62-0.77,1,1,0,0,1,0-.26,0.76,0.76,0,0,1,.77-0.65,0.6,0.6,0,0,1,.19,0,8.56,8.56,0,0,0,1.44.14c0.84,0,1.06-.14,1.06-0.94v-3h-3.41a0.67,0.67,0,0,1-.65-0.77,0.62,0.62,0,0,1,.65-0.7h3.41v-2.62h-3.84a0.64,0.64,0,0,1-.65-0.72,0.65,0.65,0,0,1,.65-0.74h3.84v-2.3h-3.17Zm3.89-5.59a0.79,0.79,0,0,1,.77.46c0.29,0.67.65,1.56,0.82,2.11,0,0.07,0,.14,0,0.22a0.66,0.66,0,0,1-.6.65,1.08,1.08,0,0,1-.26,0,0.76,0.76,0,0,1-.77-0.55,13.46,13.46,0,0,0-.74-2,0.73,0.73,0,0,1-.07-0.29,0.61,0.61,0,0,1,.58-0.58A1.08,1.08,0,0,1,173,153.71Zm0.91,7.9h3v-1.75c0-.43-0.22-0.55-0.65-0.55h-2.33v2.3Zm2.33,4.08a0.52,0.52,0,0,0,.65-0.58v-2h-3v2.62h2.33Zm0.79-12.84a1,1,0,0,1,.7.34,18.57,18.57,0,0,1,1.94,3.29,1.08,1.08,0,0,1,.07.38,0.67,0.67,0,0,1-.41.62,0.94,0.94,0,0,1-.43.1,0.77,0.77,0,0,1-.74-0.48,20.34,20.34,0,0,0-1.85-3.19,0.45,0.45,0,0,1-.12-0.34,0.75,0.75,0,0,1,.43-0.62A0.79,0.79,0,0,1,177.07,152.84Z" style="fill:#fff"/><path d="M97,86.9a1.86,1.86,0,0,1,1.51.82,2.69,2.69,0,0,1,.63,1.64,2.57,2.57,0,0,1-.82,1.76,89.67,89.67,0,0,1-15.44,10.71,3.8,3.8,0,0,1-1.51.38,2.44,2.44,0,0,1-2.21-1.45,2.82,2.82,0,0,1-.32-1.2,2.38,2.38,0,0,1,1.51-2.14,73.38,73.38,0,0,0,15.18-10A2.22,2.22,0,0,1,97,86.9Zm8.57,20.6c0,4.85-2.27,6.68-7.37,6.68a34.43,34.43,0,0,1-7.25-.63,2.27,2.27,0,0,1-2-2.33,2.83,2.83,0,0,1,.06-0.69,2,2,0,0,1,2.08-2,2.36,2.36,0,0,1,.63.06,34,34,0,0,0,5.8.63c2.46,0,3.15-.63,3.15-3.15v-40c0-1.39-.69-1.76-2.14-1.76H81.1c-1.26,0-1.83-1.07-1.83-2.33s0.57-2.27,1.83-2.27h19c3.84,0,5.54,1.45,5.54,5.23V107.5ZM84.94,69.7a2.45,2.45,0,0,1,1.76.82,63.63,63.63,0,0,1,7.06,10.21A2.65,2.65,0,0,1,94.14,82a2.26,2.26,0,0,1-1.32,2,2.65,2.65,0,0,1-1.32.38,2.3,2.3,0,0,1-2-1.26A65,65,0,0,0,82.86,73.1a1.84,1.84,0,0,1-.5-1.2,2.19,2.19,0,0,1,1.2-1.76A2.4,2.4,0,0,1,84.94,69.7Zm40.39,16.63a1.84,1.84,0,0,1,1.45.88,2.59,2.59,0,0,1,.57,1.64,2.36,2.36,0,0,1-.82,1.83,104.09,104.09,0,0,1-15.12,10.4,2.27,2.27,0,0,1-1.26.38,2.62,2.62,0,0,1-2.14-1.39,3.39,3.39,0,0,1-.31-1.32,2.27,2.27,0,0,1,1.26-2A82.47,82.47,0,0,0,123.81,87,2.36,2.36,0,0,1,125.32,86.33Zm8.38,21.17c0,4.85-2.33,6.68-7.43,6.68a40.27,40.27,0,0,1-7.12-.57,2.16,2.16,0,0,1-2-2.33,2.59,2.59,0,0,1,.06-0.69,2.12,2.12,0,0,1,2.14-2,1.75,1.75,0,0,1,.57.06,28.63,28.63,0,0,0,5.8.63c2.39,0,3-.63,3-3V66.11c0-1.39-.69-1.76-2.14-1.76H109.57c-1.26,0-1.83-1.07-1.83-2.33s0.57-2.27,1.83-2.27h18.59c3.84,0,5.54,1.45,5.54,5.23V107.5ZM113.17,69.57a2.45,2.45,0,0,1,1.76.82,62.79,62.79,0,0,1,7.18,10.46,3.1,3.1,0,0,1,.31,1.26,2.16,2.16,0,0,1-1.2,2,2.4,2.4,0,0,1-1.39.44,2.25,2.25,0,0,1-2-1.32,61.71,61.71,0,0,0-6.8-10.27,1.66,1.66,0,0,1-.44-1.2,2,2,0,0,1,1.13-1.7A2.4,2.4,0,0,1,113.17,69.57Z" style="fill:#fff"/><path d="M150.9,88.35a81.19,81.19,0,0,1,.5-8.63,52.29,52.29,0,0,1-6,8.13,2.39,2.39,0,0,1-1.83.94,2.58,2.58,0,0,1-1.7-.76,2.52,2.52,0,0,1-.13-3.59,63,63,0,0,0,14.93-25.83,2,2,0,0,1,2.14-1.45,7,7,0,0,1,1.07.13,2.12,2.12,0,0,1,1.7,2.08,3.69,3.69,0,0,1-.13.82,86.69,86.69,0,0,1-5.61,13.36v39.69c0,1.2-.94,1.89-2.46,1.89s-2.46-.69-2.46-1.89V88.35Zm22.81,17c0,1.89.5,2.58,3,2.83,1.39,0.13,3.21.19,5.86,0.19a31,31,0,0,0,7.5-.69,4,4,0,0,0,2.71-2.33c0.63-1.51.94-4.41,1.13-7.56a2.09,2.09,0,0,1,2.33-2.21h0.31a2.18,2.18,0,0,1,2.27,2.27V98A32.68,32.68,0,0,1,197,108.13c-1,2.46-2.9,3.72-5.8,4.35a43.33,43.33,0,0,1-8.88.69,67.5,67.5,0,0,1-7.87-.32c-4.35-.5-5.73-2.27-5.73-6.3V59.11c0-1.26,1-2,2.46-2s2.52,0.69,2.52,2V81.67a76.52,76.52,0,0,0,18.65-14.3,2.53,2.53,0,0,1,1.64-.69,3,3,0,0,1,1.89.82,2.87,2.87,0,0,1,.95,2,2.2,2.2,0,0,1-.88,1.76c-5.61,5.61-13.55,11.21-22.24,15.81v18.27Z" style="fill:#fff"/></g><g id="alpha"><rect width="1280" height="800" style="fill:none"/></g></svg>