<svg id="scene03" xmlns="http://www.w3.org/2000/svg" xmlns:xlink="http://www.w3.org/1999/xlink" viewBox="0 0 1280 800"><defs><clipPath id="clip-path"><ellipse cx="1118.43" cy="120.8" rx="20.62" ry="28.6" transform="translate(981.97 1237.42) rotate(-89.2)" style="fill:none"/></clipPath></defs><title>scene03</title><g id="greenCircle"><circle cx="640" cy="389.68" r="145.41" style="fill:#b7d893"/></g><g id="yellowCircle"><circle cx="640" cy="389.68" r="99.22" style="fill:#eee93a"/></g><g id="flower"><rect x="611.74" y="367.35" width="20.94" height="4.18" transform="translate(236.28 981.56) rotate(-88.47)" style="fill:#6b2156"/><path d="M628.41,348.11a5.42,5.42,0,1,1-5.28-5.56A5.42,5.42,0,0,1,628.41,348.11Z" style="fill:#6b2156"/><rect x="628.49" y="367.78" width="20.94" height="4.19" transform="translate(252.68 999.05) rotate(-88.52)" style="fill:#6b2156"/><circle cx="639.45" cy="348.4" r="5.42" transform="translate(274.18 978.37) rotate(-88.48)" style="fill:#6b2156"/><rect x="645.24" y="368.22" width="20.94" height="4.19" transform="translate(268.47 1016.18) rotate(-88.51)" style="fill:#6b2156"/><path d="M661.33,349a5.42,5.42,0,1,1-5.28-5.57A5.43,5.43,0,0,1,661.33,349Z" style="fill:#6b2156"/><path d="M698.73,387.89a59.67,59.67,0,0,1-119.3-3.14" style="fill:#e986a1"/><path d="M597.59,342.94a59.8,59.8,0,0,0-2.32,84.44s0,0.14,0,.17l43.48-41.25Z" style="fill:#efa834"/><path d="M679.92,430.11a59.88,59.88,0,0,0,2-84.46l-43.2,41Z" style="fill:#cc2b6b"/><path d="M563.51,410.91c4.27-7.81,24.52-5,45.22,6.39s34,26.85,29.75,34.65" style="fill:#73ba6a"/><path d="M638.85,451.27c-4.3,7.86-24.58,5-45.28-6.29s-34-26.89-29.7-34.75" style="fill:#2c8744"/><path d="M716.62,416c-3.85-8-24.22-6.23-45.49,4s-35.39,25-31.53,33" style="fill:#73ba6a"/><path d="M639.26,452.38c3.88,8.08,24.27,6.33,45.54-3.9s35.36-25.07,31.48-33.14" style="fill:#2c8744"/><path d="M626.85,441.73c10.86,10.86,34.85,4.46,53.6-14.28s25.14-42.74,14.28-53.6" style="fill:#999;opacity:0.30000000000000004"/><path d="M653,443.73c-10.86,10.86-34.85,4.46-53.59-14.28s-25.14-42.74-14.28-53.6" style="fill:#999;opacity:0.30000000000000004"/></g><g id="drop"><path d="M640,51.54c11.06,19.53,25.75,49.74,29.28,67.33,3.34,16.67-.47,43.84-19.26,50.27-5.76,2-13.56,1.52-19.38-.05-22.5-6.11-23.5-35-18.62-53.91C616.26,98.7,628.64,69.89,640,51.54Z" style="fill:#7eacd1;fill-rule:evenodd"/><path d="M640.15,51.61c-0.24,1.34,3.11,5.45,3.74,6.67,1.5,2.87,2.9,5.77,4.26,8.69,2.81,6,5.39,12.15,8.1,18.21,4.79,10.74,10.48,22.1,9.59,33.93-0.5,6.69-4.22,22.14-12.82,24.75-6.67,2-11-5.39-12.93-9.79-3.4-7.91-.84-16.36.84-24.31a71.07,71.07,0,0,0,1-24.38C640.39,74.18,638.11,62.88,640.15,51.61Z" style="fill:#f2f2f2;fill-rule:evenodd;opacity:0.30000000000000004"/><ellipse cx="639.84" cy="163.83" rx="11.42" ry="5.64" style="fill:#f2f2f2;opacity:0.30000000000000004"/></g><g id="bee"><path d="M1069.1,113.19l-12.68-7.83a3.39,3.39,0,1,0-3.43,3.42,3.34,3.34,0,0,0,1.27-.23l13.44,8.3a18.89,18.89,0,0,0-.23,8.74l-13.19,7A3.39,3.39,0,1,0,1056,136l12.71-6.71A18.88,18.88,0,1,0,1069.1,113.19Z" style="fill:#785033"/><ellipse cx="1118.43" cy="120.8" rx="20.62" ry="28.6" transform="translate(981.97 1237.42) rotate(-89.2)" style="fill:#f3b424"/><g style="clip-path:url(#clip-path)"><rect x="1069.77" y="115.91" width="56.46" height="6.09" transform="translate(963.79 1215.19) rotate(-89.2)" style="fill:#785033"/><rect x="1080.58" y="116.06" width="56.45" height="6.09" transform="translate(974.34 1226.16) rotate(-89.21)" style="fill:#785033"/><rect x="1091.4" y="116.21" width="56.45" height="6.09" transform="translate(984.77 1237.11) rotate(-89.2)" style="fill:#785033"/><rect x="1102.21" y="116.36" width="56.45" height="6.09" transform="translate(995.23 1248.07) rotate(-89.2)" style="fill:#785033"/><rect x="1113.03" y="116.51" width="56.46" height="6.09" transform="translate(1005.8 1259.03) rotate(-89.2)" style="fill:#785033"/></g><ellipse cx="1111.49" cy="145.44" rx="11.36" ry="33.08" transform="translate(213.18 815.97) rotate(-44.19)" style="fill:#7eacd1"/><path d="M1120.07,106.86c13.1-12.74,20.17-26.72,15.79-31.22s-18.53,2.18-31.64,14.92-20.17,26.71-15.8,31.22S1107,119.59,1120.07,106.86Z" style="fill:#7eacd1"/></g><g id="s3_title"><rect x="63.16" y="40.19" width="149.99" height="149.99" style="fill:none;stroke:#fff;stroke-linejoin:round;stroke-width:5px"/><path d="M82.52,161.7a0.85,0.85,0,0,1-.22.55,0.93,0.93,0,0,1-.74.36,1,1,0,0,1-.65-0.26,19.31,19.31,0,0,0-2.66-1.92,0.71,0.71,0,0,1-.34-0.65,1.1,1.1,0,0,1,.19-0.58,0.93,0.93,0,0,1,.74-0.36,1.1,1.1,0,0,1,.48.12,15.46,15.46,0,0,1,2.83,2A1,1,0,0,1,82.52,161.7Zm0.55,5.11a1,1,0,0,1-.07.36,36.68,36.68,0,0,1-3.12,6.7,1,1,0,0,1-.79.41,1,1,0,0,1-.58-0.17,0.93,0.93,0,0,1-.48-0.79,0.86,0.86,0,0,1,.14-0.48,29.18,29.18,0,0,0,3.07-6.34,0.81,0.81,0,0,1,.79-0.6,1,1,0,0,1,.36.07A0.88,0.88,0,0,1,83.07,166.82Zm0.58-10.73a0.83,0.83,0,0,1-.24.6,0.88,0.88,0,0,1-.67.31,1.12,1.12,0,0,1-.77-0.34,18.38,18.38,0,0,0-2.62-2.28,0.77,0.77,0,0,1-.31-0.65,0.92,0.92,0,0,1,.22-0.6,1.1,1.1,0,0,1,.74-0.36,0.93,0.93,0,0,1,.55.17,19.87,19.87,0,0,1,2.81,2.42A1.06,1.06,0,0,1,83.65,156.09Zm7.8,17.5v0.12a0.71,0.71,0,0,1-.65.77,0.67,0.67,0,0,1-.22,0,0.71,0.71,0,0,1-.72-0.67c0-.34-0.12-0.67-0.19-1-2,.38-4.42.77-6.6,1H83a0.78,0.78,0,0,1-.77-0.79v-0.07a0.77,0.77,0,0,1,.72-0.86l0.67,0c1-1.44,1.94-2.93,2.83-4.46a28.14,28.14,0,0,0-3.24-4.46,0.91,0.91,0,0,1-.22-0.58,0.81,0.81,0,0,1,.26-0.6,1,1,0,0,1,.58-0.24,0.91,0.91,0,0,1,.65.34l0.5,0.58a18.73,18.73,0,0,0,2-4.06,0.71,0.71,0,0,1,.72-0.46,1.09,1.09,0,0,1,.38.07,0.72,0.72,0,0,1,.55.67,0.66,0.66,0,0,1-.07.31,24.86,24.86,0,0,1-2.54,4.8c0.46,0.67.91,1.32,1.34,2q0.86-1.66,1.58-3.24a0.78,0.78,0,0,1,.7-0.53,0.67,0.67,0,0,1,.41.12,0.82,0.82,0,0,1,.53.74,1.25,1.25,0,0,1-.14.53,71.21,71.21,0,0,1-4.85,8.3c1.25-.12,2.5-0.26,3.72-0.5a23.49,23.49,0,0,0-.86-2.59,0.84,0.84,0,0,1,0-.24,0.7,0.7,0,0,1,.53-0.62,1.2,1.2,0,0,1,.29,0,0.76,0.76,0,0,1,.72.43,27.66,27.66,0,0,1,1.22,3.89,0.65,0.65,0,0,1,.58-0.31h0.1q1.37-2.09,2.59-4.25a30.78,30.78,0,0,0-3.26-4.75,0.75,0.75,0,0,1-.22-0.53,1,1,0,0,1,.26-0.65,0.79,0.79,0,0,1,.53-0.22,0.91,0.91,0,0,1,.67.34l0.48,0.58a24.56,24.56,0,0,0,1.75-3.77,0.72,0.72,0,0,1,.7-0.46,1.13,1.13,0,0,1,.41.07,0.8,0.8,0,0,1,.58.74,1.2,1.2,0,0,1,0,.29,28.91,28.91,0,0,1-2.38,4.49c0.5,0.74,1,1.46,1.44,2.23,0.7-1.34,1.32-2.66,1.82-3.94a0.74,0.74,0,0,1,.7-0.48,0.81,0.81,0,0,1,.46.12,0.76,0.76,0,0,1,.53.7,0.86,0.86,0,0,1-.12.46,59.34,59.34,0,0,1-5.11,8.9c1.46-.12,2.9-0.36,4.34-0.58a27.8,27.8,0,0,0-1.13-2.54,0.68,0.68,0,0,1-.1-0.36,0.7,0.7,0,0,1,.48-0.67,1.2,1.2,0,0,1,.38-0.07,0.81,0.81,0,0,1,.74.48,29.13,29.13,0,0,1,2.06,5.18,1.32,1.32,0,0,1,.07.41,0.73,0.73,0,0,1-.58.72,1.41,1.41,0,0,1-.31,0,0.79,0.79,0,0,1-.79-0.65c-0.1-.38-0.22-0.79-0.36-1.2a64.2,64.2,0,0,1-6.55,1h-0.1a0.69,0.69,0,0,1-.34-0.07Zm8.19-17.67a0.71,0.71,0,0,1,.65.84,0.7,0.7,0,0,1-.65.82H84.87a0.71,0.71,0,0,1-.67-0.82,0.72,0.72,0,0,1,.67-0.84h3.65a19.5,19.5,0,0,0-1.44-2.45,0.71,0.71,0,0,1-.12-0.36,0.75,0.75,0,0,1,.5-0.7,1.12,1.12,0,0,1,.41-0.07,0.9,0.9,0,0,1,.77.38,26.08,26.08,0,0,1,1.73,3.19h2.9a15.59,15.59,0,0,0,1.58-3,0.92,0.92,0,0,1,.86-0.62,1.66,1.66,0,0,1,.31,0,0.78,0.78,0,0,1,.7.7,0.74,0.74,0,0,1-.07.31,19.24,19.24,0,0,1-1.49,2.54h4.46Z" style="fill:#fff"/><path d="M118,161.37a15.12,15.12,0,0,0,6,4,0.83,0.83,0,0,1,.55.79,1.34,1.34,0,0,1-.07.41,0.83,0.83,0,0,1-.79.55,1.29,1.29,0,0,1-.5-0.12,20.24,20.24,0,0,1-3.74-2.35,7.41,7.41,0,0,1,.12,1.3v2.11c0,1.18-.62,1.66-1.85,1.66h-3.89a9.42,9.42,0,0,0,2.69,1.85,19.13,19.13,0,0,0,4-2.86,0.94,0.94,0,0,1,.65-0.29,1,1,0,0,1,.94.82,0.56,0.56,0,0,1-.24.48,24.38,24.38,0,0,1-3.72,2.52,22.75,22.75,0,0,0,5.23.91,0.72,0.72,0,0,1,.77.77v0.19a0.84,0.84,0,0,1-.91.74h-0.17c-4.75-.5-8.35-1.92-11.16-5.14H108v2.93c1.7-.24,3.41-0.53,4.78-0.86l0.29,0a0.63,0.63,0,0,1,.67.62,0.47,0.47,0,0,1,0,.19,0.7,0.7,0,0,1-.65.72,73.56,73.56,0,0,1-8.9,1.44h-0.1a0.8,0.8,0,0,1-.84-0.77V173.8a0.71,0.71,0,0,1,.74-0.74c0.7,0,1.46-.12,2.26-0.19V167a12.25,12.25,0,0,1,.12-1.66,19.2,19.2,0,0,1-3.26,2,1.28,1.28,0,0,1-.58.14,0.82,0.82,0,0,1-.74-0.5,1.29,1.29,0,0,1-.12-0.48,0.8,0.8,0,0,1,.58-0.77,13.88,13.88,0,0,0,6.07-4.32h-5.5a0.62,0.62,0,0,1-.6-0.7,0.6,0.6,0,0,1,.6-0.67h9.34v-1.49h-7.56a0.61,0.61,0,0,1-.55-0.67,0.59,0.59,0,0,1,.55-0.67h7.56v-1.44h-8.4a0.64,0.64,0,0,1-.6-0.72,0.58,0.58,0,0,1,.6-0.65h5.06c-0.31-.48-0.74-1-1.06-1.39a0.51,0.51,0,0,1-.12-0.31,0.65,0.65,0,0,1,.46-0.55,1.22,1.22,0,0,1,.48-0.1,0.9,0.9,0,0,1,.67.26,19.15,19.15,0,0,1,1.49,2.09h4.73a14.18,14.18,0,0,0,1.22-1.94,0.79,0.79,0,0,1,.72-0.41,1.64,1.64,0,0,1,.46.07,0.7,0.7,0,0,1,.55.6,0.64,0.64,0,0,1-.07.29,12.11,12.11,0,0,1-1,1.39h5.16a0.57,0.57,0,0,1,.6.65,0.66,0.66,0,0,1-.6.72h-8.76v1.44h7.9a0.58,0.58,0,0,1,.55.67,0.61,0.61,0,0,1-.55.67h-7.9V160h9.67a0.58,0.58,0,0,1,.6.67,0.62,0.62,0,0,1-.6.7H118Zm-0.07,4.46V165c0-.41-0.22-0.53-0.65-0.53h-8.62c-0.48,0-.72.12-0.72,0.53v0.84h10Zm-0.65,2.62c0.43,0,.65-0.1.65-0.53v-0.86h-10v1.39h9.34Zm-7.06-7.08a10.88,10.88,0,0,1-1.66,2,8.4,8.4,0,0,1,1.32-.12h2.38v-0.86c0-.34.34-0.53,0.84-0.53a0.71,0.71,0,0,1,.86.53v0.86h2.66a7.62,7.62,0,0,1,1.3.12,21,21,0,0,1-1.87-2h-5.83Z" style="fill:#fff"/><path d="M138.2,167.83l0.22-6.89v0a0.61,0.61,0,0,0-.74-0.53h-1.46a1.56,1.56,0,0,1-1.85-1.7v-0.19l0.24-5.11c0-.46.29-0.62,0.84-0.62a0.64,0.64,0,0,1,.79.65v0l-0.07,1.49h3.7a0.59,0.59,0,0,1,.62.72,0.63,0.63,0,0,1-.62.77h-3.79l-0.1,1.9v0c0,0.41.29,0.5,0.67,0.5h1.46a1.71,1.71,0,0,1,2,1.8v0.12l-0.22,7.06h4.49l0.14-3.46h-2.86a0.65,0.65,0,0,1-.62-0.79,0.62,0.62,0,0,1,.62-0.77h2.93l0.12-2.9h-3a0.65,0.65,0,0,1-.62-0.79,0.62,0.62,0,0,1,.62-0.77h3.12l0.1-2.45a0.61,0.61,0,0,0-.74-0.67h-2.47a0.63,0.63,0,0,1-.6-0.77,0.66,0.66,0,0,1,.65-0.82h3c1.39,0,1.85.53,1.85,1.66v0.17l-0.5,12.36h1.56a0.83,0.83,0,0,1,0,1.61H126.41a0.83,0.83,0,0,1,0-1.61H128l-0.36-11.38v-0.26a1.71,1.71,0,0,1,1.39-2,16.23,16.23,0,0,0,2.83-1.15,1.07,1.07,0,0,1,.46-0.12,0.86,0.86,0,0,1,.67.38,1,1,0,0,1,.19.53,0.66,0.66,0,0,1-.36.6,17.3,17.3,0,0,1-2.88,1.2,0.8,0.8,0,0,0-.58,1l0,1.9h3.17a0.63,0.63,0,0,1,.65.77,0.66,0.66,0,0,1-.65.79h-3.12l0.07,2.86h3a0.62,0.62,0,0,1,.62.77,0.63,0.63,0,0,1-.62.77h-3l0.1,3.38h4.44l0.19-5.66a0.67,0.67,0,0,1,.74-0.62h0.07a0.7,0.7,0,0,1,.82.65l-0.19,5.64h2.42Zm-4.66,2.09a1,1,0,0,1,.67.31,0.89,0.89,0,0,1,.29.62,0.68,0.68,0,0,1-.31.58,19.86,19.86,0,0,1-6.41,3.22,1.21,1.21,0,0,1-.29,0,0.92,0.92,0,0,1-.84-0.65,1.88,1.88,0,0,1,0-.34,0.75,0.75,0,0,1,.58-0.77,17,17,0,0,0,5.93-2.88A0.78,0.78,0,0,1,133.54,169.91Zm13.73,2.9a0.74,0.74,0,0,1,.6.77,1.89,1.89,0,0,1,0,.34,0.81,0.81,0,0,1-.84.67,1.17,1.17,0,0,1-.29,0,20.54,20.54,0,0,1-6.67-3.14,0.74,0.74,0,0,1-.31-0.58,1,1,0,0,1,.26-0.6,0.89,0.89,0,0,1,.65-0.29,1,1,0,0,1,.48.14A18.65,18.65,0,0,0,147.27,172.82Z" style="fill:#fff"/><path d="M151,163.53a0.85,0.85,0,0,1,0-1.68h20.38a0.7,0.7,0,0,1,.7.82,0.72,0.72,0,0,1-.7.86h-2.59v8.81c0,1.68-1.08,2.35-2.88,2.35a11.76,11.76,0,0,1-2.4-.24,0.8,0.8,0,0,1-.62-0.79,1,1,0,0,1,0-.26,0.78,0.78,0,0,1,.77-0.7,0.67,0.67,0,0,1,.22,0,10.63,10.63,0,0,0,1.75.22c1,0,1.27-.22,1.27-1v-8.38H151Zm11.59-7.3c1.56,1.92,4,2.88,7.39,3.26a0.75,0.75,0,0,1,.7.79v0.17a0.84,0.84,0,0,1-.89.79h-0.12c-3.86-.38-6.77-1.8-8.67-4.44-1.39,2.47-4.08,3.94-8.16,4.51a0.82,0.82,0,0,1-.24,0,0.78,0.78,0,0,1-.79-0.72,0.67,0.67,0,0,1,0-.22,0.78,0.78,0,0,1,.67-0.82c3.46-.55,5.74-1.44,6.91-3.36h-7a0.72,0.72,0,0,1-.7-0.82,0.71,0.71,0,0,1,.7-0.82H160a10.25,10.25,0,0,0,.26-1.61,0.74,0.74,0,0,1,.86-0.67h0.1a0.74,0.74,0,0,1,.82.74v0.1a9,9,0,0,1-.24,1.44H170a0.67,0.67,0,0,1,.7.79,0.71,0.71,0,0,1-.7.84h-7.42Zm-1,9c1.39,0,2,.53,2,1.82v2.81c0,1.34-.65,1.87-2,1.87h-6c-1.39,0-2-.53-2-1.87v-2.81c0-1.3.65-1.82,2-1.82h6ZM161,170.15c0.5,0,.74-0.12.74-0.55v-2.21c0-.46-0.24-0.58-0.74-0.58h-5c-0.5,0-.74.12-0.74,0.58v2.21c0,0.43.24,0.55,0.74,0.55h5Z" style="fill:#fff"/><path d="M176.48,160.94c-1.25,0-1.87-.5-1.87-1.75V154.7a1.59,1.59,0,0,1,1.87-1.78H180a1.59,1.59,0,0,1,1.87,1.78v4.49c0,1.25-.62,1.75-1.87,1.75h-0.41v3.58h2.11a0.68,0.68,0,0,1,.65.79,0.7,0.7,0,0,1-.65.82h-2.11v4.44c0.65-.22,1.27-0.46,1.85-0.67a0.85,0.85,0,0,1,.34-0.07,0.69,0.69,0,0,1,.65.5,1.32,1.32,0,0,1,.07.41,0.77,0.77,0,0,1-.55.72,66.23,66.23,0,0,1-7.1,2.3,1.85,1.85,0,0,1-.34,0,0.73,0.73,0,0,1-.74-0.7,0.71,0.71,0,0,1,0-.31,0.67,0.67,0,0,1,.55-0.72c0.17,0,.36-0.07.55-0.12v-8.4a0.68,0.68,0,0,1,.82-0.62,0.69,0.69,0,0,1,.82.62v8l0.91-.26,0.62-.19V160.94h-1.49Zm0.43-6.41a0.52,0.52,0,0,0-.62.62v3.62a0.51,0.51,0,0,0,.62.6h2.62a0.52,0.52,0,0,0,.65-0.6v-3.62a0.53,0.53,0,0,0-.65-0.62h-2.62Zm4.78,20.19a0.79,0.79,0,0,1-.84-0.62,1.41,1.41,0,0,1,0-.31,0.7,0.7,0,0,1,.6-0.72,15.69,15.69,0,0,0,4.54-1.63,1.3,1.3,0,0,1,.5-0.12,1.1,1.1,0,0,1,.74.29,0.75,0.75,0,0,1,.22.53,0.76,0.76,0,0,1-.36.65,15.73,15.73,0,0,1-5.09,1.92A1.08,1.08,0,0,1,181.69,174.71Zm13.85-20.81a0.59,0.59,0,0,1,.55.7,0.61,0.61,0,0,1-.55.7h-5.69v1.25h4.82a0.69,0.69,0,0,1,0,1.34h-4.82v1.32h6.07a0.59,0.59,0,0,1,.55.7,0.62,0.62,0,0,1-.55.72H182.74a0.63,0.63,0,0,1-.58-0.72,0.59,0.59,0,0,1,.58-0.7h5.47v-1.32H183.8a0.58,0.58,0,0,1-.53-0.65,0.59,0.59,0,0,1,.53-0.7h4.42V155.3h-5a0.62,0.62,0,0,1-.58-0.7,0.59,0.59,0,0,1,.58-0.7h5v-1.13a0.86,0.86,0,0,1,1.63,0v1.13h5.69Zm-0.36,15.24c0,1.25-.6,1.78-1.9,1.78h-8.14c-1.3,0-1.9-.53-1.9-1.78v-5.59c0-1.27.6-1.8,1.9-1.8h8.14c1.3,0,1.9.53,1.9,1.8v5.59Zm-1.68-5.4a0.53,0.53,0,0,0-.65-0.6h-7.3a0.52,0.52,0,0,0-.62.6v0.65h8.57v-0.65Zm0,1.94h-8.57v1.25h8.57v-1.25Zm0,2.52h-8.57v0.72a0.53,0.53,0,0,0,.62.6h7.3a0.54,0.54,0,0,0,.65-0.6v-0.72Zm2.35,6.5a1.38,1.38,0,0,1-.29,0,14.45,14.45,0,0,1-4.56-1.92,0.76,0.76,0,0,1-.36-0.65,0.75,0.75,0,0,1,.22-0.53,1.08,1.08,0,0,1,.72-0.29,1,1,0,0,1,.53.14,14,14,0,0,0,4,1.61,0.71,0.71,0,0,1,.6.72c0,0.1,0,.22,0,0.31A0.82,0.82,0,0,1,195.85,174.71Z" style="fill:#fff"/><path d="M96,67.55c2.46,0,4.1,1.32,4.1,3.53a6.22,6.22,0,0,1-.63,2.65,48.89,48.89,0,0,1-6.17,9.83,46.15,46.15,0,0,0,7.06,6.17,2.23,2.23,0,0,1,1,1.89A2.54,2.54,0,0,1,101,93a2.13,2.13,0,0,1-1.83,1,2.55,2.55,0,0,1-1.32-.44A34.87,34.87,0,0,1,92,87.9c0.25,2.77.44,5.67,0.44,8.51v16.95c0,1.39-.94,2.08-2.39,2.08a2,2,0,0,1-2.33-2.08V97.17a78.22,78.22,0,0,1,.38-7.81,86.31,86.31,0,0,1-6.62,6.36,2.5,2.5,0,0,1-1.39.5,2.45,2.45,0,0,1-1.89-.88,2.55,2.55,0,0,1-.57-1.58,2.28,2.28,0,0,1,1-1.83c6.62-4.73,12.85-11.53,16.19-18.65A1.64,1.64,0,0,0,95,72.59c0-.5-0.31-0.76-1-0.76H80.4c-1.13,0-1.76-.88-1.76-2.14s0.63-2.14,1.76-2.14h7.31V58.61c0-1.07.94-1.76,2.39-1.76s2.39,0.63,2.39,1.76v8.95H96Zm20.1-8.82c0-1.13.94-1.76,2.33-1.76s2.33,0.63,2.33,1.76v7.81h9.14c3.65,0,5.35,1.45,5.35,5.23V93.26c0,3.78-1.7,5.23-5.35,5.23h-9.14v15.18c0,1.13-.88,1.76-2.33,1.76s-2.33-.63-2.33-1.76V98.49h-8.44c-3.59,0-5.29-1.45-5.29-5.23V71.78c0-3.78,1.7-5.23,5.29-5.23h8.44V58.73Zm-7.37,12.16c-1.26,0-1.83.31-1.83,1.64v7.62h9.2V70.89h-7.37Zm-1.83,13.42V92.5c0,1.32.57,1.64,1.83,1.64h7.37V84.31h-9.2Zm23.82-4.16V72.53c0-1.32-.57-1.64-1.83-1.64h-8.13v9.26h10Zm-1.83,14c1.26,0,1.83-.31,1.83-1.64V84.31h-10v9.83h8.13Z" style="fill:#fff"/><path d="M198.22,61.44c1.13,0,1.64.82,1.64,2s-0.5,2.14-1.64,2.14H152.67c-2.21,0-2.9.76-2.9,2.52,0,7.81,0,18.15-.5,25.77-0.5,6.93-2.08,14.36-4,19a2.35,2.35,0,0,1-2.21,1.76,3.37,3.37,0,0,1-1.26-.31,2.17,2.17,0,0,1-1.51-2,4,4,0,0,1,.31-1.39,59.15,59.15,0,0,0,3.84-18.4c0.44-7.31.5-17.45,0.5-24.89,0-4.16,2.08-6.11,6-6.11H169.8V57.92c0-1.13,1-1.58,2.46-1.58s2.46,0.44,2.46,1.58v3.53h23.5Zm-28,18.33c3.28,0,4.66,1.13,4.66,4.22V94.27c0,3.21-1.45,4.35-4.79,4.35h-3.84v4.28h6.87a1.62,1.62,0,0,1,1.45,1.83c0,1.13-.57,2-1.45,2h-6.87v7.06c0,1-.76,1.7-2.08,1.7s-2.08-.69-2.08-1.7v-7.06h-10c-0.88,0-1.45-.88-1.45-2a1.62,1.62,0,0,1,1.45-1.83h10V98.62H158.4c-3.28,0-4.66-1.13-4.66-4.35V84c0-3.09,1.39-4.22,4.6-4.22h3.72V75.62h-8.57a2,2,0,0,1,0-3.78h8.57V69.13c0-1.07.69-1.64,2.08-1.64s2.14,0.63,2.14,1.64v2.71h9.07a2,2,0,0,1,0,3.78h-9.07v4.16h4Zm0.69,7.56V84.63c0-1.2-.57-1.45-1.7-1.45h-9.83c-1.13,0-1.7.25-1.7,1.45v2.71h13.23Zm-13.23,6.43c0,1.2.57,1.45,1.7,1.45h9.83c1.13,0,1.7-.25,1.7-1.45v-3H157.71v3Zm25,4.16a39.32,39.32,0,0,1-.69,4.35,38.47,38.47,0,0,1-4.6,11.66,2.3,2.3,0,0,1-2,1.32,2.43,2.43,0,0,1-1.26-.38,2.17,2.17,0,0,1-1.13-1.76,3,3,0,0,1,.63-1.7,30.62,30.62,0,0,0,4.28-11,96,96,0,0,0,1.13-16.82V74.67c0-3.65,1.51-4.91,5.1-4.91h8.69c3.4,0,4.85,1.26,4.85,4.91v34.72c0,3.78-2.08,5.54-6.3,5.54a24.43,24.43,0,0,1-5.17-.57,2,2,0,0,1-1.51-2,2.14,2.14,0,0,1,.06-0.63c0.25-1.2.88-1.76,1.7-1.76a1.07,1.07,0,0,1,.44.06,15.14,15.14,0,0,0,3.72.5c2.27,0,2.77-.44,2.77-2.27V97.92H182.72Zm0.63-12c0,2.71-.13,5.36-0.25,8.06h10.4V85.89H183.35Zm10.14-10.52c0-1.26-.5-1.51-1.58-1.51H185c-1.13,0-1.7.25-1.7,1.51v6.55h10.14V75.37Z" style="fill:#fff"/></g><g id="alpha"><rect width="1280" height="800" style="fill:none"/></g></svg>