<svg id="scene01" xmlns="http://www.w3.org/2000/svg" viewBox="0 0 1280 800"><title>scene01</title><g id="pencil"><path d="M896.54,357.39l-520.8.54a42.6,42.6,0,1,0,.09,85.21l520.8-.54c0.93,0,1.84-.09,2.75-0.14l-0.09-84.93C898.37,357.48,897.46,357.4,896.54,357.39Z" style="fill:#eac247"/><path d="M896.59,413l-520.8.54c-23.53,0-42.6,4.9-42.59,10.89s19.08,10.82,42.61,10.8l520.8-.54c0.92,0,1.83,0,2.74,0l0-21.61C898.42,413,897.52,413,896.59,413Z" style="fill:#dd8026"/><path d="M896.54,367.29l-520.8.54c-23.53,0-42.6,4.9-42.59,10.89s19.09,10.82,42.61,10.8l520.8-.54c0.93,0,1.84,0,2.75,0l0-21.62C898.38,367.31,897.47,367.28,896.54,367.29Z" style="fill:#dd8026"/><rect x="299.33" y="360.09" width="62.79" height="80.83" transform="translate(-0.41 0.34) rotate(-0.06)" style="fill:#dc8097"/><polygon points="897.3 356.5 981.03 399.91 897.38 443.5 897.3 356.5" style="fill:#f5f3ce"/><polygon points="943.67 380.98 980.2 399.91 943.71 418.92 943.67 380.98" style="fill:#717071"/><path d="M826.91,435H897V358.57S895.43,430,826.91,435Z" style="fill:#999;opacity:0.30000000000000004"/><rect x="361" y="434" width="536" height="8" style="fill:#999;opacity:0.30000000000000004"/><path d="M299,439h63V360.36S361.27,435,299,439Z" style="fill:#999;opacity:0.30000000000000004"/></g><g id="triangle"><polygon points="397 189.89 445.9 274.95 494.8 360 397 360 299.2 360 348.1 274.95 397 189.89" style="fill:#6eac66"/><path d="M299.5,360h195L397.1,190.18S507.38,366,299.5,360Z" style="fill:#b3b3b3;opacity:0.30000000000000004"/></g><g id="s1_title"><rect x="63.16" y="40.19" width="149.99" height="149.99" style="fill:none;stroke:#fff;stroke-linejoin:round;stroke-width:5px"/><path d="M81.33,166.45a8.92,8.92,0,0,1,.18-1.94,21.19,21.19,0,0,1-3.28,2.93,1.16,1.16,0,0,1-.64.24,0.74,0.74,0,0,1-.64-0.37,0.88,0.88,0,0,1-.18-0.51,0.78,0.78,0,0,1,.4-0.66,19.39,19.39,0,0,0,6.29-6.93H77.79a0.7,0.7,0,0,1-.62-0.81,0.67,0.67,0,0,1,.62-0.79h6.47a14.39,14.39,0,0,0,.75-2.2,0.7,0.7,0,0,1,.75-0.57,1.07,1.07,0,0,1,.26,0,0.66,0.66,0,0,1,.64.64,1.1,1.1,0,0,1,0,.26c-0.18.62-.4,1.23-0.64,1.85H96.54a0.67,0.67,0,0,1,.64.79,0.7,0.7,0,0,1-.64.81H85.23a29,29,0,0,1-1.5,2.51,9.07,9.07,0,0,1,1.85-.15h6.84c1.34,0,2,.55,2,1.85V173c0,1.54-.79,2.11-2.66,2.11a10.55,10.55,0,0,1-2.38-.24,0.74,0.74,0,0,1-.62-0.75,1,1,0,0,1,0-.24,0.72,0.72,0,0,1,.68-0.62,0.43,0.43,0,0,1,.22,0,7.93,7.93,0,0,0,1.83.26c1,0,1.25-.18,1.25-0.92v-2.27H83v4.29a0.73,0.73,0,0,1-.84.66,0.74,0.74,0,0,1-.86-0.66v-8.25Zm11.4-2.79a0.54,0.54,0,0,0-.66-0.59H83.69a0.54,0.54,0,0,0-.66.59v1.58h9.7v-1.58ZM83,168.92h9.7v-2.18H83v2.18Z" style="fill:#fff"/><path d="M101.46,171.71a0.61,0.61,0,0,1,0,.2,11.3,11.3,0,0,1-1.21,3.19,0.69,0.69,0,0,1-.62.4,0.9,0.9,0,0,1-.4-0.11,0.69,0.69,0,0,1-.42-0.62,0.91,0.91,0,0,1,.13-0.44,10,10,0,0,0,1.1-2.86,0.6,0.6,0,0,1,.64-0.44,0.75,0.75,0,0,1,.22,0A0.66,0.66,0,0,1,101.46,171.71Zm-0.4-7.88a1.37,1.37,0,0,1-1.58-1.61v-4.77a1.38,1.38,0,0,1,1.58-1.63h6.34a1.35,1.35,0,0,1,1.52,1.63v4.77a1.35,1.35,0,0,1-1.52,1.61h-2.46v1.65h3.43a0.57,0.57,0,0,1,.55.66,0.6,0.6,0,0,1-.55.68h-3.43v1.76c1.3-.11,2.55-0.24,3.56-0.37a0.28,0.28,0,0,1,.13,0,0.55,0.55,0,0,1,.55.55v0.11a0.61,0.61,0,0,1-.48.66c-2.57.37-6.29,0.7-9.15,0.84h0a0.66,0.66,0,0,1-.64-0.73,0.6,0.6,0,0,1,.62-0.7c1.25,0,2.66-.11,4-0.22v-1.87H99.94a0.6,0.6,0,0,1-.55-0.68,0.57,0.57,0,0,1,.55-0.66h3.59v-1.65h-2.46Zm0.42-6.67a0.49,0.49,0,0,0-.59.57V162a0.48,0.48,0,0,0,.59.55h2v-5.37h-2Zm0.42,0.95a0.5,0.5,0,0,1,.48.4,12.91,12.91,0,0,1,.64,2.4,0.43,0.43,0,0,1,0,.15,0.59,0.59,0,0,1-.48.59,0.69,0.69,0,0,1-.18,0,0.48,0.48,0,0,1-.48-0.44,15,15,0,0,0-.59-2.42,0.55,0.55,0,0,1,.37-0.68A1,1,0,0,1,101.9,158.11ZM103.2,171a0.59,0.59,0,0,1,.64.55,18,18,0,0,1,.35,3,0.64,0.64,0,0,1-.68.7h-0.07a0.62,0.62,0,0,1-.7-0.66,19.5,19.5,0,0,0-.26-2.93v-0.11A0.58,0.58,0,0,1,103,171h0.15Zm3.78-8.45a0.46,0.46,0,0,0,.55-0.55v-4.25a0.47,0.47,0,0,0-.55-0.57h-2v5.37h2ZM107,174a0.67,0.67,0,0,1-.53.68,0.75,0.75,0,0,1-.22,0,0.56,0.56,0,0,1-.57-0.53,22.81,22.81,0,0,0-.59-2.73,0.78,0.78,0,0,1,0-.22,0.52,0.52,0,0,1,.46-0.48l0.24,0a0.51,0.51,0,0,1,.53.37,14.8,14.8,0,0,1,.7,2.79A0.2,0.2,0,0,1,107,174Zm0.07-15.31a0.28,0.28,0,0,1,0,.13,13.33,13.33,0,0,1-.68,2.6,0.52,0.52,0,0,1-.51.4,0.58,0.58,0,0,1-.24-0.07,0.51,0.51,0,0,1-.33-0.46,1.69,1.69,0,0,1,0-.31,12.52,12.52,0,0,0,.64-2.44,0.45,0.45,0,0,1,.46-0.4,0.61,0.61,0,0,1,.2,0A0.52,0.52,0,0,1,107.07,158.64Zm1,11.66a0.61,0.61,0,0,1,.55.35,11.48,11.48,0,0,1,.77,2.11,0.68,0.68,0,0,1,0,.22,0.63,0.63,0,0,1-.42.62,1.52,1.52,0,0,1-.29,0,0.49,0.49,0,0,1-.51-0.44,16.31,16.31,0,0,0-.75-2.07,0.86,0.86,0,0,1-.07-0.31,0.55,0.55,0,0,1,.42-0.48A1.11,1.11,0,0,1,108.06,170.3Zm8.78-5.17c1.28,0,1.89.48,1.89,1.83v6.09c0,1.32-.62,1.8-1.89,1.8h-5.3c-1.28,0-1.87-.48-1.87-1.8V167a1.58,1.58,0,0,1,1.87-1.83h1.41v-9.2a0.68,0.68,0,0,1,.81-0.64,0.69,0.69,0,0,1,.84.64v3.54h4.11a0.81,0.81,0,0,1,0,1.58H114.6v4.07h2.24Zm-5.59,7.48a0.55,0.55,0,0,0,.66.64h4.53a0.55,0.55,0,0,0,.68-0.64v-5.24a0.56,0.56,0,0,0-.68-0.66h-4.53a0.55,0.55,0,0,0-.66.66v5.24Z" style="fill:#fff"/><path d="M132.22,173c0,1.47-.77,2.09-2.88,2.09a10.23,10.23,0,0,1-2.53-.29,0.82,0.82,0,0,1-.62-0.84,0.56,0.56,0,0,1,0-.26,0.77,0.77,0,0,1,.75-0.66,0.6,0.6,0,0,1,.2,0,9.56,9.56,0,0,0,1.89.26c1.21,0,1.39-.18,1.39-0.86v-6.67h-8.71a0.74,0.74,0,0,1-.64-0.86,0.71,0.71,0,0,1,.64-0.84h8.71v-2.4a0.75,0.75,0,0,1,.88-0.66,1.31,1.31,0,0,1,.33,0,18.86,18.86,0,0,0,4.62-3,0.46,0.46,0,0,0,.2-0.31c0-.09-0.09-0.15-0.26-0.15H124.08a0.7,0.7,0,0,1-.66-0.81,0.73,0.73,0,0,1,.66-0.84h13.31a1.33,1.33,0,0,1,1.54,1.28,1.73,1.73,0,0,1-.51,1.14,22.78,22.78,0,0,1-6.21,4.14v1.56h8.27a0.71,0.71,0,0,1,.64.84,0.74,0.74,0,0,1-.64.86h-8.27V173Z" style="fill:#fff"/><path d="M153.14,172.72c0,1.63-1,2.24-3,2.24a11.5,11.5,0,0,1-2.82-.31,0.74,0.74,0,0,1-.62-0.77,0.65,0.65,0,0,1,0-.29,0.77,0.77,0,0,1,.75-0.68,0.52,0.52,0,0,1,.24,0,8.91,8.91,0,0,0,2.16.29c1.1,0,1.36-.2,1.36-1v-9.95a0.8,0.8,0,0,1,.9-0.68,2.43,2.43,0,0,1,.4,0,24.36,24.36,0,0,0,5.76-3.56,0.38,0.38,0,0,0,.13-0.24c0-.11-0.11-0.2-0.33-0.2H144.08a0.75,0.75,0,0,1-.7-0.86,0.72,0.72,0,0,1,.7-0.81h15.05a1.48,1.48,0,0,1,1.72,1.36,1.91,1.91,0,0,1-.66,1.34,28.37,28.37,0,0,1-7,4.51v9.48Z" style="fill:#fff"/><path d="M169.33,169.27c0,1.39-.55,1.85-1.74,1.85h-2.24c-1.21,0-1.76-.46-1.76-1.85v-11c0-1.36.55-1.83,1.76-1.83h2.24c1.19,0,1.74.46,1.74,1.83v11Zm-4.16-.2a0.46,0.46,0,0,0,.55.55h1.5a0.46,0.46,0,0,0,.55-0.55V158.44a0.46,0.46,0,0,0-.55-0.55h-1.5a0.46,0.46,0,0,0-.55.55v10.63Zm6.78,0v0.15a15.85,15.85,0,0,1-1.5,4.73,0.94,0.94,0,0,1-.81.48,0.73,0.73,0,0,1-.37-0.09,0.66,0.66,0,0,1-.4-0.64,1.08,1.08,0,0,1,.15-0.53,15.21,15.21,0,0,0,1.43-4.22,0.65,0.65,0,0,1,.68-0.59,0.82,0.82,0,0,1,.22,0A0.65,0.65,0,0,1,172,169.09Zm9.15-3c1.23,0,1.8.44,1.8,1.61a25.52,25.52,0,0,1-.81,6,2.11,2.11,0,0,1-2.38,1.52,9.15,9.15,0,0,1-1.94-.2,0.67,0.67,0,0,1-.57-0.68,0.75,0.75,0,0,1,0-.22,0.65,0.65,0,0,1,.66-0.57,0.68,0.68,0,0,1,.22,0,6.11,6.11,0,0,0,1.45.18,1,1,0,0,0,1.17-.88,19.55,19.55,0,0,0,.57-4.8,0.51,0.51,0,0,0-.62-0.59h-8.14c-1.23,0-1.83-.46-1.83-1.65v-8.43c0-1.17.62-1.63,1.8-1.63h9.73a0.59,0.59,0,0,1,.59.68,0.64,0.64,0,0,1-.59.73H177.5v2h4a0.58,0.58,0,0,1,.55.66,0.57,0.57,0,0,1-.55.66h-4v2h4a0.58,0.58,0,0,1,.55.66,0.57,0.57,0,0,1-.55.66h-4v2.27h3.61Zm-5-6.91v-2H172.9c-0.44,0-.64.11-0.64,0.55v1.47h3.81Zm-3.81,3.32h3.81v-2h-3.81v2Zm0,3c0,0.46.2,0.57,0.64,0.57h3.17v-2.27h-3.81v1.69Zm1.47,3a0.61,0.61,0,0,1,.66.53,28.8,28.8,0,0,1,.26,4,0.71,0.71,0,0,1-.7.79h-0.09a0.74,0.74,0,0,1-.73-0.79v-0.59c0-1.06,0-2.22-.13-3.3v-0.07a0.65,0.65,0,0,1,.62-0.62h0.11Zm2.55-.18a0.66,0.66,0,0,1,.64.46,21.91,21.91,0,0,1,.66,3.21v0.07a0.7,0.7,0,0,1-.59.64,0.37,0.37,0,0,1-.15,0,0.65,0.65,0,0,1-.66-0.66,27.19,27.19,0,0,0-.53-2.93,1.13,1.13,0,0,1,0-.24,0.57,0.57,0,0,1,.48-0.55A0.61,0.61,0,0,1,176.29,168.36Zm2.42-.18a0.62,0.62,0,0,1,.57.35,14.41,14.41,0,0,1,1,2.44,1.62,1.62,0,0,1,0,.26,0.61,0.61,0,0,1-.46.62,0.65,0.65,0,0,1-.22,0,0.63,0.63,0,0,1-.64-0.4,17.6,17.6,0,0,0-.88-2.51,1.14,1.14,0,0,1,0-.24,0.57,0.57,0,0,1,.4-0.53A1.11,1.11,0,0,1,178.71,168.19Z" style="fill:#fff"/><path d="M193.27,168.74a0.85,0.85,0,0,1-1,.86,0.88,0.88,0,0,1-1-.86v-0.62a4,4,0,0,1,.81-2.86,6.67,6.67,0,0,1,2-1.67c1.63-1.14,2.11-1.72,2.11-2.84,0-1.63-1.25-2.66-3.34-2.66a3.52,3.52,0,0,0-3.65,2.53,0.93,0.93,0,0,1-.92.73,2.42,2.42,0,0,1-.4,0,0.94,0.94,0,0,1-.81-0.86,1.22,1.22,0,0,1,.07-0.37,5.35,5.35,0,0,1,1.65-2.51,6.24,6.24,0,0,1,4.18-1.28c3.26,0,5.35,1.69,5.35,4.38,0,1.83-.9,2.84-2.6,4s-2.44,1.76-2.44,3.45v0.59Zm0.51,3.67a1.52,1.52,0,1,1-1.52-1.52A1.47,1.47,0,0,1,193.78,172.41Z" style="fill:#fff"/><path d="M80,113.36a1.72,1.72,0,0,1-1.64-2A1.58,1.58,0,0,1,80,109.58H134.9a1.66,1.66,0,0,1,1.7,1.83,1.72,1.72,0,0,1-1.64,2H80ZM104.6,62.89H86a1.48,1.48,0,0,1-1.51-1.7A1.46,1.46,0,0,1,86,59.55H104.6V57.66c0-1.32.69-1.83,2.21-1.83s2.14,0.5,2.14,1.83v1.89h15.5c3.72,0,5.17,1.32,5.17,4.54v2h5.29a1.49,1.49,0,0,1,1.51,1.64,1.51,1.51,0,0,1-1.51,1.7h-5.29v2c0,3.21-1.45,4.54-5.17,4.54h-15.5v3h21.17a1.68,1.68,0,0,1,.06,3.34H108.94v3h26a1.54,1.54,0,0,1,1.58,1.64,1.63,1.63,0,0,1-1.58,1.83H80A1.57,1.57,0,0,1,78.51,87,1.51,1.51,0,0,1,80,85.26H104.6v-3H84.69a1.5,1.5,0,0,1-1.45-1.7,1.43,1.43,0,0,1,1.39-1.64h20v-3H85.82a1.43,1.43,0,0,1-1.45-1.58,1.5,1.5,0,0,1,1.45-1.7H104.6V69.38H80.15a1.47,1.47,0,0,1-1.45-1.7A1.42,1.42,0,0,1,80.15,66H104.6V62.89Zm20.48,28.67c3.34,0,4.73,1.13,4.73,3.91v7.25c0,2.71-1.39,3.84-4.73,3.84h-35c-3.47,0-4.79-1.13-4.79-3.84V95.47c0-2.77,1.32-3.91,4.79-3.91h35ZM105,94.46H91.56c-1.13,0-1.7.25-1.7,1.2v2H105V94.46Zm0,5.92H89.85v2c0,1,.57,1.26,1.7,1.26H105v-3.28ZM125.14,66v-1.7c0-1.13-.57-1.45-1.76-1.45H108.94V66h16.19Zm-16.19,6.55h14.43c1.2,0,1.76-.31,1.76-1.45V69.38H108.94v3.21Zm16.32,25v-2c0-.95-0.57-1.2-1.7-1.2H109.13v3.15h16.13Zm-1.7,6c1.13,0,1.7-.25,1.7-1.26v-2H109.13v3.28h14.43Z" style="fill:#fff"/><path d="M165.77,70.89a64.61,64.61,0,0,1-7.56,12.22,6,6,0,0,1,2.9-.76h9.64v-6c0-1.2,1.07-1.83,2.46-1.83s2.46,0.63,2.46,1.83v6h13.17c3.91,0,5.54,1.58,5.54,5.23v15.5c0,4.47-2,6.43-7.18,6.43a33.2,33.2,0,0,1-6-.5,1.85,1.85,0,0,1-1.58-2,2.59,2.59,0,0,1,.06-0.69,2,2,0,0,1,2-2,1.07,1.07,0,0,1,.44.06,21.54,21.54,0,0,0,4.41.5c2.52,0,3-.69,3-2.71V88.53c0-1.32-.69-1.76-1.89-1.76h-12v26.84c0,1.2-1,1.83-2.46,1.83s-2.46-.63-2.46-1.83V86.77H160c-1.26,0-1.89.44-1.89,1.76v20.22c0,1.13-1,1.83-2.46,1.83s-2.39-.69-2.39-1.83V91.06a7.59,7.59,0,0,1,.57-2.84,83.06,83.06,0,0,1-8.25,7.37,3,3,0,0,1-1.76.69,2.3,2.3,0,0,1-1.89-1.13,2.89,2.89,0,0,1-.5-1.51,2.37,2.37,0,0,1,1.2-2.08,56.74,56.74,0,0,0,18-20.67H143.66c-1.2,0-1.83-.95-1.83-2.33s0.63-2.27,1.83-2.27h19a54.64,54.64,0,0,0,2.52-7.88,2.11,2.11,0,0,1,2.21-1.57,3.07,3.07,0,0,1,.76.06c1.32,0.19,2.08.88,2.08,1.89a2.68,2.68,0,0,1-.13.69,61.44,61.44,0,0,1-2.27,6.8h29.86c1.2,0,1.83.95,1.83,2.27s-0.63,2.33-1.83,2.33H165.77Z" style="fill:#fff"/></g><g id="alpha"><rect id="alpha-2" data-name="alpha" width="1280" height="800" style="fill:none"/></g></svg>